ISO-10303-21;
HEADER;
FILE_DESCRIPTION((''),'2;1');
FILE_NAME('ADAPTOR','2026-04-27T16:54:06',('user'),(''),
'CREO PARAMETRIC BY PTC INC, 2025102','CREO PARAMETRIC BY PTC INC, 2025102','');
FILE_SCHEMA(('CONFIG_CONTROL_DESIGN'));
ENDSEC;
DATA;
#1=CARTESIAN_POINT('',(0.E0,0.E0,0.E0));
#2=DIRECTION('',(-1.E0,0.E0,0.E0));
#3=DIRECTION('',(0.E0,-1.E0,0.E0));
#4=AXIS2_PLACEMENT_3D('',#1,#2,#3);
#6=CARTESIAN_POINT('',(0.E0,0.E0,0.E0));
#7=DIRECTION('',(-1.E0,0.E0,0.E0));
#8=DIRECTION('',(0.E0,1.E0,0.E0));
#9=AXIS2_PLACEMENT_3D('',#6,#7,#8);
#11=CARTESIAN_POINT('',(0.E0,0.E0,8.E1));
#12=DIRECTION('',(-1.E0,0.E0,0.E0));
#13=DIRECTION('',(0.E0,-1.E0,0.E0));
#14=AXIS2_PLACEMENT_3D('',#11,#12,#13);
#16=CARTESIAN_POINT('',(0.E0,0.E0,8.E1));
#17=DIRECTION('',(-1.E0,0.E0,0.E0));
#18=DIRECTION('',(0.E0,1.E0,0.E0));
#19=AXIS2_PLACEMENT_3D('',#16,#17,#18);
#21=DIRECTION('',(0.E0,0.E0,-1.E0));
#22=VECTOR('',#21,1.E1);
#23=CARTESIAN_POINT('',(0.E0,-1.8E1,1.08E2));
#24=LINE('',#23,#22);
#25=DIRECTION('',(0.E0,1.E0,0.E0));
#26=VECTOR('',#25,5.E0);
#27=CARTESIAN_POINT('',(0.E0,-2.3E1,9.8E1));
#28=LINE('',#27,#26);
#29=DIRECTION('',(0.E0,0.E0,1.E0));
#30=VECTOR('',#29,1.E1);
#31=CARTESIAN_POINT('',(0.E0,-2.3E1,8.8E1));
#32=LINE('',#31,#30);
#33=DIRECTION('',(0.E0,-1.E0,0.E0));
#34=VECTOR('',#33,1.E1);
#35=CARTESIAN_POINT('',(0.E0,-1.3E1,8.8E1));
#36=LINE('',#35,#34);
#37=DIRECTION('',(0.E0,0.E0,-1.E0));
#38=VECTOR('',#37,9.8E1);
#39=CARTESIAN_POINT('',(0.E0,-1.3E1,8.8E1));
#40=LINE('',#39,#38);
#41=DIRECTION('',(0.E0,1.E0,0.E0));
#42=VECTOR('',#41,1.3E1);
#43=CARTESIAN_POINT('',(0.E0,-1.3E1,-1.E1));
#44=LINE('',#43,#42);
#45=DIRECTION('',(0.E0,1.E0,0.E0));
#46=VECTOR('',#45,1.E1);
#47=CARTESIAN_POINT('',(0.E0,0.E0,-1.E1));
#48=LINE('',#47,#46);
#49=DIRECTION('',(0.E0,0.E0,1.E0));
#50=VECTOR('',#49,1.18E2);
#51=CARTESIAN_POINT('',(0.E0,1.E1,-1.E1));
#52=LINE('',#51,#50);
#53=DIRECTION('',(1.E0,0.E0,0.E0));
#54=VECTOR('',#53,7.E0);
#55=CARTESIAN_POINT('',(0.E0,-4.E0,0.E0));
#56=LINE('',#55,#54);
#57=DIRECTION('',(1.E0,0.E0,0.E0));
#58=VECTOR('',#57,7.E0);
#59=CARTESIAN_POINT('',(0.E0,4.E0,0.E0));
#60=LINE('',#59,#58);
#61=CARTESIAN_POINT('',(7.E0,0.E0,0.E0));
#62=DIRECTION('',(-1.E0,0.E0,0.E0));
#63=DIRECTION('',(0.E0,-1.E0,0.E0));
#64=AXIS2_PLACEMENT_3D('',#61,#62,#63);
#66=CARTESIAN_POINT('',(7.E0,0.E0,0.E0));
#67=DIRECTION('',(-1.E0,0.E0,0.E0));
#68=DIRECTION('',(0.E0,1.E0,0.E0));
#69=AXIS2_PLACEMENT_3D('',#66,#67,#68);
#71=CARTESIAN_POINT('',(7.E0,0.E0,8.E1));
#72=DIRECTION('',(-1.E0,0.E0,0.E0));
#73=DIRECTION('',(0.E0,-1.E0,0.E0));
#74=AXIS2_PLACEMENT_3D('',#71,#72,#73);
#76=CARTESIAN_POINT('',(7.E0,0.E0,8.E1));
#77=DIRECTION('',(-1.E0,0.E0,0.E0));
#78=DIRECTION('',(0.E0,1.E0,0.E0));
#79=AXIS2_PLACEMENT_3D('',#76,#77,#78);
#81=DIRECTION('',(0.E0,0.E0,-1.E0));
#82=VECTOR('',#81,9.8E1);
#83=CARTESIAN_POINT('',(7.E0,-1.3E1,8.8E1));
#84=LINE('',#83,#82);
#85=DIRECTION('',(0.E0,-1.E0,0.E0));
#86=VECTOR('',#85,1.E1);
#87=CARTESIAN_POINT('',(7.E0,-1.3E1,8.8E1));
#88=LINE('',#87,#86);
#89=DIRECTION('',(0.E0,0.E0,1.E0));
#90=VECTOR('',#89,2.E1);
#91=CARTESIAN_POINT('',(7.E0,-2.3E1,8.8E1));
#92=LINE('',#91,#90);
#93=DIRECTION('',(0.E0,0.E0,1.E0));
#94=VECTOR('',#93,1.18E2);
#95=CARTESIAN_POINT('',(7.E0,1.E1,-1.E1));
#96=LINE('',#95,#94);
#97=DIRECTION('',(0.E0,1.E0,0.E0));
#98=VECTOR('',#97,1.E1);
#99=CARTESIAN_POINT('',(7.E0,0.E0,-1.E1));
#100=LINE('',#99,#98);
#101=DIRECTION('',(0.E0,1.E0,0.E0));
#102=VECTOR('',#101,1.3E1);
#103=CARTESIAN_POINT('',(7.E0,-1.3E1,-1.E1));
#104=LINE('',#103,#102);
#105=DIRECTION('',(1.E0,0.E0,0.E0));
#106=VECTOR('',#105,7.E0);
#107=CARTESIAN_POINT('',(0.E0,-4.E0,8.E1));
#108=LINE('',#107,#106);
#109=DIRECTION('',(1.E0,0.E0,0.E0));
#110=VECTOR('',#109,7.E0);
#111=CARTESIAN_POINT('',(0.E0,4.E0,8.E1));
#112=LINE('',#111,#110);
#113=DIRECTION('',(1.E0,0.E0,0.E0));
#114=VECTOR('',#113,7.E0);
#115=CARTESIAN_POINT('',(0.E0,-1.3E1,8.8E1));
#116=LINE('',#115,#114);
#117=DIRECTION('',(-1.E0,0.E0,0.E0));
#118=VECTOR('',#117,2.E0);
#119=CARTESIAN_POINT('',(0.E0,-2.3E1,9.8E1));
#120=LINE('',#119,#118);
#121=DIRECTION('',(1.E0,0.E0,0.E0));
#122=VECTOR('',#121,9.E0);
#123=CARTESIAN_POINT('',(-2.E0,-2.3E1,1.08E2));
#124=LINE('',#123,#122);
#125=DIRECTION('',(1.E0,0.E0,0.E0));
#126=VECTOR('',#125,7.E0);
#127=CARTESIAN_POINT('',(0.E0,-2.3E1,8.8E1));
#128=LINE('',#127,#126);
#129=DIRECTION('',(-1.E0,0.E0,0.E0));
#130=VECTOR('',#129,2.E0);
#131=CARTESIAN_POINT('',(0.E0,-1.8E1,9.8E1));
#132=LINE('',#131,#130);
#133=DIRECTION('',(-1.E0,0.E0,0.E0));
#134=VECTOR('',#133,2.E0);
#135=CARTESIAN_POINT('',(0.E0,-1.8E1,1.08E2));
#136=LINE('',#135,#134);
#137=DIRECTION('',(0.E0,1.E0,0.E0));
#138=VECTOR('',#137,2.8E1);
#139=CARTESIAN_POINT('',(0.E0,-1.8E1,1.08E2));
#140=LINE('',#139,#138);
#141=DIRECTION('',(1.E0,0.E0,0.E0));
#142=VECTOR('',#141,7.E0);
#143=CARTESIAN_POINT('',(0.E0,1.E1,1.08E2));
#144=LINE('',#143,#142);
#145=DIRECTION('',(0.E0,-1.E0,0.E0));
#146=VECTOR('',#145,3.3E1);
#147=CARTESIAN_POINT('',(7.E0,1.E1,1.08E2));
#148=LINE('',#147,#146);
#149=DIRECTION('',(0.E0,1.E0,0.E0));
#150=VECTOR('',#149,5.E0);
#151=CARTESIAN_POINT('',(-2.E0,-2.3E1,1.08E2));
#152=LINE('',#151,#150);
#153=DIRECTION('',(0.E0,0.E0,1.E0));
#154=VECTOR('',#153,1.E1);
#155=CARTESIAN_POINT('',(-2.E0,-2.3E1,9.8E1));
#156=LINE('',#155,#154);
#157=DIRECTION('',(0.E0,-1.E0,0.E0));
#158=VECTOR('',#157,5.E0);
#159=CARTESIAN_POINT('',(-2.E0,-1.8E1,9.8E1));
#160=LINE('',#159,#158);
#161=DIRECTION('',(0.E0,0.E0,-1.E0));
#162=VECTOR('',#161,1.E1);
#163=CARTESIAN_POINT('',(-2.E0,-1.8E1,1.08E2));
#164=LINE('',#163,#162);
#165=DIRECTION('',(1.E0,0.E0,0.E0));
#166=VECTOR('',#165,7.E0);
#167=CARTESIAN_POINT('',(0.E0,1.E1,-1.E1));
#168=LINE('',#167,#166);
#169=DIRECTION('',(1.E0,0.E0,0.E0));
#170=VECTOR('',#169,7.E0);
#171=CARTESIAN_POINT('',(0.E0,0.E0,-1.E1));
#172=LINE('',#171,#170);
#173=DIRECTION('',(1.E0,0.E0,0.E0));
#174=VECTOR('',#173,7.E0);
#175=CARTESIAN_POINT('',(0.E0,-1.3E1,-1.E1));
#176=LINE('',#175,#174);
#177=CARTESIAN_POINT('',(0.E0,-4.E0,0.E0));
#178=CARTESIAN_POINT('',(0.E0,4.E0,0.E0));
#179=VERTEX_POINT('',#177);
#180=VERTEX_POINT('',#178);
#181=CARTESIAN_POINT('',(0.E0,-4.E0,8.E1));
#182=CARTESIAN_POINT('',(0.E0,4.E0,8.E1));
#183=VERTEX_POINT('',#181);
#184=VERTEX_POINT('',#182);
#185=CARTESIAN_POINT('',(0.E0,0.E0,-1.E1));
#186=CARTESIAN_POINT('',(0.E0,1.E1,-1.E1));
#187=VERTEX_POINT('',#185);
#188=VERTEX_POINT('',#186);
#189=CARTESIAN_POINT('',(0.E0,1.E1,1.08E2));
#190=VERTEX_POINT('',#189);
#191=CARTESIAN_POINT('',(0.E0,-1.3E1,-1.E1));
#192=VERTEX_POINT('',#191);
#193=CARTESIAN_POINT('',(7.E0,-4.E0,0.E0));
#194=CARTESIAN_POINT('',(7.E0,4.E0,0.E0));
#195=VERTEX_POINT('',#193);
#196=VERTEX_POINT('',#194);
#197=CARTESIAN_POINT('',(7.E0,-4.E0,8.E1));
#198=CARTESIAN_POINT('',(7.E0,4.E0,8.E1));
#199=VERTEX_POINT('',#197);
#200=VERTEX_POINT('',#198);
#201=CARTESIAN_POINT('',(7.E0,0.E0,-1.E1));
#202=CARTESIAN_POINT('',(7.E0,1.E1,-1.E1));
#203=VERTEX_POINT('',#201);
#204=VERTEX_POINT('',#202);
#205=CARTESIAN_POINT('',(7.E0,1.E1,1.08E2));
#206=VERTEX_POINT('',#205);
#207=CARTESIAN_POINT('',(7.E0,-1.3E1,-1.E1));
#208=VERTEX_POINT('',#207);
#209=CARTESIAN_POINT('',(7.E0,-2.3E1,8.8E1));
#210=CARTESIAN_POINT('',(7.E0,-2.3E1,1.08E2));
#211=VERTEX_POINT('',#209);
#212=VERTEX_POINT('',#210);
#213=CARTESIAN_POINT('',(0.E0,-2.3E1,8.8E1));
#214=VERTEX_POINT('',#213);
#215=CARTESIAN_POINT('',(0.E0,-1.3E1,8.8E1));
#216=CARTESIAN_POINT('',(7.E0,-1.3E1,8.8E1));
#217=VERTEX_POINT('',#215);
#218=VERTEX_POINT('',#216);
#219=CARTESIAN_POINT('',(-2.E0,-2.3E1,1.08E2));
#220=CARTESIAN_POINT('',(-2.E0,-1.8E1,1.08E2));
#221=VERTEX_POINT('',#219);
#222=VERTEX_POINT('',#220);
#223=CARTESIAN_POINT('',(-2.E0,-1.8E1,9.8E1));
#224=VERTEX_POINT('',#223);
#225=CARTESIAN_POINT('',(-2.E0,-2.3E1,9.8E1));
#226=VERTEX_POINT('',#225);
#227=CARTESIAN_POINT('',(0.E0,-1.8E1,1.08E2));
#228=CARTESIAN_POINT('',(0.E0,-1.8E1,9.8E1));
#229=VERTEX_POINT('',#227);
#230=VERTEX_POINT('',#228);
#231=CARTESIAN_POINT('',(0.E0,-2.3E1,9.8E1));
#232=VERTEX_POINT('',#231);
#233=CARTESIAN_POINT('',(0.E0,0.E0,0.E0));
#234=DIRECTION('',(1.E0,0.E0,0.E0));
#235=DIRECTION('',(0.E0,-1.E0,0.E0));
#236=AXIS2_PLACEMENT_3D('',#233,#234,#235);
#237=PLANE('',#236);
#239=ORIENTED_EDGE('',*,*,#238,.T.);
#241=ORIENTED_EDGE('',*,*,#240,.F.);
#243=ORIENTED_EDGE('',*,*,#242,.F.);
#245=ORIENTED_EDGE('',*,*,#244,.F.);
#247=ORIENTED_EDGE('',*,*,#246,.T.);
#249=ORIENTED_EDGE('',*,*,#248,.T.);
#251=ORIENTED_EDGE('',*,*,#250,.T.);
#253=ORIENTED_EDGE('',*,*,#252,.T.);
#255=ORIENTED_EDGE('',*,*,#254,.F.);
#256=EDGE_LOOP('',(#239,#241,#243,#245,#247,#249,#251,#253,#255));
#257=FACE_OUTER_BOUND('',#256,.F.);
#259=ORIENTED_EDGE('',*,*,#258,.T.);
#261=ORIENTED_EDGE('',*,*,#260,.T.);
#262=EDGE_LOOP('',(#259,#261));
#263=FACE_BOUND('',#262,.F.);
#265=ORIENTED_EDGE('',*,*,#264,.T.);
#267=ORIENTED_EDGE('',*,*,#266,.T.);
#268=EDGE_LOOP('',(#265,#267));
#269=FACE_BOUND('',#268,.F.);
#270=ADVANCED_FACE('',(#257,#263,#269),#237,.F.);
#271=CARTESIAN_POINT('',(0.E0,0.E0,0.E0));
#272=DIRECTION('',(1.E0,0.E0,0.E0));
#273=DIRECTION('',(0.E0,-1.E0,0.E0));
#274=AXIS2_PLACEMENT_3D('',#271,#272,#273);
#275=CYLINDRICAL_SURFACE('',#274,4.E0);
#276=ORIENTED_EDGE('',*,*,#264,.F.);
#278=ORIENTED_EDGE('',*,*,#277,.T.);
#280=ORIENTED_EDGE('',*,*,#279,.T.);
#282=ORIENTED_EDGE('',*,*,#281,.F.);
#283=EDGE_LOOP('',(#276,#278,#280,#282));
#284=FACE_OUTER_BOUND('',#283,.F.);
#285=ADVANCED_FACE('',(#284),#275,.F.);
#286=CARTESIAN_POINT('',(0.E0,0.E0,0.E0));
#287=DIRECTION('',(1.E0,0.E0,0.E0));
#288=DIRECTION('',(0.E0,-1.E0,0.E0));
#289=AXIS2_PLACEMENT_3D('',#286,#287,#288);
#290=CYLINDRICAL_SURFACE('',#289,4.E0);
#291=ORIENTED_EDGE('',*,*,#266,.F.);
#292=ORIENTED_EDGE('',*,*,#281,.T.);
#294=ORIENTED_EDGE('',*,*,#293,.T.);
#295=ORIENTED_EDGE('',*,*,#277,.F.);
#296=EDGE_LOOP('',(#291,#292,#294,#295));
#297=FACE_OUTER_BOUND('',#296,.F.);
#298=ADVANCED_FACE('',(#297),#290,.F.);
#299=CARTESIAN_POINT('',(7.E0,0.E0,0.E0));
#300=DIRECTION('',(1.E0,0.E0,0.E0));
#301=DIRECTION('',(0.E0,-1.E0,0.E0));
#302=AXIS2_PLACEMENT_3D('',#299,#300,#301);
#303=PLANE('',#302);
#305=ORIENTED_EDGE('',*,*,#304,.F.);
#307=ORIENTED_EDGE('',*,*,#306,.T.);
#309=ORIENTED_EDGE('',*,*,#308,.T.);
#311=ORIENTED_EDGE('',*,*,#310,.F.);
#313=ORIENTED_EDGE('',*,*,#312,.F.);
#315=ORIENTED_EDGE('',*,*,#314,.F.);
#317=ORIENTED_EDGE('',*,*,#316,.F.);
#318=EDGE_LOOP('',(#305,#307,#309,#311,#313,#315,#317));
#319=FACE_OUTER_BOUND('',#318,.F.);
#321=ORIENTED_EDGE('',*,*,#320,.F.);
#323=ORIENTED_EDGE('',*,*,#322,.F.);
#324=EDGE_LOOP('',(#321,#323));
#325=FACE_BOUND('',#324,.F.);
#326=ORIENTED_EDGE('',*,*,#279,.F.);
#327=ORIENTED_EDGE('',*,*,#293,.F.);
#328=EDGE_LOOP('',(#326,#327));
#329=FACE_BOUND('',#328,.F.);
#330=ADVANCED_FACE('',(#319,#325,#329),#303,.T.);
#331=CARTESIAN_POINT('',(0.E0,0.E0,8.E1));
#332=DIRECTION('',(1.E0,0.E0,0.E0));
#333=DIRECTION('',(0.E0,-1.E0,0.E0));
#334=AXIS2_PLACEMENT_3D('',#331,#332,#333);
#335=CYLINDRICAL_SURFACE('',#334,4.E0);
#336=ORIENTED_EDGE('',*,*,#258,.F.);
#338=ORIENTED_EDGE('',*,*,#337,.T.);
#339=ORIENTED_EDGE('',*,*,#320,.T.);
#341=ORIENTED_EDGE('',*,*,#340,.F.);
#342=EDGE_LOOP('',(#336,#338,#339,#341));
#343=FACE_OUTER_BOUND('',#342,.F.);
#344=ADVANCED_FACE('',(#343),#335,.F.);
#345=CARTESIAN_POINT('',(0.E0,0.E0,8.E1));
#346=DIRECTION('',(1.E0,0.E0,0.E0));
#347=DIRECTION('',(0.E0,-1.E0,0.E0));
#348=AXIS2_PLACEMENT_3D('',#345,#346,#347);
#349=CYLINDRICAL_SURFACE('',#348,4.E0);
#350=ORIENTED_EDGE('',*,*,#260,.F.);
#351=ORIENTED_EDGE('',*,*,#340,.T.);
#352=ORIENTED_EDGE('',*,*,#322,.T.);
#353=ORIENTED_EDGE('',*,*,#337,.F.);
#354=EDGE_LOOP('',(#350,#351,#352,#353));
#355=FACE_OUTER_BOUND('',#354,.F.);
#356=ADVANCED_FACE('',(#355),#349,.F.);
#357=CARTESIAN_POINT('',(0.E0,-1.3E1,1.08E2));
#358=DIRECTION('',(0.E0,-1.E0,0.E0));
#359=DIRECTION('',(0.E0,0.E0,-1.E0));
#360=AXIS2_PLACEMENT_3D('',#357,#358,#359);
#361=PLANE('',#360);
#363=ORIENTED_EDGE('',*,*,#362,.T.);
#364=ORIENTED_EDGE('',*,*,#304,.T.);
#366=ORIENTED_EDGE('',*,*,#365,.F.);
#367=ORIENTED_EDGE('',*,*,#246,.F.);
#368=EDGE_LOOP('',(#363,#364,#366,#367));
#369=FACE_OUTER_BOUND('',#368,.F.);
#370=ADVANCED_FACE('',(#369),#361,.T.);
#371=CARTESIAN_POINT('',(0.E0,-1.3E1,8.8E1));
#372=DIRECTION('',(0.E0,0.E0,-1.E0));
#373=DIRECTION('',(0.E0,-1.E0,0.E0));
#374=AXIS2_PLACEMENT_3D('',#371,#372,#373);
#375=PLANE('',#374);
#376=ORIENTED_EDGE('',*,*,#362,.F.);
#377=ORIENTED_EDGE('',*,*,#244,.T.);
#379=ORIENTED_EDGE('',*,*,#378,.T.);
#380=ORIENTED_EDGE('',*,*,#306,.F.);
#381=EDGE_LOOP('',(#376,#377,#379,#380));
#382=FACE_OUTER_BOUND('',#381,.F.);
#383=ADVANCED_FACE('',(#382),#375,.T.);
#384=CARTESIAN_POINT('',(0.E0,-2.3E1,8.8E1));
#385=DIRECTION('',(0.E0,-1.E0,0.E0));
#386=DIRECTION('',(0.E0,0.E0,1.E0));
#387=AXIS2_PLACEMENT_3D('',#384,#385,#386);
#388=PLANE('',#387);
#389=ORIENTED_EDGE('',*,*,#242,.T.);
#391=ORIENTED_EDGE('',*,*,#390,.T.);
#393=ORIENTED_EDGE('',*,*,#392,.T.);
#395=ORIENTED_EDGE('',*,*,#394,.T.);
#396=ORIENTED_EDGE('',*,*,#308,.F.);
#397=ORIENTED_EDGE('',*,*,#378,.F.);
#398=EDGE_LOOP('',(#389,#391,#393,#395,#396,#397));
#399=FACE_OUTER_BOUND('',#398,.F.);
#400=ADVANCED_FACE('',(#399),#388,.T.);
#401=CARTESIAN_POINT('',(0.E0,-1.8E1,9.8E1));
#402=DIRECTION('',(0.E0,0.E0,-1.E0));
#403=DIRECTION('',(0.E0,-1.E0,0.E0));
#404=AXIS2_PLACEMENT_3D('',#401,#402,#403);
#405=PLANE('',#404);
#406=ORIENTED_EDGE('',*,*,#240,.T.);
#408=ORIENTED_EDGE('',*,*,#407,.T.);
#410=ORIENTED_EDGE('',*,*,#409,.T.);
#411=ORIENTED_EDGE('',*,*,#390,.F.);
#412=EDGE_LOOP('',(#406,#408,#410,#411));
#413=FACE_OUTER_BOUND('',#412,.F.);
#414=ADVANCED_FACE('',(#413),#405,.T.);
#415=CARTESIAN_POINT('',(0.E0,-1.8E1,1.08E2));
#416=DIRECTION('',(0.E0,1.E0,0.E0));
#417=DIRECTION('',(0.E0,0.E0,-1.E0));
#418=AXIS2_PLACEMENT_3D('',#415,#416,#417);
#419=PLANE('',#418);
#420=ORIENTED_EDGE('',*,*,#238,.F.);
#422=ORIENTED_EDGE('',*,*,#421,.T.);
#424=ORIENTED_EDGE('',*,*,#423,.T.);
#425=ORIENTED_EDGE('',*,*,#407,.F.);
#426=EDGE_LOOP('',(#420,#422,#424,#425));
#427=FACE_OUTER_BOUND('',#426,.F.);
#428=ADVANCED_FACE('',(#427),#419,.T.);
#429=CARTESIAN_POINT('',(0.E0,1.E1,1.08E2));
#430=DIRECTION('',(0.E0,0.E0,1.E0));
#431=DIRECTION('',(0.E0,-1.E0,0.E0));
#432=AXIS2_PLACEMENT_3D('',#429,#430,#431);
#433=PLANE('',#432);
#434=ORIENTED_EDGE('',*,*,#394,.F.);
#436=ORIENTED_EDGE('',*,*,#435,.T.);
#437=ORIENTED_EDGE('',*,*,#421,.F.);
#438=ORIENTED_EDGE('',*,*,#254,.T.);
#440=ORIENTED_EDGE('',*,*,#439,.T.);
#441=ORIENTED_EDGE('',*,*,#310,.T.);
#442=EDGE_LOOP('',(#434,#436,#437,#438,#440,#441));
#443=FACE_OUTER_BOUND('',#442,.F.);
#444=ADVANCED_FACE('',(#443),#433,.T.);
#445=CARTESIAN_POINT('',(-2.E0,0.E0,0.E0));
#446=DIRECTION('',(-1.E0,0.E0,0.E0));
#447=DIRECTION('',(0.E0,-1.E0,0.E0));
#448=AXIS2_PLACEMENT_3D('',#445,#446,#447);
#449=PLANE('',#448);
#450=ORIENTED_EDGE('',*,*,#435,.F.);
#451=ORIENTED_EDGE('',*,*,#392,.F.);
#452=ORIENTED_EDGE('',*,*,#409,.F.);
#453=ORIENTED_EDGE('',*,*,#423,.F.);
#454=EDGE_LOOP('',(#450,#451,#452,#453));
#455=FACE_OUTER_BOUND('',#454,.F.);
#456=ADVANCED_FACE('',(#455),#449,.T.);
#457=CARTESIAN_POINT('',(0.E0,1.E1,-1.E1));
#458=DIRECTION('',(0.E0,1.E0,0.E0));
#459=DIRECTION('',(0.E0,0.E0,1.E0));
#460=AXIS2_PLACEMENT_3D('',#457,#458,#459);
#461=PLANE('',#460);
#462=ORIENTED_EDGE('',*,*,#252,.F.);
#464=ORIENTED_EDGE('',*,*,#463,.T.);
#465=ORIENTED_EDGE('',*,*,#312,.T.);
#466=ORIENTED_EDGE('',*,*,#439,.F.);
#467=EDGE_LOOP('',(#462,#464,#465,#466));
#468=FACE_OUTER_BOUND('',#467,.F.);
#469=ADVANCED_FACE('',(#468),#461,.T.);
#470=CARTESIAN_POINT('',(0.E0,0.E0,-1.E1));
#471=DIRECTION('',(0.E0,0.E0,-1.E0));
#472=DIRECTION('',(0.E0,1.E0,0.E0));
#473=AXIS2_PLACEMENT_3D('',#470,#471,#472);
#474=PLANE('',#473);
#475=ORIENTED_EDGE('',*,*,#250,.F.);
#477=ORIENTED_EDGE('',*,*,#476,.T.);
#478=ORIENTED_EDGE('',*,*,#314,.T.);
#479=ORIENTED_EDGE('',*,*,#463,.F.);
#480=EDGE_LOOP('',(#475,#477,#478,#479));
#481=FACE_OUTER_BOUND('',#480,.F.);
#482=ADVANCED_FACE('',(#481),#474,.T.);
#483=CARTESIAN_POINT('',(0.E0,-1.3E1,-1.E1));
#484=DIRECTION('',(0.E0,0.E0,-1.E0));
#485=DIRECTION('',(0.E0,1.E0,0.E0));
#486=AXIS2_PLACEMENT_3D('',#483,#484,#485);
#487=PLANE('',#486);
#488=ORIENTED_EDGE('',*,*,#248,.F.);
#489=ORIENTED_EDGE('',*,*,#365,.T.);
#490=ORIENTED_EDGE('',*,*,#316,.T.);
#491=ORIENTED_EDGE('',*,*,#476,.F.);
#492=EDGE_LOOP('',(#488,#489,#490,#491));
#493=FACE_OUTER_BOUND('',#492,.F.);
#494=ADVANCED_FACE('',(#493),#487,.T.);
#498=DIMENSIONAL_EXPONENTS(0.E0,0.E0,0.E0,0.E0,0.E0,0.E0,0.E0);
#500=PLANE_ANGLE_MEASURE_WITH_UNIT(PLANE_ANGLE_MEASURE(1.745329251994E-2),#499);
#501=(CONVERSION_BASED_UNIT('DEGREE',#500)NAMED_UNIT(*)PLANE_ANGLE_UNIT());
#503=UNCERTAINTY_MEASURE_WITH_UNIT(LENGTH_MEASURE(9.906E-3),#497,'closure',
'Maximum model space distance between geometric entities at asserted connectivities');
#504=(GEOMETRIC_REPRESENTATION_CONTEXT(3)GLOBAL_UNCERTAINTY_ASSIGNED_CONTEXT((
#503))GLOBAL_UNIT_ASSIGNED_CONTEXT((#497,#501,#502))REPRESENTATION_CONTEXT
('ID1','3'));
#506=APPLICATION_CONTEXT(
'CONFIGURATION CONTROLLED 3D DESIGNS OF MECHANICAL PARTS AND ASSEMBLIES');
#507=APPLICATION_PROTOCOL_DEFINITION('international standard',
'config_control_design',1994,#506);
#508=DESIGN_CONTEXT('',#506,'design');
#509=MECHANICAL_CONTEXT('',#506,'mechanical');
#510=PRODUCT('ADAPTOR','ADAPTOR','NOT SPECIFIED',(#509));
#511=PRODUCT_DEFINITION_FORMATION_WITH_SPECIFIED_SOURCE('1','LAST_VERSION',#510,
.MADE.);
#515=PRODUCT_CATEGORY('part','');
#516=PRODUCT_RELATED_PRODUCT_CATEGORY('detail','',(#510));
#517=PRODUCT_CATEGORY_RELATIONSHIP('','',#515,#516);
#518=SECURITY_CLASSIFICATION_LEVEL('unclassified');
#519=SECURITY_CLASSIFICATION('','',#518);
#520=CC_DESIGN_SECURITY_CLASSIFICATION(#519,(#511));
#521=APPROVAL_STATUS('approved');
#522=APPROVAL(#521,'');
#523=CC_DESIGN_APPROVAL(#522,(#519,#511,#512));
#524=CALENDAR_DATE(126,27,4);
#525=COORDINATED_UNIVERSAL_TIME_OFFSET(9,0,.AHEAD.);
#526=LOCAL_TIME(16,54,6.E0,#525);
#527=DATE_AND_TIME(#524,#526);
#528=APPROVAL_DATE_TIME(#527,#522);
#529=DATE_TIME_ROLE('creation_date');
#530=CC_DESIGN_DATE_AND_TIME_ASSIGNMENT(#527,#529,(#512));
#531=DATE_TIME_ROLE('classification_date');
#532=CC_DESIGN_DATE_AND_TIME_ASSIGNMENT(#527,#531,(#519));
#533=PERSON('UNSPECIFIED','UNSPECIFIED',$,$,$,$);
#534=ORGANIZATION('UNSPECIFIED','UNSPECIFIED','UNSPECIFIED');
#535=PERSON_AND_ORGANIZATION(#533,#534);
#536=APPROVAL_ROLE('approver');
#537=APPROVAL_PERSON_ORGANIZATION(#535,#522,#536);
#538=PERSON_AND_ORGANIZATION_ROLE('creator');
#539=CC_DESIGN_PERSON_AND_ORGANIZATION_ASSIGNMENT(#535,#538,(#511,#512));
#540=PERSON_AND_ORGANIZATION_ROLE('design_supplier');
#541=CC_DESIGN_PERSON_AND_ORGANIZATION_ASSIGNMENT(#535,#540,(#511));
#542=PERSON_AND_ORGANIZATION_ROLE('classification_officer');
#543=CC_DESIGN_PERSON_AND_ORGANIZATION_ASSIGNMENT(#535,#542,(#519));
#544=PERSON_AND_ORGANIZATION_ROLE('design_owner');
#545=CC_DESIGN_PERSON_AND_ORGANIZATION_ASSIGNMENT(#535,#544,(#510));
#5=CIRCLE('',#4,4.E0);
#10=CIRCLE('',#9,4.E0);
#15=CIRCLE('',#14,4.E0);
#20=CIRCLE('',#19,4.E0);
#65=CIRCLE('',#64,4.E0);
#70=CIRCLE('',#69,4.E0);
#75=CIRCLE('',#74,4.E0);
#80=CIRCLE('',#79,4.E0);
#238=EDGE_CURVE('',#229,#230,#24,.T.);
#240=EDGE_CURVE('',#232,#230,#28,.T.);
#242=EDGE_CURVE('',#214,#232,#32,.T.);
#244=EDGE_CURVE('',#217,#214,#36,.T.);
#246=EDGE_CURVE('',#217,#192,#40,.T.);
#248=EDGE_CURVE('',#192,#187,#44,.T.);
#250=EDGE_CURVE('',#187,#188,#48,.T.);
#252=EDGE_CURVE('',#188,#190,#52,.T.);
#254=EDGE_CURVE('',#229,#190,#140,.T.);
#258=EDGE_CURVE('',#183,#184,#15,.T.);
#260=EDGE_CURVE('',#184,#183,#20,.T.);
#264=EDGE_CURVE('',#179,#180,#5,.T.);
#266=EDGE_CURVE('',#180,#179,#10,.T.);
#277=EDGE_CURVE('',#179,#195,#56,.T.);
#279=EDGE_CURVE('',#195,#196,#65,.T.);
#281=EDGE_CURVE('',#180,#196,#60,.T.);
#293=EDGE_CURVE('',#196,#195,#70,.T.);
#304=EDGE_CURVE('',#218,#208,#84,.T.);
#306=EDGE_CURVE('',#218,#211,#88,.T.);
#308=EDGE_CURVE('',#211,#212,#92,.T.);
#310=EDGE_CURVE('',#206,#212,#148,.T.);
#312=EDGE_CURVE('',#204,#206,#96,.T.);
#314=EDGE_CURVE('',#203,#204,#100,.T.);
#316=EDGE_CURVE('',#208,#203,#104,.T.);
#320=EDGE_CURVE('',#199,#200,#75,.T.);
#322=EDGE_CURVE('',#200,#199,#80,.T.);
#337=EDGE_CURVE('',#183,#199,#108,.T.);
#340=EDGE_CURVE('',#184,#200,#112,.T.);
#362=EDGE_CURVE('',#217,#218,#116,.T.);
#365=EDGE_CURVE('',#192,#208,#176,.T.);
#378=EDGE_CURVE('',#214,#211,#128,.T.);
#390=EDGE_CURVE('',#232,#226,#120,.T.);
#392=EDGE_CURVE('',#226,#221,#156,.T.);
#394=EDGE_CURVE('',#221,#212,#124,.T.);
#407=EDGE_CURVE('',#230,#224,#132,.T.);
#409=EDGE_CURVE('',#224,#226,#160,.T.);
#421=EDGE_CURVE('',#229,#222,#136,.T.);
#423=EDGE_CURVE('',#222,#224,#164,.T.);
#435=EDGE_CURVE('',#221,#222,#152,.T.);
#439=EDGE_CURVE('',#190,#206,#144,.T.);
#463=EDGE_CURVE('',#188,#204,#168,.T.);
#476=EDGE_CURVE('',#187,#203,#172,.T.);
#495=CLOSED_SHELL('',(#270,#285,#298,#330,#344,#356,#370,#383,#400,#414,#428,
#444,#456,#469,#482,#494));
#496=MANIFOLD_SOLID_BREP('',#495);
#497=(LENGTH_UNIT()NAMED_UNIT(*)SI_UNIT(.MILLI.,.METRE.));
#499=(NAMED_UNIT(*)PLANE_ANGLE_UNIT()SI_UNIT($,.RADIAN.));
#502=(NAMED_UNIT(*)SI_UNIT($,.STERADIAN.)SOLID_ANGLE_UNIT());
#505=ADVANCED_BREP_SHAPE_REPRESENTATION('',(#496),#504);
#512=PRODUCT_DEFINITION('design','',#511,#508);
#513=PRODUCT_DEFINITION_SHAPE('','SHAPE FOR ADAPTOR.',#512);
#514=SHAPE_DEFINITION_REPRESENTATION(#513,#505);
ENDSEC;
END-ISO-10303-21;
