ISO-10303-21;
HEADER;
FILE_DESCRIPTION((''),'2;1');
FILE_NAME('BRACKET','2026-05-20T14:01:50',('user'),(''),
'CREO PARAMETRIC BY PTC INC, 2025102','CREO PARAMETRIC BY PTC INC, 2025102','');
FILE_SCHEMA(('CONFIG_CONTROL_DESIGN'));
ENDSEC;
DATA;
#1=DIRECTION('',(0.E0,0.E0,-1.E0));
#2=VECTOR('',#1,4.1E1);
#3=CARTESIAN_POINT('',(2.1E1,0.E0,2.05E1));
#4=LINE('',#3,#2);
#5=DIRECTION('',(-1.E0,0.E0,0.E0));
#6=VECTOR('',#5,4.2E1);
#7=CARTESIAN_POINT('',(2.1E1,0.E0,-2.05E1));
#8=LINE('',#7,#6);
#9=DIRECTION('',(0.E0,0.E0,1.E0));
#10=VECTOR('',#9,4.1E1);
#11=CARTESIAN_POINT('',(-2.1E1,0.E0,-2.05E1));
#12=LINE('',#11,#10);
#13=DIRECTION('',(1.E0,0.E0,0.E0));
#14=VECTOR('',#13,4.2E1);
#15=CARTESIAN_POINT('',(-2.1E1,0.E0,2.05E1));
#16=LINE('',#15,#14);
#17=DIRECTION('',(1.E0,0.E0,0.E0));
#18=VECTOR('',#17,1.2E1);
#19=CARTESIAN_POINT('',(-6.E0,0.E0,-1.75E1));
#20=LINE('',#19,#18);
#21=DIRECTION('',(0.E0,0.E0,1.E0));
#22=VECTOR('',#21,3.5E1);
#23=CARTESIAN_POINT('',(6.E0,0.E0,-1.75E1));
#24=LINE('',#23,#22);
#25=DIRECTION('',(-1.E0,0.E0,0.E0));
#26=VECTOR('',#25,1.2E1);
#27=CARTESIAN_POINT('',(6.E0,0.E0,1.75E1));
#28=LINE('',#27,#26);
#29=DIRECTION('',(0.E0,0.E0,-1.E0));
#30=VECTOR('',#29,3.5E1);
#31=CARTESIAN_POINT('',(-6.E0,0.E0,1.75E1));
#32=LINE('',#31,#30);
#33=DIRECTION('',(0.E0,1.E0,0.E0));
#34=VECTOR('',#33,3.E0);
#35=CARTESIAN_POINT('',(2.1E1,0.E0,2.05E1));
#36=LINE('',#35,#34);
#37=DIRECTION('',(0.E0,1.E0,0.E0));
#38=VECTOR('',#37,3.E0);
#39=CARTESIAN_POINT('',(-2.1E1,0.E0,2.05E1));
#40=LINE('',#39,#38);
#41=DIRECTION('',(0.E0,1.E0,0.E0));
#42=VECTOR('',#41,3.E0);
#43=CARTESIAN_POINT('',(-2.1E1,0.E0,-2.05E1));
#44=LINE('',#43,#42);
#45=DIRECTION('',(0.E0,1.E0,0.E0));
#46=VECTOR('',#45,3.E0);
#47=CARTESIAN_POINT('',(2.1E1,0.E0,-2.05E1));
#48=LINE('',#47,#46);
#49=DIRECTION('',(0.E0,0.E0,-1.E0));
#50=VECTOR('',#49,4.1E1);
#51=CARTESIAN_POINT('',(2.1E1,3.E0,2.05E1));
#52=LINE('',#51,#50);
#53=DIRECTION('',(1.E0,0.E0,0.E0));
#54=VECTOR('',#53,4.2E1);
#55=CARTESIAN_POINT('',(-2.1E1,3.E0,2.05E1));
#56=LINE('',#55,#54);
#57=DIRECTION('',(0.E0,0.E0,1.E0));
#58=VECTOR('',#57,4.1E1);
#59=CARTESIAN_POINT('',(-2.1E1,3.E0,-2.05E1));
#60=LINE('',#59,#58);
#61=DIRECTION('',(-1.E0,0.E0,0.E0));
#62=VECTOR('',#61,4.2E1);
#63=CARTESIAN_POINT('',(2.1E1,3.E0,-2.05E1));
#64=LINE('',#63,#62);
#65=DIRECTION('',(1.E0,0.E0,0.E0));
#66=VECTOR('',#65,1.2E1);
#67=CARTESIAN_POINT('',(-6.E0,3.E0,-1.75E1));
#68=LINE('',#67,#66);
#69=DIRECTION('',(0.E0,0.E0,-1.E0));
#70=VECTOR('',#69,3.5E1);
#71=CARTESIAN_POINT('',(-6.E0,3.E0,1.75E1));
#72=LINE('',#71,#70);
#73=DIRECTION('',(-1.E0,0.E0,0.E0));
#74=VECTOR('',#73,1.2E1);
#75=CARTESIAN_POINT('',(6.E0,3.E0,1.75E1));
#76=LINE('',#75,#74);
#77=DIRECTION('',(0.E0,0.E0,1.E0));
#78=VECTOR('',#77,3.5E1);
#79=CARTESIAN_POINT('',(6.E0,3.E0,-1.75E1));
#80=LINE('',#79,#78);
#81=DIRECTION('',(0.E0,1.E0,0.E0));
#82=VECTOR('',#81,3.E0);
#83=CARTESIAN_POINT('',(-6.E0,0.E0,-1.75E1));
#84=LINE('',#83,#82);
#85=DIRECTION('',(0.E0,1.E0,0.E0));
#86=VECTOR('',#85,3.E0);
#87=CARTESIAN_POINT('',(-6.E0,0.E0,1.75E1));
#88=LINE('',#87,#86);
#89=DIRECTION('',(0.E0,1.E0,0.E0));
#90=VECTOR('',#89,3.E0);
#91=CARTESIAN_POINT('',(6.E0,0.E0,1.75E1));
#92=LINE('',#91,#90);
#93=DIRECTION('',(0.E0,1.E0,0.E0));
#94=VECTOR('',#93,3.E0);
#95=CARTESIAN_POINT('',(6.E0,0.E0,-1.75E1));
#96=LINE('',#95,#94);
#97=CARTESIAN_POINT('',(2.1E1,0.E0,2.05E1));
#98=CARTESIAN_POINT('',(2.1E1,0.E0,-2.05E1));
#99=VERTEX_POINT('',#97);
#100=VERTEX_POINT('',#98);
#101=CARTESIAN_POINT('',(-2.1E1,0.E0,-2.05E1));
#102=VERTEX_POINT('',#101);
#103=CARTESIAN_POINT('',(-2.1E1,0.E0,2.05E1));
#104=VERTEX_POINT('',#103);
#105=CARTESIAN_POINT('',(2.1E1,3.E0,2.05E1));
#106=CARTESIAN_POINT('',(2.1E1,3.E0,-2.05E1));
#107=VERTEX_POINT('',#105);
#108=VERTEX_POINT('',#106);
#109=CARTESIAN_POINT('',(-2.1E1,3.E0,-2.05E1));
#110=VERTEX_POINT('',#109);
#111=CARTESIAN_POINT('',(-2.1E1,3.E0,2.05E1));
#112=VERTEX_POINT('',#111);
#113=CARTESIAN_POINT('',(-6.E0,0.E0,-1.75E1));
#114=CARTESIAN_POINT('',(6.E0,0.E0,-1.75E1));
#115=VERTEX_POINT('',#113);
#116=VERTEX_POINT('',#114);
#117=CARTESIAN_POINT('',(6.E0,0.E0,1.75E1));
#118=VERTEX_POINT('',#117);
#119=CARTESIAN_POINT('',(-6.E0,0.E0,1.75E1));
#120=VERTEX_POINT('',#119);
#121=CARTESIAN_POINT('',(-6.E0,3.E0,-1.75E1));
#122=CARTESIAN_POINT('',(6.E0,3.E0,-1.75E1));
#123=VERTEX_POINT('',#121);
#124=VERTEX_POINT('',#122);
#125=CARTESIAN_POINT('',(6.E0,3.E0,1.75E1));
#126=VERTEX_POINT('',#125);
#127=CARTESIAN_POINT('',(-6.E0,3.E0,1.75E1));
#128=VERTEX_POINT('',#127);
#129=CARTESIAN_POINT('',(0.E0,0.E0,0.E0));
#130=DIRECTION('',(0.E0,1.E0,0.E0));
#131=DIRECTION('',(1.E0,0.E0,0.E0));
#132=AXIS2_PLACEMENT_3D('',#129,#130,#131);
#133=PLANE('',#132);
#135=ORIENTED_EDGE('',*,*,#134,.T.);
#137=ORIENTED_EDGE('',*,*,#136,.T.);
#139=ORIENTED_EDGE('',*,*,#138,.T.);
#141=ORIENTED_EDGE('',*,*,#140,.T.);
#142=EDGE_LOOP('',(#135,#137,#139,#141));
#143=FACE_OUTER_BOUND('',#142,.F.);
#145=ORIENTED_EDGE('',*,*,#144,.T.);
#147=ORIENTED_EDGE('',*,*,#146,.T.);
#149=ORIENTED_EDGE('',*,*,#148,.T.);
#151=ORIENTED_EDGE('',*,*,#150,.T.);
#152=EDGE_LOOP('',(#145,#147,#149,#151));
#153=FACE_BOUND('',#152,.F.);
#154=ADVANCED_FACE('',(#143,#153),#133,.F.);
#155=CARTESIAN_POINT('',(2.1E1,0.E0,2.05E1));
#156=DIRECTION('',(1.E0,0.E0,0.E0));
#157=DIRECTION('',(0.E0,0.E0,-1.E0));
#158=AXIS2_PLACEMENT_3D('',#155,#156,#157);
#159=PLANE('',#158);
#160=ORIENTED_EDGE('',*,*,#134,.F.);
#162=ORIENTED_EDGE('',*,*,#161,.T.);
#164=ORIENTED_EDGE('',*,*,#163,.T.);
#166=ORIENTED_EDGE('',*,*,#165,.F.);
#167=EDGE_LOOP('',(#160,#162,#164,#166));
#168=FACE_OUTER_BOUND('',#167,.F.);
#169=ADVANCED_FACE('',(#168),#159,.T.);
#170=CARTESIAN_POINT('',(-2.1E1,0.E0,2.05E1));
#171=DIRECTION('',(0.E0,0.E0,1.E0));
#172=DIRECTION('',(1.E0,0.E0,0.E0));
#173=AXIS2_PLACEMENT_3D('',#170,#171,#172);
#174=PLANE('',#173);
#175=ORIENTED_EDGE('',*,*,#140,.F.);
#177=ORIENTED_EDGE('',*,*,#176,.T.);
#179=ORIENTED_EDGE('',*,*,#178,.T.);
#180=ORIENTED_EDGE('',*,*,#161,.F.);
#181=EDGE_LOOP('',(#175,#177,#179,#180));
#182=FACE_OUTER_BOUND('',#181,.F.);
#183=ADVANCED_FACE('',(#182),#174,.T.);
#184=CARTESIAN_POINT('',(-2.1E1,0.E0,-2.05E1));
#185=DIRECTION('',(-1.E0,0.E0,0.E0));
#186=DIRECTION('',(0.E0,0.E0,1.E0));
#187=AXIS2_PLACEMENT_3D('',#184,#185,#186);
#188=PLANE('',#187);
#189=ORIENTED_EDGE('',*,*,#138,.F.);
#191=ORIENTED_EDGE('',*,*,#190,.T.);
#193=ORIENTED_EDGE('',*,*,#192,.T.);
#194=ORIENTED_EDGE('',*,*,#176,.F.);
#195=EDGE_LOOP('',(#189,#191,#193,#194));
#196=FACE_OUTER_BOUND('',#195,.F.);
#197=ADVANCED_FACE('',(#196),#188,.T.);
#198=CARTESIAN_POINT('',(2.1E1,0.E0,-2.05E1));
#199=DIRECTION('',(0.E0,0.E0,-1.E0));
#200=DIRECTION('',(-1.E0,0.E0,0.E0));
#201=AXIS2_PLACEMENT_3D('',#198,#199,#200);
#202=PLANE('',#201);
#203=ORIENTED_EDGE('',*,*,#136,.F.);
#204=ORIENTED_EDGE('',*,*,#165,.T.);
#206=ORIENTED_EDGE('',*,*,#205,.T.);
#207=ORIENTED_EDGE('',*,*,#190,.F.);
#208=EDGE_LOOP('',(#203,#204,#206,#207));
#209=FACE_OUTER_BOUND('',#208,.F.);
#210=ADVANCED_FACE('',(#209),#202,.T.);
#211=CARTESIAN_POINT('',(0.E0,3.E0,0.E0));
#212=DIRECTION('',(0.E0,1.E0,0.E0));
#213=DIRECTION('',(1.E0,0.E0,0.E0));
#214=AXIS2_PLACEMENT_3D('',#211,#212,#213);
#215=PLANE('',#214);
#216=ORIENTED_EDGE('',*,*,#163,.F.);
#217=ORIENTED_EDGE('',*,*,#178,.F.);
#218=ORIENTED_EDGE('',*,*,#192,.F.);
#219=ORIENTED_EDGE('',*,*,#205,.F.);
#220=EDGE_LOOP('',(#216,#217,#218,#219));
#221=FACE_OUTER_BOUND('',#220,.F.);
#223=ORIENTED_EDGE('',*,*,#222,.F.);
#225=ORIENTED_EDGE('',*,*,#224,.F.);
#227=ORIENTED_EDGE('',*,*,#226,.F.);
#229=ORIENTED_EDGE('',*,*,#228,.F.);
#230=EDGE_LOOP('',(#223,#225,#227,#229));
#231=FACE_BOUND('',#230,.F.);
#232=ADVANCED_FACE('',(#221,#231),#215,.T.);
#233=CARTESIAN_POINT('',(-6.E0,0.E0,-1.75E1));
#234=DIRECTION('',(0.E0,0.E0,1.E0));
#235=DIRECTION('',(1.E0,0.E0,0.E0));
#236=AXIS2_PLACEMENT_3D('',#233,#234,#235);
#237=PLANE('',#236);
#238=ORIENTED_EDGE('',*,*,#144,.F.);
#240=ORIENTED_EDGE('',*,*,#239,.T.);
#241=ORIENTED_EDGE('',*,*,#222,.T.);
#243=ORIENTED_EDGE('',*,*,#242,.F.);
#244=EDGE_LOOP('',(#238,#240,#241,#243));
#245=FACE_OUTER_BOUND('',#244,.F.);
#246=ADVANCED_FACE('',(#245),#237,.T.);
#247=CARTESIAN_POINT('',(-6.E0,0.E0,1.75E1));
#248=DIRECTION('',(1.E0,0.E0,0.E0));
#249=DIRECTION('',(0.E0,0.E0,-1.E0));
#250=AXIS2_PLACEMENT_3D('',#247,#248,#249);
#251=PLANE('',#250);
#252=ORIENTED_EDGE('',*,*,#150,.F.);
#254=ORIENTED_EDGE('',*,*,#253,.T.);
#255=ORIENTED_EDGE('',*,*,#224,.T.);
#256=ORIENTED_EDGE('',*,*,#239,.F.);
#257=EDGE_LOOP('',(#252,#254,#255,#256));
#258=FACE_OUTER_BOUND('',#257,.F.);
#259=ADVANCED_FACE('',(#258),#251,.T.);
#260=CARTESIAN_POINT('',(6.E0,0.E0,1.75E1));
#261=DIRECTION('',(0.E0,0.E0,-1.E0));
#262=DIRECTION('',(-1.E0,0.E0,0.E0));
#263=AXIS2_PLACEMENT_3D('',#260,#261,#262);
#264=PLANE('',#263);
#265=ORIENTED_EDGE('',*,*,#148,.F.);
#267=ORIENTED_EDGE('',*,*,#266,.T.);
#268=ORIENTED_EDGE('',*,*,#226,.T.);
#269=ORIENTED_EDGE('',*,*,#253,.F.);
#270=EDGE_LOOP('',(#265,#267,#268,#269));
#271=FACE_OUTER_BOUND('',#270,.F.);
#272=ADVANCED_FACE('',(#271),#264,.T.);
#273=CARTESIAN_POINT('',(6.E0,0.E0,-1.75E1));
#274=DIRECTION('',(-1.E0,0.E0,0.E0));
#275=DIRECTION('',(0.E0,0.E0,1.E0));
#276=AXIS2_PLACEMENT_3D('',#273,#274,#275);
#277=PLANE('',#276);
#278=ORIENTED_EDGE('',*,*,#146,.F.);
#279=ORIENTED_EDGE('',*,*,#242,.T.);
#280=ORIENTED_EDGE('',*,*,#228,.T.);
#281=ORIENTED_EDGE('',*,*,#266,.F.);
#282=EDGE_LOOP('',(#278,#279,#280,#281));
#283=FACE_OUTER_BOUND('',#282,.F.);
#284=ADVANCED_FACE('',(#283),#277,.T.);
#288=DIMENSIONAL_EXPONENTS(0.E0,0.E0,0.E0,0.E0,0.E0,0.E0,0.E0);
#290=PLANE_ANGLE_MEASURE_WITH_UNIT(PLANE_ANGLE_MEASURE(1.745329251994E-2),#289);
#291=(CONVERSION_BASED_UNIT('DEGREE',#290)NAMED_UNIT(*)PLANE_ANGLE_UNIT());
#293=UNCERTAINTY_MEASURE_WITH_UNIT(LENGTH_MEASURE(1.E-2),#287,'closure',
'Maximum model space distance between geometric entities at asserted connectivities');
#294=(GEOMETRIC_REPRESENTATION_CONTEXT(3)GLOBAL_UNCERTAINTY_ASSIGNED_CONTEXT((
#293))GLOBAL_UNIT_ASSIGNED_CONTEXT((#287,#291,#292))REPRESENTATION_CONTEXT
('ID1','3'));
#296=APPLICATION_CONTEXT(
'CONFIGURATION CONTROLLED 3D DESIGNS OF MECHANICAL PARTS AND ASSEMBLIES');
#297=APPLICATION_PROTOCOL_DEFINITION('international standard',
'config_control_design',1994,#296);
#298=DESIGN_CONTEXT('',#296,'design');
#299=MECHANICAL_CONTEXT('',#296,'mechanical');
#300=PRODUCT('BRACKET','BRACKET','NOT SPECIFIED',(#299));
#301=PRODUCT_DEFINITION_FORMATION_WITH_SPECIFIED_SOURCE('1','LAST_VERSION',#300,
.MADE.);
#305=PRODUCT_CATEGORY('part','');
#306=PRODUCT_RELATED_PRODUCT_CATEGORY('detail','',(#300));
#307=PRODUCT_CATEGORY_RELATIONSHIP('','',#305,#306);
#308=SECURITY_CLASSIFICATION_LEVEL('unclassified');
#309=SECURITY_CLASSIFICATION('','',#308);
#310=CC_DESIGN_SECURITY_CLASSIFICATION(#309,(#301));
#311=APPROVAL_STATUS('approved');
#312=APPROVAL(#311,'');
#313=CC_DESIGN_APPROVAL(#312,(#309,#301,#302));
#314=CALENDAR_DATE(126,20,5);
#315=COORDINATED_UNIVERSAL_TIME_OFFSET(9,0,.AHEAD.);
#316=LOCAL_TIME(14,1,5.E1,#315);
#317=DATE_AND_TIME(#314,#316);
#318=APPROVAL_DATE_TIME(#317,#312);
#319=DATE_TIME_ROLE('creation_date');
#320=CC_DESIGN_DATE_AND_TIME_ASSIGNMENT(#317,#319,(#302));
#321=DATE_TIME_ROLE('classification_date');
#322=CC_DESIGN_DATE_AND_TIME_ASSIGNMENT(#317,#321,(#309));
#323=PERSON('UNSPECIFIED','UNSPECIFIED',$,$,$,$);
#324=ORGANIZATION('UNSPECIFIED','UNSPECIFIED','UNSPECIFIED');
#325=PERSON_AND_ORGANIZATION(#323,#324);
#326=APPROVAL_ROLE('approver');
#327=APPROVAL_PERSON_ORGANIZATION(#325,#312,#326);
#328=PERSON_AND_ORGANIZATION_ROLE('creator');
#329=CC_DESIGN_PERSON_AND_ORGANIZATION_ASSIGNMENT(#325,#328,(#301,#302));
#330=PERSON_AND_ORGANIZATION_ROLE('design_supplier');
#331=CC_DESIGN_PERSON_AND_ORGANIZATION_ASSIGNMENT(#325,#330,(#301));
#332=PERSON_AND_ORGANIZATION_ROLE('classification_officer');
#333=CC_DESIGN_PERSON_AND_ORGANIZATION_ASSIGNMENT(#325,#332,(#309));
#334=PERSON_AND_ORGANIZATION_ROLE('design_owner');
#335=CC_DESIGN_PERSON_AND_ORGANIZATION_ASSIGNMENT(#325,#334,(#300));
#134=EDGE_CURVE('',#99,#100,#4,.T.);
#136=EDGE_CURVE('',#100,#102,#8,.T.);
#138=EDGE_CURVE('',#102,#104,#12,.T.);
#140=EDGE_CURVE('',#104,#99,#16,.T.);
#144=EDGE_CURVE('',#115,#116,#20,.T.);
#146=EDGE_CURVE('',#116,#118,#24,.T.);
#148=EDGE_CURVE('',#118,#120,#28,.T.);
#150=EDGE_CURVE('',#120,#115,#32,.T.);
#161=EDGE_CURVE('',#99,#107,#36,.T.);
#163=EDGE_CURVE('',#107,#108,#52,.T.);
#165=EDGE_CURVE('',#100,#108,#48,.T.);
#176=EDGE_CURVE('',#104,#112,#40,.T.);
#178=EDGE_CURVE('',#112,#107,#56,.T.);
#190=EDGE_CURVE('',#102,#110,#44,.T.);
#192=EDGE_CURVE('',#110,#112,#60,.T.);
#205=EDGE_CURVE('',#108,#110,#64,.T.);
#222=EDGE_CURVE('',#123,#124,#68,.T.);
#224=EDGE_CURVE('',#128,#123,#72,.T.);
#226=EDGE_CURVE('',#126,#128,#76,.T.);
#228=EDGE_CURVE('',#124,#126,#80,.T.);
#239=EDGE_CURVE('',#115,#123,#84,.T.);
#242=EDGE_CURVE('',#116,#124,#96,.T.);
#253=EDGE_CURVE('',#120,#128,#88,.T.);
#266=EDGE_CURVE('',#118,#126,#92,.T.);
#285=CLOSED_SHELL('',(#154,#169,#183,#197,#210,#232,#246,#259,#272,#284));
#286=MANIFOLD_SOLID_BREP('',#285);
#287=(LENGTH_UNIT()NAMED_UNIT(*)SI_UNIT(.MILLI.,.METRE.));
#289=(NAMED_UNIT(*)PLANE_ANGLE_UNIT()SI_UNIT($,.RADIAN.));
#292=(NAMED_UNIT(*)SI_UNIT($,.STERADIAN.)SOLID_ANGLE_UNIT());
#295=ADVANCED_BREP_SHAPE_REPRESENTATION('',(#286),#294);
#302=PRODUCT_DEFINITION('design','',#301,#298);
#303=PRODUCT_DEFINITION_SHAPE('','SHAPE FOR BRACKET.',#302);
#304=SHAPE_DEFINITION_REPRESENTATION(#303,#295);
ENDSEC;
END-ISO-10303-21;
