ISO-10303-21;
HEADER;
FILE_DESCRIPTION((''),'2;1');
FILE_NAME('CELLPLATE','2026-05-29T11:09:48',('user'),(''),
'CREO PARAMETRIC BY PTC INC, 2025102','CREO PARAMETRIC BY PTC INC, 2025102','');
FILE_SCHEMA(('CONFIG_CONTROL_DESIGN'));
ENDSEC;
DATA;
#1=CARTESIAN_POINT('',(-8.75E1,0.E0,1.125E2));
#2=DIRECTION('',(0.E0,1.E0,0.E0));
#3=DIRECTION('',(0.E0,0.E0,-1.E0));
#4=AXIS2_PLACEMENT_3D('',#1,#2,#3);
#6=CARTESIAN_POINT('',(-8.75E1,0.E0,1.125E2));
#7=DIRECTION('',(0.E0,1.E0,0.E0));
#8=DIRECTION('',(0.E0,0.E0,1.E0));
#9=AXIS2_PLACEMENT_3D('',#6,#7,#8);
#11=CARTESIAN_POINT('',(-8.75E1,0.E0,-1.125E2));
#12=DIRECTION('',(0.E0,1.E0,0.E0));
#13=DIRECTION('',(0.E0,0.E0,-1.E0));
#14=AXIS2_PLACEMENT_3D('',#11,#12,#13);
#16=CARTESIAN_POINT('',(-8.75E1,0.E0,-1.125E2));
#17=DIRECTION('',(0.E0,1.E0,0.E0));
#18=DIRECTION('',(0.E0,0.E0,1.E0));
#19=AXIS2_PLACEMENT_3D('',#16,#17,#18);
#21=CARTESIAN_POINT('',(-1.25E1,0.E0,1.125E2));
#22=DIRECTION('',(0.E0,1.E0,0.E0));
#23=DIRECTION('',(0.E0,0.E0,-1.E0));
#24=AXIS2_PLACEMENT_3D('',#21,#22,#23);
#26=CARTESIAN_POINT('',(-1.25E1,0.E0,1.125E2));
#27=DIRECTION('',(0.E0,1.E0,0.E0));
#28=DIRECTION('',(0.E0,0.E0,1.E0));
#29=AXIS2_PLACEMENT_3D('',#26,#27,#28);
#31=CARTESIAN_POINT('',(-1.25E1,0.E0,-1.125E2));
#32=DIRECTION('',(0.E0,1.E0,0.E0));
#33=DIRECTION('',(0.E0,0.E0,-1.E0));
#34=AXIS2_PLACEMENT_3D('',#31,#32,#33);
#36=CARTESIAN_POINT('',(-1.25E1,0.E0,-1.125E2));
#37=DIRECTION('',(0.E0,1.E0,0.E0));
#38=DIRECTION('',(0.E0,0.E0,1.E0));
#39=AXIS2_PLACEMENT_3D('',#36,#37,#38);
#41=DIRECTION('',(0.E0,0.E0,-1.E0));
#42=VECTOR('',#41,3.E1);
#43=CARTESIAN_POINT('',(0.E0,1.E1,-1.E2));
#44=LINE('',#43,#42);
#45=DIRECTION('',(0.E0,0.E0,1.E0));
#46=VECTOR('',#45,2.6E2);
#47=CARTESIAN_POINT('',(0.E0,0.E0,-1.3E2));
#48=LINE('',#47,#46);
#49=DIRECTION('',(0.E0,1.E0,0.E0));
#50=VECTOR('',#49,9.E1);
#51=CARTESIAN_POINT('',(0.E0,1.E1,1.E2));
#52=LINE('',#51,#50);
#53=DIRECTION('',(0.E0,0.E0,-1.E0));
#54=VECTOR('',#53,2.E2);
#55=CARTESIAN_POINT('',(0.E0,1.E2,1.E2));
#56=LINE('',#55,#54);
#57=DIRECTION('',(-1.E0,0.E0,0.E0));
#58=VECTOR('',#57,1.E2);
#59=CARTESIAN_POINT('',(0.E0,1.E1,-1.E2));
#60=LINE('',#59,#58);
#61=DIRECTION('',(0.E0,1.E0,0.E0));
#62=VECTOR('',#61,9.E1);
#63=CARTESIAN_POINT('',(0.E0,1.E1,-1.E2));
#64=LINE('',#63,#62);
#65=DIRECTION('',(0.E0,0.E0,-1.E0));
#66=VECTOR('',#65,3.E1);
#67=CARTESIAN_POINT('',(-1.E2,1.E1,-1.E2));
#68=LINE('',#67,#66);
#69=CARTESIAN_POINT('',(-8.75E1,1.E1,-1.125E2));
#70=DIRECTION('',(0.E0,1.E0,0.E0));
#71=DIRECTION('',(0.E0,0.E0,-1.E0));
#72=AXIS2_PLACEMENT_3D('',#69,#70,#71);
#74=CARTESIAN_POINT('',(-8.75E1,1.E1,-1.125E2));
#75=DIRECTION('',(0.E0,1.E0,0.E0));
#76=DIRECTION('',(0.E0,0.E0,1.E0));
#77=AXIS2_PLACEMENT_3D('',#74,#75,#76);
#79=CARTESIAN_POINT('',(-1.25E1,1.E1,-1.125E2));
#80=DIRECTION('',(0.E0,1.E0,0.E0));
#81=DIRECTION('',(0.E0,0.E0,-1.E0));
#82=AXIS2_PLACEMENT_3D('',#79,#80,#81);
#84=CARTESIAN_POINT('',(-1.25E1,1.E1,-1.125E2));
#85=DIRECTION('',(0.E0,1.E0,0.E0));
#86=DIRECTION('',(0.E0,0.E0,1.E0));
#87=AXIS2_PLACEMENT_3D('',#84,#85,#86);
#89=DIRECTION('',(0.E0,0.E0,-1.E0));
#90=VECTOR('',#89,2.6E2);
#91=CARTESIAN_POINT('',(-1.E2,0.E0,1.3E2));
#92=LINE('',#91,#90);
#93=DIRECTION('',(0.E0,1.E0,0.E0));
#94=VECTOR('',#93,9.E1);
#95=CARTESIAN_POINT('',(-1.E2,1.E1,-1.E2));
#96=LINE('',#95,#94);
#97=DIRECTION('',(0.E0,0.E0,1.E0));
#98=VECTOR('',#97,2.E2);
#99=CARTESIAN_POINT('',(-1.E2,1.E2,-1.E2));
#100=LINE('',#99,#98);
#101=DIRECTION('',(0.E0,0.E0,1.E0));
#102=VECTOR('',#101,3.E1);
#103=CARTESIAN_POINT('',(-1.E2,1.E1,1.E2));
#104=LINE('',#103,#102);
#105=DIRECTION('',(-1.E0,0.E0,0.E0));
#106=VECTOR('',#105,1.E2);
#107=CARTESIAN_POINT('',(0.E0,0.E0,-1.3E2));
#108=LINE('',#107,#106);
#109=DIRECTION('',(0.E0,-1.E0,0.E0));
#110=VECTOR('',#109,1.E1);
#111=CARTESIAN_POINT('',(0.E0,1.E1,-1.3E2));
#112=LINE('',#111,#110);
#113=DIRECTION('',(1.E0,0.E0,0.E0));
#114=VECTOR('',#113,1.E2);
#115=CARTESIAN_POINT('',(-1.E2,1.E1,-1.3E2));
#116=LINE('',#115,#114);
#117=DIRECTION('',(0.E0,1.E0,0.E0));
#118=VECTOR('',#117,1.E1);
#119=CARTESIAN_POINT('',(-1.E2,0.E0,-1.3E2));
#120=LINE('',#119,#118);
#121=DIRECTION('',(-1.E0,0.E0,0.E0));
#122=VECTOR('',#121,1.E2);
#123=CARTESIAN_POINT('',(0.E0,1.E2,-1.E2));
#124=LINE('',#123,#122);
#125=DIRECTION('',(1.E0,0.E0,0.E0));
#126=VECTOR('',#125,1.E2);
#127=CARTESIAN_POINT('',(-1.E2,1.E2,1.E2));
#128=LINE('',#127,#126);
#129=DIRECTION('',(0.E0,0.E0,1.E0));
#130=VECTOR('',#129,2.54E1);
#131=CARTESIAN_POINT('',(-8.54E1,1.E2,-9.54E1));
#132=LINE('',#131,#130);
#133=DIRECTION('',(1.E0,0.E0,0.E0));
#134=VECTOR('',#133,2.54E1);
#135=CARTESIAN_POINT('',(-8.54E1,1.E2,-7.E1));
#136=LINE('',#135,#134);
#137=DIRECTION('',(0.E0,0.E0,-1.E0));
#138=VECTOR('',#137,2.54E1);
#139=CARTESIAN_POINT('',(-6.E1,1.E2,-7.E1));
#140=LINE('',#139,#138);
#141=DIRECTION('',(-1.E0,0.E0,0.E0));
#142=VECTOR('',#141,2.54E1);
#143=CARTESIAN_POINT('',(-6.E1,1.E2,-9.54E1));
#144=LINE('',#143,#142);
#145=DIRECTION('',(0.E0,0.E0,1.E0));
#146=VECTOR('',#145,2.56E1);
#147=CARTESIAN_POINT('',(-4.06E1,1.E2,-9.56E1));
#148=LINE('',#147,#146);
#149=DIRECTION('',(1.E0,0.E0,0.E0));
#150=VECTOR('',#149,2.56E1);
#151=CARTESIAN_POINT('',(-4.06E1,1.E2,-7.E1));
#152=LINE('',#151,#150);
#153=DIRECTION('',(0.E0,0.E0,-1.E0));
#154=VECTOR('',#153,2.56E1);
#155=CARTESIAN_POINT('',(-1.5E1,1.E2,-7.E1));
#156=LINE('',#155,#154);
#157=DIRECTION('',(-1.E0,0.E0,0.E0));
#158=VECTOR('',#157,2.56E1);
#159=CARTESIAN_POINT('',(-1.5E1,1.E2,-9.56E1));
#160=LINE('',#159,#158);
#161=DIRECTION('',(0.E0,0.E0,1.E0));
#162=VECTOR('',#161,2.54E1);
#163=CARTESIAN_POINT('',(-8.54E1,1.E2,-6.04E1));
#164=LINE('',#163,#162);
#165=DIRECTION('',(1.E0,0.E0,0.E0));
#166=VECTOR('',#165,2.54E1);
#167=CARTESIAN_POINT('',(-8.54E1,1.E2,-3.5E1));
#168=LINE('',#167,#166);
#169=DIRECTION('',(0.E0,0.E0,-1.E0));
#170=VECTOR('',#169,2.54E1);
#171=CARTESIAN_POINT('',(-6.E1,1.E2,-3.5E1));
#172=LINE('',#171,#170);
#173=DIRECTION('',(-1.E0,0.E0,0.E0));
#174=VECTOR('',#173,2.54E1);
#175=CARTESIAN_POINT('',(-6.E1,1.E2,-6.04E1));
#176=LINE('',#175,#174);
#177=DIRECTION('',(0.E0,0.E0,1.E0));
#178=VECTOR('',#177,9.971312640527E0);
#179=CARTESIAN_POINT('',(-9.348644880630E1,1.E2,-9.278384112592E1));
#180=LINE('',#179,#178);
#181=DIRECTION('',(1.E0,0.E0,0.E0));
#182=VECTOR('',#181,1.720810343186E0);
#183=CARTESIAN_POINT('',(-9.348644880630E1,1.E2,-8.281252848539E1));
#184=LINE('',#183,#182);
#185=DIRECTION('',(0.E0,0.E0,-1.E0));
#186=VECTOR('',#185,9.971312640527E0);
#187=CARTESIAN_POINT('',(-9.176563846312E1,1.E2,-8.281252848539E1));
#188=LINE('',#187,#186);
#189=DIRECTION('',(-1.E0,0.E0,0.E0));
#190=VECTOR('',#189,1.720810343186E0);
#191=CARTESIAN_POINT('',(-9.176563846312E1,1.E2,-9.278384112592E1));
#192=LINE('',#191,#190);
#193=DIRECTION('',(0.E0,0.E0,1.E0));
#194=VECTOR('',#193,2.56E1);
#195=CARTESIAN_POINT('',(-4.06E1,1.E2,-6.06E1));
#196=LINE('',#195,#194);
#197=DIRECTION('',(1.E0,0.E0,0.E0));
#198=VECTOR('',#197,2.56E1);
#199=CARTESIAN_POINT('',(-4.06E1,1.E2,-3.5E1));
#200=LINE('',#199,#198);
#201=DIRECTION('',(0.E0,0.E0,-1.E0));
#202=VECTOR('',#201,2.56E1);
#203=CARTESIAN_POINT('',(-1.5E1,1.E2,-3.5E1));
#204=LINE('',#203,#202);
#205=DIRECTION('',(-1.E0,0.E0,0.E0));
#206=VECTOR('',#205,2.56E1);
#207=CARTESIAN_POINT('',(-1.5E1,1.E2,-6.06E1));
#208=LINE('',#207,#206);
#209=DIRECTION('',(0.E0,0.E0,1.E0));
#210=VECTOR('',#209,2.54E1);
#211=CARTESIAN_POINT('',(-8.54E1,1.E2,-2.54E1));
#212=LINE('',#211,#210);
#213=DIRECTION('',(1.E0,0.E0,0.E0));
#214=VECTOR('',#213,2.54E1);
#215=CARTESIAN_POINT('',(-8.54E1,1.E2,0.E0));
#216=LINE('',#215,#214);
#217=DIRECTION('',(0.E0,0.E0,-1.E0));
#218=VECTOR('',#217,2.54E1);
#219=CARTESIAN_POINT('',(-6.E1,1.E2,0.E0));
#220=LINE('',#219,#218);
#221=DIRECTION('',(-1.E0,0.E0,0.E0));
#222=VECTOR('',#221,2.54E1);
#223=CARTESIAN_POINT('',(-6.E1,1.E2,-2.54E1));
#224=LINE('',#223,#222);
#225=DIRECTION('',(1.E0,0.E0,0.E0));
#226=VECTOR('',#225,2.56E1);
#227=CARTESIAN_POINT('',(-4.06E1,1.E2,0.E0));
#228=LINE('',#227,#226);
#229=DIRECTION('',(0.E0,0.E0,-1.E0));
#230=VECTOR('',#229,2.56E1);
#231=CARTESIAN_POINT('',(-1.5E1,1.E2,0.E0));
#232=LINE('',#231,#230);
#233=DIRECTION('',(-1.E0,0.E0,0.E0));
#234=VECTOR('',#233,2.56E1);
#235=CARTESIAN_POINT('',(-1.5E1,1.E2,-2.56E1));
#236=LINE('',#235,#234);
#237=DIRECTION('',(0.E0,0.E0,1.E0));
#238=VECTOR('',#237,2.56E1);
#239=CARTESIAN_POINT('',(-4.06E1,1.E2,-2.56E1));
#240=LINE('',#239,#238);
#241=DIRECTION('',(0.E0,0.E0,1.E0));
#242=VECTOR('',#241,2.54E1);
#243=CARTESIAN_POINT('',(-8.54E1,1.E2,1.5E1));
#244=LINE('',#243,#242);
#245=DIRECTION('',(1.E0,0.E0,0.E0));
#246=VECTOR('',#245,2.54E1);
#247=CARTESIAN_POINT('',(-8.54E1,1.E2,4.04E1));
#248=LINE('',#247,#246);
#249=DIRECTION('',(0.E0,0.E0,-1.E0));
#250=VECTOR('',#249,2.54E1);
#251=CARTESIAN_POINT('',(-6.E1,1.E2,4.04E1));
#252=LINE('',#251,#250);
#253=DIRECTION('',(-1.E0,0.E0,0.E0));
#254=VECTOR('',#253,2.54E1);
#255=CARTESIAN_POINT('',(-6.E1,1.E2,1.5E1));
#256=LINE('',#255,#254);
#257=DIRECTION('',(0.E0,0.E0,1.E0));
#258=VECTOR('',#257,2.56E1);
#259=CARTESIAN_POINT('',(-4.06E1,1.E2,1.5E1));
#260=LINE('',#259,#258);
#261=DIRECTION('',(1.E0,0.E0,0.E0));
#262=VECTOR('',#261,2.56E1);
#263=CARTESIAN_POINT('',(-4.06E1,1.E2,4.06E1));
#264=LINE('',#263,#262);
#265=DIRECTION('',(0.E0,0.E0,-1.E0));
#266=VECTOR('',#265,2.56E1);
#267=CARTESIAN_POINT('',(-1.5E1,1.E2,4.06E1));
#268=LINE('',#267,#266);
#269=DIRECTION('',(-1.E0,0.E0,0.E0));
#270=VECTOR('',#269,2.56E1);
#271=CARTESIAN_POINT('',(-1.5E1,1.E2,1.5E1));
#272=LINE('',#271,#270);
#273=DIRECTION('',(0.E0,0.E0,1.E0));
#274=VECTOR('',#273,2.5E1);
#275=CARTESIAN_POINT('',(-9.E1,1.E2,6.E1));
#276=LINE('',#275,#274);
#277=DIRECTION('',(0.E0,0.E0,-1.E0));
#278=VECTOR('',#277,2.5E1);
#279=CARTESIAN_POINT('',(-8.E1,1.E2,8.5E1));
#280=LINE('',#279,#278);
#281=DIRECTION('',(0.E0,0.E0,-1.E0));
#282=VECTOR('',#281,2.5E1);
#283=CARTESIAN_POINT('',(-5.46E1,1.E2,8.5E1));
#284=LINE('',#283,#282);
#285=DIRECTION('',(0.E0,0.E0,1.E0));
#286=VECTOR('',#285,2.5E1);
#287=CARTESIAN_POINT('',(-6.46E1,1.E2,6.E1));
#288=LINE('',#287,#286);
#289=DIRECTION('',(1.E0,0.E0,0.E0));
#290=VECTOR('',#289,2.52E1);
#291=CARTESIAN_POINT('',(-4.02E1,1.E2,8.52E1));
#292=LINE('',#291,#290);
#293=DIRECTION('',(0.E0,0.E0,-1.E0));
#294=VECTOR('',#293,2.52E1);
#295=CARTESIAN_POINT('',(-1.5E1,1.E2,8.52E1));
#296=LINE('',#295,#294);
#297=DIRECTION('',(-1.E0,0.E0,0.E0));
#298=VECTOR('',#297,2.52E1);
#299=CARTESIAN_POINT('',(-1.5E1,1.E2,6.E1));
#300=LINE('',#299,#298);
#301=DIRECTION('',(0.E0,0.E0,1.E0));
#302=VECTOR('',#301,2.52E1);
#303=CARTESIAN_POINT('',(-4.02E1,1.E2,6.E1));
#304=LINE('',#303,#302);
#305=DIRECTION('',(1.E0,0.E0,0.E0));
#306=VECTOR('',#305,1.E2);
#307=CARTESIAN_POINT('',(-1.E2,1.E1,1.E2));
#308=LINE('',#307,#306);
#309=DIRECTION('',(0.E0,1.E0,0.E0));
#310=VECTOR('',#309,9.E1);
#311=CARTESIAN_POINT('',(-1.E2,1.E1,1.E2));
#312=LINE('',#311,#310);
#313=DIRECTION('',(0.E0,0.E0,1.E0));
#314=VECTOR('',#313,3.E1);
#315=CARTESIAN_POINT('',(0.E0,1.E1,1.E2));
#316=LINE('',#315,#314);
#317=CARTESIAN_POINT('',(-8.75E1,1.E1,1.125E2));
#318=DIRECTION('',(0.E0,1.E0,0.E0));
#319=DIRECTION('',(0.E0,0.E0,-1.E0));
#320=AXIS2_PLACEMENT_3D('',#317,#318,#319);
#322=CARTESIAN_POINT('',(-8.75E1,1.E1,1.125E2));
#323=DIRECTION('',(0.E0,1.E0,0.E0));
#324=DIRECTION('',(0.E0,0.E0,1.E0));
#325=AXIS2_PLACEMENT_3D('',#322,#323,#324);
#327=CARTESIAN_POINT('',(-1.25E1,1.E1,1.125E2));
#328=DIRECTION('',(0.E0,1.E0,0.E0));
#329=DIRECTION('',(0.E0,0.E0,-1.E0));
#330=AXIS2_PLACEMENT_3D('',#327,#328,#329);
#332=CARTESIAN_POINT('',(-1.25E1,1.E1,1.125E2));
#333=DIRECTION('',(0.E0,1.E0,0.E0));
#334=DIRECTION('',(0.E0,0.E0,1.E0));
#335=AXIS2_PLACEMENT_3D('',#332,#333,#334);
#337=DIRECTION('',(1.E0,0.E0,0.E0));
#338=VECTOR('',#337,1.E2);
#339=CARTESIAN_POINT('',(-1.E2,0.E0,1.3E2));
#340=LINE('',#339,#338);
#341=DIRECTION('',(0.E0,-1.E0,0.E0));
#342=VECTOR('',#341,1.E1);
#343=CARTESIAN_POINT('',(-1.E2,1.E1,1.3E2));
#344=LINE('',#343,#342);
#345=DIRECTION('',(-1.E0,0.E0,0.E0));
#346=VECTOR('',#345,1.E2);
#347=CARTESIAN_POINT('',(0.E0,1.E1,1.3E2));
#348=LINE('',#347,#346);
#349=DIRECTION('',(0.E0,1.E0,0.E0));
#350=VECTOR('',#349,1.E1);
#351=CARTESIAN_POINT('',(0.E0,0.E0,1.3E2));
#352=LINE('',#351,#350);
#353=DIRECTION('',(0.E0,-1.E0,0.E0));
#354=VECTOR('',#353,1.E1);
#355=CARTESIAN_POINT('',(-8.75E1,1.E1,1.09E2));
#356=LINE('',#355,#354);
#357=DIRECTION('',(0.E0,-1.E0,0.E0));
#358=VECTOR('',#357,1.E1);
#359=CARTESIAN_POINT('',(-8.75E1,1.E1,1.16E2));
#360=LINE('',#359,#358);
#361=DIRECTION('',(0.E0,-1.E0,0.E0));
#362=VECTOR('',#361,1.E1);
#363=CARTESIAN_POINT('',(-1.25E1,1.E1,1.09E2));
#364=LINE('',#363,#362);
#365=DIRECTION('',(0.E0,-1.E0,0.E0));
#366=VECTOR('',#365,1.E1);
#367=CARTESIAN_POINT('',(-1.25E1,1.E1,1.16E2));
#368=LINE('',#367,#366);
#369=DIRECTION('',(0.E0,-1.E0,0.E0));
#370=VECTOR('',#369,1.E-1);
#371=CARTESIAN_POINT('',(-8.54E1,1.E2,-9.54E1));
#372=LINE('',#371,#370);
#373=DIRECTION('',(0.E0,-1.E0,0.E0));
#374=VECTOR('',#373,1.E-1);
#375=CARTESIAN_POINT('',(-6.E1,1.E2,-9.54E1));
#376=LINE('',#375,#374);
#377=DIRECTION('',(0.E0,-1.E0,0.E0));
#378=VECTOR('',#377,1.E-1);
#379=CARTESIAN_POINT('',(-6.E1,1.E2,-7.E1));
#380=LINE('',#379,#378);
#381=DIRECTION('',(0.E0,-1.E0,0.E0));
#382=VECTOR('',#381,1.E-1);
#383=CARTESIAN_POINT('',(-8.54E1,1.E2,-7.E1));
#384=LINE('',#383,#382);
#385=DIRECTION('',(0.E0,0.E0,1.E0));
#386=VECTOR('',#385,2.54E1);
#387=CARTESIAN_POINT('',(-8.54E1,9.99E1,-9.54E1));
#388=LINE('',#387,#386);
#389=DIRECTION('',(-1.E0,0.E0,0.E0));
#390=VECTOR('',#389,2.54E1);
#391=CARTESIAN_POINT('',(-6.E1,9.99E1,-9.54E1));
#392=LINE('',#391,#390);
#393=DIRECTION('',(0.E0,0.E0,-1.E0));
#394=VECTOR('',#393,2.54E1);
#395=CARTESIAN_POINT('',(-6.E1,9.99E1,-7.E1));
#396=LINE('',#395,#394);
#397=DIRECTION('',(1.E0,0.E0,0.E0));
#398=VECTOR('',#397,2.54E1);
#399=CARTESIAN_POINT('',(-8.54E1,9.99E1,-7.E1));
#400=LINE('',#399,#398);
#401=DIRECTION('',(0.E0,-1.E0,0.E0));
#402=VECTOR('',#401,2.E-1);
#403=CARTESIAN_POINT('',(-4.06E1,1.E2,-9.56E1));
#404=LINE('',#403,#402);
#405=DIRECTION('',(0.E0,-1.E0,0.E0));
#406=VECTOR('',#405,2.E-1);
#407=CARTESIAN_POINT('',(-1.5E1,1.E2,-9.56E1));
#408=LINE('',#407,#406);
#409=DIRECTION('',(0.E0,-1.E0,0.E0));
#410=VECTOR('',#409,2.E-1);
#411=CARTESIAN_POINT('',(-1.5E1,1.E2,-7.E1));
#412=LINE('',#411,#410);
#413=DIRECTION('',(0.E0,-1.E0,0.E0));
#414=VECTOR('',#413,2.E-1);
#415=CARTESIAN_POINT('',(-4.06E1,1.E2,-7.E1));
#416=LINE('',#415,#414);
#417=DIRECTION('',(0.E0,0.E0,1.E0));
#418=VECTOR('',#417,2.56E1);
#419=CARTESIAN_POINT('',(-4.06E1,9.98E1,-9.56E1));
#420=LINE('',#419,#418);
#421=DIRECTION('',(-1.E0,0.E0,0.E0));
#422=VECTOR('',#421,2.56E1);
#423=CARTESIAN_POINT('',(-1.5E1,9.98E1,-9.56E1));
#424=LINE('',#423,#422);
#425=DIRECTION('',(0.E0,0.E0,-1.E0));
#426=VECTOR('',#425,2.56E1);
#427=CARTESIAN_POINT('',(-1.5E1,9.98E1,-7.E1));
#428=LINE('',#427,#426);
#429=DIRECTION('',(1.E0,0.E0,0.E0));
#430=VECTOR('',#429,2.56E1);
#431=CARTESIAN_POINT('',(-4.06E1,9.98E1,-7.E1));
#432=LINE('',#431,#430);
#433=DIRECTION('',(0.E0,-1.E0,0.E0));
#434=VECTOR('',#433,3.E-1);
#435=CARTESIAN_POINT('',(-8.54E1,1.E2,-6.04E1));
#436=LINE('',#435,#434);
#437=DIRECTION('',(0.E0,-1.E0,0.E0));
#438=VECTOR('',#437,3.E-1);
#439=CARTESIAN_POINT('',(-6.E1,1.E2,-6.04E1));
#440=LINE('',#439,#438);
#441=DIRECTION('',(0.E0,-1.E0,0.E0));
#442=VECTOR('',#441,3.E-1);
#443=CARTESIAN_POINT('',(-6.E1,1.E2,-3.5E1));
#444=LINE('',#443,#442);
#445=DIRECTION('',(0.E0,-1.E0,0.E0));
#446=VECTOR('',#445,3.E-1);
#447=CARTESIAN_POINT('',(-8.54E1,1.E2,-3.5E1));
#448=LINE('',#447,#446);
#449=DIRECTION('',(0.E0,0.E0,1.E0));
#450=VECTOR('',#449,2.54E1);
#451=CARTESIAN_POINT('',(-8.54E1,9.97E1,-6.04E1));
#452=LINE('',#451,#450);
#453=DIRECTION('',(-1.E0,0.E0,0.E0));
#454=VECTOR('',#453,2.54E1);
#455=CARTESIAN_POINT('',(-6.E1,9.97E1,-6.04E1));
#456=LINE('',#455,#454);
#457=DIRECTION('',(0.E0,0.E0,-1.E0));
#458=VECTOR('',#457,2.54E1);
#459=CARTESIAN_POINT('',(-6.E1,9.97E1,-3.5E1));
#460=LINE('',#459,#458);
#461=DIRECTION('',(1.E0,0.E0,0.E0));
#462=VECTOR('',#461,2.54E1);
#463=CARTESIAN_POINT('',(-8.54E1,9.97E1,-3.5E1));
#464=LINE('',#463,#462);
#465=DIRECTION('',(0.E0,-1.E0,0.E0));
#466=VECTOR('',#465,1.E0);
#467=CARTESIAN_POINT('',(-9.348644880630E1,1.E2,-9.278384112592E1));
#468=LINE('',#467,#466);
#469=DIRECTION('',(0.E0,-1.E0,0.E0));
#470=VECTOR('',#469,1.E0);
#471=CARTESIAN_POINT('',(-9.176563846312E1,1.E2,-9.278384112592E1));
#472=LINE('',#471,#470);
#473=DIRECTION('',(0.E0,-1.E0,0.E0));
#474=VECTOR('',#473,1.E0);
#475=CARTESIAN_POINT('',(-9.176563846312E1,1.E2,-8.281252848539E1));
#476=LINE('',#475,#474);
#477=DIRECTION('',(0.E0,-1.E0,0.E0));
#478=VECTOR('',#477,1.E0);
#479=CARTESIAN_POINT('',(-9.348644880630E1,1.E2,-8.281252848539E1));
#480=LINE('',#479,#478);
#481=DIRECTION('',(0.E0,0.E0,1.E0));
#482=VECTOR('',#481,9.971312640527E0);
#483=CARTESIAN_POINT('',(-9.348644880630E1,9.9E1,-9.278384112592E1));
#484=LINE('',#483,#482);
#485=DIRECTION('',(-1.E0,0.E0,0.E0));
#486=VECTOR('',#485,1.720810343186E0);
#487=CARTESIAN_POINT('',(-9.176563846312E1,9.9E1,-9.278384112592E1));
#488=LINE('',#487,#486);
#489=DIRECTION('',(0.E0,0.E0,-1.E0));
#490=VECTOR('',#489,9.971312640527E0);
#491=CARTESIAN_POINT('',(-9.176563846312E1,9.9E1,-8.281252848539E1));
#492=LINE('',#491,#490);
#493=DIRECTION('',(1.E0,0.E0,0.E0));
#494=VECTOR('',#493,1.720810343186E0);
#495=CARTESIAN_POINT('',(-9.348644880630E1,9.9E1,-8.281252848539E1));
#496=LINE('',#495,#494);
#497=DIRECTION('',(0.E0,-1.E0,0.E0));
#498=VECTOR('',#497,4.E-1);
#499=CARTESIAN_POINT('',(-4.06E1,1.E2,-6.06E1));
#500=LINE('',#499,#498);
#501=DIRECTION('',(0.E0,-1.E0,0.E0));
#502=VECTOR('',#501,4.E-1);
#503=CARTESIAN_POINT('',(-1.5E1,1.E2,-6.06E1));
#504=LINE('',#503,#502);
#505=DIRECTION('',(0.E0,-1.E0,0.E0));
#506=VECTOR('',#505,4.E-1);
#507=CARTESIAN_POINT('',(-1.5E1,1.E2,-3.5E1));
#508=LINE('',#507,#506);
#509=DIRECTION('',(0.E0,-1.E0,0.E0));
#510=VECTOR('',#509,4.E-1);
#511=CARTESIAN_POINT('',(-4.06E1,1.E2,-3.5E1));
#512=LINE('',#511,#510);
#513=DIRECTION('',(0.E0,0.E0,1.E0));
#514=VECTOR('',#513,2.56E1);
#515=CARTESIAN_POINT('',(-4.06E1,9.96E1,-6.06E1));
#516=LINE('',#515,#514);
#517=DIRECTION('',(-1.E0,0.E0,0.E0));
#518=VECTOR('',#517,2.56E1);
#519=CARTESIAN_POINT('',(-1.5E1,9.96E1,-6.06E1));
#520=LINE('',#519,#518);
#521=DIRECTION('',(0.E0,0.E0,-1.E0));
#522=VECTOR('',#521,2.56E1);
#523=CARTESIAN_POINT('',(-1.5E1,9.96E1,-3.5E1));
#524=LINE('',#523,#522);
#525=DIRECTION('',(1.E0,0.E0,0.E0));
#526=VECTOR('',#525,2.56E1);
#527=CARTESIAN_POINT('',(-4.06E1,9.96E1,-3.5E1));
#528=LINE('',#527,#526);
#529=DIRECTION('',(0.E0,-1.E0,0.E0));
#530=VECTOR('',#529,5.E-1);
#531=CARTESIAN_POINT('',(-8.54E1,1.E2,-2.54E1));
#532=LINE('',#531,#530);
#533=DIRECTION('',(0.E0,-1.E0,0.E0));
#534=VECTOR('',#533,5.E-1);
#535=CARTESIAN_POINT('',(-6.E1,1.E2,-2.54E1));
#536=LINE('',#535,#534);
#537=DIRECTION('',(0.E0,-1.E0,0.E0));
#538=VECTOR('',#537,5.E-1);
#539=CARTESIAN_POINT('',(-6.E1,1.E2,0.E0));
#540=LINE('',#539,#538);
#541=DIRECTION('',(0.E0,-1.E0,0.E0));
#542=VECTOR('',#541,5.E-1);
#543=CARTESIAN_POINT('',(-8.54E1,1.E2,0.E0));
#544=LINE('',#543,#542);
#545=DIRECTION('',(0.E0,0.E0,1.E0));
#546=VECTOR('',#545,2.54E1);
#547=CARTESIAN_POINT('',(-8.54E1,9.95E1,-2.54E1));
#548=LINE('',#547,#546);
#549=DIRECTION('',(-1.E0,0.E0,0.E0));
#550=VECTOR('',#549,2.54E1);
#551=CARTESIAN_POINT('',(-6.E1,9.95E1,-2.54E1));
#552=LINE('',#551,#550);
#553=DIRECTION('',(0.E0,0.E0,-1.E0));
#554=VECTOR('',#553,2.54E1);
#555=CARTESIAN_POINT('',(-6.E1,9.95E1,0.E0));
#556=LINE('',#555,#554);
#557=DIRECTION('',(1.E0,0.E0,0.E0));
#558=VECTOR('',#557,2.54E1);
#559=CARTESIAN_POINT('',(-8.54E1,9.95E1,0.E0));
#560=LINE('',#559,#558);
#561=DIRECTION('',(0.E0,-1.E0,0.E0));
#562=VECTOR('',#561,6.E-1);
#563=CARTESIAN_POINT('',(-4.06E1,1.E2,0.E0));
#564=LINE('',#563,#562);
#565=DIRECTION('',(0.E0,-1.E0,0.E0));
#566=VECTOR('',#565,6.E-1);
#567=CARTESIAN_POINT('',(-4.06E1,1.E2,-2.56E1));
#568=LINE('',#567,#566);
#569=DIRECTION('',(0.E0,-1.E0,0.E0));
#570=VECTOR('',#569,6.E-1);
#571=CARTESIAN_POINT('',(-1.5E1,1.E2,-2.56E1));
#572=LINE('',#571,#570);
#573=DIRECTION('',(0.E0,-1.E0,0.E0));
#574=VECTOR('',#573,6.E-1);
#575=CARTESIAN_POINT('',(-1.5E1,1.E2,0.E0));
#576=LINE('',#575,#574);
#577=DIRECTION('',(1.E0,0.E0,0.E0));
#578=VECTOR('',#577,2.56E1);
#579=CARTESIAN_POINT('',(-4.06E1,9.94E1,0.E0));
#580=LINE('',#579,#578);
#581=DIRECTION('',(0.E0,0.E0,1.E0));
#582=VECTOR('',#581,2.56E1);
#583=CARTESIAN_POINT('',(-4.06E1,9.94E1,-2.56E1));
#584=LINE('',#583,#582);
#585=DIRECTION('',(-1.E0,0.E0,0.E0));
#586=VECTOR('',#585,2.56E1);
#587=CARTESIAN_POINT('',(-1.5E1,9.94E1,-2.56E1));
#588=LINE('',#587,#586);
#589=DIRECTION('',(0.E0,0.E0,-1.E0));
#590=VECTOR('',#589,2.56E1);
#591=CARTESIAN_POINT('',(-1.5E1,9.94E1,0.E0));
#592=LINE('',#591,#590);
#593=DIRECTION('',(0.E0,-1.E0,0.E0));
#594=VECTOR('',#593,7.E-1);
#595=CARTESIAN_POINT('',(-8.54E1,1.E2,1.5E1));
#596=LINE('',#595,#594);
#597=DIRECTION('',(0.E0,-1.E0,0.E0));
#598=VECTOR('',#597,7.E-1);
#599=CARTESIAN_POINT('',(-6.E1,1.E2,1.5E1));
#600=LINE('',#599,#598);
#601=DIRECTION('',(0.E0,-1.E0,0.E0));
#602=VECTOR('',#601,7.E-1);
#603=CARTESIAN_POINT('',(-6.E1,1.E2,4.04E1));
#604=LINE('',#603,#602);
#605=DIRECTION('',(0.E0,-1.E0,0.E0));
#606=VECTOR('',#605,7.E-1);
#607=CARTESIAN_POINT('',(-8.54E1,1.E2,4.04E1));
#608=LINE('',#607,#606);
#609=DIRECTION('',(0.E0,0.E0,1.E0));
#610=VECTOR('',#609,2.54E1);
#611=CARTESIAN_POINT('',(-8.54E1,9.93E1,1.5E1));
#612=LINE('',#611,#610);
#613=DIRECTION('',(-1.E0,0.E0,0.E0));
#614=VECTOR('',#613,2.54E1);
#615=CARTESIAN_POINT('',(-6.E1,9.93E1,1.5E1));
#616=LINE('',#615,#614);
#617=DIRECTION('',(0.E0,0.E0,-1.E0));
#618=VECTOR('',#617,2.54E1);
#619=CARTESIAN_POINT('',(-6.E1,9.93E1,4.04E1));
#620=LINE('',#619,#618);
#621=DIRECTION('',(1.E0,0.E0,0.E0));
#622=VECTOR('',#621,2.54E1);
#623=CARTESIAN_POINT('',(-8.54E1,9.93E1,4.04E1));
#624=LINE('',#623,#622);
#625=DIRECTION('',(0.E0,-1.E0,0.E0));
#626=VECTOR('',#625,8.E-1);
#627=CARTESIAN_POINT('',(-4.06E1,1.E2,1.5E1));
#628=LINE('',#627,#626);
#629=DIRECTION('',(0.E0,-1.E0,0.E0));
#630=VECTOR('',#629,8.E-1);
#631=CARTESIAN_POINT('',(-1.5E1,1.E2,1.5E1));
#632=LINE('',#631,#630);
#633=DIRECTION('',(0.E0,-1.E0,0.E0));
#634=VECTOR('',#633,8.E-1);
#635=CARTESIAN_POINT('',(-1.5E1,1.E2,4.06E1));
#636=LINE('',#635,#634);
#637=DIRECTION('',(0.E0,-1.E0,0.E0));
#638=VECTOR('',#637,8.E-1);
#639=CARTESIAN_POINT('',(-4.06E1,1.E2,4.06E1));
#640=LINE('',#639,#638);
#641=DIRECTION('',(0.E0,0.E0,1.E0));
#642=VECTOR('',#641,2.56E1);
#643=CARTESIAN_POINT('',(-4.06E1,9.92E1,1.5E1));
#644=LINE('',#643,#642);
#645=DIRECTION('',(-1.E0,0.E0,0.E0));
#646=VECTOR('',#645,2.56E1);
#647=CARTESIAN_POINT('',(-1.5E1,9.92E1,1.5E1));
#648=LINE('',#647,#646);
#649=DIRECTION('',(0.E0,0.E0,-1.E0));
#650=VECTOR('',#649,2.56E1);
#651=CARTESIAN_POINT('',(-1.5E1,9.92E1,4.06E1));
#652=LINE('',#651,#650);
#653=DIRECTION('',(1.E0,0.E0,0.E0));
#654=VECTOR('',#653,2.56E1);
#655=CARTESIAN_POINT('',(-4.06E1,9.92E1,4.06E1));
#656=LINE('',#655,#654);
#657=DIRECTION('',(0.E0,1.E0,0.E0));
#658=VECTOR('',#657,5.E0);
#659=CARTESIAN_POINT('',(-8.5E1,1.05E2,6.E1));
#660=LINE('',#659,#658);
#661=DIRECTION('',(1.E0,0.E0,0.E0));
#662=VECTOR('',#661,1.E1);
#663=CARTESIAN_POINT('',(-9.E1,1.E2,6.E1));
#664=LINE('',#663,#662);
#665=DIRECTION('',(0.E0,1.E0,0.E0));
#666=VECTOR('',#665,5.E0);
#667=CARTESIAN_POINT('',(-8.E1,1.E2,6.E1));
#668=LINE('',#667,#666);
#669=DIRECTION('',(0.E0,0.E0,-1.E0));
#670=VECTOR('',#669,2.5E1);
#671=CARTESIAN_POINT('',(-8.5E1,1.05E2,8.5E1));
#672=LINE('',#671,#670);
#673=DIRECTION('',(-1.E0,0.E0,0.E0));
#674=VECTOR('',#673,5.E0);
#675=CARTESIAN_POINT('',(-8.E1,1.05E2,6.E1));
#676=LINE('',#675,#674);
#677=DIRECTION('',(0.E0,0.E0,-1.E0));
#678=VECTOR('',#677,2.5E1);
#679=CARTESIAN_POINT('',(-8.E1,1.05E2,8.5E1));
#680=LINE('',#679,#678);
#681=DIRECTION('',(1.E0,0.E0,0.E0));
#682=VECTOR('',#681,5.E0);
#683=CARTESIAN_POINT('',(-8.5E1,1.05E2,8.5E1));
#684=LINE('',#683,#682);
#685=DIRECTION('',(0.E0,0.E0,-1.E0));
#686=VECTOR('',#685,2.5E1);
#687=CARTESIAN_POINT('',(-5.96E1,1.05E2,8.5E1));
#688=LINE('',#687,#686);
#689=DIRECTION('',(1.E0,0.E0,0.E0));
#690=VECTOR('',#689,5.E0);
#691=CARTESIAN_POINT('',(-6.46E1,1.05E2,8.5E1));
#692=LINE('',#691,#690);
#693=DIRECTION('',(0.E0,0.E0,1.E0));
#694=VECTOR('',#693,2.5E1);
#695=CARTESIAN_POINT('',(-6.46E1,1.05E2,6.E1));
#696=LINE('',#695,#694);
#697=DIRECTION('',(-1.E0,0.E0,0.E0));
#698=VECTOR('',#697,5.E0);
#699=CARTESIAN_POINT('',(-5.96E1,1.05E2,6.E1));
#700=LINE('',#699,#698);
#701=DIRECTION('',(0.E0,1.E0,0.E0));
#702=VECTOR('',#701,5.E0);
#703=CARTESIAN_POINT('',(-8.5E1,1.05E2,8.5E1));
#704=LINE('',#703,#702);
#705=DIRECTION('',(-1.E0,0.E0,0.E0));
#706=VECTOR('',#705,1.E1);
#707=CARTESIAN_POINT('',(-8.E1,1.E2,8.5E1));
#708=LINE('',#707,#706);
#709=DIRECTION('',(0.E0,1.E0,0.E0));
#710=VECTOR('',#709,1.E1);
#711=CARTESIAN_POINT('',(-9.E1,1.E2,8.5E1));
#712=LINE('',#711,#710);
#713=DIRECTION('',(0.E0,1.E0,0.E0));
#714=VECTOR('',#713,1.E1);
#715=CARTESIAN_POINT('',(-9.E1,1.E2,6.E1));
#716=LINE('',#715,#714);
#717=DIRECTION('',(-1.E0,0.E0,0.E0));
#718=VECTOR('',#717,5.E0);
#719=CARTESIAN_POINT('',(-8.5E1,1.1E2,6.E1));
#720=LINE('',#719,#718);
#721=DIRECTION('',(0.E0,0.E0,-1.E0));
#722=VECTOR('',#721,2.5E1);
#723=CARTESIAN_POINT('',(-8.5E1,1.1E2,8.5E1));
#724=LINE('',#723,#722);
#725=DIRECTION('',(1.E0,0.E0,0.E0));
#726=VECTOR('',#725,5.E0);
#727=CARTESIAN_POINT('',(-9.E1,1.1E2,8.5E1));
#728=LINE('',#727,#726);
#729=DIRECTION('',(0.E0,0.E0,1.E0));
#730=VECTOR('',#729,2.5E1);
#731=CARTESIAN_POINT('',(-9.E1,1.1E2,6.E1));
#732=LINE('',#731,#730);
#733=DIRECTION('',(0.E0,0.E0,1.E0));
#734=VECTOR('',#733,2.5E1);
#735=CARTESIAN_POINT('',(-5.96E1,1.1E2,6.E1));
#736=LINE('',#735,#734);
#737=DIRECTION('',(-1.E0,0.E0,0.E0));
#738=VECTOR('',#737,5.E0);
#739=CARTESIAN_POINT('',(-5.46E1,1.1E2,6.E1));
#740=LINE('',#739,#738);
#741=DIRECTION('',(0.E0,0.E0,-1.E0));
#742=VECTOR('',#741,2.5E1);
#743=CARTESIAN_POINT('',(-5.46E1,1.1E2,8.5E1));
#744=LINE('',#743,#742);
#745=DIRECTION('',(1.E0,0.E0,0.E0));
#746=VECTOR('',#745,5.E0);
#747=CARTESIAN_POINT('',(-5.96E1,1.1E2,8.5E1));
#748=LINE('',#747,#746);
#749=DIRECTION('',(0.E0,1.E0,0.E0));
#750=VECTOR('',#749,5.E0);
#751=CARTESIAN_POINT('',(-5.96E1,1.05E2,6.E1));
#752=LINE('',#751,#750);
#753=DIRECTION('',(1.E0,0.E0,0.E0));
#754=VECTOR('',#753,1.E1);
#755=CARTESIAN_POINT('',(-6.46E1,1.E2,6.E1));
#756=LINE('',#755,#754);
#757=DIRECTION('',(0.E0,1.E0,0.E0));
#758=VECTOR('',#757,1.E1);
#759=CARTESIAN_POINT('',(-5.46E1,1.E2,6.E1));
#760=LINE('',#759,#758);
#761=DIRECTION('',(0.E0,1.E0,0.E0));
#762=VECTOR('',#761,1.E1);
#763=CARTESIAN_POINT('',(-5.46E1,1.E2,8.5E1));
#764=LINE('',#763,#762);
#765=DIRECTION('',(0.E0,1.E0,0.E0));
#766=VECTOR('',#765,5.E0);
#767=CARTESIAN_POINT('',(-5.96E1,1.05E2,8.5E1));
#768=LINE('',#767,#766);
#769=DIRECTION('',(-1.E0,0.E0,0.E0));
#770=VECTOR('',#769,1.E1);
#771=CARTESIAN_POINT('',(-5.46E1,1.E2,8.5E1));
#772=LINE('',#771,#770);
#773=DIRECTION('',(0.E0,1.E0,0.E0));
#774=VECTOR('',#773,5.E0);
#775=CARTESIAN_POINT('',(-6.46E1,1.E2,8.5E1));
#776=LINE('',#775,#774);
#777=DIRECTION('',(0.E0,1.E0,0.E0));
#778=VECTOR('',#777,5.E0);
#779=CARTESIAN_POINT('',(-6.46E1,1.E2,6.E1));
#780=LINE('',#779,#778);
#781=DIRECTION('',(0.E0,1.E0,0.E0));
#782=VECTOR('',#781,5.E0);
#783=CARTESIAN_POINT('',(-8.E1,1.E2,8.5E1));
#784=LINE('',#783,#782);
#785=DIRECTION('',(0.E0,-1.E0,0.E0));
#786=VECTOR('',#785,5.E-1);
#787=CARTESIAN_POINT('',(-4.02E1,1.E2,8.52E1));
#788=LINE('',#787,#786);
#789=DIRECTION('',(0.E0,-1.E0,0.E0));
#790=VECTOR('',#789,5.E-1);
#791=CARTESIAN_POINT('',(-4.02E1,1.E2,6.E1));
#792=LINE('',#791,#790);
#793=DIRECTION('',(0.E0,-1.E0,0.E0));
#794=VECTOR('',#793,5.E-1);
#795=CARTESIAN_POINT('',(-1.5E1,1.E2,6.E1));
#796=LINE('',#795,#794);
#797=DIRECTION('',(0.E0,-1.E0,0.E0));
#798=VECTOR('',#797,5.E-1);
#799=CARTESIAN_POINT('',(-1.5E1,1.E2,8.52E1));
#800=LINE('',#799,#798);
#801=DIRECTION('',(1.E0,0.E0,0.E0));
#802=VECTOR('',#801,2.52E1);
#803=CARTESIAN_POINT('',(-4.02E1,9.95E1,8.52E1));
#804=LINE('',#803,#802);
#805=DIRECTION('',(0.E0,0.E0,1.E0));
#806=VECTOR('',#805,2.52E1);
#807=CARTESIAN_POINT('',(-4.02E1,9.95E1,6.E1));
#808=LINE('',#807,#806);
#809=DIRECTION('',(-1.E0,0.E0,0.E0));
#810=VECTOR('',#809,2.52E1);
#811=CARTESIAN_POINT('',(-1.5E1,9.95E1,6.E1));
#812=LINE('',#811,#810);
#813=DIRECTION('',(0.E0,0.E0,-1.E0));
#814=VECTOR('',#813,2.52E1);
#815=CARTESIAN_POINT('',(-1.5E1,9.95E1,8.52E1));
#816=LINE('',#815,#814);
#817=DIRECTION('',(0.E0,-1.E0,0.E0));
#818=VECTOR('',#817,1.E1);
#819=CARTESIAN_POINT('',(-8.75E1,1.E1,-1.16E2));
#820=LINE('',#819,#818);
#821=DIRECTION('',(0.E0,-1.E0,0.E0));
#822=VECTOR('',#821,1.E1);
#823=CARTESIAN_POINT('',(-8.75E1,1.E1,-1.09E2));
#824=LINE('',#823,#822);
#825=DIRECTION('',(0.E0,-1.E0,0.E0));
#826=VECTOR('',#825,1.E1);
#827=CARTESIAN_POINT('',(-1.25E1,1.E1,-1.16E2));
#828=LINE('',#827,#826);
#829=DIRECTION('',(0.E0,-1.E0,0.E0));
#830=VECTOR('',#829,1.E1);
#831=CARTESIAN_POINT('',(-1.25E1,1.E1,-1.09E2));
#832=LINE('',#831,#830);
#833=CARTESIAN_POINT('',(0.E0,1.E2,-1.E2));
#834=CARTESIAN_POINT('',(-1.E2,1.E2,-1.E2));
#835=VERTEX_POINT('',#833);
#836=VERTEX_POINT('',#834);
#837=CARTESIAN_POINT('',(-8.54E1,9.99E1,-9.54E1));
#838=CARTESIAN_POINT('',(-8.54E1,9.99E1,-7.E1));
#839=VERTEX_POINT('',#837);
#840=VERTEX_POINT('',#838);
#841=CARTESIAN_POINT('',(-6.E1,9.99E1,-7.E1));
#842=VERTEX_POINT('',#841);
#843=CARTESIAN_POINT('',(-6.E1,9.99E1,-9.54E1));
#844=VERTEX_POINT('',#843);
#845=CARTESIAN_POINT('',(-8.54E1,1.E2,-9.54E1));
#846=CARTESIAN_POINT('',(-8.54E1,1.E2,-7.E1));
#847=VERTEX_POINT('',#845);
#848=VERTEX_POINT('',#846);
#849=CARTESIAN_POINT('',(-6.E1,1.E2,-7.E1));
#850=VERTEX_POINT('',#849);
#851=CARTESIAN_POINT('',(-6.E1,1.E2,-9.54E1));
#852=VERTEX_POINT('',#851);
#853=CARTESIAN_POINT('',(-4.06E1,9.98E1,-9.56E1));
#854=CARTESIAN_POINT('',(-4.06E1,9.98E1,-7.E1));
#855=VERTEX_POINT('',#853);
#856=VERTEX_POINT('',#854);
#857=CARTESIAN_POINT('',(-1.5E1,9.98E1,-7.E1));
#858=VERTEX_POINT('',#857);
#859=CARTESIAN_POINT('',(-1.5E1,9.98E1,-9.56E1));
#860=VERTEX_POINT('',#859);
#861=CARTESIAN_POINT('',(-4.06E1,1.E2,-9.56E1));
#862=CARTESIAN_POINT('',(-4.06E1,1.E2,-7.E1));
#863=VERTEX_POINT('',#861);
#864=VERTEX_POINT('',#862);
#865=CARTESIAN_POINT('',(-1.5E1,1.E2,-7.E1));
#866=VERTEX_POINT('',#865);
#867=CARTESIAN_POINT('',(-1.5E1,1.E2,-9.56E1));
#868=VERTEX_POINT('',#867);
#869=CARTESIAN_POINT('',(-8.54E1,9.97E1,-6.04E1));
#870=CARTESIAN_POINT('',(-8.54E1,9.97E1,-3.5E1));
#871=VERTEX_POINT('',#869);
#872=VERTEX_POINT('',#870);
#873=CARTESIAN_POINT('',(-6.E1,9.97E1,-3.5E1));
#874=VERTEX_POINT('',#873);
#875=CARTESIAN_POINT('',(-6.E1,9.97E1,-6.04E1));
#876=VERTEX_POINT('',#875);
#877=CARTESIAN_POINT('',(-8.54E1,1.E2,-6.04E1));
#878=CARTESIAN_POINT('',(-8.54E1,1.E2,-3.5E1));
#879=VERTEX_POINT('',#877);
#880=VERTEX_POINT('',#878);
#881=CARTESIAN_POINT('',(-6.E1,1.E2,-3.5E1));
#882=VERTEX_POINT('',#881);
#883=CARTESIAN_POINT('',(-6.E1,1.E2,-6.04E1));
#884=VERTEX_POINT('',#883);
#885=CARTESIAN_POINT('',(-9.348644880630E1,9.9E1,-9.278384112592E1));
#886=CARTESIAN_POINT('',(-9.348644880630E1,9.9E1,-8.281252848539E1));
#887=VERTEX_POINT('',#885);
#888=VERTEX_POINT('',#886);
#889=CARTESIAN_POINT('',(-9.176563846312E1,9.9E1,-8.281252848539E1));
#890=VERTEX_POINT('',#889);
#891=CARTESIAN_POINT('',(-9.176563846312E1,9.9E1,-9.278384112592E1));
#892=VERTEX_POINT('',#891);
#893=CARTESIAN_POINT('',(-9.348644880630E1,1.E2,-9.278384112592E1));
#894=CARTESIAN_POINT('',(-9.348644880630E1,1.E2,-8.281252848539E1));
#895=VERTEX_POINT('',#893);
#896=VERTEX_POINT('',#894);
#897=CARTESIAN_POINT('',(-9.176563846312E1,1.E2,-8.281252848539E1));
#898=VERTEX_POINT('',#897);
#899=CARTESIAN_POINT('',(-9.176563846312E1,1.E2,-9.278384112592E1));
#900=VERTEX_POINT('',#899);
#901=CARTESIAN_POINT('',(-4.06E1,9.96E1,-6.06E1));
#902=CARTESIAN_POINT('',(-4.06E1,9.96E1,-3.5E1));
#903=VERTEX_POINT('',#901);
#904=VERTEX_POINT('',#902);
#905=CARTESIAN_POINT('',(-1.5E1,9.96E1,-3.5E1));
#906=VERTEX_POINT('',#905);
#907=CARTESIAN_POINT('',(-1.5E1,9.96E1,-6.06E1));
#908=VERTEX_POINT('',#907);
#909=CARTESIAN_POINT('',(-4.06E1,1.E2,-6.06E1));
#910=CARTESIAN_POINT('',(-4.06E1,1.E2,-3.5E1));
#911=VERTEX_POINT('',#909);
#912=VERTEX_POINT('',#910);
#913=CARTESIAN_POINT('',(-1.5E1,1.E2,-3.5E1));
#914=VERTEX_POINT('',#913);
#915=CARTESIAN_POINT('',(-1.5E1,1.E2,-6.06E1));
#916=VERTEX_POINT('',#915);
#917=CARTESIAN_POINT('',(-1.E2,1.E2,1.E2));
#918=CARTESIAN_POINT('',(0.E0,1.E2,1.E2));
#919=VERTEX_POINT('',#917);
#920=VERTEX_POINT('',#918);
#921=CARTESIAN_POINT('',(-8.54E1,9.95E1,-2.54E1));
#922=CARTESIAN_POINT('',(-8.54E1,9.95E1,0.E0));
#923=VERTEX_POINT('',#921);
#924=VERTEX_POINT('',#922);
#925=CARTESIAN_POINT('',(-6.E1,9.95E1,0.E0));
#926=VERTEX_POINT('',#925);
#927=CARTESIAN_POINT('',(-6.E1,9.95E1,-2.54E1));
#928=VERTEX_POINT('',#927);
#929=CARTESIAN_POINT('',(-8.54E1,1.E2,-2.54E1));
#930=CARTESIAN_POINT('',(-8.54E1,1.E2,0.E0));
#931=VERTEX_POINT('',#929);
#932=VERTEX_POINT('',#930);
#933=CARTESIAN_POINT('',(-6.E1,1.E2,0.E0));
#934=VERTEX_POINT('',#933);
#935=CARTESIAN_POINT('',(-6.E1,1.E2,-2.54E1));
#936=VERTEX_POINT('',#935);
#937=CARTESIAN_POINT('',(-4.06E1,9.94E1,0.E0));
#938=CARTESIAN_POINT('',(-1.5E1,9.94E1,0.E0));
#939=VERTEX_POINT('',#937);
#940=VERTEX_POINT('',#938);
#941=CARTESIAN_POINT('',(-1.5E1,9.94E1,-2.56E1));
#942=VERTEX_POINT('',#941);
#943=CARTESIAN_POINT('',(-4.06E1,9.94E1,-2.56E1));
#944=VERTEX_POINT('',#943);
#945=CARTESIAN_POINT('',(-4.06E1,1.E2,0.E0));
#946=CARTESIAN_POINT('',(-1.5E1,1.E2,0.E0));
#947=VERTEX_POINT('',#945);
#948=VERTEX_POINT('',#946);
#949=CARTESIAN_POINT('',(-1.5E1,1.E2,-2.56E1));
#950=VERTEX_POINT('',#949);
#951=CARTESIAN_POINT('',(-4.06E1,1.E2,-2.56E1));
#952=VERTEX_POINT('',#951);
#953=CARTESIAN_POINT('',(-8.54E1,9.93E1,1.5E1));
#954=CARTESIAN_POINT('',(-8.54E1,9.93E1,4.04E1));
#955=VERTEX_POINT('',#953);
#956=VERTEX_POINT('',#954);
#957=CARTESIAN_POINT('',(-6.E1,9.93E1,4.04E1));
#958=VERTEX_POINT('',#957);
#959=CARTESIAN_POINT('',(-6.E1,9.93E1,1.5E1));
#960=VERTEX_POINT('',#959);
#961=CARTESIAN_POINT('',(-8.54E1,1.E2,1.5E1));
#962=CARTESIAN_POINT('',(-8.54E1,1.E2,4.04E1));
#963=VERTEX_POINT('',#961);
#964=VERTEX_POINT('',#962);
#965=CARTESIAN_POINT('',(-6.E1,1.E2,4.04E1));
#966=VERTEX_POINT('',#965);
#967=CARTESIAN_POINT('',(-6.E1,1.E2,1.5E1));
#968=VERTEX_POINT('',#967);
#969=CARTESIAN_POINT('',(-4.06E1,9.92E1,1.5E1));
#970=CARTESIAN_POINT('',(-4.06E1,9.92E1,4.06E1));
#971=VERTEX_POINT('',#969);
#972=VERTEX_POINT('',#970);
#973=CARTESIAN_POINT('',(-1.5E1,9.92E1,4.06E1));
#974=VERTEX_POINT('',#973);
#975=CARTESIAN_POINT('',(-1.5E1,9.92E1,1.5E1));
#976=VERTEX_POINT('',#975);
#977=CARTESIAN_POINT('',(-4.06E1,1.E2,1.5E1));
#978=CARTESIAN_POINT('',(-4.06E1,1.E2,4.06E1));
#979=VERTEX_POINT('',#977);
#980=VERTEX_POINT('',#978);
#981=CARTESIAN_POINT('',(-1.5E1,1.E2,4.06E1));
#982=VERTEX_POINT('',#981);
#983=CARTESIAN_POINT('',(-1.5E1,1.E2,1.5E1));
#984=VERTEX_POINT('',#983);
#985=CARTESIAN_POINT('',(-8.E1,1.05E2,8.5E1));
#986=CARTESIAN_POINT('',(-8.E1,1.05E2,6.E1));
#987=VERTEX_POINT('',#985);
#988=VERTEX_POINT('',#986);
#989=CARTESIAN_POINT('',(-6.46E1,1.05E2,6.E1));
#990=CARTESIAN_POINT('',(-6.46E1,1.05E2,8.5E1));
#991=VERTEX_POINT('',#989);
#992=VERTEX_POINT('',#990);
#993=CARTESIAN_POINT('',(-8.E1,1.E2,8.5E1));
#994=CARTESIAN_POINT('',(-8.E1,1.E2,6.E1));
#995=VERTEX_POINT('',#993);
#996=VERTEX_POINT('',#994);
#997=CARTESIAN_POINT('',(-6.46E1,1.E2,6.E1));
#998=CARTESIAN_POINT('',(-6.46E1,1.E2,8.5E1));
#999=VERTEX_POINT('',#997);
#1000=VERTEX_POINT('',#998);
#1001=CARTESIAN_POINT('',(-8.5E1,1.1E2,6.E1));
#1002=CARTESIAN_POINT('',(-9.E1,1.1E2,6.E1));
#1003=VERTEX_POINT('',#1001);
#1004=VERTEX_POINT('',#1002);
#1005=CARTESIAN_POINT('',(-9.E1,1.1E2,8.5E1));
#1006=VERTEX_POINT('',#1005);
#1007=CARTESIAN_POINT('',(-8.5E1,1.1E2,8.5E1));
#1008=VERTEX_POINT('',#1007);
#1009=CARTESIAN_POINT('',(-5.96E1,1.1E2,6.E1));
#1010=CARTESIAN_POINT('',(-5.96E1,1.1E2,8.5E1));
#1011=VERTEX_POINT('',#1009);
#1012=VERTEX_POINT('',#1010);
#1013=CARTESIAN_POINT('',(-5.46E1,1.1E2,8.5E1));
#1014=VERTEX_POINT('',#1013);
#1015=CARTESIAN_POINT('',(-5.46E1,1.1E2,6.E1));
#1016=VERTEX_POINT('',#1015);
#1017=CARTESIAN_POINT('',(-9.E1,1.E2,6.E1));
#1018=CARTESIAN_POINT('',(-9.E1,1.E2,8.5E1));
#1019=VERTEX_POINT('',#1017);
#1020=VERTEX_POINT('',#1018);
#1021=CARTESIAN_POINT('',(-5.46E1,1.E2,8.5E1));
#1022=CARTESIAN_POINT('',(-5.46E1,1.E2,6.E1));
#1023=VERTEX_POINT('',#1021);
#1024=VERTEX_POINT('',#1022);
#1025=CARTESIAN_POINT('',(-8.5E1,1.05E2,8.5E1));
#1026=CARTESIAN_POINT('',(-8.5E1,1.05E2,6.E1));
#1027=VERTEX_POINT('',#1025);
#1028=VERTEX_POINT('',#1026);
#1029=CARTESIAN_POINT('',(-5.96E1,1.05E2,8.5E1));
#1030=CARTESIAN_POINT('',(-5.96E1,1.05E2,6.E1));
#1031=VERTEX_POINT('',#1029);
#1032=VERTEX_POINT('',#1030);
#1033=CARTESIAN_POINT('',(-1.E2,0.E0,1.3E2));
#1034=CARTESIAN_POINT('',(0.E0,0.E0,1.3E2));
#1035=VERTEX_POINT('',#1033);
#1036=VERTEX_POINT('',#1034);
#1037=CARTESIAN_POINT('',(0.E0,1.E1,1.3E2));
#1038=VERTEX_POINT('',#1037);
#1039=CARTESIAN_POINT('',(-1.E2,1.E1,1.3E2));
#1040=VERTEX_POINT('',#1039);
#1041=CARTESIAN_POINT('',(-1.E2,1.E1,1.E2));
#1042=CARTESIAN_POINT('',(0.E0,1.E1,1.E2));
#1043=VERTEX_POINT('',#1041);
#1044=VERTEX_POINT('',#1042);
#1045=CARTESIAN_POINT('',(0.E0,0.E0,-1.3E2));
#1046=CARTESIAN_POINT('',(-1.E2,0.E0,-1.3E2));
#1047=VERTEX_POINT('',#1045);
#1048=VERTEX_POINT('',#1046);
#1049=CARTESIAN_POINT('',(-1.E2,1.E1,-1.3E2));
#1050=VERTEX_POINT('',#1049);
#1051=CARTESIAN_POINT('',(0.E0,1.E1,-1.3E2));
#1052=VERTEX_POINT('',#1051);
#1053=CARTESIAN_POINT('',(0.E0,1.E1,-1.E2));
#1054=CARTESIAN_POINT('',(-1.E2,1.E1,-1.E2));
#1055=VERTEX_POINT('',#1053);
#1056=VERTEX_POINT('',#1054);
#1057=CARTESIAN_POINT('',(-8.75E1,0.E0,1.09E2));
#1058=CARTESIAN_POINT('',(-8.75E1,0.E0,1.16E2));
#1059=VERTEX_POINT('',#1057);
#1060=VERTEX_POINT('',#1058);
#1061=CARTESIAN_POINT('',(-8.75E1,0.E0,-1.16E2));
#1062=CARTESIAN_POINT('',(-8.75E1,0.E0,-1.09E2));
#1063=VERTEX_POINT('',#1061);
#1064=VERTEX_POINT('',#1062);
#1065=CARTESIAN_POINT('',(-1.25E1,0.E0,1.09E2));
#1066=CARTESIAN_POINT('',(-1.25E1,0.E0,1.16E2));
#1067=VERTEX_POINT('',#1065);
#1068=VERTEX_POINT('',#1066);
#1069=CARTESIAN_POINT('',(-1.25E1,0.E0,-1.16E2));
#1070=CARTESIAN_POINT('',(-1.25E1,0.E0,-1.09E2));
#1071=VERTEX_POINT('',#1069);
#1072=VERTEX_POINT('',#1070);
#1073=CARTESIAN_POINT('',(-8.75E1,1.E1,1.09E2));
#1074=CARTESIAN_POINT('',(-8.75E1,1.E1,1.16E2));
#1075=VERTEX_POINT('',#1073);
#1076=VERTEX_POINT('',#1074);
#1077=CARTESIAN_POINT('',(-1.25E1,1.E1,1.09E2));
#1078=CARTESIAN_POINT('',(-1.25E1,1.E1,1.16E2));
#1079=VERTEX_POINT('',#1077);
#1080=VERTEX_POINT('',#1078);
#1081=CARTESIAN_POINT('',(-8.75E1,1.E1,-1.16E2));
#1082=CARTESIAN_POINT('',(-8.75E1,1.E1,-1.09E2));
#1083=VERTEX_POINT('',#1081);
#1084=VERTEX_POINT('',#1082);
#1085=CARTESIAN_POINT('',(-1.25E1,1.E1,-1.16E2));
#1086=CARTESIAN_POINT('',(-1.25E1,1.E1,-1.09E2));
#1087=VERTEX_POINT('',#1085);
#1088=VERTEX_POINT('',#1086);
#1089=CARTESIAN_POINT('',(-4.02E1,9.95E1,8.52E1));
#1090=CARTESIAN_POINT('',(-1.5E1,9.95E1,8.52E1));
#1091=VERTEX_POINT('',#1089);
#1092=VERTEX_POINT('',#1090);
#1093=CARTESIAN_POINT('',(-1.5E1,9.95E1,6.E1));
#1094=VERTEX_POINT('',#1093);
#1095=CARTESIAN_POINT('',(-4.02E1,9.95E1,6.E1));
#1096=VERTEX_POINT('',#1095);
#1097=CARTESIAN_POINT('',(-4.02E1,1.E2,8.52E1));
#1098=CARTESIAN_POINT('',(-1.5E1,1.E2,8.52E1));
#1099=VERTEX_POINT('',#1097);
#1100=VERTEX_POINT('',#1098);
#1101=CARTESIAN_POINT('',(-1.5E1,1.E2,6.E1));
#1102=VERTEX_POINT('',#1101);
#1103=CARTESIAN_POINT('',(-4.02E1,1.E2,6.E1));
#1104=VERTEX_POINT('',#1103);
#1105=CARTESIAN_POINT('',(0.E0,0.E0,0.E0));
#1106=DIRECTION('',(0.E0,1.E0,0.E0));
#1107=DIRECTION('',(1.E0,0.E0,0.E0));
#1108=AXIS2_PLACEMENT_3D('',#1105,#1106,#1107);
#1109=PLANE('',#1108);
#1111=ORIENTED_EDGE('',*,*,#1110,.F.);
#1113=ORIENTED_EDGE('',*,*,#1112,.T.);
#1115=ORIENTED_EDGE('',*,*,#1114,.F.);
#1117=ORIENTED_EDGE('',*,*,#1116,.T.);
#1118=EDGE_LOOP('',(#1111,#1113,#1115,#1117));
#1119=FACE_OUTER_BOUND('',#1118,.F.);
#1121=ORIENTED_EDGE('',*,*,#1120,.F.);
#1123=ORIENTED_EDGE('',*,*,#1122,.F.);
#1124=EDGE_LOOP('',(#1121,#1123));
#1125=FACE_BOUND('',#1124,.F.);
#1127=ORIENTED_EDGE('',*,*,#1126,.F.);
#1129=ORIENTED_EDGE('',*,*,#1128,.F.);
#1130=EDGE_LOOP('',(#1127,#1129));
#1131=FACE_BOUND('',#1130,.F.);
#1133=ORIENTED_EDGE('',*,*,#1132,.F.);
#1135=ORIENTED_EDGE('',*,*,#1134,.F.);
#1136=EDGE_LOOP('',(#1133,#1135));
#1137=FACE_BOUND('',#1136,.F.);
#1139=ORIENTED_EDGE('',*,*,#1138,.F.);
#1141=ORIENTED_EDGE('',*,*,#1140,.F.);
#1142=EDGE_LOOP('',(#1139,#1141));
#1143=FACE_BOUND('',#1142,.F.);
#1144=ADVANCED_FACE('',(#1119,#1125,#1131,#1137,#1143),#1109,.F.);
#1145=CARTESIAN_POINT('',(0.E0,0.E0,0.E0));
#1146=DIRECTION('',(1.E0,0.E0,0.E0));
#1147=DIRECTION('',(0.E0,0.E0,-1.E0));
#1148=AXIS2_PLACEMENT_3D('',#1145,#1146,#1147);
#1149=PLANE('',#1148);
#1151=ORIENTED_EDGE('',*,*,#1150,.F.);
#1153=ORIENTED_EDGE('',*,*,#1152,.T.);
#1155=ORIENTED_EDGE('',*,*,#1154,.T.);
#1156=ORIENTED_EDGE('',*,*,#1110,.T.);
#1158=ORIENTED_EDGE('',*,*,#1157,.T.);
#1160=ORIENTED_EDGE('',*,*,#1159,.F.);
#1162=ORIENTED_EDGE('',*,*,#1161,.T.);
#1164=ORIENTED_EDGE('',*,*,#1163,.T.);
#1165=EDGE_LOOP('',(#1151,#1153,#1155,#1156,#1158,#1160,#1162,#1164));
#1166=FACE_OUTER_BOUND('',#1165,.F.);
#1167=ADVANCED_FACE('',(#1166),#1149,.T.);
#1168=CARTESIAN_POINT('',(0.E0,0.E0,-1.E2));
#1169=DIRECTION('',(0.E0,0.E0,-1.E0));
#1170=DIRECTION('',(-1.E0,0.E0,0.E0));
#1171=AXIS2_PLACEMENT_3D('',#1168,#1169,#1170);
#1172=PLANE('',#1171);
#1174=ORIENTED_EDGE('',*,*,#1173,.F.);
#1175=ORIENTED_EDGE('',*,*,#1150,.T.);
#1177=ORIENTED_EDGE('',*,*,#1176,.T.);
#1179=ORIENTED_EDGE('',*,*,#1178,.F.);
#1180=EDGE_LOOP('',(#1174,#1175,#1177,#1179));
#1181=FACE_OUTER_BOUND('',#1180,.F.);
#1182=ADVANCED_FACE('',(#1181),#1172,.T.);
#1183=CARTESIAN_POINT('',(-1.E2,1.E1,-1.E2));
#1184=DIRECTION('',(0.E0,1.E0,0.E0));
#1185=DIRECTION('',(1.E0,0.E0,0.E0));
#1186=AXIS2_PLACEMENT_3D('',#1183,#1184,#1185);
#1187=PLANE('',#1186);
#1188=ORIENTED_EDGE('',*,*,#1173,.T.);
#1190=ORIENTED_EDGE('',*,*,#1189,.T.);
#1192=ORIENTED_EDGE('',*,*,#1191,.T.);
#1193=ORIENTED_EDGE('',*,*,#1152,.F.);
#1194=EDGE_LOOP('',(#1188,#1190,#1192,#1193));
#1195=FACE_OUTER_BOUND('',#1194,.F.);
#1197=ORIENTED_EDGE('',*,*,#1196,.T.);
#1199=ORIENTED_EDGE('',*,*,#1198,.T.);
#1200=EDGE_LOOP('',(#1197,#1199));
#1201=FACE_BOUND('',#1200,.F.);
#1203=ORIENTED_EDGE('',*,*,#1202,.T.);
#1205=ORIENTED_EDGE('',*,*,#1204,.T.);
#1206=EDGE_LOOP('',(#1203,#1205));
#1207=FACE_BOUND('',#1206,.F.);
#1208=ADVANCED_FACE('',(#1195,#1201,#1207),#1187,.T.);
#1209=CARTESIAN_POINT('',(-1.E2,0.E0,-1.E2));
#1210=DIRECTION('',(-1.E0,0.E0,0.E0));
#1211=DIRECTION('',(0.E0,0.E0,1.E0));
#1212=AXIS2_PLACEMENT_3D('',#1209,#1210,#1211);
#1213=PLANE('',#1212);
#1214=ORIENTED_EDGE('',*,*,#1114,.T.);
#1216=ORIENTED_EDGE('',*,*,#1215,.T.);
#1217=ORIENTED_EDGE('',*,*,#1189,.F.);
#1218=ORIENTED_EDGE('',*,*,#1178,.T.);
#1220=ORIENTED_EDGE('',*,*,#1219,.T.);
#1222=ORIENTED_EDGE('',*,*,#1221,.F.);
#1224=ORIENTED_EDGE('',*,*,#1223,.T.);
#1226=ORIENTED_EDGE('',*,*,#1225,.T.);
#1227=EDGE_LOOP('',(#1214,#1216,#1217,#1218,#1220,#1222,#1224,#1226));
#1228=FACE_OUTER_BOUND('',#1227,.F.);
#1229=ADVANCED_FACE('',(#1228),#1213,.T.);
#1230=CARTESIAN_POINT('',(0.E0,0.E0,-1.3E2));
#1231=DIRECTION('',(0.E0,0.E0,-1.E0));
#1232=DIRECTION('',(-1.E0,0.E0,0.E0));
#1233=AXIS2_PLACEMENT_3D('',#1230,#1231,#1232);
#1234=PLANE('',#1233);
#1235=ORIENTED_EDGE('',*,*,#1112,.F.);
#1236=ORIENTED_EDGE('',*,*,#1154,.F.);
#1237=ORIENTED_EDGE('',*,*,#1191,.F.);
#1238=ORIENTED_EDGE('',*,*,#1215,.F.);
#1239=EDGE_LOOP('',(#1235,#1236,#1237,#1238));
#1240=FACE_OUTER_BOUND('',#1239,.F.);
#1241=ADVANCED_FACE('',(#1240),#1234,.T.);
#1242=CARTESIAN_POINT('',(0.E0,1.E2,0.E0));
#1243=DIRECTION('',(0.E0,1.E0,0.E0));
#1244=DIRECTION('',(1.E0,0.E0,0.E0));
#1245=AXIS2_PLACEMENT_3D('',#1242,#1243,#1244);
#1246=PLANE('',#1245);
#1247=ORIENTED_EDGE('',*,*,#1219,.F.);
#1248=ORIENTED_EDGE('',*,*,#1176,.F.);
#1249=ORIENTED_EDGE('',*,*,#1163,.F.);
#1251=ORIENTED_EDGE('',*,*,#1250,.F.);
#1252=EDGE_LOOP('',(#1247,#1248,#1249,#1251));
#1253=FACE_OUTER_BOUND('',#1252,.F.);
#1255=ORIENTED_EDGE('',*,*,#1254,.T.);
#1257=ORIENTED_EDGE('',*,*,#1256,.T.);
#1259=ORIENTED_EDGE('',*,*,#1258,.T.);
#1261=ORIENTED_EDGE('',*,*,#1260,.T.);
#1262=EDGE_LOOP('',(#1255,#1257,#1259,#1261));
#1263=FACE_BOUND('',#1262,.F.);
#1265=ORIENTED_EDGE('',*,*,#1264,.T.);
#1267=ORIENTED_EDGE('',*,*,#1266,.T.);
#1269=ORIENTED_EDGE('',*,*,#1268,.T.);
#1271=ORIENTED_EDGE('',*,*,#1270,.T.);
#1272=EDGE_LOOP('',(#1265,#1267,#1269,#1271));
#1273=FACE_BOUND('',#1272,.F.);
#1275=ORIENTED_EDGE('',*,*,#1274,.T.);
#1277=ORIENTED_EDGE('',*,*,#1276,.T.);
#1279=ORIENTED_EDGE('',*,*,#1278,.T.);
#1281=ORIENTED_EDGE('',*,*,#1280,.T.);
#1282=EDGE_LOOP('',(#1275,#1277,#1279,#1281));
#1283=FACE_BOUND('',#1282,.F.);
#1285=ORIENTED_EDGE('',*,*,#1284,.T.);
#1287=ORIENTED_EDGE('',*,*,#1286,.T.);
#1289=ORIENTED_EDGE('',*,*,#1288,.T.);
#1291=ORIENTED_EDGE('',*,*,#1290,.T.);
#1292=EDGE_LOOP('',(#1285,#1287,#1289,#1291));
#1293=FACE_BOUND('',#1292,.F.);
#1295=ORIENTED_EDGE('',*,*,#1294,.T.);
#1297=ORIENTED_EDGE('',*,*,#1296,.T.);
#1299=ORIENTED_EDGE('',*,*,#1298,.T.);
#1301=ORIENTED_EDGE('',*,*,#1300,.T.);
#1302=EDGE_LOOP('',(#1295,#1297,#1299,#1301));
#1303=FACE_BOUND('',#1302,.F.);
#1305=ORIENTED_EDGE('',*,*,#1304,.T.);
#1307=ORIENTED_EDGE('',*,*,#1306,.T.);
#1309=ORIENTED_EDGE('',*,*,#1308,.T.);
#1311=ORIENTED_EDGE('',*,*,#1310,.T.);
#1312=EDGE_LOOP('',(#1305,#1307,#1309,#1311));
#1313=FACE_BOUND('',#1312,.F.);
#1315=ORIENTED_EDGE('',*,*,#1314,.T.);
#1317=ORIENTED_EDGE('',*,*,#1316,.T.);
#1319=ORIENTED_EDGE('',*,*,#1318,.T.);
#1321=ORIENTED_EDGE('',*,*,#1320,.T.);
#1322=EDGE_LOOP('',(#1315,#1317,#1319,#1321));
#1323=FACE_BOUND('',#1322,.F.);
#1325=ORIENTED_EDGE('',*,*,#1324,.T.);
#1327=ORIENTED_EDGE('',*,*,#1326,.T.);
#1329=ORIENTED_EDGE('',*,*,#1328,.T.);
#1331=ORIENTED_EDGE('',*,*,#1330,.T.);
#1332=EDGE_LOOP('',(#1325,#1327,#1329,#1331));
#1333=FACE_BOUND('',#1332,.F.);
#1335=ORIENTED_EDGE('',*,*,#1334,.T.);
#1337=ORIENTED_EDGE('',*,*,#1336,.T.);
#1339=ORIENTED_EDGE('',*,*,#1338,.T.);
#1341=ORIENTED_EDGE('',*,*,#1340,.T.);
#1342=EDGE_LOOP('',(#1335,#1337,#1339,#1341));
#1343=FACE_BOUND('',#1342,.F.);
#1345=ORIENTED_EDGE('',*,*,#1344,.F.);
#1347=ORIENTED_EDGE('',*,*,#1346,.T.);
#1349=ORIENTED_EDGE('',*,*,#1348,.F.);
#1351=ORIENTED_EDGE('',*,*,#1350,.T.);
#1352=EDGE_LOOP('',(#1345,#1347,#1349,#1351));
#1353=FACE_BOUND('',#1352,.F.);
#1355=ORIENTED_EDGE('',*,*,#1354,.F.);
#1357=ORIENTED_EDGE('',*,*,#1356,.T.);
#1359=ORIENTED_EDGE('',*,*,#1358,.F.);
#1361=ORIENTED_EDGE('',*,*,#1360,.T.);
#1362=EDGE_LOOP('',(#1355,#1357,#1359,#1361));
#1363=FACE_BOUND('',#1362,.F.);
#1365=ORIENTED_EDGE('',*,*,#1364,.T.);
#1367=ORIENTED_EDGE('',*,*,#1366,.T.);
#1369=ORIENTED_EDGE('',*,*,#1368,.T.);
#1371=ORIENTED_EDGE('',*,*,#1370,.T.);
#1372=EDGE_LOOP('',(#1365,#1367,#1369,#1371));
#1373=FACE_BOUND('',#1372,.F.);
#1374=ADVANCED_FACE('',(#1253,#1263,#1273,#1283,#1293,#1303,#1313,#1323,#1333,
#1343,#1353,#1363,#1373),#1246,.T.);
#1375=CARTESIAN_POINT('',(-1.E2,0.E0,1.E2));
#1376=DIRECTION('',(0.E0,0.E0,1.E0));
#1377=DIRECTION('',(1.E0,0.E0,0.E0));
#1378=AXIS2_PLACEMENT_3D('',#1375,#1376,#1377);
#1379=PLANE('',#1378);
#1381=ORIENTED_EDGE('',*,*,#1380,.F.);
#1382=ORIENTED_EDGE('',*,*,#1221,.T.);
#1383=ORIENTED_EDGE('',*,*,#1250,.T.);
#1384=ORIENTED_EDGE('',*,*,#1161,.F.);
#1385=EDGE_LOOP('',(#1381,#1382,#1383,#1384));
#1386=FACE_OUTER_BOUND('',#1385,.F.);
#1387=ADVANCED_FACE('',(#1386),#1379,.T.);
#1388=CARTESIAN_POINT('',(0.E0,1.E1,1.E2));
#1389=DIRECTION('',(0.E0,1.E0,0.E0));
#1390=DIRECTION('',(-1.E0,0.E0,0.E0));
#1391=AXIS2_PLACEMENT_3D('',#1388,#1389,#1390);
#1392=PLANE('',#1391);
#1393=ORIENTED_EDGE('',*,*,#1380,.T.);
#1394=ORIENTED_EDGE('',*,*,#1159,.T.);
#1396=ORIENTED_EDGE('',*,*,#1395,.T.);
#1397=ORIENTED_EDGE('',*,*,#1223,.F.);
#1398=EDGE_LOOP('',(#1393,#1394,#1396,#1397));
#1399=FACE_OUTER_BOUND('',#1398,.F.);
#1401=ORIENTED_EDGE('',*,*,#1400,.T.);
#1403=ORIENTED_EDGE('',*,*,#1402,.T.);
#1404=EDGE_LOOP('',(#1401,#1403));
#1405=FACE_BOUND('',#1404,.F.);
#1407=ORIENTED_EDGE('',*,*,#1406,.T.);
#1409=ORIENTED_EDGE('',*,*,#1408,.T.);
#1410=EDGE_LOOP('',(#1407,#1409));
#1411=FACE_BOUND('',#1410,.F.);
#1412=ADVANCED_FACE('',(#1399,#1405,#1411),#1392,.T.);
#1413=CARTESIAN_POINT('',(0.E0,0.E0,1.3E2));
#1414=DIRECTION('',(0.E0,0.E0,1.E0));
#1415=DIRECTION('',(1.E0,0.E0,0.E0));
#1416=AXIS2_PLACEMENT_3D('',#1413,#1414,#1415);
#1417=PLANE('',#1416);
#1418=ORIENTED_EDGE('',*,*,#1116,.F.);
#1419=ORIENTED_EDGE('',*,*,#1225,.F.);
#1420=ORIENTED_EDGE('',*,*,#1395,.F.);
#1421=ORIENTED_EDGE('',*,*,#1157,.F.);
#1422=EDGE_LOOP('',(#1418,#1419,#1420,#1421));
#1423=FACE_OUTER_BOUND('',#1422,.F.);
#1424=ADVANCED_FACE('',(#1423),#1417,.T.);
#1425=CARTESIAN_POINT('',(-8.75E1,1.E1,1.125E2));
#1426=DIRECTION('',(0.E0,1.E0,0.E0));
#1427=DIRECTION('',(0.E0,0.E0,-1.E0));
#1428=AXIS2_PLACEMENT_3D('',#1425,#1426,#1427);
#1429=CYLINDRICAL_SURFACE('',#1428,3.5E0);
#1430=ORIENTED_EDGE('',*,*,#1120,.T.);
#1432=ORIENTED_EDGE('',*,*,#1431,.F.);
#1433=ORIENTED_EDGE('',*,*,#1400,.F.);
#1435=ORIENTED_EDGE('',*,*,#1434,.T.);
#1436=EDGE_LOOP('',(#1430,#1432,#1433,#1435));
#1437=FACE_OUTER_BOUND('',#1436,.F.);
#1438=ADVANCED_FACE('',(#1437),#1429,.F.);
#1439=CARTESIAN_POINT('',(-8.75E1,1.E1,1.125E2));
#1440=DIRECTION('',(0.E0,1.E0,0.E0));
#1441=DIRECTION('',(0.E0,0.E0,-1.E0));
#1442=AXIS2_PLACEMENT_3D('',#1439,#1440,#1441);
#1443=CYLINDRICAL_SURFACE('',#1442,3.5E0);
#1444=ORIENTED_EDGE('',*,*,#1122,.T.);
#1445=ORIENTED_EDGE('',*,*,#1434,.F.);
#1446=ORIENTED_EDGE('',*,*,#1402,.F.);
#1447=ORIENTED_EDGE('',*,*,#1431,.T.);
#1448=EDGE_LOOP('',(#1444,#1445,#1446,#1447));
#1449=FACE_OUTER_BOUND('',#1448,.F.);
#1450=ADVANCED_FACE('',(#1449),#1443,.F.);
#1451=CARTESIAN_POINT('',(-1.25E1,1.E1,1.125E2));
#1452=DIRECTION('',(0.E0,1.E0,0.E0));
#1453=DIRECTION('',(0.E0,0.E0,-1.E0));
#1454=AXIS2_PLACEMENT_3D('',#1451,#1452,#1453);
#1455=CYLINDRICAL_SURFACE('',#1454,3.5E0);
#1456=ORIENTED_EDGE('',*,*,#1132,.T.);
#1458=ORIENTED_EDGE('',*,*,#1457,.F.);
#1459=ORIENTED_EDGE('',*,*,#1406,.F.);
#1461=ORIENTED_EDGE('',*,*,#1460,.T.);
#1462=EDGE_LOOP('',(#1456,#1458,#1459,#1461));
#1463=FACE_OUTER_BOUND('',#1462,.F.);
#1464=ADVANCED_FACE('',(#1463),#1455,.F.);
#1465=CARTESIAN_POINT('',(-1.25E1,1.E1,1.125E2));
#1466=DIRECTION('',(0.E0,1.E0,0.E0));
#1467=DIRECTION('',(0.E0,0.E0,-1.E0));
#1468=AXIS2_PLACEMENT_3D('',#1465,#1466,#1467);
#1469=CYLINDRICAL_SURFACE('',#1468,3.5E0);
#1470=ORIENTED_EDGE('',*,*,#1134,.T.);
#1471=ORIENTED_EDGE('',*,*,#1460,.F.);
#1472=ORIENTED_EDGE('',*,*,#1408,.F.);
#1473=ORIENTED_EDGE('',*,*,#1457,.T.);
#1474=EDGE_LOOP('',(#1470,#1471,#1472,#1473));
#1475=FACE_OUTER_BOUND('',#1474,.F.);
#1476=ADVANCED_FACE('',(#1475),#1469,.F.);
#1477=CARTESIAN_POINT('',(-8.54E1,1.E2,-9.54E1));
#1478=DIRECTION('',(-1.E0,0.E0,0.E0));
#1479=DIRECTION('',(0.E0,0.E0,1.E0));
#1480=AXIS2_PLACEMENT_3D('',#1477,#1478,#1479);
#1481=PLANE('',#1480);
#1482=ORIENTED_EDGE('',*,*,#1254,.F.);
#1484=ORIENTED_EDGE('',*,*,#1483,.T.);
#1486=ORIENTED_EDGE('',*,*,#1485,.T.);
#1488=ORIENTED_EDGE('',*,*,#1487,.F.);
#1489=EDGE_LOOP('',(#1482,#1484,#1486,#1488));
#1490=FACE_OUTER_BOUND('',#1489,.F.);
#1491=ADVANCED_FACE('',(#1490),#1481,.F.);
#1492=CARTESIAN_POINT('',(-6.E1,1.E2,-9.54E1));
#1493=DIRECTION('',(0.E0,0.E0,-1.E0));
#1494=DIRECTION('',(-1.E0,0.E0,0.E0));
#1495=AXIS2_PLACEMENT_3D('',#1492,#1493,#1494);
#1496=PLANE('',#1495);
#1497=ORIENTED_EDGE('',*,*,#1260,.F.);
#1499=ORIENTED_EDGE('',*,*,#1498,.T.);
#1501=ORIENTED_EDGE('',*,*,#1500,.T.);
#1502=ORIENTED_EDGE('',*,*,#1483,.F.);
#1503=EDGE_LOOP('',(#1497,#1499,#1501,#1502));
#1504=FACE_OUTER_BOUND('',#1503,.F.);
#1505=ADVANCED_FACE('',(#1504),#1496,.F.);
#1506=CARTESIAN_POINT('',(-6.E1,1.E2,-7.E1));
#1507=DIRECTION('',(1.E0,0.E0,0.E0));
#1508=DIRECTION('',(0.E0,0.E0,-1.E0));
#1509=AXIS2_PLACEMENT_3D('',#1506,#1507,#1508);
#1510=PLANE('',#1509);
#1511=ORIENTED_EDGE('',*,*,#1258,.F.);
#1513=ORIENTED_EDGE('',*,*,#1512,.T.);
#1515=ORIENTED_EDGE('',*,*,#1514,.T.);
#1516=ORIENTED_EDGE('',*,*,#1498,.F.);
#1517=EDGE_LOOP('',(#1511,#1513,#1515,#1516));
#1518=FACE_OUTER_BOUND('',#1517,.F.);
#1519=ADVANCED_FACE('',(#1518),#1510,.F.);
#1520=CARTESIAN_POINT('',(-8.54E1,1.E2,-7.E1));
#1521=DIRECTION('',(0.E0,0.E0,1.E0));
#1522=DIRECTION('',(1.E0,0.E0,0.E0));
#1523=AXIS2_PLACEMENT_3D('',#1520,#1521,#1522);
#1524=PLANE('',#1523);
#1525=ORIENTED_EDGE('',*,*,#1256,.F.);
#1526=ORIENTED_EDGE('',*,*,#1487,.T.);
#1528=ORIENTED_EDGE('',*,*,#1527,.T.);
#1529=ORIENTED_EDGE('',*,*,#1512,.F.);
#1530=EDGE_LOOP('',(#1525,#1526,#1528,#1529));
#1531=FACE_OUTER_BOUND('',#1530,.F.);
#1532=ADVANCED_FACE('',(#1531),#1524,.F.);
#1533=CARTESIAN_POINT('',(0.E0,9.99E1,0.E0));
#1534=DIRECTION('',(0.E0,1.E0,0.E0));
#1535=DIRECTION('',(1.E0,0.E0,0.E0));
#1536=AXIS2_PLACEMENT_3D('',#1533,#1534,#1535);
#1537=PLANE('',#1536);
#1538=ORIENTED_EDGE('',*,*,#1485,.F.);
#1539=ORIENTED_EDGE('',*,*,#1500,.F.);
#1540=ORIENTED_EDGE('',*,*,#1514,.F.);
#1541=ORIENTED_EDGE('',*,*,#1527,.F.);
#1542=EDGE_LOOP('',(#1538,#1539,#1540,#1541));
#1543=FACE_OUTER_BOUND('',#1542,.F.);
#1544=ADVANCED_FACE('',(#1543),#1537,.T.);
#1545=CARTESIAN_POINT('',(-4.06E1,1.E2,-9.56E1));
#1546=DIRECTION('',(-1.E0,0.E0,0.E0));
#1547=DIRECTION('',(0.E0,0.E0,1.E0));
#1548=AXIS2_PLACEMENT_3D('',#1545,#1546,#1547);
#1549=PLANE('',#1548);
#1550=ORIENTED_EDGE('',*,*,#1264,.F.);
#1552=ORIENTED_EDGE('',*,*,#1551,.T.);
#1554=ORIENTED_EDGE('',*,*,#1553,.T.);
#1556=ORIENTED_EDGE('',*,*,#1555,.F.);
#1557=EDGE_LOOP('',(#1550,#1552,#1554,#1556));
#1558=FACE_OUTER_BOUND('',#1557,.F.);
#1559=ADVANCED_FACE('',(#1558),#1549,.F.);
#1560=CARTESIAN_POINT('',(-1.5E1,1.E2,-9.56E1));
#1561=DIRECTION('',(0.E0,0.E0,-1.E0));
#1562=DIRECTION('',(-1.E0,0.E0,0.E0));
#1563=AXIS2_PLACEMENT_3D('',#1560,#1561,#1562);
#1564=PLANE('',#1563);
#1565=ORIENTED_EDGE('',*,*,#1270,.F.);
#1567=ORIENTED_EDGE('',*,*,#1566,.T.);
#1569=ORIENTED_EDGE('',*,*,#1568,.T.);
#1570=ORIENTED_EDGE('',*,*,#1551,.F.);
#1571=EDGE_LOOP('',(#1565,#1567,#1569,#1570));
#1572=FACE_OUTER_BOUND('',#1571,.F.);
#1573=ADVANCED_FACE('',(#1572),#1564,.F.);
#1574=CARTESIAN_POINT('',(-1.5E1,1.E2,-7.E1));
#1575=DIRECTION('',(1.E0,0.E0,0.E0));
#1576=DIRECTION('',(0.E0,0.E0,-1.E0));
#1577=AXIS2_PLACEMENT_3D('',#1574,#1575,#1576);
#1578=PLANE('',#1577);
#1579=ORIENTED_EDGE('',*,*,#1268,.F.);
#1581=ORIENTED_EDGE('',*,*,#1580,.T.);
#1583=ORIENTED_EDGE('',*,*,#1582,.T.);
#1584=ORIENTED_EDGE('',*,*,#1566,.F.);
#1585=EDGE_LOOP('',(#1579,#1581,#1583,#1584));
#1586=FACE_OUTER_BOUND('',#1585,.F.);
#1587=ADVANCED_FACE('',(#1586),#1578,.F.);
#1588=CARTESIAN_POINT('',(-4.06E1,1.E2,-7.E1));
#1589=DIRECTION('',(0.E0,0.E0,1.E0));
#1590=DIRECTION('',(1.E0,0.E0,0.E0));
#1591=AXIS2_PLACEMENT_3D('',#1588,#1589,#1590);
#1592=PLANE('',#1591);
#1593=ORIENTED_EDGE('',*,*,#1266,.F.);
#1594=ORIENTED_EDGE('',*,*,#1555,.T.);
#1596=ORIENTED_EDGE('',*,*,#1595,.T.);
#1597=ORIENTED_EDGE('',*,*,#1580,.F.);
#1598=EDGE_LOOP('',(#1593,#1594,#1596,#1597));
#1599=FACE_OUTER_BOUND('',#1598,.F.);
#1600=ADVANCED_FACE('',(#1599),#1592,.F.);
#1601=CARTESIAN_POINT('',(0.E0,9.98E1,0.E0));
#1602=DIRECTION('',(0.E0,1.E0,0.E0));
#1603=DIRECTION('',(1.E0,0.E0,0.E0));
#1604=AXIS2_PLACEMENT_3D('',#1601,#1602,#1603);
#1605=PLANE('',#1604);
#1606=ORIENTED_EDGE('',*,*,#1553,.F.);
#1607=ORIENTED_EDGE('',*,*,#1568,.F.);
#1608=ORIENTED_EDGE('',*,*,#1582,.F.);
#1609=ORIENTED_EDGE('',*,*,#1595,.F.);
#1610=EDGE_LOOP('',(#1606,#1607,#1608,#1609));
#1611=FACE_OUTER_BOUND('',#1610,.F.);
#1612=ADVANCED_FACE('',(#1611),#1605,.T.);
#1613=CARTESIAN_POINT('',(-8.54E1,1.E2,-6.04E1));
#1614=DIRECTION('',(-1.E0,0.E0,0.E0));
#1615=DIRECTION('',(0.E0,0.E0,1.E0));
#1616=AXIS2_PLACEMENT_3D('',#1613,#1614,#1615);
#1617=PLANE('',#1616);
#1618=ORIENTED_EDGE('',*,*,#1274,.F.);
#1620=ORIENTED_EDGE('',*,*,#1619,.T.);
#1622=ORIENTED_EDGE('',*,*,#1621,.T.);
#1624=ORIENTED_EDGE('',*,*,#1623,.F.);
#1625=EDGE_LOOP('',(#1618,#1620,#1622,#1624));
#1626=FACE_OUTER_BOUND('',#1625,.F.);
#1627=ADVANCED_FACE('',(#1626),#1617,.F.);
#1628=CARTESIAN_POINT('',(-6.E1,1.E2,-6.04E1));
#1629=DIRECTION('',(0.E0,0.E0,-1.E0));
#1630=DIRECTION('',(-1.E0,0.E0,0.E0));
#1631=AXIS2_PLACEMENT_3D('',#1628,#1629,#1630);
#1632=PLANE('',#1631);
#1633=ORIENTED_EDGE('',*,*,#1280,.F.);
#1635=ORIENTED_EDGE('',*,*,#1634,.T.);
#1637=ORIENTED_EDGE('',*,*,#1636,.T.);
#1638=ORIENTED_EDGE('',*,*,#1619,.F.);
#1639=EDGE_LOOP('',(#1633,#1635,#1637,#1638));
#1640=FACE_OUTER_BOUND('',#1639,.F.);
#1641=ADVANCED_FACE('',(#1640),#1632,.F.);
#1642=CARTESIAN_POINT('',(-6.E1,1.E2,-3.5E1));
#1643=DIRECTION('',(1.E0,0.E0,0.E0));
#1644=DIRECTION('',(0.E0,0.E0,-1.E0));
#1645=AXIS2_PLACEMENT_3D('',#1642,#1643,#1644);
#1646=PLANE('',#1645);
#1647=ORIENTED_EDGE('',*,*,#1278,.F.);
#1649=ORIENTED_EDGE('',*,*,#1648,.T.);
#1651=ORIENTED_EDGE('',*,*,#1650,.T.);
#1652=ORIENTED_EDGE('',*,*,#1634,.F.);
#1653=EDGE_LOOP('',(#1647,#1649,#1651,#1652));
#1654=FACE_OUTER_BOUND('',#1653,.F.);
#1655=ADVANCED_FACE('',(#1654),#1646,.F.);
#1656=CARTESIAN_POINT('',(-8.54E1,1.E2,-3.5E1));
#1657=DIRECTION('',(0.E0,0.E0,1.E0));
#1658=DIRECTION('',(1.E0,0.E0,0.E0));
#1659=AXIS2_PLACEMENT_3D('',#1656,#1657,#1658);
#1660=PLANE('',#1659);
#1661=ORIENTED_EDGE('',*,*,#1276,.F.);
#1662=ORIENTED_EDGE('',*,*,#1623,.T.);
#1664=ORIENTED_EDGE('',*,*,#1663,.T.);
#1665=ORIENTED_EDGE('',*,*,#1648,.F.);
#1666=EDGE_LOOP('',(#1661,#1662,#1664,#1665));
#1667=FACE_OUTER_BOUND('',#1666,.F.);
#1668=ADVANCED_FACE('',(#1667),#1660,.F.);
#1669=CARTESIAN_POINT('',(0.E0,9.97E1,0.E0));
#1670=DIRECTION('',(0.E0,1.E0,0.E0));
#1671=DIRECTION('',(1.E0,0.E0,0.E0));
#1672=AXIS2_PLACEMENT_3D('',#1669,#1670,#1671);
#1673=PLANE('',#1672);
#1674=ORIENTED_EDGE('',*,*,#1621,.F.);
#1675=ORIENTED_EDGE('',*,*,#1636,.F.);
#1676=ORIENTED_EDGE('',*,*,#1650,.F.);
#1677=ORIENTED_EDGE('',*,*,#1663,.F.);
#1678=EDGE_LOOP('',(#1674,#1675,#1676,#1677));
#1679=FACE_OUTER_BOUND('',#1678,.F.);
#1680=ADVANCED_FACE('',(#1679),#1673,.T.);
#1681=CARTESIAN_POINT('',(-9.348644880630E1,1.E2,-9.278384112592E1));
#1682=DIRECTION('',(-1.E0,0.E0,0.E0));
#1683=DIRECTION('',(0.E0,0.E0,1.E0));
#1684=AXIS2_PLACEMENT_3D('',#1681,#1682,#1683);
#1685=PLANE('',#1684);
#1686=ORIENTED_EDGE('',*,*,#1284,.F.);
#1688=ORIENTED_EDGE('',*,*,#1687,.T.);
#1690=ORIENTED_EDGE('',*,*,#1689,.T.);
#1692=ORIENTED_EDGE('',*,*,#1691,.F.);
#1693=EDGE_LOOP('',(#1686,#1688,#1690,#1692));
#1694=FACE_OUTER_BOUND('',#1693,.F.);
#1695=ADVANCED_FACE('',(#1694),#1685,.F.);
#1696=CARTESIAN_POINT('',(-9.176563846312E1,1.E2,-9.278384112592E1));
#1697=DIRECTION('',(0.E0,0.E0,-1.E0));
#1698=DIRECTION('',(-1.E0,0.E0,0.E0));
#1699=AXIS2_PLACEMENT_3D('',#1696,#1697,#1698);
#1700=PLANE('',#1699);
#1701=ORIENTED_EDGE('',*,*,#1290,.F.);
#1703=ORIENTED_EDGE('',*,*,#1702,.T.);
#1705=ORIENTED_EDGE('',*,*,#1704,.T.);
#1706=ORIENTED_EDGE('',*,*,#1687,.F.);
#1707=EDGE_LOOP('',(#1701,#1703,#1705,#1706));
#1708=FACE_OUTER_BOUND('',#1707,.F.);
#1709=ADVANCED_FACE('',(#1708),#1700,.F.);
#1710=CARTESIAN_POINT('',(-9.176563846312E1,1.E2,-8.281252848539E1));
#1711=DIRECTION('',(1.E0,0.E0,0.E0));
#1712=DIRECTION('',(0.E0,0.E0,-1.E0));
#1713=AXIS2_PLACEMENT_3D('',#1710,#1711,#1712);
#1714=PLANE('',#1713);
#1715=ORIENTED_EDGE('',*,*,#1288,.F.);
#1717=ORIENTED_EDGE('',*,*,#1716,.T.);
#1719=ORIENTED_EDGE('',*,*,#1718,.T.);
#1720=ORIENTED_EDGE('',*,*,#1702,.F.);
#1721=EDGE_LOOP('',(#1715,#1717,#1719,#1720));
#1722=FACE_OUTER_BOUND('',#1721,.F.);
#1723=ADVANCED_FACE('',(#1722),#1714,.F.);
#1724=CARTESIAN_POINT('',(-9.348644880630E1,1.E2,-8.281252848539E1));
#1725=DIRECTION('',(0.E0,0.E0,1.E0));
#1726=DIRECTION('',(1.E0,0.E0,0.E0));
#1727=AXIS2_PLACEMENT_3D('',#1724,#1725,#1726);
#1728=PLANE('',#1727);
#1729=ORIENTED_EDGE('',*,*,#1286,.F.);
#1730=ORIENTED_EDGE('',*,*,#1691,.T.);
#1732=ORIENTED_EDGE('',*,*,#1731,.T.);
#1733=ORIENTED_EDGE('',*,*,#1716,.F.);
#1734=EDGE_LOOP('',(#1729,#1730,#1732,#1733));
#1735=FACE_OUTER_BOUND('',#1734,.F.);
#1736=ADVANCED_FACE('',(#1735),#1728,.F.);
#1737=CARTESIAN_POINT('',(0.E0,9.9E1,0.E0));
#1738=DIRECTION('',(0.E0,1.E0,0.E0));
#1739=DIRECTION('',(1.E0,0.E0,0.E0));
#1740=AXIS2_PLACEMENT_3D('',#1737,#1738,#1739);
#1741=PLANE('',#1740);
#1742=ORIENTED_EDGE('',*,*,#1689,.F.);
#1743=ORIENTED_EDGE('',*,*,#1704,.F.);
#1744=ORIENTED_EDGE('',*,*,#1718,.F.);
#1745=ORIENTED_EDGE('',*,*,#1731,.F.);
#1746=EDGE_LOOP('',(#1742,#1743,#1744,#1745));
#1747=FACE_OUTER_BOUND('',#1746,.F.);
#1748=ADVANCED_FACE('',(#1747),#1741,.T.);
#1749=CARTESIAN_POINT('',(-4.06E1,1.E2,-6.06E1));
#1750=DIRECTION('',(-1.E0,0.E0,0.E0));
#1751=DIRECTION('',(0.E0,0.E0,1.E0));
#1752=AXIS2_PLACEMENT_3D('',#1749,#1750,#1751);
#1753=PLANE('',#1752);
#1754=ORIENTED_EDGE('',*,*,#1294,.F.);
#1756=ORIENTED_EDGE('',*,*,#1755,.T.);
#1758=ORIENTED_EDGE('',*,*,#1757,.T.);
#1760=ORIENTED_EDGE('',*,*,#1759,.F.);
#1761=EDGE_LOOP('',(#1754,#1756,#1758,#1760));
#1762=FACE_OUTER_BOUND('',#1761,.F.);
#1763=ADVANCED_FACE('',(#1762),#1753,.F.);
#1764=CARTESIAN_POINT('',(-1.5E1,1.E2,-6.06E1));
#1765=DIRECTION('',(0.E0,0.E0,-1.E0));
#1766=DIRECTION('',(-1.E0,0.E0,0.E0));
#1767=AXIS2_PLACEMENT_3D('',#1764,#1765,#1766);
#1768=PLANE('',#1767);
#1769=ORIENTED_EDGE('',*,*,#1300,.F.);
#1771=ORIENTED_EDGE('',*,*,#1770,.T.);
#1773=ORIENTED_EDGE('',*,*,#1772,.T.);
#1774=ORIENTED_EDGE('',*,*,#1755,.F.);
#1775=EDGE_LOOP('',(#1769,#1771,#1773,#1774));
#1776=FACE_OUTER_BOUND('',#1775,.F.);
#1777=ADVANCED_FACE('',(#1776),#1768,.F.);
#1778=CARTESIAN_POINT('',(-1.5E1,1.E2,-3.5E1));
#1779=DIRECTION('',(1.E0,0.E0,0.E0));
#1780=DIRECTION('',(0.E0,0.E0,-1.E0));
#1781=AXIS2_PLACEMENT_3D('',#1778,#1779,#1780);
#1782=PLANE('',#1781);
#1783=ORIENTED_EDGE('',*,*,#1298,.F.);
#1785=ORIENTED_EDGE('',*,*,#1784,.T.);
#1787=ORIENTED_EDGE('',*,*,#1786,.T.);
#1788=ORIENTED_EDGE('',*,*,#1770,.F.);
#1789=EDGE_LOOP('',(#1783,#1785,#1787,#1788));
#1790=FACE_OUTER_BOUND('',#1789,.F.);
#1791=ADVANCED_FACE('',(#1790),#1782,.F.);
#1792=CARTESIAN_POINT('',(-4.06E1,1.E2,-3.5E1));
#1793=DIRECTION('',(0.E0,0.E0,1.E0));
#1794=DIRECTION('',(1.E0,0.E0,0.E0));
#1795=AXIS2_PLACEMENT_3D('',#1792,#1793,#1794);
#1796=PLANE('',#1795);
#1797=ORIENTED_EDGE('',*,*,#1296,.F.);
#1798=ORIENTED_EDGE('',*,*,#1759,.T.);
#1800=ORIENTED_EDGE('',*,*,#1799,.T.);
#1801=ORIENTED_EDGE('',*,*,#1784,.F.);
#1802=EDGE_LOOP('',(#1797,#1798,#1800,#1801));
#1803=FACE_OUTER_BOUND('',#1802,.F.);
#1804=ADVANCED_FACE('',(#1803),#1796,.F.);
#1805=CARTESIAN_POINT('',(0.E0,9.96E1,0.E0));
#1806=DIRECTION('',(0.E0,1.E0,0.E0));
#1807=DIRECTION('',(1.E0,0.E0,0.E0));
#1808=AXIS2_PLACEMENT_3D('',#1805,#1806,#1807);
#1809=PLANE('',#1808);
#1810=ORIENTED_EDGE('',*,*,#1757,.F.);
#1811=ORIENTED_EDGE('',*,*,#1772,.F.);
#1812=ORIENTED_EDGE('',*,*,#1786,.F.);
#1813=ORIENTED_EDGE('',*,*,#1799,.F.);
#1814=EDGE_LOOP('',(#1810,#1811,#1812,#1813));
#1815=FACE_OUTER_BOUND('',#1814,.F.);
#1816=ADVANCED_FACE('',(#1815),#1809,.T.);
#1817=CARTESIAN_POINT('',(-8.54E1,1.E2,-2.54E1));
#1818=DIRECTION('',(-1.E0,0.E0,0.E0));
#1819=DIRECTION('',(0.E0,0.E0,1.E0));
#1820=AXIS2_PLACEMENT_3D('',#1817,#1818,#1819);
#1821=PLANE('',#1820);
#1822=ORIENTED_EDGE('',*,*,#1304,.F.);
#1824=ORIENTED_EDGE('',*,*,#1823,.T.);
#1826=ORIENTED_EDGE('',*,*,#1825,.T.);
#1828=ORIENTED_EDGE('',*,*,#1827,.F.);
#1829=EDGE_LOOP('',(#1822,#1824,#1826,#1828));
#1830=FACE_OUTER_BOUND('',#1829,.F.);
#1831=ADVANCED_FACE('',(#1830),#1821,.F.);
#1832=CARTESIAN_POINT('',(-6.E1,1.E2,-2.54E1));
#1833=DIRECTION('',(0.E0,0.E0,-1.E0));
#1834=DIRECTION('',(-1.E0,0.E0,0.E0));
#1835=AXIS2_PLACEMENT_3D('',#1832,#1833,#1834);
#1836=PLANE('',#1835);
#1837=ORIENTED_EDGE('',*,*,#1310,.F.);
#1839=ORIENTED_EDGE('',*,*,#1838,.T.);
#1841=ORIENTED_EDGE('',*,*,#1840,.T.);
#1842=ORIENTED_EDGE('',*,*,#1823,.F.);
#1843=EDGE_LOOP('',(#1837,#1839,#1841,#1842));
#1844=FACE_OUTER_BOUND('',#1843,.F.);
#1845=ADVANCED_FACE('',(#1844),#1836,.F.);
#1846=CARTESIAN_POINT('',(-6.E1,1.E2,0.E0));
#1847=DIRECTION('',(1.E0,0.E0,0.E0));
#1848=DIRECTION('',(0.E0,0.E0,-1.E0));
#1849=AXIS2_PLACEMENT_3D('',#1846,#1847,#1848);
#1850=PLANE('',#1849);
#1851=ORIENTED_EDGE('',*,*,#1308,.F.);
#1853=ORIENTED_EDGE('',*,*,#1852,.T.);
#1855=ORIENTED_EDGE('',*,*,#1854,.T.);
#1856=ORIENTED_EDGE('',*,*,#1838,.F.);
#1857=EDGE_LOOP('',(#1851,#1853,#1855,#1856));
#1858=FACE_OUTER_BOUND('',#1857,.F.);
#1859=ADVANCED_FACE('',(#1858),#1850,.F.);
#1860=CARTESIAN_POINT('',(-8.54E1,1.E2,0.E0));
#1861=DIRECTION('',(0.E0,0.E0,1.E0));
#1862=DIRECTION('',(1.E0,0.E0,0.E0));
#1863=AXIS2_PLACEMENT_3D('',#1860,#1861,#1862);
#1864=PLANE('',#1863);
#1865=ORIENTED_EDGE('',*,*,#1306,.F.);
#1866=ORIENTED_EDGE('',*,*,#1827,.T.);
#1868=ORIENTED_EDGE('',*,*,#1867,.T.);
#1869=ORIENTED_EDGE('',*,*,#1852,.F.);
#1870=EDGE_LOOP('',(#1865,#1866,#1868,#1869));
#1871=FACE_OUTER_BOUND('',#1870,.F.);
#1872=ADVANCED_FACE('',(#1871),#1864,.F.);
#1873=CARTESIAN_POINT('',(0.E0,9.95E1,0.E0));
#1874=DIRECTION('',(0.E0,1.E0,0.E0));
#1875=DIRECTION('',(1.E0,0.E0,0.E0));
#1876=AXIS2_PLACEMENT_3D('',#1873,#1874,#1875);
#1877=PLANE('',#1876);
#1878=ORIENTED_EDGE('',*,*,#1825,.F.);
#1879=ORIENTED_EDGE('',*,*,#1840,.F.);
#1880=ORIENTED_EDGE('',*,*,#1854,.F.);
#1881=ORIENTED_EDGE('',*,*,#1867,.F.);
#1882=EDGE_LOOP('',(#1878,#1879,#1880,#1881));
#1883=FACE_OUTER_BOUND('',#1882,.F.);
#1884=ADVANCED_FACE('',(#1883),#1877,.T.);
#1885=CARTESIAN_POINT('',(-4.06E1,1.E2,0.E0));
#1886=DIRECTION('',(0.E0,0.E0,1.E0));
#1887=DIRECTION('',(1.E0,0.E0,0.E0));
#1888=AXIS2_PLACEMENT_3D('',#1885,#1886,#1887);
#1889=PLANE('',#1888);
#1890=ORIENTED_EDGE('',*,*,#1314,.F.);
#1892=ORIENTED_EDGE('',*,*,#1891,.T.);
#1894=ORIENTED_EDGE('',*,*,#1893,.T.);
#1896=ORIENTED_EDGE('',*,*,#1895,.F.);
#1897=EDGE_LOOP('',(#1890,#1892,#1894,#1896));
#1898=FACE_OUTER_BOUND('',#1897,.F.);
#1899=ADVANCED_FACE('',(#1898),#1889,.F.);
#1900=CARTESIAN_POINT('',(-4.06E1,1.E2,-2.56E1));
#1901=DIRECTION('',(-1.E0,0.E0,0.E0));
#1902=DIRECTION('',(0.E0,0.E0,1.E0));
#1903=AXIS2_PLACEMENT_3D('',#1900,#1901,#1902);
#1904=PLANE('',#1903);
#1905=ORIENTED_EDGE('',*,*,#1320,.F.);
#1907=ORIENTED_EDGE('',*,*,#1906,.T.);
#1909=ORIENTED_EDGE('',*,*,#1908,.T.);
#1910=ORIENTED_EDGE('',*,*,#1891,.F.);
#1911=EDGE_LOOP('',(#1905,#1907,#1909,#1910));
#1912=FACE_OUTER_BOUND('',#1911,.F.);
#1913=ADVANCED_FACE('',(#1912),#1904,.F.);
#1914=CARTESIAN_POINT('',(-1.5E1,1.E2,-2.56E1));
#1915=DIRECTION('',(0.E0,0.E0,-1.E0));
#1916=DIRECTION('',(-1.E0,0.E0,0.E0));
#1917=AXIS2_PLACEMENT_3D('',#1914,#1915,#1916);
#1918=PLANE('',#1917);
#1919=ORIENTED_EDGE('',*,*,#1318,.F.);
#1921=ORIENTED_EDGE('',*,*,#1920,.T.);
#1923=ORIENTED_EDGE('',*,*,#1922,.T.);
#1924=ORIENTED_EDGE('',*,*,#1906,.F.);
#1925=EDGE_LOOP('',(#1919,#1921,#1923,#1924));
#1926=FACE_OUTER_BOUND('',#1925,.F.);
#1927=ADVANCED_FACE('',(#1926),#1918,.F.);
#1928=CARTESIAN_POINT('',(-1.5E1,1.E2,0.E0));
#1929=DIRECTION('',(1.E0,0.E0,0.E0));
#1930=DIRECTION('',(0.E0,0.E0,-1.E0));
#1931=AXIS2_PLACEMENT_3D('',#1928,#1929,#1930);
#1932=PLANE('',#1931);
#1933=ORIENTED_EDGE('',*,*,#1316,.F.);
#1934=ORIENTED_EDGE('',*,*,#1895,.T.);
#1936=ORIENTED_EDGE('',*,*,#1935,.T.);
#1937=ORIENTED_EDGE('',*,*,#1920,.F.);
#1938=EDGE_LOOP('',(#1933,#1934,#1936,#1937));
#1939=FACE_OUTER_BOUND('',#1938,.F.);
#1940=ADVANCED_FACE('',(#1939),#1932,.F.);
#1941=CARTESIAN_POINT('',(0.E0,9.94E1,0.E0));
#1942=DIRECTION('',(0.E0,1.E0,0.E0));
#1943=DIRECTION('',(1.E0,0.E0,0.E0));
#1944=AXIS2_PLACEMENT_3D('',#1941,#1942,#1943);
#1945=PLANE('',#1944);
#1946=ORIENTED_EDGE('',*,*,#1893,.F.);
#1947=ORIENTED_EDGE('',*,*,#1908,.F.);
#1948=ORIENTED_EDGE('',*,*,#1922,.F.);
#1949=ORIENTED_EDGE('',*,*,#1935,.F.);
#1950=EDGE_LOOP('',(#1946,#1947,#1948,#1949));
#1951=FACE_OUTER_BOUND('',#1950,.F.);
#1952=ADVANCED_FACE('',(#1951),#1945,.T.);
#1953=CARTESIAN_POINT('',(-8.54E1,1.E2,1.5E1));
#1954=DIRECTION('',(-1.E0,0.E0,0.E0));
#1955=DIRECTION('',(0.E0,0.E0,1.E0));
#1956=AXIS2_PLACEMENT_3D('',#1953,#1954,#1955);
#1957=PLANE('',#1956);
#1958=ORIENTED_EDGE('',*,*,#1324,.F.);
#1960=ORIENTED_EDGE('',*,*,#1959,.T.);
#1962=ORIENTED_EDGE('',*,*,#1961,.T.);
#1964=ORIENTED_EDGE('',*,*,#1963,.F.);
#1965=EDGE_LOOP('',(#1958,#1960,#1962,#1964));
#1966=FACE_OUTER_BOUND('',#1965,.F.);
#1967=ADVANCED_FACE('',(#1966),#1957,.F.);
#1968=CARTESIAN_POINT('',(-6.E1,1.E2,1.5E1));
#1969=DIRECTION('',(0.E0,0.E0,-1.E0));
#1970=DIRECTION('',(-1.E0,0.E0,0.E0));
#1971=AXIS2_PLACEMENT_3D('',#1968,#1969,#1970);
#1972=PLANE('',#1971);
#1973=ORIENTED_EDGE('',*,*,#1330,.F.);
#1975=ORIENTED_EDGE('',*,*,#1974,.T.);
#1977=ORIENTED_EDGE('',*,*,#1976,.T.);
#1978=ORIENTED_EDGE('',*,*,#1959,.F.);
#1979=EDGE_LOOP('',(#1973,#1975,#1977,#1978));
#1980=FACE_OUTER_BOUND('',#1979,.F.);
#1981=ADVANCED_FACE('',(#1980),#1972,.F.);
#1982=CARTESIAN_POINT('',(-6.E1,1.E2,4.04E1));
#1983=DIRECTION('',(1.E0,0.E0,0.E0));
#1984=DIRECTION('',(0.E0,0.E0,-1.E0));
#1985=AXIS2_PLACEMENT_3D('',#1982,#1983,#1984);
#1986=PLANE('',#1985);
#1987=ORIENTED_EDGE('',*,*,#1328,.F.);
#1989=ORIENTED_EDGE('',*,*,#1988,.T.);
#1991=ORIENTED_EDGE('',*,*,#1990,.T.);
#1992=ORIENTED_EDGE('',*,*,#1974,.F.);
#1993=EDGE_LOOP('',(#1987,#1989,#1991,#1992));
#1994=FACE_OUTER_BOUND('',#1993,.F.);
#1995=ADVANCED_FACE('',(#1994),#1986,.F.);
#1996=CARTESIAN_POINT('',(-8.54E1,1.E2,4.04E1));
#1997=DIRECTION('',(0.E0,0.E0,1.E0));
#1998=DIRECTION('',(1.E0,0.E0,0.E0));
#1999=AXIS2_PLACEMENT_3D('',#1996,#1997,#1998);
#2000=PLANE('',#1999);
#2001=ORIENTED_EDGE('',*,*,#1326,.F.);
#2002=ORIENTED_EDGE('',*,*,#1963,.T.);
#2004=ORIENTED_EDGE('',*,*,#2003,.T.);
#2005=ORIENTED_EDGE('',*,*,#1988,.F.);
#2006=EDGE_LOOP('',(#2001,#2002,#2004,#2005));
#2007=FACE_OUTER_BOUND('',#2006,.F.);
#2008=ADVANCED_FACE('',(#2007),#2000,.F.);
#2009=CARTESIAN_POINT('',(0.E0,9.93E1,0.E0));
#2010=DIRECTION('',(0.E0,1.E0,0.E0));
#2011=DIRECTION('',(1.E0,0.E0,0.E0));
#2012=AXIS2_PLACEMENT_3D('',#2009,#2010,#2011);
#2013=PLANE('',#2012);
#2014=ORIENTED_EDGE('',*,*,#1961,.F.);
#2015=ORIENTED_EDGE('',*,*,#1976,.F.);
#2016=ORIENTED_EDGE('',*,*,#1990,.F.);
#2017=ORIENTED_EDGE('',*,*,#2003,.F.);
#2018=EDGE_LOOP('',(#2014,#2015,#2016,#2017));
#2019=FACE_OUTER_BOUND('',#2018,.F.);
#2020=ADVANCED_FACE('',(#2019),#2013,.T.);
#2021=CARTESIAN_POINT('',(-4.06E1,1.E2,1.5E1));
#2022=DIRECTION('',(-1.E0,0.E0,0.E0));
#2023=DIRECTION('',(0.E0,0.E0,1.E0));
#2024=AXIS2_PLACEMENT_3D('',#2021,#2022,#2023);
#2025=PLANE('',#2024);
#2026=ORIENTED_EDGE('',*,*,#1334,.F.);
#2028=ORIENTED_EDGE('',*,*,#2027,.T.);
#2030=ORIENTED_EDGE('',*,*,#2029,.T.);
#2032=ORIENTED_EDGE('',*,*,#2031,.F.);
#2033=EDGE_LOOP('',(#2026,#2028,#2030,#2032));
#2034=FACE_OUTER_BOUND('',#2033,.F.);
#2035=ADVANCED_FACE('',(#2034),#2025,.F.);
#2036=CARTESIAN_POINT('',(-1.5E1,1.E2,1.5E1));
#2037=DIRECTION('',(0.E0,0.E0,-1.E0));
#2038=DIRECTION('',(-1.E0,0.E0,0.E0));
#2039=AXIS2_PLACEMENT_3D('',#2036,#2037,#2038);
#2040=PLANE('',#2039);
#2041=ORIENTED_EDGE('',*,*,#1340,.F.);
#2043=ORIENTED_EDGE('',*,*,#2042,.T.);
#2045=ORIENTED_EDGE('',*,*,#2044,.T.);
#2046=ORIENTED_EDGE('',*,*,#2027,.F.);
#2047=EDGE_LOOP('',(#2041,#2043,#2045,#2046));
#2048=FACE_OUTER_BOUND('',#2047,.F.);
#2049=ADVANCED_FACE('',(#2048),#2040,.F.);
#2050=CARTESIAN_POINT('',(-1.5E1,1.E2,4.06E1));
#2051=DIRECTION('',(1.E0,0.E0,0.E0));
#2052=DIRECTION('',(0.E0,0.E0,-1.E0));
#2053=AXIS2_PLACEMENT_3D('',#2050,#2051,#2052);
#2054=PLANE('',#2053);
#2055=ORIENTED_EDGE('',*,*,#1338,.F.);
#2057=ORIENTED_EDGE('',*,*,#2056,.T.);
#2059=ORIENTED_EDGE('',*,*,#2058,.T.);
#2060=ORIENTED_EDGE('',*,*,#2042,.F.);
#2061=EDGE_LOOP('',(#2055,#2057,#2059,#2060));
#2062=FACE_OUTER_BOUND('',#2061,.F.);
#2063=ADVANCED_FACE('',(#2062),#2054,.F.);
#2064=CARTESIAN_POINT('',(-4.06E1,1.E2,4.06E1));
#2065=DIRECTION('',(0.E0,0.E0,1.E0));
#2066=DIRECTION('',(1.E0,0.E0,0.E0));
#2067=AXIS2_PLACEMENT_3D('',#2064,#2065,#2066);
#2068=PLANE('',#2067);
#2069=ORIENTED_EDGE('',*,*,#1336,.F.);
#2070=ORIENTED_EDGE('',*,*,#2031,.T.);
#2072=ORIENTED_EDGE('',*,*,#2071,.T.);
#2073=ORIENTED_EDGE('',*,*,#2056,.F.);
#2074=EDGE_LOOP('',(#2069,#2070,#2072,#2073));
#2075=FACE_OUTER_BOUND('',#2074,.F.);
#2076=ADVANCED_FACE('',(#2075),#2068,.F.);
#2077=CARTESIAN_POINT('',(0.E0,9.92E1,0.E0));
#2078=DIRECTION('',(0.E0,1.E0,0.E0));
#2079=DIRECTION('',(1.E0,0.E0,0.E0));
#2080=AXIS2_PLACEMENT_3D('',#2077,#2078,#2079);
#2081=PLANE('',#2080);
#2082=ORIENTED_EDGE('',*,*,#2029,.F.);
#2083=ORIENTED_EDGE('',*,*,#2044,.F.);
#2084=ORIENTED_EDGE('',*,*,#2058,.F.);
#2085=ORIENTED_EDGE('',*,*,#2071,.F.);
#2086=EDGE_LOOP('',(#2082,#2083,#2084,#2085));
#2087=FACE_OUTER_BOUND('',#2086,.F.);
#2088=ADVANCED_FACE('',(#2087),#2081,.T.);
#2089=CARTESIAN_POINT('',(-8.E1,1.E2,6.E1));
#2090=DIRECTION('',(0.E0,0.E0,-1.E0));
#2091=DIRECTION('',(-1.E0,0.E0,0.E0));
#2092=AXIS2_PLACEMENT_3D('',#2089,#2090,#2091);
#2093=PLANE('',#2092);
#2095=ORIENTED_EDGE('',*,*,#2094,.T.);
#2097=ORIENTED_EDGE('',*,*,#2096,.T.);
#2099=ORIENTED_EDGE('',*,*,#2098,.T.);
#2101=ORIENTED_EDGE('',*,*,#2100,.F.);
#2102=ORIENTED_EDGE('',*,*,#1344,.T.);
#2104=ORIENTED_EDGE('',*,*,#2103,.T.);
#2105=EDGE_LOOP('',(#2095,#2097,#2099,#2101,#2102,#2104));
#2106=FACE_OUTER_BOUND('',#2105,.F.);
#2107=ADVANCED_FACE('',(#2106),#2093,.T.);
#2108=CARTESIAN_POINT('',(0.E0,1.05E2,0.E0));
#2109=DIRECTION('',(0.E0,1.E0,0.E0));
#2110=DIRECTION('',(1.E0,0.E0,0.E0));
#2111=AXIS2_PLACEMENT_3D('',#2108,#2109,#2110);
#2112=PLANE('',#2111);
#2114=ORIENTED_EDGE('',*,*,#2113,.T.);
#2115=ORIENTED_EDGE('',*,*,#2094,.F.);
#2117=ORIENTED_EDGE('',*,*,#2116,.F.);
#2119=ORIENTED_EDGE('',*,*,#2118,.F.);
#2120=EDGE_LOOP('',(#2114,#2115,#2117,#2119));
#2121=FACE_OUTER_BOUND('',#2120,.F.);
#2122=ADVANCED_FACE('',(#2121),#2112,.T.);
#2123=CARTESIAN_POINT('',(0.E0,1.05E2,0.E0));
#2124=DIRECTION('',(0.E0,1.E0,0.E0));
#2125=DIRECTION('',(1.E0,0.E0,0.E0));
#2126=AXIS2_PLACEMENT_3D('',#2123,#2124,#2125);
#2127=PLANE('',#2126);
#2129=ORIENTED_EDGE('',*,*,#2128,.F.);
#2131=ORIENTED_EDGE('',*,*,#2130,.F.);
#2133=ORIENTED_EDGE('',*,*,#2132,.F.);
#2135=ORIENTED_EDGE('',*,*,#2134,.F.);
#2136=EDGE_LOOP('',(#2129,#2131,#2133,#2135));
#2137=FACE_OUTER_BOUND('',#2136,.F.);
#2138=ADVANCED_FACE('',(#2137),#2127,.T.);
#2139=CARTESIAN_POINT('',(-8.5E1,1.E2,8.5E1));
#2140=DIRECTION('',(1.E0,0.E0,0.E0));
#2141=DIRECTION('',(0.E0,0.E0,-1.E0));
#2142=AXIS2_PLACEMENT_3D('',#2139,#2140,#2141);
#2143=PLANE('',#2142);
#2144=ORIENTED_EDGE('',*,*,#2113,.F.);
#2146=ORIENTED_EDGE('',*,*,#2145,.T.);
#2148=ORIENTED_EDGE('',*,*,#2147,.T.);
#2149=ORIENTED_EDGE('',*,*,#2096,.F.);
#2150=EDGE_LOOP('',(#2144,#2146,#2148,#2149));
#2151=FACE_OUTER_BOUND('',#2150,.F.);
#2152=ADVANCED_FACE('',(#2151),#2143,.T.);
#2153=CARTESIAN_POINT('',(-8.5E1,1.E2,8.5E1));
#2154=DIRECTION('',(0.E0,0.E0,1.E0));
#2155=DIRECTION('',(1.E0,0.E0,0.E0));
#2156=AXIS2_PLACEMENT_3D('',#2153,#2154,#2155);
#2157=PLANE('',#2156);
#2158=ORIENTED_EDGE('',*,*,#1348,.T.);
#2160=ORIENTED_EDGE('',*,*,#2159,.T.);
#2162=ORIENTED_EDGE('',*,*,#2161,.T.);
#2163=ORIENTED_EDGE('',*,*,#2145,.F.);
#2164=ORIENTED_EDGE('',*,*,#2118,.T.);
#2166=ORIENTED_EDGE('',*,*,#2165,.F.);
#2167=EDGE_LOOP('',(#2158,#2160,#2162,#2163,#2164,#2166));
#2168=FACE_OUTER_BOUND('',#2167,.F.);
#2169=ADVANCED_FACE('',(#2168),#2157,.T.);
#2170=CARTESIAN_POINT('',(-9.E1,1.E2,6.E1));
#2171=DIRECTION('',(-1.E0,0.E0,0.E0));
#2172=DIRECTION('',(0.E0,0.E0,1.E0));
#2173=AXIS2_PLACEMENT_3D('',#2170,#2171,#2172);
#2174=PLANE('',#2173);
#2175=ORIENTED_EDGE('',*,*,#1346,.F.);
#2176=ORIENTED_EDGE('',*,*,#2100,.T.);
#2178=ORIENTED_EDGE('',*,*,#2177,.T.);
#2179=ORIENTED_EDGE('',*,*,#2159,.F.);
#2180=EDGE_LOOP('',(#2175,#2176,#2178,#2179));
#2181=FACE_OUTER_BOUND('',#2180,.F.);
#2182=ADVANCED_FACE('',(#2181),#2174,.T.);
#2183=CARTESIAN_POINT('',(0.E0,1.1E2,0.E0));
#2184=DIRECTION('',(0.E0,1.E0,0.E0));
#2185=DIRECTION('',(1.E0,0.E0,0.E0));
#2186=AXIS2_PLACEMENT_3D('',#2183,#2184,#2185);
#2187=PLANE('',#2186);
#2188=ORIENTED_EDGE('',*,*,#2098,.F.);
#2189=ORIENTED_EDGE('',*,*,#2147,.F.);
#2190=ORIENTED_EDGE('',*,*,#2161,.F.);
#2191=ORIENTED_EDGE('',*,*,#2177,.F.);
#2192=EDGE_LOOP('',(#2188,#2189,#2190,#2191));
#2193=FACE_OUTER_BOUND('',#2192,.F.);
#2194=ADVANCED_FACE('',(#2193),#2187,.T.);
#2195=CARTESIAN_POINT('',(0.E0,1.1E2,0.E0));
#2196=DIRECTION('',(0.E0,1.E0,0.E0));
#2197=DIRECTION('',(1.E0,0.E0,0.E0));
#2198=AXIS2_PLACEMENT_3D('',#2195,#2196,#2197);
#2199=PLANE('',#2198);
#2201=ORIENTED_EDGE('',*,*,#2200,.F.);
#2203=ORIENTED_EDGE('',*,*,#2202,.F.);
#2205=ORIENTED_EDGE('',*,*,#2204,.F.);
#2207=ORIENTED_EDGE('',*,*,#2206,.F.);
#2208=EDGE_LOOP('',(#2201,#2203,#2205,#2207));
#2209=FACE_OUTER_BOUND('',#2208,.F.);
#2210=ADVANCED_FACE('',(#2209),#2199,.T.);
#2211=CARTESIAN_POINT('',(-5.96E1,1.E2,6.E1));
#2212=DIRECTION('',(-1.E0,0.E0,0.E0));
#2213=DIRECTION('',(0.E0,0.E0,1.E0));
#2214=AXIS2_PLACEMENT_3D('',#2211,#2212,#2213);
#2215=PLANE('',#2214);
#2216=ORIENTED_EDGE('',*,*,#2128,.T.);
#2218=ORIENTED_EDGE('',*,*,#2217,.T.);
#2219=ORIENTED_EDGE('',*,*,#2200,.T.);
#2221=ORIENTED_EDGE('',*,*,#2220,.F.);
#2222=EDGE_LOOP('',(#2216,#2218,#2219,#2221));
#2223=FACE_OUTER_BOUND('',#2222,.F.);
#2224=ADVANCED_FACE('',(#2223),#2215,.T.);
#2225=CARTESIAN_POINT('',(-5.96E1,1.E2,6.E1));
#2226=DIRECTION('',(0.E0,0.E0,-1.E0));
#2227=DIRECTION('',(-1.E0,0.E0,0.E0));
#2228=AXIS2_PLACEMENT_3D('',#2225,#2226,#2227);
#2229=PLANE('',#2228);
#2230=ORIENTED_EDGE('',*,*,#1358,.T.);
#2232=ORIENTED_EDGE('',*,*,#2231,.T.);
#2233=ORIENTED_EDGE('',*,*,#2202,.T.);
#2234=ORIENTED_EDGE('',*,*,#2217,.F.);
#2235=ORIENTED_EDGE('',*,*,#2134,.T.);
#2237=ORIENTED_EDGE('',*,*,#2236,.F.);
#2238=EDGE_LOOP('',(#2230,#2232,#2233,#2234,#2235,#2237));
#2239=FACE_OUTER_BOUND('',#2238,.F.);
#2240=ADVANCED_FACE('',(#2239),#2229,.T.);
#2241=CARTESIAN_POINT('',(-5.46E1,1.E2,8.5E1));
#2242=DIRECTION('',(1.E0,0.E0,0.E0));
#2243=DIRECTION('',(0.E0,0.E0,-1.E0));
#2244=AXIS2_PLACEMENT_3D('',#2241,#2242,#2243);
#2245=PLANE('',#2244);
#2246=ORIENTED_EDGE('',*,*,#1356,.F.);
#2248=ORIENTED_EDGE('',*,*,#2247,.T.);
#2249=ORIENTED_EDGE('',*,*,#2204,.T.);
#2250=ORIENTED_EDGE('',*,*,#2231,.F.);
#2251=EDGE_LOOP('',(#2246,#2248,#2249,#2250));
#2252=FACE_OUTER_BOUND('',#2251,.F.);
#2253=ADVANCED_FACE('',(#2252),#2245,.T.);
#2254=CARTESIAN_POINT('',(-6.46E1,1.E2,8.5E1));
#2255=DIRECTION('',(0.E0,0.E0,1.E0));
#2256=DIRECTION('',(1.E0,0.E0,0.E0));
#2257=AXIS2_PLACEMENT_3D('',#2254,#2255,#2256);
#2258=PLANE('',#2257);
#2259=ORIENTED_EDGE('',*,*,#2130,.T.);
#2260=ORIENTED_EDGE('',*,*,#2220,.T.);
#2261=ORIENTED_EDGE('',*,*,#2206,.T.);
#2262=ORIENTED_EDGE('',*,*,#2247,.F.);
#2263=ORIENTED_EDGE('',*,*,#1354,.T.);
#2265=ORIENTED_EDGE('',*,*,#2264,.T.);
#2266=EDGE_LOOP('',(#2259,#2260,#2261,#2262,#2263,#2265));
#2267=FACE_OUTER_BOUND('',#2266,.F.);
#2268=ADVANCED_FACE('',(#2267),#2258,.T.);
#2269=CARTESIAN_POINT('',(-6.46E1,1.E2,6.E1));
#2270=DIRECTION('',(-1.E0,0.E0,0.E0));
#2271=DIRECTION('',(0.E0,0.E0,1.E0));
#2272=AXIS2_PLACEMENT_3D('',#2269,#2270,#2271);
#2273=PLANE('',#2272);
#2274=ORIENTED_EDGE('',*,*,#1360,.F.);
#2275=ORIENTED_EDGE('',*,*,#2236,.T.);
#2276=ORIENTED_EDGE('',*,*,#2132,.T.);
#2277=ORIENTED_EDGE('',*,*,#2264,.F.);
#2278=EDGE_LOOP('',(#2274,#2275,#2276,#2277));
#2279=FACE_OUTER_BOUND('',#2278,.F.);
#2280=ADVANCED_FACE('',(#2279),#2273,.T.);
#2281=CARTESIAN_POINT('',(-8.E1,1.E2,8.5E1));
#2282=DIRECTION('',(1.E0,0.E0,0.E0));
#2283=DIRECTION('',(0.E0,0.E0,-1.E0));
#2284=AXIS2_PLACEMENT_3D('',#2281,#2282,#2283);
#2285=PLANE('',#2284);
#2286=ORIENTED_EDGE('',*,*,#1350,.F.);
#2287=ORIENTED_EDGE('',*,*,#2165,.T.);
#2288=ORIENTED_EDGE('',*,*,#2116,.T.);
#2289=ORIENTED_EDGE('',*,*,#2103,.F.);
#2290=EDGE_LOOP('',(#2286,#2287,#2288,#2289));
#2291=FACE_OUTER_BOUND('',#2290,.F.);
#2292=ADVANCED_FACE('',(#2291),#2285,.T.);
#2293=CARTESIAN_POINT('',(-4.02E1,1.E2,8.52E1));
#2294=DIRECTION('',(0.E0,0.E0,1.E0));
#2295=DIRECTION('',(1.E0,0.E0,0.E0));
#2296=AXIS2_PLACEMENT_3D('',#2293,#2294,#2295);
#2297=PLANE('',#2296);
#2298=ORIENTED_EDGE('',*,*,#1364,.F.);
#2300=ORIENTED_EDGE('',*,*,#2299,.T.);
#2302=ORIENTED_EDGE('',*,*,#2301,.T.);
#2304=ORIENTED_EDGE('',*,*,#2303,.F.);
#2305=EDGE_LOOP('',(#2298,#2300,#2302,#2304));
#2306=FACE_OUTER_BOUND('',#2305,.F.);
#2307=ADVANCED_FACE('',(#2306),#2297,.F.);
#2308=CARTESIAN_POINT('',(-4.02E1,1.E2,6.E1));
#2309=DIRECTION('',(-1.E0,0.E0,0.E0));
#2310=DIRECTION('',(0.E0,0.E0,1.E0));
#2311=AXIS2_PLACEMENT_3D('',#2308,#2309,#2310);
#2312=PLANE('',#2311);
#2313=ORIENTED_EDGE('',*,*,#1370,.F.);
#2315=ORIENTED_EDGE('',*,*,#2314,.T.);
#2317=ORIENTED_EDGE('',*,*,#2316,.T.);
#2318=ORIENTED_EDGE('',*,*,#2299,.F.);
#2319=EDGE_LOOP('',(#2313,#2315,#2317,#2318));
#2320=FACE_OUTER_BOUND('',#2319,.F.);
#2321=ADVANCED_FACE('',(#2320),#2312,.F.);
#2322=CARTESIAN_POINT('',(-1.5E1,1.E2,6.E1));
#2323=DIRECTION('',(0.E0,0.E0,-1.E0));
#2324=DIRECTION('',(-1.E0,0.E0,0.E0));
#2325=AXIS2_PLACEMENT_3D('',#2322,#2323,#2324);
#2326=PLANE('',#2325);
#2327=ORIENTED_EDGE('',*,*,#1368,.F.);
#2329=ORIENTED_EDGE('',*,*,#2328,.T.);
#2331=ORIENTED_EDGE('',*,*,#2330,.T.);
#2332=ORIENTED_EDGE('',*,*,#2314,.F.);
#2333=EDGE_LOOP('',(#2327,#2329,#2331,#2332));
#2334=FACE_OUTER_BOUND('',#2333,.F.);
#2335=ADVANCED_FACE('',(#2334),#2326,.F.);
#2336=CARTESIAN_POINT('',(-1.5E1,1.E2,8.52E1));
#2337=DIRECTION('',(1.E0,0.E0,0.E0));
#2338=DIRECTION('',(0.E0,0.E0,-1.E0));
#2339=AXIS2_PLACEMENT_3D('',#2336,#2337,#2338);
#2340=PLANE('',#2339);
#2341=ORIENTED_EDGE('',*,*,#1366,.F.);
#2342=ORIENTED_EDGE('',*,*,#2303,.T.);
#2344=ORIENTED_EDGE('',*,*,#2343,.T.);
#2345=ORIENTED_EDGE('',*,*,#2328,.F.);
#2346=EDGE_LOOP('',(#2341,#2342,#2344,#2345));
#2347=FACE_OUTER_BOUND('',#2346,.F.);
#2348=ADVANCED_FACE('',(#2347),#2340,.F.);
#2349=CARTESIAN_POINT('',(0.E0,9.95E1,0.E0));
#2350=DIRECTION('',(0.E0,1.E0,0.E0));
#2351=DIRECTION('',(1.E0,0.E0,0.E0));
#2352=AXIS2_PLACEMENT_3D('',#2349,#2350,#2351);
#2353=PLANE('',#2352);
#2354=ORIENTED_EDGE('',*,*,#2301,.F.);
#2355=ORIENTED_EDGE('',*,*,#2316,.F.);
#2356=ORIENTED_EDGE('',*,*,#2330,.F.);
#2357=ORIENTED_EDGE('',*,*,#2343,.F.);
#2358=EDGE_LOOP('',(#2354,#2355,#2356,#2357));
#2359=FACE_OUTER_BOUND('',#2358,.F.);
#2360=ADVANCED_FACE('',(#2359),#2353,.T.);
#2361=CARTESIAN_POINT('',(-8.75E1,1.E1,-1.125E2));
#2362=DIRECTION('',(0.E0,1.E0,0.E0));
#2363=DIRECTION('',(0.E0,0.E0,-1.E0));
#2364=AXIS2_PLACEMENT_3D('',#2361,#2362,#2363);
#2365=CYLINDRICAL_SURFACE('',#2364,3.5E0);
#2366=ORIENTED_EDGE('',*,*,#1126,.T.);
#2368=ORIENTED_EDGE('',*,*,#2367,.F.);
#2369=ORIENTED_EDGE('',*,*,#1196,.F.);
#2371=ORIENTED_EDGE('',*,*,#2370,.T.);
#2372=EDGE_LOOP('',(#2366,#2368,#2369,#2371));
#2373=FACE_OUTER_BOUND('',#2372,.F.);
#2374=ADVANCED_FACE('',(#2373),#2365,.F.);
#2375=CARTESIAN_POINT('',(-8.75E1,1.E1,-1.125E2));
#2376=DIRECTION('',(0.E0,1.E0,0.E0));
#2377=DIRECTION('',(0.E0,0.E0,-1.E0));
#2378=AXIS2_PLACEMENT_3D('',#2375,#2376,#2377);
#2379=CYLINDRICAL_SURFACE('',#2378,3.5E0);
#2380=ORIENTED_EDGE('',*,*,#1128,.T.);
#2381=ORIENTED_EDGE('',*,*,#2370,.F.);
#2382=ORIENTED_EDGE('',*,*,#1198,.F.);
#2383=ORIENTED_EDGE('',*,*,#2367,.T.);
#2384=EDGE_LOOP('',(#2380,#2381,#2382,#2383));
#2385=FACE_OUTER_BOUND('',#2384,.F.);
#2386=ADVANCED_FACE('',(#2385),#2379,.F.);
#2387=CARTESIAN_POINT('',(-1.25E1,1.E1,-1.125E2));
#2388=DIRECTION('',(0.E0,1.E0,0.E0));
#2389=DIRECTION('',(0.E0,0.E0,-1.E0));
#2390=AXIS2_PLACEMENT_3D('',#2387,#2388,#2389);
#2391=CYLINDRICAL_SURFACE('',#2390,3.5E0);
#2392=ORIENTED_EDGE('',*,*,#1138,.T.);
#2394=ORIENTED_EDGE('',*,*,#2393,.F.);
#2395=ORIENTED_EDGE('',*,*,#1202,.F.);
#2397=ORIENTED_EDGE('',*,*,#2396,.T.);
#2398=EDGE_LOOP('',(#2392,#2394,#2395,#2397));
#2399=FACE_OUTER_BOUND('',#2398,.F.);
#2400=ADVANCED_FACE('',(#2399),#2391,.F.);
#2401=CARTESIAN_POINT('',(-1.25E1,1.E1,-1.125E2));
#2402=DIRECTION('',(0.E0,1.E0,0.E0));
#2403=DIRECTION('',(0.E0,0.E0,-1.E0));
#2404=AXIS2_PLACEMENT_3D('',#2401,#2402,#2403);
#2405=CYLINDRICAL_SURFACE('',#2404,3.5E0);
#2406=ORIENTED_EDGE('',*,*,#1140,.T.);
#2407=ORIENTED_EDGE('',*,*,#2396,.F.);
#2408=ORIENTED_EDGE('',*,*,#1204,.F.);
#2409=ORIENTED_EDGE('',*,*,#2393,.T.);
#2410=EDGE_LOOP('',(#2406,#2407,#2408,#2409));
#2411=FACE_OUTER_BOUND('',#2410,.F.);
#2412=ADVANCED_FACE('',(#2411),#2405,.F.);
#2416=DIMENSIONAL_EXPONENTS(0.E0,0.E0,0.E0,0.E0,0.E0,0.E0,0.E0);
#2418=PLANE_ANGLE_MEASURE_WITH_UNIT(PLANE_ANGLE_MEASURE(1.745329251994E-2),
#2417);
#2419=(CONVERSION_BASED_UNIT('DEGREE',#2418)NAMED_UNIT(*)PLANE_ANGLE_UNIT());
#2421=UNCERTAINTY_MEASURE_WITH_UNIT(LENGTH_MEASURE(1.E-2),#2415,'closure',
'Maximum model space distance between geometric entities at asserted connectivities');
#2422=(GEOMETRIC_REPRESENTATION_CONTEXT(3)GLOBAL_UNCERTAINTY_ASSIGNED_CONTEXT((
#2421))GLOBAL_UNIT_ASSIGNED_CONTEXT((#2415,#2419,#2420))REPRESENTATION_CONTEXT(
'ID1','3'));
#2424=APPLICATION_CONTEXT(
'CONFIGURATION CONTROLLED 3D DESIGNS OF MECHANICAL PARTS AND ASSEMBLIES');
#2425=APPLICATION_PROTOCOL_DEFINITION('international standard',
'config_control_design',1994,#2424);
#2426=DESIGN_CONTEXT('',#2424,'design');
#2427=MECHANICAL_CONTEXT('',#2424,'mechanical');
#2428=PRODUCT('CELLPLATE','CELLPLATE','NOT SPECIFIED',(#2427));
#2429=PRODUCT_DEFINITION_FORMATION_WITH_SPECIFIED_SOURCE('4','LAST_VERSION',
#2428,.MADE.);
#2433=PRODUCT_CATEGORY('part','');
#2434=PRODUCT_RELATED_PRODUCT_CATEGORY('detail','',(#2428));
#2435=PRODUCT_CATEGORY_RELATIONSHIP('','',#2433,#2434);
#2436=SECURITY_CLASSIFICATION_LEVEL('unclassified');
#2437=SECURITY_CLASSIFICATION('','',#2436);
#2438=CC_DESIGN_SECURITY_CLASSIFICATION(#2437,(#2429));
#2439=APPROVAL_STATUS('approved');
#2440=APPROVAL(#2439,'');
#2441=CC_DESIGN_APPROVAL(#2440,(#2437,#2429,#2430));
#2442=CALENDAR_DATE(126,29,5);
#2443=COORDINATED_UNIVERSAL_TIME_OFFSET(9,0,.AHEAD.);
#2444=LOCAL_TIME(11,9,4.8E1,#2443);
#2445=DATE_AND_TIME(#2442,#2444);
#2446=APPROVAL_DATE_TIME(#2445,#2440);
#2447=DATE_TIME_ROLE('creation_date');
#2448=CC_DESIGN_DATE_AND_TIME_ASSIGNMENT(#2445,#2447,(#2430));
#2449=DATE_TIME_ROLE('classification_date');
#2450=CC_DESIGN_DATE_AND_TIME_ASSIGNMENT(#2445,#2449,(#2437));
#2451=PERSON('UNSPECIFIED','UNSPECIFIED',$,$,$,$);
#2452=ORGANIZATION('UNSPECIFIED','UNSPECIFIED','UNSPECIFIED');
#2453=PERSON_AND_ORGANIZATION(#2451,#2452);
#2454=APPROVAL_ROLE('approver');
#2455=APPROVAL_PERSON_ORGANIZATION(#2453,#2440,#2454);
#2456=PERSON_AND_ORGANIZATION_ROLE('creator');
#2457=CC_DESIGN_PERSON_AND_ORGANIZATION_ASSIGNMENT(#2453,#2456,(#2429,#2430));
#2458=PERSON_AND_ORGANIZATION_ROLE('design_supplier');
#2459=CC_DESIGN_PERSON_AND_ORGANIZATION_ASSIGNMENT(#2453,#2458,(#2429));
#2460=PERSON_AND_ORGANIZATION_ROLE('classification_officer');
#2461=CC_DESIGN_PERSON_AND_ORGANIZATION_ASSIGNMENT(#2453,#2460,(#2437));
#2462=PERSON_AND_ORGANIZATION_ROLE('design_owner');
#2463=CC_DESIGN_PERSON_AND_ORGANIZATION_ASSIGNMENT(#2453,#2462,(#2428));
#5=CIRCLE('',#4,3.5E0);
#10=CIRCLE('',#9,3.5E0);
#15=CIRCLE('',#14,3.5E0);
#20=CIRCLE('',#19,3.5E0);
#25=CIRCLE('',#24,3.5E0);
#30=CIRCLE('',#29,3.5E0);
#35=CIRCLE('',#34,3.5E0);
#40=CIRCLE('',#39,3.5E0);
#73=CIRCLE('',#72,3.5E0);
#78=CIRCLE('',#77,3.5E0);
#83=CIRCLE('',#82,3.5E0);
#88=CIRCLE('',#87,3.5E0);
#321=CIRCLE('',#320,3.5E0);
#326=CIRCLE('',#325,3.5E0);
#331=CIRCLE('',#330,3.5E0);
#336=CIRCLE('',#335,3.5E0);
#1110=EDGE_CURVE('',#1047,#1036,#48,.T.);
#1112=EDGE_CURVE('',#1047,#1048,#108,.T.);
#1114=EDGE_CURVE('',#1035,#1048,#92,.T.);
#1116=EDGE_CURVE('',#1035,#1036,#340,.T.);
#1120=EDGE_CURVE('',#1059,#1060,#5,.T.);
#1122=EDGE_CURVE('',#1060,#1059,#10,.T.);
#1126=EDGE_CURVE('',#1063,#1064,#15,.T.);
#1128=EDGE_CURVE('',#1064,#1063,#20,.T.);
#1132=EDGE_CURVE('',#1067,#1068,#25,.T.);
#1134=EDGE_CURVE('',#1068,#1067,#30,.T.);
#1138=EDGE_CURVE('',#1071,#1072,#35,.T.);
#1140=EDGE_CURVE('',#1072,#1071,#40,.T.);
#1150=EDGE_CURVE('',#1055,#835,#64,.T.);
#1152=EDGE_CURVE('',#1055,#1052,#44,.T.);
#1154=EDGE_CURVE('',#1052,#1047,#112,.T.);
#1157=EDGE_CURVE('',#1036,#1038,#352,.T.);
#1159=EDGE_CURVE('',#1044,#1038,#316,.T.);
#1161=EDGE_CURVE('',#1044,#920,#52,.T.);
#1163=EDGE_CURVE('',#920,#835,#56,.T.);
#1173=EDGE_CURVE('',#1055,#1056,#60,.T.);
#1176=EDGE_CURVE('',#835,#836,#124,.T.);
#1178=EDGE_CURVE('',#1056,#836,#96,.T.);
#1189=EDGE_CURVE('',#1056,#1050,#68,.T.);
#1191=EDGE_CURVE('',#1050,#1052,#116,.T.);
#1196=EDGE_CURVE('',#1083,#1084,#73,.T.);
#1198=EDGE_CURVE('',#1084,#1083,#78,.T.);
#1202=EDGE_CURVE('',#1087,#1088,#83,.T.);
#1204=EDGE_CURVE('',#1088,#1087,#88,.T.);
#1215=EDGE_CURVE('',#1048,#1050,#120,.T.);
#1219=EDGE_CURVE('',#836,#919,#100,.T.);
#1221=EDGE_CURVE('',#1043,#919,#312,.T.);
#1223=EDGE_CURVE('',#1043,#1040,#104,.T.);
#1225=EDGE_CURVE('',#1040,#1035,#344,.T.);
#1250=EDGE_CURVE('',#919,#920,#128,.T.);
#1254=EDGE_CURVE('',#847,#848,#132,.T.);
#1256=EDGE_CURVE('',#848,#850,#136,.T.);
#1258=EDGE_CURVE('',#850,#852,#140,.T.);
#1260=EDGE_CURVE('',#852,#847,#144,.T.);
#1264=EDGE_CURVE('',#863,#864,#148,.T.);
#1266=EDGE_CURVE('',#864,#866,#152,.T.);
#1268=EDGE_CURVE('',#866,#868,#156,.T.);
#1270=EDGE_CURVE('',#868,#863,#160,.T.);
#1274=EDGE_CURVE('',#879,#880,#164,.T.);
#1276=EDGE_CURVE('',#880,#882,#168,.T.);
#1278=EDGE_CURVE('',#882,#884,#172,.T.);
#1280=EDGE_CURVE('',#884,#879,#176,.T.);
#1284=EDGE_CURVE('',#895,#896,#180,.T.);
#1286=EDGE_CURVE('',#896,#898,#184,.T.);
#1288=EDGE_CURVE('',#898,#900,#188,.T.);
#1290=EDGE_CURVE('',#900,#895,#192,.T.);
#1294=EDGE_CURVE('',#911,#912,#196,.T.);
#1296=EDGE_CURVE('',#912,#914,#200,.T.);
#1298=EDGE_CURVE('',#914,#916,#204,.T.);
#1300=EDGE_CURVE('',#916,#911,#208,.T.);
#1304=EDGE_CURVE('',#931,#932,#212,.T.);
#1306=EDGE_CURVE('',#932,#934,#216,.T.);
#1308=EDGE_CURVE('',#934,#936,#220,.T.);
#1310=EDGE_CURVE('',#936,#931,#224,.T.);
#1314=EDGE_CURVE('',#947,#948,#228,.T.);
#1316=EDGE_CURVE('',#948,#950,#232,.T.);
#1318=EDGE_CURVE('',#950,#952,#236,.T.);
#1320=EDGE_CURVE('',#952,#947,#240,.T.);
#1324=EDGE_CURVE('',#963,#964,#244,.T.);
#1326=EDGE_CURVE('',#964,#966,#248,.T.);
#1328=EDGE_CURVE('',#966,#968,#252,.T.);
#1330=EDGE_CURVE('',#968,#963,#256,.T.);
#1334=EDGE_CURVE('',#979,#980,#260,.T.);
#1336=EDGE_CURVE('',#980,#982,#264,.T.);
#1338=EDGE_CURVE('',#982,#984,#268,.T.);
#1340=EDGE_CURVE('',#984,#979,#272,.T.);
#1344=EDGE_CURVE('',#1019,#996,#664,.T.);
#1346=EDGE_CURVE('',#1019,#1020,#276,.T.);
#1348=EDGE_CURVE('',#995,#1020,#708,.T.);
#1350=EDGE_CURVE('',#995,#996,#280,.T.);
#1354=EDGE_CURVE('',#1023,#1000,#772,.T.);
#1356=EDGE_CURVE('',#1023,#1024,#284,.T.);
#1358=EDGE_CURVE('',#999,#1024,#756,.T.);
#1360=EDGE_CURVE('',#999,#1000,#288,.T.);
#1364=EDGE_CURVE('',#1099,#1100,#292,.T.);
#1366=EDGE_CURVE('',#1100,#1102,#296,.T.);
#1368=EDGE_CURVE('',#1102,#1104,#300,.T.);
#1370=EDGE_CURVE('',#1104,#1099,#304,.T.);
#1380=EDGE_CURVE('',#1043,#1044,#308,.T.);
#1395=EDGE_CURVE('',#1038,#1040,#348,.T.);
#1400=EDGE_CURVE('',#1075,#1076,#321,.T.);
#1402=EDGE_CURVE('',#1076,#1075,#326,.T.);
#1406=EDGE_CURVE('',#1079,#1080,#331,.T.);
#1408=EDGE_CURVE('',#1080,#1079,#336,.T.);
#1431=EDGE_CURVE('',#1076,#1060,#360,.T.);
#1434=EDGE_CURVE('',#1075,#1059,#356,.T.);
#1457=EDGE_CURVE('',#1080,#1068,#368,.T.);
#1460=EDGE_CURVE('',#1079,#1067,#364,.T.);
#1483=EDGE_CURVE('',#847,#839,#372,.T.);
#1485=EDGE_CURVE('',#839,#840,#388,.T.);
#1487=EDGE_CURVE('',#848,#840,#384,.T.);
#1498=EDGE_CURVE('',#852,#844,#376,.T.);
#1500=EDGE_CURVE('',#844,#839,#392,.T.);
#1512=EDGE_CURVE('',#850,#842,#380,.T.);
#1514=EDGE_CURVE('',#842,#844,#396,.T.);
#1527=EDGE_CURVE('',#840,#842,#400,.T.);
#1551=EDGE_CURVE('',#863,#855,#404,.T.);
#1553=EDGE_CURVE('',#855,#856,#420,.T.);
#1555=EDGE_CURVE('',#864,#856,#416,.T.);
#1566=EDGE_CURVE('',#868,#860,#408,.T.);
#1568=EDGE_CURVE('',#860,#855,#424,.T.);
#1580=EDGE_CURVE('',#866,#858,#412,.T.);
#1582=EDGE_CURVE('',#858,#860,#428,.T.);
#1595=EDGE_CURVE('',#856,#858,#432,.T.);
#1619=EDGE_CURVE('',#879,#871,#436,.T.);
#1621=EDGE_CURVE('',#871,#872,#452,.T.);
#1623=EDGE_CURVE('',#880,#872,#448,.T.);
#1634=EDGE_CURVE('',#884,#876,#440,.T.);
#1636=EDGE_CURVE('',#876,#871,#456,.T.);
#1648=EDGE_CURVE('',#882,#874,#444,.T.);
#1650=EDGE_CURVE('',#874,#876,#460,.T.);
#1663=EDGE_CURVE('',#872,#874,#464,.T.);
#1687=EDGE_CURVE('',#895,#887,#468,.T.);
#1689=EDGE_CURVE('',#887,#888,#484,.T.);
#1691=EDGE_CURVE('',#896,#888,#480,.T.);
#1702=EDGE_CURVE('',#900,#892,#472,.T.);
#1704=EDGE_CURVE('',#892,#887,#488,.T.);
#1716=EDGE_CURVE('',#898,#890,#476,.T.);
#1718=EDGE_CURVE('',#890,#892,#492,.T.);
#1731=EDGE_CURVE('',#888,#890,#496,.T.);
#1755=EDGE_CURVE('',#911,#903,#500,.T.);
#1757=EDGE_CURVE('',#903,#904,#516,.T.);
#1759=EDGE_CURVE('',#912,#904,#512,.T.);
#1770=EDGE_CURVE('',#916,#908,#504,.T.);
#1772=EDGE_CURVE('',#908,#903,#520,.T.);
#1784=EDGE_CURVE('',#914,#906,#508,.T.);
#1786=EDGE_CURVE('',#906,#908,#524,.T.);
#1799=EDGE_CURVE('',#904,#906,#528,.T.);
#1823=EDGE_CURVE('',#931,#923,#532,.T.);
#1825=EDGE_CURVE('',#923,#924,#548,.T.);
#1827=EDGE_CURVE('',#932,#924,#544,.T.);
#1838=EDGE_CURVE('',#936,#928,#536,.T.);
#1840=EDGE_CURVE('',#928,#923,#552,.T.);
#1852=EDGE_CURVE('',#934,#926,#540,.T.);
#1854=EDGE_CURVE('',#926,#928,#556,.T.);
#1867=EDGE_CURVE('',#924,#926,#560,.T.);
#1891=EDGE_CURVE('',#947,#939,#564,.T.);
#1893=EDGE_CURVE('',#939,#940,#580,.T.);
#1895=EDGE_CURVE('',#948,#940,#576,.T.);
#1906=EDGE_CURVE('',#952,#944,#568,.T.);
#1908=EDGE_CURVE('',#944,#939,#584,.T.);
#1920=EDGE_CURVE('',#950,#942,#572,.T.);
#1922=EDGE_CURVE('',#942,#944,#588,.T.);
#1935=EDGE_CURVE('',#940,#942,#592,.T.);
#1959=EDGE_CURVE('',#963,#955,#596,.T.);
#1961=EDGE_CURVE('',#955,#956,#612,.T.);
#1963=EDGE_CURVE('',#964,#956,#608,.T.);
#1974=EDGE_CURVE('',#968,#960,#600,.T.);
#1976=EDGE_CURVE('',#960,#955,#616,.T.);
#1988=EDGE_CURVE('',#966,#958,#604,.T.);
#1990=EDGE_CURVE('',#958,#960,#620,.T.);
#2003=EDGE_CURVE('',#956,#958,#624,.T.);
#2027=EDGE_CURVE('',#979,#971,#628,.T.);
#2029=EDGE_CURVE('',#971,#972,#644,.T.);
#2031=EDGE_CURVE('',#980,#972,#640,.T.);
#2042=EDGE_CURVE('',#984,#976,#632,.T.);
#2044=EDGE_CURVE('',#976,#971,#648,.T.);
#2056=EDGE_CURVE('',#982,#974,#636,.T.);
#2058=EDGE_CURVE('',#974,#976,#652,.T.);
#2071=EDGE_CURVE('',#972,#974,#656,.T.);
#2094=EDGE_CURVE('',#988,#1028,#676,.T.);
#2096=EDGE_CURVE('',#1028,#1003,#660,.T.);
#2098=EDGE_CURVE('',#1003,#1004,#720,.T.);
#2100=EDGE_CURVE('',#1019,#1004,#716,.T.);
#2103=EDGE_CURVE('',#996,#988,#668,.T.);
#2113=EDGE_CURVE('',#1027,#1028,#672,.T.);
#2116=EDGE_CURVE('',#987,#988,#680,.T.);
#2118=EDGE_CURVE('',#1027,#987,#684,.T.);
#2128=EDGE_CURVE('',#1031,#1032,#688,.T.);
#2130=EDGE_CURVE('',#992,#1031,#692,.T.);
#2132=EDGE_CURVE('',#991,#992,#696,.T.);
#2134=EDGE_CURVE('',#1032,#991,#700,.T.);
#2145=EDGE_CURVE('',#1027,#1008,#704,.T.);
#2147=EDGE_CURVE('',#1008,#1003,#724,.T.);
#2159=EDGE_CURVE('',#1020,#1006,#712,.T.);
#2161=EDGE_CURVE('',#1006,#1008,#728,.T.);
#2165=EDGE_CURVE('',#995,#987,#784,.T.);
#2177=EDGE_CURVE('',#1004,#1006,#732,.T.);
#2200=EDGE_CURVE('',#1011,#1012,#736,.T.);
#2202=EDGE_CURVE('',#1016,#1011,#740,.T.);
#2204=EDGE_CURVE('',#1014,#1016,#744,.T.);
#2206=EDGE_CURVE('',#1012,#1014,#748,.T.);
#2217=EDGE_CURVE('',#1032,#1011,#752,.T.);
#2220=EDGE_CURVE('',#1031,#1012,#768,.T.);
#2231=EDGE_CURVE('',#1024,#1016,#760,.T.);
#2236=EDGE_CURVE('',#999,#991,#780,.T.);
#2247=EDGE_CURVE('',#1023,#1014,#764,.T.);
#2264=EDGE_CURVE('',#1000,#992,#776,.T.);
#2299=EDGE_CURVE('',#1099,#1091,#788,.T.);
#2301=EDGE_CURVE('',#1091,#1092,#804,.T.);
#2303=EDGE_CURVE('',#1100,#1092,#800,.T.);
#2314=EDGE_CURVE('',#1104,#1096,#792,.T.);
#2316=EDGE_CURVE('',#1096,#1091,#808,.T.);
#2328=EDGE_CURVE('',#1102,#1094,#796,.T.);
#2330=EDGE_CURVE('',#1094,#1096,#812,.T.);
#2343=EDGE_CURVE('',#1092,#1094,#816,.T.);
#2367=EDGE_CURVE('',#1084,#1064,#824,.T.);
#2370=EDGE_CURVE('',#1083,#1063,#820,.T.);
#2393=EDGE_CURVE('',#1088,#1072,#832,.T.);
#2396=EDGE_CURVE('',#1087,#1071,#828,.T.);
#2413=CLOSED_SHELL('',(#1144,#1167,#1182,#1208,#1229,#1241,#1374,#1387,#1412,
#1424,#1438,#1450,#1464,#1476,#1491,#1505,#1519,#1532,#1544,#1559,#1573,#1587,
#1600,#1612,#1627,#1641,#1655,#1668,#1680,#1695,#1709,#1723,#1736,#1748,#1763,
#1777,#1791,#1804,#1816,#1831,#1845,#1859,#1872,#1884,#1899,#1913,#1927,#1940,
#1952,#1967,#1981,#1995,#2008,#2020,#2035,#2049,#2063,#2076,#2088,#2107,#2122,
#2138,#2152,#2169,#2182,#2194,#2210,#2224,#2240,#2253,#2268,#2280,#2292,#2307,
#2321,#2335,#2348,#2360,#2374,#2386,#2400,#2412));
#2414=MANIFOLD_SOLID_BREP('',#2413);
#2415=(LENGTH_UNIT()NAMED_UNIT(*)SI_UNIT(.MILLI.,.METRE.));
#2417=(NAMED_UNIT(*)PLANE_ANGLE_UNIT()SI_UNIT($,.RADIAN.));
#2420=(NAMED_UNIT(*)SI_UNIT($,.STERADIAN.)SOLID_ANGLE_UNIT());
#2423=ADVANCED_BREP_SHAPE_REPRESENTATION('',(#2414),#2422);
#2430=PRODUCT_DEFINITION('design','',#2429,#2426);
#2431=PRODUCT_DEFINITION_SHAPE('','SHAPE FOR CELLPLATE.',#2430);
#2432=SHAPE_DEFINITION_REPRESENTATION(#2431,#2423);
ENDSEC;
END-ISO-10303-21;
