ISO-10303-21;
HEADER;
FILE_DESCRIPTION((''),'2;1');
FILE_NAME('CHUCK','2026-05-20T10:57:20',('user'),(''),
'CREO PARAMETRIC BY PTC INC, 2025102','CREO PARAMETRIC BY PTC INC, 2025102','');
FILE_SCHEMA(('CONFIG_CONTROL_DESIGN'));
ENDSEC;
DATA;
#1=CARTESIAN_POINT('',(0.E0,0.E0,0.E0));
#2=DIRECTION('',(0.E0,1.E0,0.E0));
#3=DIRECTION('',(1.E0,0.E0,0.E0));
#4=AXIS2_PLACEMENT_3D('',#1,#2,#3);
#6=CARTESIAN_POINT('',(0.E0,0.E0,0.E0));
#7=DIRECTION('',(0.E0,1.E0,0.E0));
#8=DIRECTION('',(-1.E0,0.E0,0.E0));
#9=AXIS2_PLACEMENT_3D('',#6,#7,#8);
#11=CARTESIAN_POINT('',(0.E0,0.E0,0.E0));
#12=DIRECTION('',(0.E0,-1.E0,0.E0));
#13=DIRECTION('',(1.E0,0.E0,0.E0));
#14=AXIS2_PLACEMENT_3D('',#11,#12,#13);
#16=CARTESIAN_POINT('',(0.E0,0.E0,0.E0));
#17=DIRECTION('',(0.E0,-1.E0,0.E0));
#18=DIRECTION('',(-1.E0,0.E0,0.E0));
#19=AXIS2_PLACEMENT_3D('',#16,#17,#18);
#21=CARTESIAN_POINT('',(0.E0,2.E1,0.E0));
#22=DIRECTION('',(0.E0,1.E0,0.E0));
#23=DIRECTION('',(1.E0,0.E0,0.E0));
#24=AXIS2_PLACEMENT_3D('',#21,#22,#23);
#26=DIRECTION('',(0.E0,1.E0,0.E0));
#27=VECTOR('',#26,2.E1);
#28=CARTESIAN_POINT('',(5.25E0,0.E0,0.E0));
#29=LINE('',#28,#27);
#30=CARTESIAN_POINT('',(0.E0,2.E1,0.E0));
#31=DIRECTION('',(0.E0,1.E0,0.E0));
#32=DIRECTION('',(1.E0,0.E0,0.E0));
#33=AXIS2_PLACEMENT_3D('',#30,#31,#32);
#35=CARTESIAN_POINT('',(0.E0,2.E1,0.E0));
#36=DIRECTION('',(0.E0,1.E0,0.E0));
#37=DIRECTION('',(-1.E0,0.E0,0.E0));
#38=AXIS2_PLACEMENT_3D('',#35,#36,#37);
#40=CARTESIAN_POINT('',(0.E0,2.E1,0.E0));
#41=DIRECTION('',(0.E0,1.E0,0.E0));
#42=DIRECTION('',(1.E0,0.E0,0.E0));
#43=AXIS2_PLACEMENT_3D('',#40,#41,#42);
#45=CARTESIAN_POINT('',(0.E0,2.E1,0.E0));
#46=DIRECTION('',(0.E0,1.E0,0.E0));
#47=DIRECTION('',(-1.E0,0.E0,0.E0));
#48=AXIS2_PLACEMENT_3D('',#45,#46,#47);
#50=DIRECTION('',(0.E0,1.E0,0.E0));
#51=VECTOR('',#50,8.E0);
#52=CARTESIAN_POINT('',(2.5E1,2.E1,0.E0));
#53=LINE('',#52,#51);
#54=DIRECTION('',(0.E0,1.E0,0.E0));
#55=VECTOR('',#54,8.E0);
#56=CARTESIAN_POINT('',(-2.5E1,2.E1,0.E0));
#57=LINE('',#56,#55);
#58=CARTESIAN_POINT('',(0.E0,2.8E1,0.E0));
#59=DIRECTION('',(0.E0,1.E0,0.E0));
#60=DIRECTION('',(1.E0,0.E0,0.E0));
#61=AXIS2_PLACEMENT_3D('',#58,#59,#60);
#63=CARTESIAN_POINT('',(0.E0,2.8E1,0.E0));
#64=DIRECTION('',(0.E0,1.E0,0.E0));
#65=DIRECTION('',(-1.E0,0.E0,0.E0));
#66=AXIS2_PLACEMENT_3D('',#63,#64,#65);
#68=CARTESIAN_POINT('',(0.E0,2.8E1,0.E0));
#69=DIRECTION('',(0.E0,1.E0,0.E0));
#70=DIRECTION('',(1.E0,0.E0,0.E0));
#71=AXIS2_PLACEMENT_3D('',#68,#69,#70);
#73=CARTESIAN_POINT('',(0.E0,2.8E1,0.E0));
#74=DIRECTION('',(0.E0,1.E0,0.E0));
#75=DIRECTION('',(-1.E0,0.E0,0.E0));
#76=AXIS2_PLACEMENT_3D('',#73,#74,#75);
#78=DIRECTION('',(0.E0,1.E0,0.E0));
#79=VECTOR('',#78,2.E0);
#80=CARTESIAN_POINT('',(7.5E0,2.8E1,0.E0));
#81=LINE('',#80,#79);
#82=DIRECTION('',(0.E0,1.E0,0.E0));
#83=VECTOR('',#82,2.E0);
#84=CARTESIAN_POINT('',(-7.5E0,2.8E1,0.E0));
#85=LINE('',#84,#83);
#86=CARTESIAN_POINT('',(0.E0,3.E1,0.E0));
#87=DIRECTION('',(0.E0,1.E0,0.E0));
#88=DIRECTION('',(1.E0,0.E0,0.E0));
#89=AXIS2_PLACEMENT_3D('',#86,#87,#88);
#91=CARTESIAN_POINT('',(0.E0,3.E1,0.E0));
#92=DIRECTION('',(0.E0,1.E0,0.E0));
#93=DIRECTION('',(-1.E0,0.E0,0.E0));
#94=AXIS2_PLACEMENT_3D('',#91,#92,#93);
#96=CARTESIAN_POINT('',(0.E0,3.E1,0.E0));
#97=DIRECTION('',(0.E0,1.E0,0.E0));
#98=DIRECTION('',(1.E0,0.E0,0.E0));
#99=AXIS2_PLACEMENT_3D('',#96,#97,#98);
#101=CARTESIAN_POINT('',(0.E0,3.E1,0.E0));
#102=DIRECTION('',(0.E0,1.E0,0.E0));
#103=DIRECTION('',(-1.E0,0.E0,0.E0));
#104=AXIS2_PLACEMENT_3D('',#101,#102,#103);
#106=DIRECTION('',(0.E0,1.E0,0.E0));
#107=VECTOR('',#106,1.E1);
#108=CARTESIAN_POINT('',(1.E0,2.E1,0.E0));
#109=LINE('',#108,#107);
#110=DIRECTION('',(0.E0,-1.E0,0.E0));
#111=VECTOR('',#110,1.E1);
#112=CARTESIAN_POINT('',(-1.E0,3.E1,0.E0));
#113=LINE('',#112,#111);
#114=CARTESIAN_POINT('',(0.E0,2.E1,0.E0));
#115=DIRECTION('',(0.E0,1.E0,0.E0));
#116=DIRECTION('',(-1.E0,0.E0,0.E0));
#117=AXIS2_PLACEMENT_3D('',#114,#115,#116);
#119=DIRECTION('',(0.E0,1.E0,0.E0));
#120=VECTOR('',#119,2.E1);
#121=CARTESIAN_POINT('',(-5.25E0,0.E0,0.E0));
#122=LINE('',#121,#120);
#123=CARTESIAN_POINT('',(0.E0,2.E1,0.E0));
#124=DIRECTION('',(0.E0,1.E0,0.E0));
#125=DIRECTION('',(-1.E0,0.E0,0.E0));
#126=AXIS2_PLACEMENT_3D('',#123,#124,#125);
#128=DIRECTION('',(0.E0,1.E0,0.E0));
#129=VECTOR('',#128,2.E1);
#130=CARTESIAN_POINT('',(2.5E0,0.E0,0.E0));
#131=LINE('',#130,#129);
#132=CARTESIAN_POINT('',(0.E0,2.E1,0.E0));
#133=DIRECTION('',(0.E0,1.E0,0.E0));
#134=DIRECTION('',(1.E0,0.E0,0.E0));
#135=AXIS2_PLACEMENT_3D('',#132,#133,#134);
#137=DIRECTION('',(0.E0,1.E0,0.E0));
#138=VECTOR('',#137,2.E1);
#139=CARTESIAN_POINT('',(-2.5E0,0.E0,0.E0));
#140=LINE('',#139,#138);
#141=CARTESIAN_POINT('',(5.25E0,0.E0,0.E0));
#142=CARTESIAN_POINT('',(-5.25E0,0.E0,0.E0));
#143=VERTEX_POINT('',#141);
#144=VERTEX_POINT('',#142);
#145=CARTESIAN_POINT('',(2.5E0,0.E0,0.E0));
#146=CARTESIAN_POINT('',(-2.5E0,0.E0,0.E0));
#147=VERTEX_POINT('',#145);
#148=VERTEX_POINT('',#146);
#149=CARTESIAN_POINT('',(2.5E1,2.E1,0.E0));
#150=CARTESIAN_POINT('',(-2.5E1,2.E1,0.E0));
#151=VERTEX_POINT('',#149);
#152=VERTEX_POINT('',#150);
#153=CARTESIAN_POINT('',(2.5E1,2.8E1,0.E0));
#154=CARTESIAN_POINT('',(-2.5E1,2.8E1,0.E0));
#155=VERTEX_POINT('',#153);
#156=VERTEX_POINT('',#154);
#157=CARTESIAN_POINT('',(5.25E0,2.E1,0.E0));
#158=CARTESIAN_POINT('',(-5.25E0,2.E1,0.E0));
#159=VERTEX_POINT('',#157);
#160=VERTEX_POINT('',#158);
#161=CARTESIAN_POINT('',(-2.5E0,2.E1,0.E0));
#162=CARTESIAN_POINT('',(2.5E0,2.E1,0.E0));
#163=VERTEX_POINT('',#161);
#164=VERTEX_POINT('',#162);
#165=CARTESIAN_POINT('',(1.E0,2.E1,0.E0));
#166=CARTESIAN_POINT('',(-1.E0,2.E1,0.E0));
#167=VERTEX_POINT('',#165);
#168=VERTEX_POINT('',#166);
#169=CARTESIAN_POINT('',(7.5E0,3.E1,0.E0));
#170=CARTESIAN_POINT('',(-7.5E0,3.E1,0.E0));
#171=VERTEX_POINT('',#169);
#172=VERTEX_POINT('',#170);
#173=CARTESIAN_POINT('',(7.5E0,2.8E1,0.E0));
#174=CARTESIAN_POINT('',(-7.5E0,2.8E1,0.E0));
#175=VERTEX_POINT('',#173);
#176=VERTEX_POINT('',#174);
#177=CARTESIAN_POINT('',(1.E0,3.E1,0.E0));
#178=CARTESIAN_POINT('',(-1.E0,3.E1,0.E0));
#179=VERTEX_POINT('',#177);
#180=VERTEX_POINT('',#178);
#181=CARTESIAN_POINT('',(0.E0,0.E0,0.E0));
#182=DIRECTION('',(0.E0,1.E0,0.E0));
#183=DIRECTION('',(1.E0,0.E0,0.E0));
#184=AXIS2_PLACEMENT_3D('',#181,#182,#183);
#185=PLANE('',#184);
#187=ORIENTED_EDGE('',*,*,#186,.T.);
#189=ORIENTED_EDGE('',*,*,#188,.T.);
#190=EDGE_LOOP('',(#187,#189));
#191=FACE_OUTER_BOUND('',#190,.F.);
#193=ORIENTED_EDGE('',*,*,#192,.T.);
#195=ORIENTED_EDGE('',*,*,#194,.T.);
#196=EDGE_LOOP('',(#193,#195));
#197=FACE_BOUND('',#196,.F.);
#198=ADVANCED_FACE('',(#191,#197),#185,.F.);
#199=CARTESIAN_POINT('',(0.E0,0.E0,0.E0));
#200=DIRECTION('',(0.E0,1.E0,0.E0));
#201=DIRECTION('',(1.E0,0.E0,0.E0));
#202=AXIS2_PLACEMENT_3D('',#199,#200,#201);
#203=CYLINDRICAL_SURFACE('',#202,5.25E0);
#205=ORIENTED_EDGE('',*,*,#204,.T.);
#207=ORIENTED_EDGE('',*,*,#206,.F.);
#208=ORIENTED_EDGE('',*,*,#186,.F.);
#210=ORIENTED_EDGE('',*,*,#209,.T.);
#211=EDGE_LOOP('',(#205,#207,#208,#210));
#212=FACE_OUTER_BOUND('',#211,.F.);
#213=ADVANCED_FACE('',(#212),#203,.T.);
#214=CARTESIAN_POINT('',(0.E0,2.E1,0.E0));
#215=DIRECTION('',(0.E0,1.E0,0.E0));
#216=DIRECTION('',(1.E0,0.E0,0.E0));
#217=AXIS2_PLACEMENT_3D('',#214,#215,#216);
#218=PLANE('',#217);
#220=ORIENTED_EDGE('',*,*,#219,.T.);
#222=ORIENTED_EDGE('',*,*,#221,.T.);
#223=EDGE_LOOP('',(#220,#222));
#224=FACE_OUTER_BOUND('',#223,.F.);
#225=ORIENTED_EDGE('',*,*,#204,.F.);
#227=ORIENTED_EDGE('',*,*,#226,.F.);
#228=EDGE_LOOP('',(#225,#227));
#229=FACE_BOUND('',#228,.F.);
#230=ADVANCED_FACE('',(#224,#229),#218,.F.);
#231=CARTESIAN_POINT('',(0.E0,2.E1,0.E0));
#232=DIRECTION('',(0.E0,1.E0,0.E0));
#233=DIRECTION('',(1.E0,0.E0,0.E0));
#234=AXIS2_PLACEMENT_3D('',#231,#232,#233);
#235=PLANE('',#234);
#237=ORIENTED_EDGE('',*,*,#236,.T.);
#239=ORIENTED_EDGE('',*,*,#238,.T.);
#240=EDGE_LOOP('',(#237,#239));
#241=FACE_OUTER_BOUND('',#240,.F.);
#243=ORIENTED_EDGE('',*,*,#242,.F.);
#245=ORIENTED_EDGE('',*,*,#244,.F.);
#246=EDGE_LOOP('',(#243,#245));
#247=FACE_BOUND('',#246,.F.);
#248=ADVANCED_FACE('',(#241,#247),#235,.F.);
#249=CARTESIAN_POINT('',(0.E0,2.E1,0.E0));
#250=DIRECTION('',(0.E0,1.E0,0.E0));
#251=DIRECTION('',(1.E0,0.E0,0.E0));
#252=AXIS2_PLACEMENT_3D('',#249,#250,#251);
#253=CYLINDRICAL_SURFACE('',#252,2.5E1);
#254=ORIENTED_EDGE('',*,*,#219,.F.);
#256=ORIENTED_EDGE('',*,*,#255,.T.);
#258=ORIENTED_EDGE('',*,*,#257,.T.);
#260=ORIENTED_EDGE('',*,*,#259,.F.);
#261=EDGE_LOOP('',(#254,#256,#258,#260));
#262=FACE_OUTER_BOUND('',#261,.F.);
#263=ADVANCED_FACE('',(#262),#253,.T.);
#264=CARTESIAN_POINT('',(0.E0,2.E1,0.E0));
#265=DIRECTION('',(0.E0,1.E0,0.E0));
#266=DIRECTION('',(1.E0,0.E0,0.E0));
#267=AXIS2_PLACEMENT_3D('',#264,#265,#266);
#268=CYLINDRICAL_SURFACE('',#267,2.5E1);
#269=ORIENTED_EDGE('',*,*,#221,.F.);
#270=ORIENTED_EDGE('',*,*,#259,.T.);
#272=ORIENTED_EDGE('',*,*,#271,.T.);
#273=ORIENTED_EDGE('',*,*,#255,.F.);
#274=EDGE_LOOP('',(#269,#270,#272,#273));
#275=FACE_OUTER_BOUND('',#274,.F.);
#276=ADVANCED_FACE('',(#275),#268,.T.);
#277=CARTESIAN_POINT('',(0.E0,2.8E1,0.E0));
#278=DIRECTION('',(0.E0,1.E0,0.E0));
#279=DIRECTION('',(1.E0,0.E0,0.E0));
#280=AXIS2_PLACEMENT_3D('',#277,#278,#279);
#281=PLANE('',#280);
#282=ORIENTED_EDGE('',*,*,#257,.F.);
#283=ORIENTED_EDGE('',*,*,#271,.F.);
#284=EDGE_LOOP('',(#282,#283));
#285=FACE_OUTER_BOUND('',#284,.F.);
#287=ORIENTED_EDGE('',*,*,#286,.T.);
#289=ORIENTED_EDGE('',*,*,#288,.T.);
#290=EDGE_LOOP('',(#287,#289));
#291=FACE_BOUND('',#290,.F.);
#292=ADVANCED_FACE('',(#285,#291),#281,.T.);
#293=CARTESIAN_POINT('',(0.E0,2.8E1,0.E0));
#294=DIRECTION('',(0.E0,1.E0,0.E0));
#295=DIRECTION('',(1.E0,0.E0,0.E0));
#296=AXIS2_PLACEMENT_3D('',#293,#294,#295);
#297=CYLINDRICAL_SURFACE('',#296,7.5E0);
#298=ORIENTED_EDGE('',*,*,#286,.F.);
#300=ORIENTED_EDGE('',*,*,#299,.T.);
#302=ORIENTED_EDGE('',*,*,#301,.T.);
#304=ORIENTED_EDGE('',*,*,#303,.F.);
#305=EDGE_LOOP('',(#298,#300,#302,#304));
#306=FACE_OUTER_BOUND('',#305,.F.);
#307=ADVANCED_FACE('',(#306),#297,.T.);
#308=CARTESIAN_POINT('',(0.E0,2.8E1,0.E0));
#309=DIRECTION('',(0.E0,1.E0,0.E0));
#310=DIRECTION('',(1.E0,0.E0,0.E0));
#311=AXIS2_PLACEMENT_3D('',#308,#309,#310);
#312=CYLINDRICAL_SURFACE('',#311,7.5E0);
#313=ORIENTED_EDGE('',*,*,#288,.F.);
#314=ORIENTED_EDGE('',*,*,#303,.T.);
#316=ORIENTED_EDGE('',*,*,#315,.T.);
#317=ORIENTED_EDGE('',*,*,#299,.F.);
#318=EDGE_LOOP('',(#313,#314,#316,#317));
#319=FACE_OUTER_BOUND('',#318,.F.);
#320=ADVANCED_FACE('',(#319),#312,.T.);
#321=CARTESIAN_POINT('',(0.E0,3.E1,0.E0));
#322=DIRECTION('',(0.E0,1.E0,0.E0));
#323=DIRECTION('',(1.E0,0.E0,0.E0));
#324=AXIS2_PLACEMENT_3D('',#321,#322,#323);
#325=PLANE('',#324);
#326=ORIENTED_EDGE('',*,*,#301,.F.);
#327=ORIENTED_EDGE('',*,*,#315,.F.);
#328=EDGE_LOOP('',(#326,#327));
#329=FACE_OUTER_BOUND('',#328,.F.);
#331=ORIENTED_EDGE('',*,*,#330,.T.);
#333=ORIENTED_EDGE('',*,*,#332,.T.);
#334=EDGE_LOOP('',(#331,#333));
#335=FACE_BOUND('',#334,.F.);
#336=ADVANCED_FACE('',(#329,#335),#325,.T.);
#337=CARTESIAN_POINT('',(0.E0,2.8E1,0.E0));
#338=DIRECTION('',(0.E0,1.E0,0.E0));
#339=DIRECTION('',(1.E0,0.E0,0.E0));
#340=AXIS2_PLACEMENT_3D('',#337,#338,#339);
#341=CYLINDRICAL_SURFACE('',#340,1.E0);
#343=ORIENTED_EDGE('',*,*,#342,.F.);
#344=ORIENTED_EDGE('',*,*,#330,.F.);
#346=ORIENTED_EDGE('',*,*,#345,.F.);
#347=ORIENTED_EDGE('',*,*,#242,.T.);
#348=EDGE_LOOP('',(#343,#344,#346,#347));
#349=FACE_OUTER_BOUND('',#348,.F.);
#350=ADVANCED_FACE('',(#349),#341,.F.);
#351=CARTESIAN_POINT('',(0.E0,2.8E1,0.E0));
#352=DIRECTION('',(0.E0,1.E0,0.E0));
#353=DIRECTION('',(1.E0,0.E0,0.E0));
#354=AXIS2_PLACEMENT_3D('',#351,#352,#353);
#355=CYLINDRICAL_SURFACE('',#354,1.E0);
#356=ORIENTED_EDGE('',*,*,#345,.T.);
#357=ORIENTED_EDGE('',*,*,#332,.F.);
#358=ORIENTED_EDGE('',*,*,#342,.T.);
#359=ORIENTED_EDGE('',*,*,#244,.T.);
#360=EDGE_LOOP('',(#356,#357,#358,#359));
#361=FACE_OUTER_BOUND('',#360,.F.);
#362=ADVANCED_FACE('',(#361),#355,.F.);
#363=CARTESIAN_POINT('',(0.E0,0.E0,0.E0));
#364=DIRECTION('',(0.E0,1.E0,0.E0));
#365=DIRECTION('',(1.E0,0.E0,0.E0));
#366=AXIS2_PLACEMENT_3D('',#363,#364,#365);
#367=CYLINDRICAL_SURFACE('',#366,5.25E0);
#368=ORIENTED_EDGE('',*,*,#226,.T.);
#369=ORIENTED_EDGE('',*,*,#209,.F.);
#370=ORIENTED_EDGE('',*,*,#188,.F.);
#371=ORIENTED_EDGE('',*,*,#206,.T.);
#372=EDGE_LOOP('',(#368,#369,#370,#371));
#373=FACE_OUTER_BOUND('',#372,.F.);
#374=ADVANCED_FACE('',(#373),#367,.T.);
#375=CARTESIAN_POINT('',(0.E0,0.E0,0.E0));
#376=DIRECTION('',(0.E0,1.E0,0.E0));
#377=DIRECTION('',(1.E0,0.E0,0.E0));
#378=AXIS2_PLACEMENT_3D('',#375,#376,#377);
#379=CYLINDRICAL_SURFACE('',#378,2.5E0);
#380=ORIENTED_EDGE('',*,*,#236,.F.);
#382=ORIENTED_EDGE('',*,*,#381,.F.);
#383=ORIENTED_EDGE('',*,*,#192,.F.);
#385=ORIENTED_EDGE('',*,*,#384,.T.);
#386=EDGE_LOOP('',(#380,#382,#383,#385));
#387=FACE_OUTER_BOUND('',#386,.F.);
#388=ADVANCED_FACE('',(#387),#379,.F.);
#389=CARTESIAN_POINT('',(0.E0,0.E0,0.E0));
#390=DIRECTION('',(0.E0,1.E0,0.E0));
#391=DIRECTION('',(1.E0,0.E0,0.E0));
#392=AXIS2_PLACEMENT_3D('',#389,#390,#391);
#393=CYLINDRICAL_SURFACE('',#392,2.5E0);
#394=ORIENTED_EDGE('',*,*,#238,.F.);
#395=ORIENTED_EDGE('',*,*,#384,.F.);
#396=ORIENTED_EDGE('',*,*,#194,.F.);
#397=ORIENTED_EDGE('',*,*,#381,.T.);
#398=EDGE_LOOP('',(#394,#395,#396,#397));
#399=FACE_OUTER_BOUND('',#398,.F.);
#400=ADVANCED_FACE('',(#399),#393,.F.);
#404=DIMENSIONAL_EXPONENTS(0.E0,0.E0,0.E0,0.E0,0.E0,0.E0,0.E0);
#406=PLANE_ANGLE_MEASURE_WITH_UNIT(PLANE_ANGLE_MEASURE(1.745329251994E-2),#405);
#407=(CONVERSION_BASED_UNIT('DEGREE',#406)NAMED_UNIT(*)PLANE_ANGLE_UNIT());
#409=UNCERTAINTY_MEASURE_WITH_UNIT(LENGTH_MEASURE(1.E-2),#403,'closure',
'Maximum model space distance between geometric entities at asserted connectivities');
#410=(GEOMETRIC_REPRESENTATION_CONTEXT(3)GLOBAL_UNCERTAINTY_ASSIGNED_CONTEXT((
#409))GLOBAL_UNIT_ASSIGNED_CONTEXT((#403,#407,#408))REPRESENTATION_CONTEXT
('ID1','3'));
#412=APPLICATION_CONTEXT(
'CONFIGURATION CONTROLLED 3D DESIGNS OF MECHANICAL PARTS AND ASSEMBLIES');
#413=APPLICATION_PROTOCOL_DEFINITION('international standard',
'config_control_design',1994,#412);
#414=DESIGN_CONTEXT('',#412,'design');
#415=MECHANICAL_CONTEXT('',#412,'mechanical');
#416=PRODUCT('CHUCK','CHUCK','NOT SPECIFIED',(#415));
#417=PRODUCT_DEFINITION_FORMATION_WITH_SPECIFIED_SOURCE('2','LAST_VERSION',#416,
.MADE.);
#421=PRODUCT_CATEGORY('part','');
#422=PRODUCT_RELATED_PRODUCT_CATEGORY('detail','',(#416));
#423=PRODUCT_CATEGORY_RELATIONSHIP('','',#421,#422);
#424=SECURITY_CLASSIFICATION_LEVEL('unclassified');
#425=SECURITY_CLASSIFICATION('','',#424);
#426=CC_DESIGN_SECURITY_CLASSIFICATION(#425,(#417));
#427=APPROVAL_STATUS('approved');
#428=APPROVAL(#427,'');
#429=CC_DESIGN_APPROVAL(#428,(#425,#417,#418));
#430=CALENDAR_DATE(126,20,5);
#431=COORDINATED_UNIVERSAL_TIME_OFFSET(9,0,.AHEAD.);
#432=LOCAL_TIME(10,57,2.E1,#431);
#433=DATE_AND_TIME(#430,#432);
#434=APPROVAL_DATE_TIME(#433,#428);
#435=DATE_TIME_ROLE('creation_date');
#436=CC_DESIGN_DATE_AND_TIME_ASSIGNMENT(#433,#435,(#418));
#437=DATE_TIME_ROLE('classification_date');
#438=CC_DESIGN_DATE_AND_TIME_ASSIGNMENT(#433,#437,(#425));
#439=PERSON('UNSPECIFIED','UNSPECIFIED',$,$,$,$);
#440=ORGANIZATION('UNSPECIFIED','UNSPECIFIED','UNSPECIFIED');
#441=PERSON_AND_ORGANIZATION(#439,#440);
#442=APPROVAL_ROLE('approver');
#443=APPROVAL_PERSON_ORGANIZATION(#441,#428,#442);
#444=PERSON_AND_ORGANIZATION_ROLE('creator');
#445=CC_DESIGN_PERSON_AND_ORGANIZATION_ASSIGNMENT(#441,#444,(#417,#418));
#446=PERSON_AND_ORGANIZATION_ROLE('design_supplier');
#447=CC_DESIGN_PERSON_AND_ORGANIZATION_ASSIGNMENT(#441,#446,(#417));
#448=PERSON_AND_ORGANIZATION_ROLE('classification_officer');
#449=CC_DESIGN_PERSON_AND_ORGANIZATION_ASSIGNMENT(#441,#448,(#425));
#450=PERSON_AND_ORGANIZATION_ROLE('design_owner');
#451=CC_DESIGN_PERSON_AND_ORGANIZATION_ASSIGNMENT(#441,#450,(#416));
#5=CIRCLE('',#4,5.25E0);
#10=CIRCLE('',#9,5.25E0);
#15=CIRCLE('',#14,2.5E0);
#20=CIRCLE('',#19,2.5E0);
#25=CIRCLE('',#24,5.25E0);
#34=CIRCLE('',#33,2.5E1);
#39=CIRCLE('',#38,2.5E1);
#44=CIRCLE('',#43,1.E0);
#49=CIRCLE('',#48,1.E0);
#62=CIRCLE('',#61,2.5E1);
#67=CIRCLE('',#66,2.5E1);
#72=CIRCLE('',#71,7.5E0);
#77=CIRCLE('',#76,7.5E0);
#90=CIRCLE('',#89,7.5E0);
#95=CIRCLE('',#94,7.5E0);
#100=CIRCLE('',#99,1.E0);
#105=CIRCLE('',#104,1.E0);
#118=CIRCLE('',#117,5.25E0);
#127=CIRCLE('',#126,2.5E0);
#136=CIRCLE('',#135,2.5E0);
#186=EDGE_CURVE('',#143,#144,#5,.T.);
#188=EDGE_CURVE('',#144,#143,#10,.T.);
#192=EDGE_CURVE('',#147,#148,#15,.T.);
#194=EDGE_CURVE('',#148,#147,#20,.T.);
#204=EDGE_CURVE('',#159,#160,#25,.T.);
#206=EDGE_CURVE('',#144,#160,#122,.T.);
#209=EDGE_CURVE('',#143,#159,#29,.T.);
#219=EDGE_CURVE('',#151,#152,#34,.T.);
#221=EDGE_CURVE('',#152,#151,#39,.T.);
#226=EDGE_CURVE('',#160,#159,#118,.T.);
#236=EDGE_CURVE('',#163,#164,#127,.T.);
#238=EDGE_CURVE('',#164,#163,#136,.T.);
#242=EDGE_CURVE('',#167,#168,#44,.T.);
#244=EDGE_CURVE('',#168,#167,#49,.T.);
#255=EDGE_CURVE('',#151,#155,#53,.T.);
#257=EDGE_CURVE('',#155,#156,#62,.T.);
#259=EDGE_CURVE('',#152,#156,#57,.T.);
#271=EDGE_CURVE('',#156,#155,#67,.T.);
#286=EDGE_CURVE('',#175,#176,#72,.T.);
#288=EDGE_CURVE('',#176,#175,#77,.T.);
#299=EDGE_CURVE('',#175,#171,#81,.T.);
#301=EDGE_CURVE('',#171,#172,#90,.T.);
#303=EDGE_CURVE('',#176,#172,#85,.T.);
#315=EDGE_CURVE('',#172,#171,#95,.T.);
#330=EDGE_CURVE('',#179,#180,#100,.T.);
#332=EDGE_CURVE('',#180,#179,#105,.T.);
#342=EDGE_CURVE('',#180,#168,#113,.T.);
#345=EDGE_CURVE('',#167,#179,#109,.T.);
#381=EDGE_CURVE('',#148,#163,#140,.T.);
#384=EDGE_CURVE('',#147,#164,#131,.T.);
#401=CLOSED_SHELL('',(#198,#213,#230,#248,#263,#276,#292,#307,#320,#336,#350,
#362,#374,#388,#400));
#402=MANIFOLD_SOLID_BREP('',#401);
#403=(LENGTH_UNIT()NAMED_UNIT(*)SI_UNIT(.MILLI.,.METRE.));
#405=(NAMED_UNIT(*)PLANE_ANGLE_UNIT()SI_UNIT($,.RADIAN.));
#408=(NAMED_UNIT(*)SI_UNIT($,.STERADIAN.)SOLID_ANGLE_UNIT());
#411=ADVANCED_BREP_SHAPE_REPRESENTATION('',(#402),#410);
#418=PRODUCT_DEFINITION('design','',#417,#414);
#419=PRODUCT_DEFINITION_SHAPE('','SHAPE FOR CHUCK.',#418);
#420=SHAPE_DEFINITION_REPRESENTATION(#419,#411);
ENDSEC;
END-ISO-10303-21;
