ISO-10303-21;
HEADER;
FILE_DESCRIPTION((''),'2;1');
FILE_NAME('GAMZISENZAXIS','2026-05-20T11:48:49',('user'),(''),
'CREO PARAMETRIC BY PTC INC, 2025102','CREO PARAMETRIC BY PTC INC, 2025102','');
FILE_SCHEMA(('CONFIG_CONTROL_DESIGN'));
ENDSEC;
DATA;
#1=CARTESIAN_POINT('',(0.E0,0.E0,0.E0));
#2=DIRECTION('',(0.E0,-1.E0,0.E0));
#3=DIRECTION('',(1.E0,0.E0,0.E0));
#4=AXIS2_PLACEMENT_3D('',#1,#2,#3);
#6=CARTESIAN_POINT('',(0.E0,0.E0,0.E0));
#7=DIRECTION('',(0.E0,-1.E0,0.E0));
#8=DIRECTION('',(-1.E0,0.E0,0.E0));
#9=AXIS2_PLACEMENT_3D('',#6,#7,#8);
#11=DIRECTION('',(-1.E0,0.E0,0.E0));
#12=VECTOR('',#11,7.E0);
#13=CARTESIAN_POINT('',(3.5E0,0.E0,5.845189994747E0));
#14=LINE('',#13,#12);
#15=DIRECTION('',(0.E0,1.E0,0.E0));
#16=VECTOR('',#15,2.E0);
#17=CARTESIAN_POINT('',(1.75E0,0.E0,0.E0));
#18=LINE('',#17,#16);
#19=DIRECTION('',(0.E0,1.E0,0.E0));
#20=VECTOR('',#19,2.E0);
#21=CARTESIAN_POINT('',(-1.75E0,0.E0,0.E0));
#22=LINE('',#21,#20);
#23=DIRECTION('',(1.E0,0.E0,0.E0));
#24=VECTOR('',#23,7.E0);
#25=CARTESIAN_POINT('',(-3.5E0,2.E0,3.812091515317E0));
#26=LINE('',#25,#24);
#27=DIRECTION('',(1.E0,0.E0,0.E0));
#28=VECTOR('',#27,3.5E0);
#29=CARTESIAN_POINT('',(-3.5E0,2.E0,-1.75E0));
#30=LINE('',#29,#28);
#31=CARTESIAN_POINT('',(0.E0,2.E0,0.E0));
#32=DIRECTION('',(0.E0,-1.E0,0.E0));
#33=DIRECTION('',(-1.E0,0.E0,0.E0));
#34=AXIS2_PLACEMENT_3D('',#31,#32,#33);
#36=CARTESIAN_POINT('',(0.E0,2.E0,0.E0));
#37=DIRECTION('',(0.E0,-1.E0,0.E0));
#38=DIRECTION('',(1.E0,0.E0,0.E0));
#39=AXIS2_PLACEMENT_3D('',#36,#37,#38);
#41=CARTESIAN_POINT('',(0.E0,2.E0,0.E0));
#42=DIRECTION('',(0.E0,-1.E0,0.E0));
#43=DIRECTION('',(0.E0,0.E0,-1.E0));
#44=AXIS2_PLACEMENT_3D('',#41,#42,#43);
#46=DIRECTION('',(1.E0,0.E0,0.E0));
#47=VECTOR('',#46,3.5E0);
#48=CARTESIAN_POINT('',(0.E0,2.E0,-1.75E0));
#49=LINE('',#48,#47);
#50=DIRECTION('',(0.E0,-1.E0,0.E0));
#51=VECTOR('',#50,4.5E0);
#52=CARTESIAN_POINT('',(-3.5E0,6.5E0,3.812091515317E0));
#53=LINE('',#52,#51);
#54=DIRECTION('',(0.E0,0.E0,1.E0));
#55=VECTOR('',#54,9.345189994747E0);
#56=CARTESIAN_POINT('',(3.5E0,0.E0,-3.5E0));
#57=LINE('',#56,#55);
#58=DIRECTION('',(0.E0,0.E0,1.E0));
#59=VECTOR('',#58,2.540481000525E1);
#60=CARTESIAN_POINT('',(3.5E0,6.5E0,5.845189994747E0));
#61=LINE('',#60,#59);
#62=DIRECTION('',(0.E0,0.E0,-1.E0));
#63=VECTOR('',#62,3.475E1);
#64=CARTESIAN_POINT('',(3.5E0,8.E0,3.125E1));
#65=LINE('',#64,#63);
#66=DIRECTION('',(0.E0,0.E0,1.E0));
#67=VECTOR('',#66,5.562091515317E0);
#68=CARTESIAN_POINT('',(3.5E0,6.5E0,-1.75E0));
#69=LINE('',#68,#67);
#70=DIRECTION('',(0.E0,-1.E0,0.E0));
#71=VECTOR('',#70,4.5E0);
#72=CARTESIAN_POINT('',(3.5E0,6.5E0,3.812091515317E0));
#73=LINE('',#72,#71);
#74=DIRECTION('',(0.E0,0.E0,-1.E0));
#75=VECTOR('',#74,5.562091515317E0);
#76=CARTESIAN_POINT('',(3.5E0,2.E0,3.812091515317E0));
#77=LINE('',#76,#75);
#78=DIRECTION('',(0.E0,1.E0,0.E0));
#79=VECTOR('',#78,4.5E0);
#80=CARTESIAN_POINT('',(3.5E0,2.E0,-1.75E0));
#81=LINE('',#80,#79);
#82=DIRECTION('',(0.E0,-1.E0,0.E0));
#83=VECTOR('',#82,6.5E0);
#84=CARTESIAN_POINT('',(3.5E0,6.5E0,5.845189994747E0));
#85=LINE('',#84,#83);
#86=DIRECTION('',(1.E0,0.E0,0.E0));
#87=VECTOR('',#86,7.E0);
#88=CARTESIAN_POINT('',(-3.5E0,6.5E0,3.812091515317E0));
#89=LINE('',#88,#87);
#90=CARTESIAN_POINT('',(0.E0,6.5E0,0.E0));
#91=DIRECTION('',(0.E0,1.E0,0.E0));
#92=DIRECTION('',(1.E0,0.E0,0.E0));
#93=AXIS2_PLACEMENT_3D('',#90,#91,#92);
#95=CARTESIAN_POINT('',(0.E0,6.5E0,0.E0));
#96=DIRECTION('',(0.E0,1.E0,0.E0));
#97=DIRECTION('',(-1.E0,0.E0,0.E0));
#98=AXIS2_PLACEMENT_3D('',#95,#96,#97);
#100=CARTESIAN_POINT('',(0.E0,6.5E0,0.E0));
#101=DIRECTION('',(0.E0,1.E0,0.E0));
#102=DIRECTION('',(0.E0,0.E0,-1.E0));
#103=AXIS2_PLACEMENT_3D('',#100,#101,#102);
#105=DIRECTION('',(0.E0,0.E0,1.E0));
#106=VECTOR('',#105,5.562091515317E0);
#107=CARTESIAN_POINT('',(-3.5E0,6.5E0,-1.75E0));
#108=LINE('',#107,#106);
#109=DIRECTION('',(1.E0,0.E0,0.E0));
#110=VECTOR('',#109,7.E0);
#111=CARTESIAN_POINT('',(-3.5E0,6.5E0,5.845189994747E0));
#112=LINE('',#111,#110);
#113=DIRECTION('',(0.E0,0.E0,1.E0));
#114=VECTOR('',#113,2.540481000525E1);
#115=CARTESIAN_POINT('',(-3.5E0,6.5E0,5.845189994747E0));
#116=LINE('',#115,#114);
#117=DIRECTION('',(1.E0,0.E0,0.E0));
#118=VECTOR('',#117,3.5E0);
#119=CARTESIAN_POINT('',(-3.5E0,6.5E0,-1.75E0));
#120=LINE('',#119,#118);
#121=DIRECTION('',(1.E0,0.E0,0.E0));
#122=VECTOR('',#121,3.5E0);
#123=CARTESIAN_POINT('',(0.E0,6.5E0,-1.75E0));
#124=LINE('',#123,#122);
#125=DIRECTION('',(0.E0,1.E0,0.E0));
#126=VECTOR('',#125,4.5E0);
#127=CARTESIAN_POINT('',(-3.5E0,2.E0,-1.75E0));
#128=LINE('',#127,#126);
#129=DIRECTION('',(0.E0,0.E0,1.E0));
#130=VECTOR('',#129,5.562091515317E0);
#131=CARTESIAN_POINT('',(-3.5E0,2.E0,-1.75E0));
#132=LINE('',#131,#130);
#133=DIRECTION('',(0.E0,-1.E0,0.E0));
#134=VECTOR('',#133,6.5E0);
#135=CARTESIAN_POINT('',(-3.5E0,6.5E0,5.845189994747E0));
#136=LINE('',#135,#134);
#137=DIRECTION('',(0.E0,0.E0,-1.E0));
#138=VECTOR('',#137,9.345189994747E0);
#139=CARTESIAN_POINT('',(-3.5E0,0.E0,5.845189994747E0));
#140=LINE('',#139,#138);
#141=DIRECTION('',(0.E0,0.E0,1.E0));
#142=VECTOR('',#141,3.475E1);
#143=CARTESIAN_POINT('',(-3.5E0,8.E0,-3.5E0));
#144=LINE('',#143,#142);
#145=DIRECTION('',(0.E0,-1.E0,0.E0));
#146=VECTOR('',#145,8.E0);
#147=CARTESIAN_POINT('',(-3.5E0,8.E0,-3.5E0));
#148=LINE('',#147,#146);
#149=DIRECTION('',(1.E0,0.E0,0.E0));
#150=VECTOR('',#149,7.E0);
#151=CARTESIAN_POINT('',(-3.5E0,0.E0,-3.5E0));
#152=LINE('',#151,#150);
#153=DIRECTION('',(0.E0,1.E0,0.E0));
#154=VECTOR('',#153,8.E0);
#155=CARTESIAN_POINT('',(3.5E0,0.E0,-3.5E0));
#156=LINE('',#155,#154);
#157=DIRECTION('',(-1.E0,0.E0,0.E0));
#158=VECTOR('',#157,7.E0);
#159=CARTESIAN_POINT('',(3.5E0,8.E0,-3.5E0));
#160=LINE('',#159,#158);
#161=CARTESIAN_POINT('',(0.E0,8.E0,0.E0));
#162=DIRECTION('',(0.E0,1.E0,0.E0));
#163=DIRECTION('',(1.E0,0.E0,0.E0));
#164=AXIS2_PLACEMENT_3D('',#161,#162,#163);
#166=CARTESIAN_POINT('',(0.E0,8.E0,0.E0));
#167=DIRECTION('',(0.E0,1.E0,0.E0));
#168=DIRECTION('',(-1.E0,0.E0,0.E0));
#169=AXIS2_PLACEMENT_3D('',#166,#167,#168);
#171=DIRECTION('',(-1.E0,0.E0,0.E0));
#172=VECTOR('',#171,7.E0);
#173=CARTESIAN_POINT('',(3.5E0,8.E0,3.125E1));
#174=LINE('',#173,#172);
#175=DIRECTION('',(0.E0,1.E0,0.E0));
#176=VECTOR('',#175,1.5E0);
#177=CARTESIAN_POINT('',(3.5E0,6.5E0,3.125E1));
#178=LINE('',#177,#176);
#179=DIRECTION('',(1.E0,0.E0,0.E0));
#180=VECTOR('',#179,7.E0);
#181=CARTESIAN_POINT('',(-3.5E0,6.5E0,3.125E1));
#182=LINE('',#181,#180);
#183=DIRECTION('',(0.E0,-1.E0,0.E0));
#184=VECTOR('',#183,1.5E0);
#185=CARTESIAN_POINT('',(-3.5E0,8.E0,3.125E1));
#186=LINE('',#185,#184);
#187=DIRECTION('',(0.E0,1.E0,0.E0));
#188=VECTOR('',#187,1.5E0);
#189=CARTESIAN_POINT('',(1.75E0,6.5E0,0.E0));
#190=LINE('',#189,#188);
#191=DIRECTION('',(0.E0,1.E0,0.E0));
#192=VECTOR('',#191,1.5E0);
#193=CARTESIAN_POINT('',(-1.75E0,6.5E0,0.E0));
#194=LINE('',#193,#192);
#195=CARTESIAN_POINT('',(1.75E0,0.E0,0.E0));
#196=CARTESIAN_POINT('',(-1.75E0,0.E0,0.E0));
#197=VERTEX_POINT('',#195);
#198=VERTEX_POINT('',#196);
#199=CARTESIAN_POINT('',(1.75E0,2.E0,0.E0));
#200=CARTESIAN_POINT('',(-1.75E0,2.E0,0.E0));
#201=VERTEX_POINT('',#199);
#202=VERTEX_POINT('',#200);
#203=CARTESIAN_POINT('',(3.5E0,8.E0,-3.5E0));
#204=CARTESIAN_POINT('',(-3.5E0,8.E0,-3.5E0));
#205=VERTEX_POINT('',#203);
#206=VERTEX_POINT('',#204);
#207=CARTESIAN_POINT('',(-3.5E0,2.E0,-1.75E0));
#208=CARTESIAN_POINT('',(0.E0,2.E0,-1.75E0));
#209=VERTEX_POINT('',#207);
#210=VERTEX_POINT('',#208);
#211=CARTESIAN_POINT('',(3.5E0,2.E0,-1.75E0));
#212=VERTEX_POINT('',#211);
#213=CARTESIAN_POINT('',(3.5E0,0.E0,-3.5E0));
#214=VERTEX_POINT('',#213);
#215=CARTESIAN_POINT('',(-3.5E0,0.E0,-3.5E0));
#216=VERTEX_POINT('',#215);
#217=CARTESIAN_POINT('',(3.5E0,8.E0,3.125E1));
#218=CARTESIAN_POINT('',(-3.5E0,8.E0,3.125E1));
#219=VERTEX_POINT('',#217);
#220=VERTEX_POINT('',#218);
#221=CARTESIAN_POINT('',(-3.5E0,6.5E0,3.125E1));
#222=VERTEX_POINT('',#221);
#223=CARTESIAN_POINT('',(3.5E0,6.5E0,3.125E1));
#224=VERTEX_POINT('',#223);
#225=CARTESIAN_POINT('',(-3.5E0,6.5E0,-1.75E0));
#226=VERTEX_POINT('',#225);
#227=CARTESIAN_POINT('',(3.5E0,6.5E0,-1.75E0));
#228=VERTEX_POINT('',#227);
#229=CARTESIAN_POINT('',(1.75E0,8.E0,0.E0));
#230=CARTESIAN_POINT('',(-1.75E0,8.E0,0.E0));
#231=VERTEX_POINT('',#229);
#232=VERTEX_POINT('',#230);
#233=CARTESIAN_POINT('',(1.75E0,6.5E0,0.E0));
#234=CARTESIAN_POINT('',(0.E0,6.5E0,-1.75E0));
#235=VERTEX_POINT('',#233);
#236=VERTEX_POINT('',#234);
#237=CARTESIAN_POINT('',(-1.75E0,6.5E0,0.E0));
#238=VERTEX_POINT('',#237);
#239=CARTESIAN_POINT('',(3.5E0,0.E0,5.845189994747E0));
#240=CARTESIAN_POINT('',(-3.5E0,0.E0,5.845189994747E0));
#241=VERTEX_POINT('',#239);
#242=VERTEX_POINT('',#240);
#243=CARTESIAN_POINT('',(-3.5E0,2.E0,3.812091515317E0));
#244=CARTESIAN_POINT('',(3.5E0,2.E0,3.812091515317E0));
#245=VERTEX_POINT('',#243);
#246=VERTEX_POINT('',#244);
#247=CARTESIAN_POINT('',(-3.5E0,6.5E0,3.812091515317E0));
#248=CARTESIAN_POINT('',(3.5E0,6.5E0,3.812091515317E0));
#249=VERTEX_POINT('',#247);
#250=VERTEX_POINT('',#248);
#251=CARTESIAN_POINT('',(-3.5E0,6.5E0,5.845189994747E0));
#252=CARTESIAN_POINT('',(3.5E0,6.5E0,5.845189994747E0));
#253=VERTEX_POINT('',#251);
#254=VERTEX_POINT('',#252);
#255=CARTESIAN_POINT('',(0.E0,0.E0,0.E0));
#256=DIRECTION('',(0.E0,1.E0,0.E0));
#257=DIRECTION('',(1.E0,0.E0,0.E0));
#258=AXIS2_PLACEMENT_3D('',#255,#256,#257);
#259=PLANE('',#258);
#261=ORIENTED_EDGE('',*,*,#260,.F.);
#263=ORIENTED_EDGE('',*,*,#262,.F.);
#265=ORIENTED_EDGE('',*,*,#264,.F.);
#267=ORIENTED_EDGE('',*,*,#266,.F.);
#268=EDGE_LOOP('',(#261,#263,#265,#267));
#269=FACE_OUTER_BOUND('',#268,.F.);
#271=ORIENTED_EDGE('',*,*,#270,.T.);
#273=ORIENTED_EDGE('',*,*,#272,.T.);
#274=EDGE_LOOP('',(#271,#273));
#275=FACE_BOUND('',#274,.F.);
#276=ADVANCED_FACE('',(#269,#275),#259,.F.);
#277=CARTESIAN_POINT('',(0.E0,0.E0,0.E0));
#278=DIRECTION('',(0.E0,1.E0,0.E0));
#279=DIRECTION('',(1.E0,0.E0,0.E0));
#280=AXIS2_PLACEMENT_3D('',#277,#278,#279);
#281=CYLINDRICAL_SURFACE('',#280,1.75E0);
#282=ORIENTED_EDGE('',*,*,#270,.F.);
#284=ORIENTED_EDGE('',*,*,#283,.T.);
#286=ORIENTED_EDGE('',*,*,#285,.T.);
#288=ORIENTED_EDGE('',*,*,#287,.F.);
#289=EDGE_LOOP('',(#282,#284,#286,#288));
#290=FACE_OUTER_BOUND('',#289,.F.);
#291=ADVANCED_FACE('',(#290),#281,.F.);
#292=CARTESIAN_POINT('',(0.E0,0.E0,0.E0));
#293=DIRECTION('',(0.E0,1.E0,0.E0));
#294=DIRECTION('',(1.E0,0.E0,0.E0));
#295=AXIS2_PLACEMENT_3D('',#292,#293,#294);
#296=CYLINDRICAL_SURFACE('',#295,1.75E0);
#298=ORIENTED_EDGE('',*,*,#297,.T.);
#300=ORIENTED_EDGE('',*,*,#299,.T.);
#301=ORIENTED_EDGE('',*,*,#283,.F.);
#302=ORIENTED_EDGE('',*,*,#272,.F.);
#303=ORIENTED_EDGE('',*,*,#287,.T.);
#304=EDGE_LOOP('',(#298,#300,#301,#302,#303));
#305=FACE_OUTER_BOUND('',#304,.F.);
#306=ADVANCED_FACE('',(#305),#296,.F.);
#307=CARTESIAN_POINT('',(0.E0,2.E0,0.E0));
#308=DIRECTION('',(0.E0,1.E0,0.E0));
#309=DIRECTION('',(1.E0,0.E0,0.E0));
#310=AXIS2_PLACEMENT_3D('',#307,#308,#309);
#311=PLANE('',#310);
#313=ORIENTED_EDGE('',*,*,#312,.F.);
#315=ORIENTED_EDGE('',*,*,#314,.F.);
#317=ORIENTED_EDGE('',*,*,#316,.T.);
#318=ORIENTED_EDGE('',*,*,#297,.F.);
#319=ORIENTED_EDGE('',*,*,#285,.F.);
#320=ORIENTED_EDGE('',*,*,#299,.F.);
#322=ORIENTED_EDGE('',*,*,#321,.T.);
#324=ORIENTED_EDGE('',*,*,#323,.F.);
#325=EDGE_LOOP('',(#313,#315,#317,#318,#319,#320,#322,#324));
#326=FACE_OUTER_BOUND('',#325,.F.);
#327=ADVANCED_FACE('',(#326),#311,.T.);
#328=CARTESIAN_POINT('',(-3.5E0,6.5E0,3.812091515317E0));
#329=DIRECTION('',(0.E0,0.E0,-1.E0));
#330=DIRECTION('',(1.E0,0.E0,0.E0));
#331=AXIS2_PLACEMENT_3D('',#328,#329,#330);
#332=PLANE('',#331);
#333=ORIENTED_EDGE('',*,*,#312,.T.);
#335=ORIENTED_EDGE('',*,*,#334,.F.);
#337=ORIENTED_EDGE('',*,*,#336,.F.);
#339=ORIENTED_EDGE('',*,*,#338,.T.);
#340=EDGE_LOOP('',(#333,#335,#337,#339));
#341=FACE_OUTER_BOUND('',#340,.F.);
#342=ADVANCED_FACE('',(#341),#332,.T.);
#343=CARTESIAN_POINT('',(3.5E0,0.E0,0.E0));
#344=DIRECTION('',(1.E0,0.E0,0.E0));
#345=DIRECTION('',(0.E0,0.E0,-1.E0));
#346=AXIS2_PLACEMENT_3D('',#343,#344,#345);
#347=PLANE('',#346);
#348=ORIENTED_EDGE('',*,*,#264,.T.);
#350=ORIENTED_EDGE('',*,*,#349,.F.);
#352=ORIENTED_EDGE('',*,*,#351,.T.);
#354=ORIENTED_EDGE('',*,*,#353,.T.);
#356=ORIENTED_EDGE('',*,*,#355,.T.);
#358=ORIENTED_EDGE('',*,*,#357,.F.);
#359=EDGE_LOOP('',(#348,#350,#352,#354,#356,#358));
#360=FACE_OUTER_BOUND('',#359,.F.);
#362=ORIENTED_EDGE('',*,*,#361,.T.);
#363=ORIENTED_EDGE('',*,*,#334,.T.);
#364=ORIENTED_EDGE('',*,*,#323,.T.);
#366=ORIENTED_EDGE('',*,*,#365,.T.);
#367=EDGE_LOOP('',(#362,#363,#364,#366));
#368=FACE_BOUND('',#367,.F.);
#369=ADVANCED_FACE('',(#360,#368),#347,.T.);
#370=CARTESIAN_POINT('',(3.5E0,6.5E0,5.845189994747E0));
#371=DIRECTION('',(0.E0,0.E0,1.E0));
#372=DIRECTION('',(-1.E0,0.E0,0.E0));
#373=AXIS2_PLACEMENT_3D('',#370,#371,#372);
#374=PLANE('',#373);
#376=ORIENTED_EDGE('',*,*,#375,.T.);
#377=ORIENTED_EDGE('',*,*,#349,.T.);
#378=ORIENTED_EDGE('',*,*,#262,.T.);
#380=ORIENTED_EDGE('',*,*,#379,.F.);
#381=EDGE_LOOP('',(#376,#377,#378,#380));
#382=FACE_OUTER_BOUND('',#381,.F.);
#383=ADVANCED_FACE('',(#382),#374,.T.);
#384=CARTESIAN_POINT('',(-3.5E0,6.5E0,-1.75E0));
#385=DIRECTION('',(0.E0,-1.E0,0.E0));
#386=DIRECTION('',(1.E0,0.E0,0.E0));
#387=AXIS2_PLACEMENT_3D('',#384,#385,#386);
#388=PLANE('',#387);
#389=ORIENTED_EDGE('',*,*,#336,.T.);
#390=ORIENTED_EDGE('',*,*,#361,.F.);
#392=ORIENTED_EDGE('',*,*,#391,.F.);
#394=ORIENTED_EDGE('',*,*,#393,.F.);
#396=ORIENTED_EDGE('',*,*,#395,.F.);
#398=ORIENTED_EDGE('',*,*,#397,.F.);
#400=ORIENTED_EDGE('',*,*,#399,.F.);
#402=ORIENTED_EDGE('',*,*,#401,.T.);
#403=EDGE_LOOP('',(#389,#390,#392,#394,#396,#398,#400,#402));
#404=FACE_OUTER_BOUND('',#403,.F.);
#405=ADVANCED_FACE('',(#404),#388,.T.);
#406=CARTESIAN_POINT('',(-3.5E0,6.5E0,-1.75E0));
#407=DIRECTION('',(0.E0,-1.E0,0.E0));
#408=DIRECTION('',(1.E0,0.E0,0.E0));
#409=AXIS2_PLACEMENT_3D('',#406,#407,#408);
#410=PLANE('',#409);
#411=ORIENTED_EDGE('',*,*,#375,.F.);
#413=ORIENTED_EDGE('',*,*,#412,.T.);
#415=ORIENTED_EDGE('',*,*,#414,.T.);
#416=ORIENTED_EDGE('',*,*,#351,.F.);
#417=EDGE_LOOP('',(#411,#413,#415,#416));
#418=FACE_OUTER_BOUND('',#417,.F.);
#419=ADVANCED_FACE('',(#418),#410,.T.);
#420=CARTESIAN_POINT('',(-3.5E0,2.E0,-1.75E0));
#421=DIRECTION('',(0.E0,0.E0,1.E0));
#422=DIRECTION('',(1.E0,0.E0,0.E0));
#423=AXIS2_PLACEMENT_3D('',#420,#421,#422);
#424=PLANE('',#423);
#425=ORIENTED_EDGE('',*,*,#399,.T.);
#426=ORIENTED_EDGE('',*,*,#391,.T.);
#427=ORIENTED_EDGE('',*,*,#365,.F.);
#428=ORIENTED_EDGE('',*,*,#321,.F.);
#429=ORIENTED_EDGE('',*,*,#316,.F.);
#431=ORIENTED_EDGE('',*,*,#430,.T.);
#432=EDGE_LOOP('',(#425,#426,#427,#428,#429,#431));
#433=FACE_OUTER_BOUND('',#432,.F.);
#434=ADVANCED_FACE('',(#433),#424,.T.);
#435=CARTESIAN_POINT('',(-3.5E0,0.E0,-3.5E0));
#436=DIRECTION('',(-1.E0,0.E0,0.E0));
#437=DIRECTION('',(0.E0,0.E0,1.E0));
#438=AXIS2_PLACEMENT_3D('',#435,#436,#437);
#439=PLANE('',#438);
#440=ORIENTED_EDGE('',*,*,#412,.F.);
#441=ORIENTED_EDGE('',*,*,#379,.T.);
#442=ORIENTED_EDGE('',*,*,#260,.T.);
#444=ORIENTED_EDGE('',*,*,#443,.F.);
#446=ORIENTED_EDGE('',*,*,#445,.T.);
#448=ORIENTED_EDGE('',*,*,#447,.T.);
#449=EDGE_LOOP('',(#440,#441,#442,#444,#446,#448));
#450=FACE_OUTER_BOUND('',#449,.F.);
#451=ORIENTED_EDGE('',*,*,#314,.T.);
#452=ORIENTED_EDGE('',*,*,#338,.F.);
#453=ORIENTED_EDGE('',*,*,#401,.F.);
#454=ORIENTED_EDGE('',*,*,#430,.F.);
#455=EDGE_LOOP('',(#451,#452,#453,#454));
#456=FACE_BOUND('',#455,.F.);
#457=ADVANCED_FACE('',(#450,#456),#439,.T.);
#458=CARTESIAN_POINT('',(3.5E0,0.E0,-3.5E0));
#459=DIRECTION('',(0.E0,0.E0,-1.E0));
#460=DIRECTION('',(-1.E0,0.E0,0.E0));
#461=AXIS2_PLACEMENT_3D('',#458,#459,#460);
#462=PLANE('',#461);
#463=ORIENTED_EDGE('',*,*,#443,.T.);
#464=ORIENTED_EDGE('',*,*,#266,.T.);
#465=ORIENTED_EDGE('',*,*,#357,.T.);
#467=ORIENTED_EDGE('',*,*,#466,.T.);
#468=EDGE_LOOP('',(#463,#464,#465,#467));
#469=FACE_OUTER_BOUND('',#468,.F.);
#470=ADVANCED_FACE('',(#469),#462,.T.);
#471=CARTESIAN_POINT('',(0.E0,8.E0,0.E0));
#472=DIRECTION('',(0.E0,1.E0,0.E0));
#473=DIRECTION('',(1.E0,0.E0,0.E0));
#474=AXIS2_PLACEMENT_3D('',#471,#472,#473);
#475=PLANE('',#474);
#476=ORIENTED_EDGE('',*,*,#355,.F.);
#478=ORIENTED_EDGE('',*,*,#477,.T.);
#479=ORIENTED_EDGE('',*,*,#445,.F.);
#480=ORIENTED_EDGE('',*,*,#466,.F.);
#481=EDGE_LOOP('',(#476,#478,#479,#480));
#482=FACE_OUTER_BOUND('',#481,.F.);
#484=ORIENTED_EDGE('',*,*,#483,.T.);
#486=ORIENTED_EDGE('',*,*,#485,.T.);
#487=EDGE_LOOP('',(#484,#486));
#488=FACE_BOUND('',#487,.F.);
#489=ADVANCED_FACE('',(#482,#488),#475,.T.);
#490=CARTESIAN_POINT('',(0.E0,8.E0,3.125E1));
#491=DIRECTION('',(0.E0,0.E0,1.E0));
#492=DIRECTION('',(0.E0,-1.E0,0.E0));
#493=AXIS2_PLACEMENT_3D('',#490,#491,#492);
#494=PLANE('',#493);
#495=ORIENTED_EDGE('',*,*,#477,.F.);
#496=ORIENTED_EDGE('',*,*,#353,.F.);
#497=ORIENTED_EDGE('',*,*,#414,.F.);
#498=ORIENTED_EDGE('',*,*,#447,.F.);
#499=EDGE_LOOP('',(#495,#496,#497,#498));
#500=FACE_OUTER_BOUND('',#499,.F.);
#501=ADVANCED_FACE('',(#500),#494,.T.);
#502=CARTESIAN_POINT('',(0.E0,0.E0,0.E0));
#503=DIRECTION('',(0.E0,1.E0,0.E0));
#504=DIRECTION('',(1.E0,0.E0,0.E0));
#505=AXIS2_PLACEMENT_3D('',#502,#503,#504);
#506=CYLINDRICAL_SURFACE('',#505,1.75E0);
#507=ORIENTED_EDGE('',*,*,#483,.F.);
#509=ORIENTED_EDGE('',*,*,#508,.F.);
#510=ORIENTED_EDGE('',*,*,#393,.T.);
#511=ORIENTED_EDGE('',*,*,#397,.T.);
#513=ORIENTED_EDGE('',*,*,#512,.T.);
#514=EDGE_LOOP('',(#507,#509,#510,#511,#513));
#515=FACE_OUTER_BOUND('',#514,.F.);
#516=ADVANCED_FACE('',(#515),#506,.F.);
#517=CARTESIAN_POINT('',(0.E0,0.E0,0.E0));
#518=DIRECTION('',(0.E0,1.E0,0.E0));
#519=DIRECTION('',(1.E0,0.E0,0.E0));
#520=AXIS2_PLACEMENT_3D('',#517,#518,#519);
#521=CYLINDRICAL_SURFACE('',#520,1.75E0);
#522=ORIENTED_EDGE('',*,*,#485,.F.);
#523=ORIENTED_EDGE('',*,*,#512,.F.);
#524=ORIENTED_EDGE('',*,*,#395,.T.);
#525=ORIENTED_EDGE('',*,*,#508,.T.);
#526=EDGE_LOOP('',(#522,#523,#524,#525));
#527=FACE_OUTER_BOUND('',#526,.F.);
#528=ADVANCED_FACE('',(#527),#521,.F.);
#532=DIMENSIONAL_EXPONENTS(0.E0,0.E0,0.E0,0.E0,0.E0,0.E0,0.E0);
#534=PLANE_ANGLE_MEASURE_WITH_UNIT(PLANE_ANGLE_MEASURE(1.745329251994E-2),#533);
#535=(CONVERSION_BASED_UNIT('DEGREE',#534)NAMED_UNIT(*)PLANE_ANGLE_UNIT());
#537=UNCERTAINTY_MEASURE_WITH_UNIT(LENGTH_MEASURE(9.906E-3),#531,'closure',
'Maximum model space distance between geometric entities at asserted connectivities');
#538=(GEOMETRIC_REPRESENTATION_CONTEXT(3)GLOBAL_UNCERTAINTY_ASSIGNED_CONTEXT((
#537))GLOBAL_UNIT_ASSIGNED_CONTEXT((#531,#535,#536))REPRESENTATION_CONTEXT
('ID1','3'));
#540=APPLICATION_CONTEXT(
'CONFIGURATION CONTROLLED 3D DESIGNS OF MECHANICAL PARTS AND ASSEMBLIES');
#541=APPLICATION_PROTOCOL_DEFINITION('international standard',
'config_control_design',1994,#540);
#542=DESIGN_CONTEXT('',#540,'design');
#543=MECHANICAL_CONTEXT('',#540,'mechanical');
#544=PRODUCT('GAMZISENZAXIS','GAMZISENZAXIS','NOT SPECIFIED',(#543));
#545=PRODUCT_DEFINITION_FORMATION_WITH_SPECIFIED_SOURCE('3','LAST_VERSION',#544,
.MADE.);
#549=PRODUCT_CATEGORY('part','');
#550=PRODUCT_RELATED_PRODUCT_CATEGORY('detail','',(#544));
#551=PRODUCT_CATEGORY_RELATIONSHIP('','',#549,#550);
#552=SECURITY_CLASSIFICATION_LEVEL('unclassified');
#553=SECURITY_CLASSIFICATION('','',#552);
#554=CC_DESIGN_SECURITY_CLASSIFICATION(#553,(#545));
#555=APPROVAL_STATUS('approved');
#556=APPROVAL(#555,'');
#557=CC_DESIGN_APPROVAL(#556,(#553,#545,#546));
#558=CALENDAR_DATE(126,20,5);
#559=COORDINATED_UNIVERSAL_TIME_OFFSET(9,0,.AHEAD.);
#560=LOCAL_TIME(11,48,4.9E1,#559);
#561=DATE_AND_TIME(#558,#560);
#562=APPROVAL_DATE_TIME(#561,#556);
#563=DATE_TIME_ROLE('creation_date');
#564=CC_DESIGN_DATE_AND_TIME_ASSIGNMENT(#561,#563,(#546));
#565=DATE_TIME_ROLE('classification_date');
#566=CC_DESIGN_DATE_AND_TIME_ASSIGNMENT(#561,#565,(#553));
#567=PERSON('UNSPECIFIED','UNSPECIFIED',$,$,$,$);
#568=ORGANIZATION('UNSPECIFIED','UNSPECIFIED','UNSPECIFIED');
#569=PERSON_AND_ORGANIZATION(#567,#568);
#570=APPROVAL_ROLE('approver');
#571=APPROVAL_PERSON_ORGANIZATION(#569,#556,#570);
#572=PERSON_AND_ORGANIZATION_ROLE('creator');
#573=CC_DESIGN_PERSON_AND_ORGANIZATION_ASSIGNMENT(#569,#572,(#545,#546));
#574=PERSON_AND_ORGANIZATION_ROLE('design_supplier');
#575=CC_DESIGN_PERSON_AND_ORGANIZATION_ASSIGNMENT(#569,#574,(#545));
#576=PERSON_AND_ORGANIZATION_ROLE('classification_officer');
#577=CC_DESIGN_PERSON_AND_ORGANIZATION_ASSIGNMENT(#569,#576,(#553));
#578=PERSON_AND_ORGANIZATION_ROLE('design_owner');
#579=CC_DESIGN_PERSON_AND_ORGANIZATION_ASSIGNMENT(#569,#578,(#544));
#5=CIRCLE('',#4,1.75E0);
#10=CIRCLE('',#9,1.75E0);
#35=CIRCLE('',#34,1.75E0);
#40=CIRCLE('',#39,1.75E0);
#45=CIRCLE('',#44,1.75E0);
#94=CIRCLE('',#93,1.75E0);
#99=CIRCLE('',#98,1.75E0);
#104=CIRCLE('',#103,1.75E0);
#165=CIRCLE('',#164,1.75E0);
#170=CIRCLE('',#169,1.75E0);
#260=EDGE_CURVE('',#242,#216,#140,.T.);
#262=EDGE_CURVE('',#241,#242,#14,.T.);
#264=EDGE_CURVE('',#214,#241,#57,.T.);
#266=EDGE_CURVE('',#216,#214,#152,.T.);
#270=EDGE_CURVE('',#197,#198,#5,.T.);
#272=EDGE_CURVE('',#198,#197,#10,.T.);
#283=EDGE_CURVE('',#197,#201,#18,.T.);
#285=EDGE_CURVE('',#201,#202,#40,.T.);
#287=EDGE_CURVE('',#198,#202,#22,.T.);
#297=EDGE_CURVE('',#202,#210,#35,.T.);
#299=EDGE_CURVE('',#210,#201,#45,.T.);
#312=EDGE_CURVE('',#245,#246,#26,.T.);
#314=EDGE_CURVE('',#209,#245,#132,.T.);
#316=EDGE_CURVE('',#209,#210,#30,.T.);
#321=EDGE_CURVE('',#210,#212,#49,.T.);
#323=EDGE_CURVE('',#246,#212,#77,.T.);
#334=EDGE_CURVE('',#250,#246,#73,.T.);
#336=EDGE_CURVE('',#249,#250,#89,.T.);
#338=EDGE_CURVE('',#249,#245,#53,.T.);
#349=EDGE_CURVE('',#254,#241,#85,.T.);
#351=EDGE_CURVE('',#254,#224,#61,.T.);
#353=EDGE_CURVE('',#224,#219,#178,.T.);
#355=EDGE_CURVE('',#219,#205,#65,.T.);
#357=EDGE_CURVE('',#214,#205,#156,.T.);
#361=EDGE_CURVE('',#228,#250,#69,.T.);
#365=EDGE_CURVE('',#212,#228,#81,.T.);
#375=EDGE_CURVE('',#253,#254,#112,.T.);
#379=EDGE_CURVE('',#253,#242,#136,.T.);
#391=EDGE_CURVE('',#236,#228,#124,.T.);
#393=EDGE_CURVE('',#235,#236,#94,.T.);
#395=EDGE_CURVE('',#238,#235,#99,.T.);
#397=EDGE_CURVE('',#236,#238,#104,.T.);
#399=EDGE_CURVE('',#226,#236,#120,.T.);
#401=EDGE_CURVE('',#226,#249,#108,.T.);
#412=EDGE_CURVE('',#253,#222,#116,.T.);
#414=EDGE_CURVE('',#222,#224,#182,.T.);
#430=EDGE_CURVE('',#209,#226,#128,.T.);
#443=EDGE_CURVE('',#206,#216,#148,.T.);
#445=EDGE_CURVE('',#206,#220,#144,.T.);
#447=EDGE_CURVE('',#220,#222,#186,.T.);
#466=EDGE_CURVE('',#205,#206,#160,.T.);
#477=EDGE_CURVE('',#219,#220,#174,.T.);
#483=EDGE_CURVE('',#231,#232,#165,.T.);
#485=EDGE_CURVE('',#232,#231,#170,.T.);
#508=EDGE_CURVE('',#235,#231,#190,.T.);
#512=EDGE_CURVE('',#238,#232,#194,.T.);
#529=CLOSED_SHELL('',(#276,#291,#306,#327,#342,#369,#383,#405,#419,#434,#457,
#470,#489,#501,#516,#528));
#530=MANIFOLD_SOLID_BREP('',#529);
#531=(LENGTH_UNIT()NAMED_UNIT(*)SI_UNIT(.MILLI.,.METRE.));
#533=(NAMED_UNIT(*)PLANE_ANGLE_UNIT()SI_UNIT($,.RADIAN.));
#536=(NAMED_UNIT(*)SI_UNIT($,.STERADIAN.)SOLID_ANGLE_UNIT());
#539=ADVANCED_BREP_SHAPE_REPRESENTATION('',(#530),#538);
#546=PRODUCT_DEFINITION('design','',#545,#542);
#547=PRODUCT_DEFINITION_SHAPE('','SHAPE FOR GAMZISENZAXIS.',#546);
#548=SHAPE_DEFINITION_REPRESENTATION(#547,#539);
ENDSEC;
END-ISO-10303-21;
