ISO-10303-21;
HEADER;
FILE_DESCRIPTION((''),'2;1');
FILE_NAME('HOLDER_ASM','2026-04-14T15:02:45',('user'),(''),
'CREO PARAMETRIC BY PTC INC, 2025102','CREO PARAMETRIC BY PTC INC, 2025102','');
FILE_SCHEMA(('CONFIG_CONTROL_DESIGN'));
ENDSEC;
DATA;
#1=DIRECTION('',(0.E0,0.E0,1.E0));
#2=VECTOR('',#1,5.E0);
#3=CARTESIAN_POINT('',(-3.75E1,2.05E2,-6.29E1));
#4=LINE('',#3,#2);
#5=DIRECTION('',(-1.E0,0.E0,0.E0));
#6=VECTOR('',#5,2.5E1);
#7=CARTESIAN_POINT('',(-3.75E1,2.05E2,-5.79E1));
#8=LINE('',#7,#6);
#9=DIRECTION('',(0.E0,0.E0,-1.E0));
#10=VECTOR('',#9,5.E0);
#11=CARTESIAN_POINT('',(-6.25E1,2.05E2,-5.79E1));
#12=LINE('',#11,#10);
#13=DIRECTION('',(-1.E0,0.E0,0.E0));
#14=VECTOR('',#13,2.5E1);
#15=CARTESIAN_POINT('',(-3.75E1,2.05E2,-6.29E1));
#16=LINE('',#15,#14);
#17=DIRECTION('',(0.E0,-1.E0,0.E0));
#18=VECTOR('',#17,5.E0);
#19=CARTESIAN_POINT('',(-3.75E1,2.1E2,-6.29E1));
#20=LINE('',#19,#18);
#21=DIRECTION('',(0.E0,-1.E0,0.E0));
#22=VECTOR('',#21,5.E0);
#23=CARTESIAN_POINT('',(-6.25E1,2.1E2,-6.29E1));
#24=LINE('',#23,#22);
#25=DIRECTION('',(0.E0,-1.E0,0.E0));
#26=VECTOR('',#25,5.E0);
#27=CARTESIAN_POINT('',(-6.25E1,2.05E2,-5.79E1));
#28=LINE('',#27,#26);
#29=DIRECTION('',(0.E0,0.E0,1.E0));
#30=VECTOR('',#29,1.E2);
#31=CARTESIAN_POINT('',(0.E0,2.E2,-1.E2));
#32=LINE('',#31,#30);
#33=DIRECTION('',(-1.E0,0.E0,0.E0));
#34=VECTOR('',#33,1.E2);
#35=CARTESIAN_POINT('',(0.E0,2.E2,0.E0));
#36=LINE('',#35,#34);
#37=DIRECTION('',(0.E0,0.E0,-1.E0));
#38=VECTOR('',#37,1.E2);
#39=CARTESIAN_POINT('',(-1.E2,2.E2,0.E0));
#40=LINE('',#39,#38);
#41=DIRECTION('',(1.E0,0.E0,0.E0));
#42=VECTOR('',#41,1.E2);
#43=CARTESIAN_POINT('',(-1.E2,2.E2,-1.E2));
#44=LINE('',#43,#42);
#45=DIRECTION('',(0.E0,0.E0,-1.E0));
#46=VECTOR('',#45,1.E1);
#47=CARTESIAN_POINT('',(-3.75E1,2.E2,-5.79E1));
#48=LINE('',#47,#46);
#49=DIRECTION('',(0.E0,0.E0,1.E0));
#50=VECTOR('',#49,1.E1);
#51=CARTESIAN_POINT('',(-6.25E1,2.E2,-6.79E1));
#52=LINE('',#51,#50);
#53=DIRECTION('',(0.E0,0.E0,1.E0));
#54=VECTOR('',#53,1.E1);
#55=CARTESIAN_POINT('',(-6.25E1,2.E2,-4.25E1));
#56=LINE('',#55,#54);
#57=DIRECTION('',(0.E0,0.E0,-1.E0));
#58=VECTOR('',#57,1.E1);
#59=CARTESIAN_POINT('',(-3.75E1,2.E2,-3.25E1));
#60=LINE('',#59,#58);
#61=DIRECTION('',(0.E0,0.E0,1.E0));
#62=VECTOR('',#61,1.E2);
#63=CARTESIAN_POINT('',(0.E0,0.E0,-1.E2));
#64=LINE('',#63,#62);
#65=DIRECTION('',(0.E0,-1.E0,0.E0));
#66=VECTOR('',#65,2.E2);
#67=CARTESIAN_POINT('',(0.E0,2.E2,-1.E2));
#68=LINE('',#67,#66);
#69=DIRECTION('',(-1.E0,0.E0,0.E0));
#70=VECTOR('',#69,1.5E2);
#71=CARTESIAN_POINT('',(0.E0,0.E0,-1.E2));
#72=LINE('',#71,#70);
#73=DIRECTION('',(0.E0,0.E0,1.E0));
#74=VECTOR('',#73,1.E2);
#75=CARTESIAN_POINT('',(-1.5E2,0.E0,-1.E2));
#76=LINE('',#75,#74);
#77=DIRECTION('',(1.E0,0.E0,0.E0));
#78=VECTOR('',#77,1.5E2);
#79=CARTESIAN_POINT('',(-1.5E2,0.E0,0.E0));
#80=LINE('',#79,#78);
#81=CARTESIAN_POINT('',(-1.25E2,0.E0,-5.E1));
#82=DIRECTION('',(0.E0,-1.E0,0.E0));
#83=DIRECTION('',(-1.E0,0.E0,0.E0));
#84=AXIS2_PLACEMENT_3D('',#81,#82,#83);
#86=CARTESIAN_POINT('',(-1.25E2,0.E0,-5.E1));
#87=DIRECTION('',(0.E0,-1.E0,0.E0));
#88=DIRECTION('',(1.E0,0.E0,0.E0));
#89=AXIS2_PLACEMENT_3D('',#86,#87,#88);
#91=DIRECTION('',(0.E0,-1.E0,0.E0));
#92=VECTOR('',#91,1.9E2);
#93=CARTESIAN_POINT('',(-1.E2,2.E2,-1.E2));
#94=LINE('',#93,#92);
#95=DIRECTION('',(-1.E0,0.E0,0.E0));
#96=VECTOR('',#95,5.E1);
#97=CARTESIAN_POINT('',(-1.E2,1.E1,-1.E2));
#98=LINE('',#97,#96);
#99=DIRECTION('',(0.E0,-1.E0,0.E0));
#100=VECTOR('',#99,1.E1);
#101=CARTESIAN_POINT('',(-1.5E2,1.E1,-1.E2));
#102=LINE('',#101,#100);
#103=DIRECTION('',(0.E0,0.E0,-1.E0));
#104=VECTOR('',#103,1.E2);
#105=CARTESIAN_POINT('',(-1.E2,1.E1,0.E0));
#106=LINE('',#105,#104);
#107=DIRECTION('',(0.E0,-1.E0,0.E0));
#108=VECTOR('',#107,1.9E2);
#109=CARTESIAN_POINT('',(-1.E2,2.E2,0.E0));
#110=LINE('',#109,#108);
#111=CARTESIAN_POINT('',(-1.25E2,1.E1,-5.E1));
#112=DIRECTION('',(0.E0,1.E0,0.E0));
#113=DIRECTION('',(1.E0,0.E0,0.E0));
#114=AXIS2_PLACEMENT_3D('',#111,#112,#113);
#116=CARTESIAN_POINT('',(-1.25E2,1.E1,-5.E1));
#117=DIRECTION('',(0.E0,1.E0,0.E0));
#118=DIRECTION('',(-1.E0,0.E0,0.E0));
#119=AXIS2_PLACEMENT_3D('',#116,#117,#118);
#121=DIRECTION('',(1.E0,0.E0,0.E0));
#122=VECTOR('',#121,5.E1);
#123=CARTESIAN_POINT('',(-1.5E2,1.E1,0.E0));
#124=LINE('',#123,#122);
#125=DIRECTION('',(0.E0,-1.E0,0.E0));
#126=VECTOR('',#125,2.E2);
#127=CARTESIAN_POINT('',(0.E0,2.E2,0.E0));
#128=LINE('',#127,#126);
#129=DIRECTION('',(0.E0,0.E0,1.E0));
#130=VECTOR('',#129,1.E2);
#131=CARTESIAN_POINT('',(-1.5E2,1.E1,-1.E2));
#132=LINE('',#131,#130);
#133=DIRECTION('',(0.E0,-1.E0,0.E0));
#134=VECTOR('',#133,1.E1);
#135=CARTESIAN_POINT('',(-1.5E2,1.E1,0.E0));
#136=LINE('',#135,#134);
#137=DIRECTION('',(0.E0,-1.E0,0.E0));
#138=VECTOR('',#137,1.E1);
#139=CARTESIAN_POINT('',(-1.215E2,1.E1,-5.E1));
#140=LINE('',#139,#138);
#141=DIRECTION('',(0.E0,-1.E0,0.E0));
#142=VECTOR('',#141,1.E1);
#143=CARTESIAN_POINT('',(-1.285E2,1.E1,-5.E1));
#144=LINE('',#143,#142);
#145=DIRECTION('',(0.E0,-1.E0,0.E0));
#146=VECTOR('',#145,1.E1);
#147=CARTESIAN_POINT('',(-3.75E1,2.1E2,-6.79E1));
#148=LINE('',#147,#146);
#149=DIRECTION('',(-1.E0,0.E0,0.E0));
#150=VECTOR('',#149,2.5E1);
#151=CARTESIAN_POINT('',(-3.75E1,2.1E2,-6.29E1));
#152=LINE('',#151,#150);
#153=DIRECTION('',(0.E0,0.E0,-1.E0));
#154=VECTOR('',#153,5.E0);
#155=CARTESIAN_POINT('',(-6.25E1,2.1E2,-6.29E1));
#156=LINE('',#155,#154);
#157=DIRECTION('',(1.E0,0.E0,0.E0));
#158=VECTOR('',#157,2.5E1);
#159=CARTESIAN_POINT('',(-6.25E1,2.1E2,-6.79E1));
#160=LINE('',#159,#158);
#161=DIRECTION('',(0.E0,0.E0,1.E0));
#162=VECTOR('',#161,5.E0);
#163=CARTESIAN_POINT('',(-3.75E1,2.1E2,-6.79E1));
#164=LINE('',#163,#162);
#165=DIRECTION('',(1.E0,0.E0,0.E0));
#166=VECTOR('',#165,2.5E1);
#167=CARTESIAN_POINT('',(-6.25E1,2.E2,-6.79E1));
#168=LINE('',#167,#166);
#169=DIRECTION('',(0.E0,-1.E0,0.E0));
#170=VECTOR('',#169,1.E1);
#171=CARTESIAN_POINT('',(-6.25E1,2.1E2,-6.79E1));
#172=LINE('',#171,#170);
#173=DIRECTION('',(-1.E0,0.E0,0.E0));
#174=VECTOR('',#173,2.5E1);
#175=CARTESIAN_POINT('',(-3.75E1,2.E2,-5.79E1));
#176=LINE('',#175,#174);
#177=DIRECTION('',(0.E0,-1.E0,0.E0));
#178=VECTOR('',#177,5.E0);
#179=CARTESIAN_POINT('',(-3.75E1,2.05E2,-5.79E1));
#180=LINE('',#179,#178);
#181=DIRECTION('',(0.E0,-1.E0,0.E0));
#182=VECTOR('',#181,1.E1);
#183=CARTESIAN_POINT('',(-6.25E1,2.1E2,-3.25E1));
#184=LINE('',#183,#182);
#185=DIRECTION('',(-1.E0,0.E0,0.E0));
#186=VECTOR('',#185,2.5E1);
#187=CARTESIAN_POINT('',(-3.75E1,2.05E2,-3.75E1));
#188=LINE('',#187,#186);
#189=DIRECTION('',(0.E0,0.E0,-1.E0));
#190=VECTOR('',#189,5.E0);
#191=CARTESIAN_POINT('',(-6.25E1,2.05E2,-3.75E1));
#192=LINE('',#191,#190);
#193=DIRECTION('',(1.E0,0.E0,0.E0));
#194=VECTOR('',#193,2.5E1);
#195=CARTESIAN_POINT('',(-6.25E1,2.05E2,-4.25E1));
#196=LINE('',#195,#194);
#197=DIRECTION('',(0.E0,0.E0,1.E0));
#198=VECTOR('',#197,5.E0);
#199=CARTESIAN_POINT('',(-3.75E1,2.05E2,-4.25E1));
#200=LINE('',#199,#198);
#201=DIRECTION('',(0.E0,-1.E0,0.E0));
#202=VECTOR('',#201,5.E0);
#203=CARTESIAN_POINT('',(-6.25E1,2.1E2,-3.75E1));
#204=LINE('',#203,#202);
#205=DIRECTION('',(0.E0,-1.E0,0.E0));
#206=VECTOR('',#205,5.E0);
#207=CARTESIAN_POINT('',(-3.75E1,2.1E2,-3.75E1));
#208=LINE('',#207,#206);
#209=DIRECTION('',(0.E0,-1.E0,0.E0));
#210=VECTOR('',#209,5.E0);
#211=CARTESIAN_POINT('',(-3.75E1,2.05E2,-4.25E1));
#212=LINE('',#211,#210);
#213=DIRECTION('',(-1.E0,0.E0,0.E0));
#214=VECTOR('',#213,2.5E1);
#215=CARTESIAN_POINT('',(-3.75E1,2.E2,-3.25E1));
#216=LINE('',#215,#214);
#217=DIRECTION('',(0.E0,-1.E0,0.E0));
#218=VECTOR('',#217,1.E1);
#219=CARTESIAN_POINT('',(-3.75E1,2.1E2,-3.25E1));
#220=LINE('',#219,#218);
#221=DIRECTION('',(0.E0,0.E0,-1.E0));
#222=VECTOR('',#221,5.E0);
#223=CARTESIAN_POINT('',(-6.25E1,2.1E2,-3.25E1));
#224=LINE('',#223,#222);
#225=DIRECTION('',(1.E0,0.E0,0.E0));
#226=VECTOR('',#225,2.5E1);
#227=CARTESIAN_POINT('',(-6.25E1,2.1E2,-3.75E1));
#228=LINE('',#227,#226);
#229=DIRECTION('',(0.E0,0.E0,1.E0));
#230=VECTOR('',#229,5.E0);
#231=CARTESIAN_POINT('',(-3.75E1,2.1E2,-3.75E1));
#232=LINE('',#231,#230);
#233=DIRECTION('',(-1.E0,0.E0,0.E0));
#234=VECTOR('',#233,2.5E1);
#235=CARTESIAN_POINT('',(-3.75E1,2.1E2,-3.25E1));
#236=LINE('',#235,#234);
#237=DIRECTION('',(1.E0,0.E0,0.E0));
#238=VECTOR('',#237,2.5E1);
#239=CARTESIAN_POINT('',(-6.25E1,2.E2,-4.25E1));
#240=LINE('',#239,#238);
#241=DIRECTION('',(0.E0,-1.E0,0.E0));
#242=VECTOR('',#241,5.E0);
#243=CARTESIAN_POINT('',(-6.25E1,2.05E2,-4.25E1));
#244=LINE('',#243,#242);
#245=CARTESIAN_POINT('',(-3.75E1,2.E2,-3.25E1));
#246=CARTESIAN_POINT('',(-3.75E1,2.E2,-4.25E1));
#247=VERTEX_POINT('',#245);
#248=VERTEX_POINT('',#246);
#249=CARTESIAN_POINT('',(-3.75E1,2.1E2,-3.25E1));
#250=VERTEX_POINT('',#249);
#251=CARTESIAN_POINT('',(-3.75E1,2.1E2,-3.75E1));
#252=VERTEX_POINT('',#251);
#253=CARTESIAN_POINT('',(-3.75E1,2.05E2,-3.75E1));
#254=VERTEX_POINT('',#253);
#255=CARTESIAN_POINT('',(-3.75E1,2.05E2,-4.25E1));
#256=VERTEX_POINT('',#255);
#257=CARTESIAN_POINT('',(0.E0,2.E2,-1.E2));
#258=CARTESIAN_POINT('',(0.E0,2.E2,0.E0));
#259=VERTEX_POINT('',#257);
#260=VERTEX_POINT('',#258);
#261=CARTESIAN_POINT('',(-1.E2,2.E2,0.E0));
#262=VERTEX_POINT('',#261);
#263=CARTESIAN_POINT('',(-1.E2,2.E2,-1.E2));
#264=VERTEX_POINT('',#263);
#265=CARTESIAN_POINT('',(-3.75E1,2.E2,-5.79E1));
#266=CARTESIAN_POINT('',(-3.75E1,2.E2,-6.79E1));
#267=VERTEX_POINT('',#265);
#268=VERTEX_POINT('',#266);
#269=CARTESIAN_POINT('',(-6.25E1,2.E2,-6.79E1));
#270=VERTEX_POINT('',#269);
#271=CARTESIAN_POINT('',(-6.25E1,2.E2,-5.79E1));
#272=VERTEX_POINT('',#271);
#273=CARTESIAN_POINT('',(-6.25E1,2.E2,-4.25E1));
#274=CARTESIAN_POINT('',(-6.25E1,2.E2,-3.25E1));
#275=VERTEX_POINT('',#273);
#276=VERTEX_POINT('',#274);
#277=CARTESIAN_POINT('',(0.E0,0.E0,-1.E2));
#278=CARTESIAN_POINT('',(0.E0,0.E0,0.E0));
#279=VERTEX_POINT('',#277);
#280=VERTEX_POINT('',#278);
#281=CARTESIAN_POINT('',(-1.5E2,0.E0,-1.E2));
#282=VERTEX_POINT('',#281);
#283=CARTESIAN_POINT('',(-1.5E2,0.E0,0.E0));
#284=VERTEX_POINT('',#283);
#285=CARTESIAN_POINT('',(-1.285E2,0.E0,-5.E1));
#286=CARTESIAN_POINT('',(-1.215E2,0.E0,-5.E1));
#287=VERTEX_POINT('',#285);
#288=VERTEX_POINT('',#286);
#289=CARTESIAN_POINT('',(-1.285E2,1.E1,-5.E1));
#290=VERTEX_POINT('',#289);
#291=CARTESIAN_POINT('',(-1.215E2,1.E1,-5.E1));
#292=VERTEX_POINT('',#291);
#293=CARTESIAN_POINT('',(-1.5E2,1.E1,0.E0));
#294=CARTESIAN_POINT('',(-1.E2,1.E1,0.E0));
#295=VERTEX_POINT('',#293);
#296=VERTEX_POINT('',#294);
#297=CARTESIAN_POINT('',(-1.5E2,1.E1,-1.E2));
#298=VERTEX_POINT('',#297);
#299=CARTESIAN_POINT('',(-1.E2,1.E1,-1.E2));
#300=VERTEX_POINT('',#299);
#301=CARTESIAN_POINT('',(-3.75E1,2.05E2,-6.29E1));
#302=CARTESIAN_POINT('',(-3.75E1,2.05E2,-5.79E1));
#303=VERTEX_POINT('',#301);
#304=VERTEX_POINT('',#302);
#305=CARTESIAN_POINT('',(-3.75E1,2.1E2,-6.29E1));
#306=VERTEX_POINT('',#305);
#307=CARTESIAN_POINT('',(-3.75E1,2.1E2,-6.79E1));
#308=VERTEX_POINT('',#307);
#309=CARTESIAN_POINT('',(-6.25E1,2.05E2,-6.29E1));
#310=VERTEX_POINT('',#309);
#311=CARTESIAN_POINT('',(-6.25E1,2.05E2,-5.79E1));
#312=VERTEX_POINT('',#311);
#313=CARTESIAN_POINT('',(-6.25E1,2.05E2,-3.75E1));
#314=VERTEX_POINT('',#313);
#315=CARTESIAN_POINT('',(-6.25E1,2.05E2,-4.25E1));
#316=VERTEX_POINT('',#315);
#317=CARTESIAN_POINT('',(-6.25E1,2.1E2,-6.29E1));
#318=VERTEX_POINT('',#317);
#319=CARTESIAN_POINT('',(-6.25E1,2.1E2,-6.79E1));
#320=VERTEX_POINT('',#319);
#321=CARTESIAN_POINT('',(-6.25E1,2.1E2,-3.25E1));
#322=CARTESIAN_POINT('',(-6.25E1,2.1E2,-3.75E1));
#323=VERTEX_POINT('',#321);
#324=VERTEX_POINT('',#322);
#325=CARTESIAN_POINT('',(0.E0,2.05E2,0.E0));
#326=DIRECTION('',(0.E0,1.E0,0.E0));
#327=DIRECTION('',(1.E0,0.E0,0.E0));
#328=AXIS2_PLACEMENT_3D('',#325,#326,#327);
#329=PLANE('',#328);
#331=ORIENTED_EDGE('',*,*,#330,.F.);
#333=ORIENTED_EDGE('',*,*,#332,.T.);
#335=ORIENTED_EDGE('',*,*,#334,.T.);
#337=ORIENTED_EDGE('',*,*,#336,.T.);
#338=EDGE_LOOP('',(#331,#333,#335,#337));
#339=FACE_OUTER_BOUND('',#338,.F.);
#340=ADVANCED_FACE('',(#339),#329,.T.);
#341=CARTESIAN_POINT('',(-6.25E1,2.E2,-6.29E1));
#342=DIRECTION('',(0.E0,0.E0,1.E0));
#343=DIRECTION('',(1.E0,0.E0,0.E0));
#344=AXIS2_PLACEMENT_3D('',#341,#342,#343);
#345=PLANE('',#344);
#346=ORIENTED_EDGE('',*,*,#330,.T.);
#348=ORIENTED_EDGE('',*,*,#347,.F.);
#350=ORIENTED_EDGE('',*,*,#349,.F.);
#352=ORIENTED_EDGE('',*,*,#351,.T.);
#353=EDGE_LOOP('',(#346,#348,#350,#352));
#354=FACE_OUTER_BOUND('',#353,.F.);
#355=ADVANCED_FACE('',(#354),#345,.T.);
#356=CARTESIAN_POINT('',(-6.25E1,2.E2,-6.29E1));
#357=DIRECTION('',(-1.E0,0.E0,0.E0));
#358=DIRECTION('',(0.E0,0.E0,1.E0));
#359=AXIS2_PLACEMENT_3D('',#356,#357,#358);
#360=PLANE('',#359);
#362=ORIENTED_EDGE('',*,*,#361,.F.);
#364=ORIENTED_EDGE('',*,*,#363,.F.);
#366=ORIENTED_EDGE('',*,*,#365,.F.);
#367=ORIENTED_EDGE('',*,*,#347,.T.);
#368=ORIENTED_EDGE('',*,*,#336,.F.);
#370=ORIENTED_EDGE('',*,*,#369,.T.);
#371=EDGE_LOOP('',(#362,#364,#366,#367,#368,#370));
#372=FACE_OUTER_BOUND('',#371,.F.);
#373=ADVANCED_FACE('',(#372),#360,.T.);
#374=CARTESIAN_POINT('',(0.E0,2.E2,0.E0));
#375=DIRECTION('',(0.E0,1.E0,0.E0));
#376=DIRECTION('',(1.E0,0.E0,0.E0));
#377=AXIS2_PLACEMENT_3D('',#374,#375,#376);
#378=PLANE('',#377);
#380=ORIENTED_EDGE('',*,*,#379,.T.);
#382=ORIENTED_EDGE('',*,*,#381,.T.);
#384=ORIENTED_EDGE('',*,*,#383,.T.);
#386=ORIENTED_EDGE('',*,*,#385,.T.);
#387=EDGE_LOOP('',(#380,#382,#384,#386));
#388=FACE_OUTER_BOUND('',#387,.F.);
#390=ORIENTED_EDGE('',*,*,#389,.T.);
#392=ORIENTED_EDGE('',*,*,#391,.F.);
#393=ORIENTED_EDGE('',*,*,#361,.T.);
#395=ORIENTED_EDGE('',*,*,#394,.F.);
#396=EDGE_LOOP('',(#390,#392,#393,#395));
#397=FACE_BOUND('',#396,.F.);
#399=ORIENTED_EDGE('',*,*,#398,.T.);
#401=ORIENTED_EDGE('',*,*,#400,.F.);
#403=ORIENTED_EDGE('',*,*,#402,.T.);
#405=ORIENTED_EDGE('',*,*,#404,.F.);
#406=EDGE_LOOP('',(#399,#401,#403,#405));
#407=FACE_BOUND('',#406,.F.);
#408=ADVANCED_FACE('',(#388,#397,#407),#378,.T.);
#409=CARTESIAN_POINT('',(0.E0,0.E0,0.E0));
#410=DIRECTION('',(1.E0,0.E0,0.E0));
#411=DIRECTION('',(0.E0,0.E0,-1.E0));
#412=AXIS2_PLACEMENT_3D('',#409,#410,#411);
#413=PLANE('',#412);
#415=ORIENTED_EDGE('',*,*,#414,.T.);
#417=ORIENTED_EDGE('',*,*,#416,.F.);
#418=ORIENTED_EDGE('',*,*,#379,.F.);
#420=ORIENTED_EDGE('',*,*,#419,.T.);
#421=EDGE_LOOP('',(#415,#417,#418,#420));
#422=FACE_OUTER_BOUND('',#421,.F.);
#423=ADVANCED_FACE('',(#422),#413,.T.);
#424=CARTESIAN_POINT('',(0.E0,0.E0,0.E0));
#425=DIRECTION('',(0.E0,1.E0,0.E0));
#426=DIRECTION('',(1.E0,0.E0,0.E0));
#427=AXIS2_PLACEMENT_3D('',#424,#425,#426);
#428=PLANE('',#427);
#430=ORIENTED_EDGE('',*,*,#429,.T.);
#432=ORIENTED_EDGE('',*,*,#431,.T.);
#434=ORIENTED_EDGE('',*,*,#433,.T.);
#435=ORIENTED_EDGE('',*,*,#414,.F.);
#436=EDGE_LOOP('',(#430,#432,#434,#435));
#437=FACE_OUTER_BOUND('',#436,.F.);
#439=ORIENTED_EDGE('',*,*,#438,.T.);
#441=ORIENTED_EDGE('',*,*,#440,.T.);
#442=EDGE_LOOP('',(#439,#441));
#443=FACE_BOUND('',#442,.F.);
#444=ADVANCED_FACE('',(#437,#443),#428,.F.);
#445=CARTESIAN_POINT('',(0.E0,0.E0,-1.E2));
#446=DIRECTION('',(0.E0,0.E0,-1.E0));
#447=DIRECTION('',(-1.E0,0.E0,0.E0));
#448=AXIS2_PLACEMENT_3D('',#445,#446,#447);
#449=PLANE('',#448);
#451=ORIENTED_EDGE('',*,*,#450,.T.);
#453=ORIENTED_EDGE('',*,*,#452,.T.);
#455=ORIENTED_EDGE('',*,*,#454,.T.);
#456=ORIENTED_EDGE('',*,*,#429,.F.);
#457=ORIENTED_EDGE('',*,*,#419,.F.);
#458=ORIENTED_EDGE('',*,*,#385,.F.);
#459=EDGE_LOOP('',(#451,#453,#455,#456,#457,#458));
#460=FACE_OUTER_BOUND('',#459,.F.);
#461=ADVANCED_FACE('',(#460),#449,.T.);
#462=CARTESIAN_POINT('',(-1.E2,0.E0,-1.E2));
#463=DIRECTION('',(-1.E0,0.E0,0.E0));
#464=DIRECTION('',(0.E0,0.E0,1.E0));
#465=AXIS2_PLACEMENT_3D('',#462,#463,#464);
#466=PLANE('',#465);
#468=ORIENTED_EDGE('',*,*,#467,.T.);
#469=ORIENTED_EDGE('',*,*,#450,.F.);
#470=ORIENTED_EDGE('',*,*,#383,.F.);
#472=ORIENTED_EDGE('',*,*,#471,.T.);
#473=EDGE_LOOP('',(#468,#469,#470,#472));
#474=FACE_OUTER_BOUND('',#473,.F.);
#475=ADVANCED_FACE('',(#474),#466,.T.);
#476=CARTESIAN_POINT('',(0.E0,1.E1,0.E0));
#477=DIRECTION('',(0.E0,-1.E0,0.E0));
#478=DIRECTION('',(1.E0,0.E0,0.E0));
#479=AXIS2_PLACEMENT_3D('',#476,#477,#478);
#480=PLANE('',#479);
#482=ORIENTED_EDGE('',*,*,#481,.F.);
#484=ORIENTED_EDGE('',*,*,#483,.F.);
#485=ORIENTED_EDGE('',*,*,#452,.F.);
#486=ORIENTED_EDGE('',*,*,#467,.F.);
#487=EDGE_LOOP('',(#482,#484,#485,#486));
#488=FACE_OUTER_BOUND('',#487,.F.);
#490=ORIENTED_EDGE('',*,*,#489,.T.);
#492=ORIENTED_EDGE('',*,*,#491,.T.);
#493=EDGE_LOOP('',(#490,#492));
#494=FACE_BOUND('',#493,.F.);
#495=ADVANCED_FACE('',(#488,#494),#480,.F.);
#496=CARTESIAN_POINT('',(-1.E2,0.E0,0.E0));
#497=DIRECTION('',(0.E0,0.E0,1.E0));
#498=DIRECTION('',(1.E0,0.E0,0.E0));
#499=AXIS2_PLACEMENT_3D('',#496,#497,#498);
#500=PLANE('',#499);
#501=ORIENTED_EDGE('',*,*,#433,.F.);
#503=ORIENTED_EDGE('',*,*,#502,.F.);
#504=ORIENTED_EDGE('',*,*,#481,.T.);
#505=ORIENTED_EDGE('',*,*,#471,.F.);
#506=ORIENTED_EDGE('',*,*,#381,.F.);
#507=ORIENTED_EDGE('',*,*,#416,.T.);
#508=EDGE_LOOP('',(#501,#503,#504,#505,#506,#507));
#509=FACE_OUTER_BOUND('',#508,.F.);
#510=ADVANCED_FACE('',(#509),#500,.T.);
#511=CARTESIAN_POINT('',(-1.5E2,0.E0,0.E0));
#512=DIRECTION('',(-1.E0,0.E0,0.E0));
#513=DIRECTION('',(0.E0,0.E0,-1.E0));
#514=AXIS2_PLACEMENT_3D('',#511,#512,#513);
#515=PLANE('',#514);
#516=ORIENTED_EDGE('',*,*,#431,.F.);
#517=ORIENTED_EDGE('',*,*,#454,.F.);
#518=ORIENTED_EDGE('',*,*,#483,.T.);
#519=ORIENTED_EDGE('',*,*,#502,.T.);
#520=EDGE_LOOP('',(#516,#517,#518,#519));
#521=FACE_OUTER_BOUND('',#520,.F.);
#522=ADVANCED_FACE('',(#521),#515,.T.);
#523=CARTESIAN_POINT('',(-1.25E2,0.E0,-5.E1));
#524=DIRECTION('',(0.E0,-1.E0,0.E0));
#525=DIRECTION('',(1.E0,0.E0,0.E0));
#526=AXIS2_PLACEMENT_3D('',#523,#524,#525);
#527=CYLINDRICAL_SURFACE('',#526,3.5E0);
#528=ORIENTED_EDGE('',*,*,#438,.F.);
#530=ORIENTED_EDGE('',*,*,#529,.F.);
#531=ORIENTED_EDGE('',*,*,#489,.F.);
#533=ORIENTED_EDGE('',*,*,#532,.T.);
#534=EDGE_LOOP('',(#528,#530,#531,#533));
#535=FACE_OUTER_BOUND('',#534,.F.);
#536=ADVANCED_FACE('',(#535),#527,.F.);
#537=CARTESIAN_POINT('',(-1.25E2,0.E0,-5.E1));
#538=DIRECTION('',(0.E0,-1.E0,0.E0));
#539=DIRECTION('',(1.E0,0.E0,0.E0));
#540=AXIS2_PLACEMENT_3D('',#537,#538,#539);
#541=CYLINDRICAL_SURFACE('',#540,3.5E0);
#542=ORIENTED_EDGE('',*,*,#440,.F.);
#543=ORIENTED_EDGE('',*,*,#532,.F.);
#544=ORIENTED_EDGE('',*,*,#491,.F.);
#545=ORIENTED_EDGE('',*,*,#529,.T.);
#546=EDGE_LOOP('',(#542,#543,#544,#545));
#547=FACE_OUTER_BOUND('',#546,.F.);
#548=ADVANCED_FACE('',(#547),#541,.F.);
#549=CARTESIAN_POINT('',(-3.75E1,2.E2,-5.79E1));
#550=DIRECTION('',(1.E0,0.E0,0.E0));
#551=DIRECTION('',(0.E0,0.E0,-1.E0));
#552=AXIS2_PLACEMENT_3D('',#549,#550,#551);
#553=PLANE('',#552);
#554=ORIENTED_EDGE('',*,*,#332,.F.);
#555=ORIENTED_EDGE('',*,*,#351,.F.);
#557=ORIENTED_EDGE('',*,*,#556,.F.);
#559=ORIENTED_EDGE('',*,*,#558,.T.);
#560=ORIENTED_EDGE('',*,*,#389,.F.);
#562=ORIENTED_EDGE('',*,*,#561,.F.);
#563=EDGE_LOOP('',(#554,#555,#557,#559,#560,#562));
#564=FACE_OUTER_BOUND('',#563,.F.);
#565=ADVANCED_FACE('',(#564),#553,.T.);
#566=CARTESIAN_POINT('',(0.E0,2.1E2,0.E0));
#567=DIRECTION('',(0.E0,1.E0,0.E0));
#568=DIRECTION('',(1.E0,0.E0,0.E0));
#569=AXIS2_PLACEMENT_3D('',#566,#567,#568);
#570=PLANE('',#569);
#571=ORIENTED_EDGE('',*,*,#349,.T.);
#572=ORIENTED_EDGE('',*,*,#365,.T.);
#574=ORIENTED_EDGE('',*,*,#573,.T.);
#575=ORIENTED_EDGE('',*,*,#556,.T.);
#576=EDGE_LOOP('',(#571,#572,#574,#575));
#577=FACE_OUTER_BOUND('',#576,.F.);
#578=ADVANCED_FACE('',(#577),#570,.T.);
#579=CARTESIAN_POINT('',(-3.75E1,2.E2,-6.79E1));
#580=DIRECTION('',(0.E0,0.E0,-1.E0));
#581=DIRECTION('',(-1.E0,0.E0,0.E0));
#582=AXIS2_PLACEMENT_3D('',#579,#580,#581);
#583=PLANE('',#582);
#584=ORIENTED_EDGE('',*,*,#391,.T.);
#585=ORIENTED_EDGE('',*,*,#558,.F.);
#586=ORIENTED_EDGE('',*,*,#573,.F.);
#587=ORIENTED_EDGE('',*,*,#363,.T.);
#588=EDGE_LOOP('',(#584,#585,#586,#587));
#589=FACE_OUTER_BOUND('',#588,.F.);
#590=ADVANCED_FACE('',(#589),#583,.T.);
#591=CARTESIAN_POINT('',(-6.25E1,2.E2,-5.79E1));
#592=DIRECTION('',(0.E0,0.E0,1.E0));
#593=DIRECTION('',(1.E0,0.E0,0.E0));
#594=AXIS2_PLACEMENT_3D('',#591,#592,#593);
#595=PLANE('',#594);
#596=ORIENTED_EDGE('',*,*,#394,.T.);
#597=ORIENTED_EDGE('',*,*,#369,.F.);
#598=ORIENTED_EDGE('',*,*,#334,.F.);
#599=ORIENTED_EDGE('',*,*,#561,.T.);
#600=EDGE_LOOP('',(#596,#597,#598,#599));
#601=FACE_OUTER_BOUND('',#600,.F.);
#602=ADVANCED_FACE('',(#601),#595,.T.);
#603=CARTESIAN_POINT('',(-6.25E1,2.E2,-4.25E1));
#604=DIRECTION('',(-1.E0,0.E0,0.E0));
#605=DIRECTION('',(0.E0,0.E0,1.E0));
#606=AXIS2_PLACEMENT_3D('',#603,#604,#605);
#607=PLANE('',#606);
#609=ORIENTED_EDGE('',*,*,#608,.F.);
#611=ORIENTED_EDGE('',*,*,#610,.F.);
#613=ORIENTED_EDGE('',*,*,#612,.F.);
#615=ORIENTED_EDGE('',*,*,#614,.T.);
#616=ORIENTED_EDGE('',*,*,#398,.F.);
#618=ORIENTED_EDGE('',*,*,#617,.F.);
#619=EDGE_LOOP('',(#609,#611,#613,#615,#616,#618));
#620=FACE_OUTER_BOUND('',#619,.F.);
#621=ADVANCED_FACE('',(#620),#607,.T.);
#622=CARTESIAN_POINT('',(0.E0,2.05E2,0.E0));
#623=DIRECTION('',(0.E0,1.E0,0.E0));
#624=DIRECTION('',(1.E0,0.E0,0.E0));
#625=AXIS2_PLACEMENT_3D('',#622,#623,#624);
#626=PLANE('',#625);
#628=ORIENTED_EDGE('',*,*,#627,.T.);
#629=ORIENTED_EDGE('',*,*,#608,.T.);
#631=ORIENTED_EDGE('',*,*,#630,.T.);
#633=ORIENTED_EDGE('',*,*,#632,.T.);
#634=EDGE_LOOP('',(#628,#629,#631,#633));
#635=FACE_OUTER_BOUND('',#634,.F.);
#636=ADVANCED_FACE('',(#635),#626,.T.);
#637=CARTESIAN_POINT('',(-3.75E1,2.E2,-3.75E1));
#638=DIRECTION('',(0.E0,0.E0,-1.E0));
#639=DIRECTION('',(-1.E0,0.E0,0.E0));
#640=AXIS2_PLACEMENT_3D('',#637,#638,#639);
#641=PLANE('',#640);
#642=ORIENTED_EDGE('',*,*,#627,.F.);
#644=ORIENTED_EDGE('',*,*,#643,.F.);
#646=ORIENTED_EDGE('',*,*,#645,.F.);
#647=ORIENTED_EDGE('',*,*,#610,.T.);
#648=EDGE_LOOP('',(#642,#644,#646,#647));
#649=FACE_OUTER_BOUND('',#648,.F.);
#650=ADVANCED_FACE('',(#649),#641,.T.);
#651=CARTESIAN_POINT('',(-3.75E1,2.E2,-3.75E1));
#652=DIRECTION('',(1.E0,0.E0,0.E0));
#653=DIRECTION('',(0.E0,0.E0,-1.E0));
#654=AXIS2_PLACEMENT_3D('',#651,#652,#653);
#655=PLANE('',#654);
#656=ORIENTED_EDGE('',*,*,#402,.F.);
#658=ORIENTED_EDGE('',*,*,#657,.F.);
#660=ORIENTED_EDGE('',*,*,#659,.F.);
#661=ORIENTED_EDGE('',*,*,#643,.T.);
#662=ORIENTED_EDGE('',*,*,#632,.F.);
#664=ORIENTED_EDGE('',*,*,#663,.T.);
#665=EDGE_LOOP('',(#656,#658,#660,#661,#662,#664));
#666=FACE_OUTER_BOUND('',#665,.F.);
#667=ADVANCED_FACE('',(#666),#655,.T.);
#668=CARTESIAN_POINT('',(-6.25E1,2.E2,-3.25E1));
#669=DIRECTION('',(0.E0,0.E0,1.E0));
#670=DIRECTION('',(1.E0,0.E0,0.E0));
#671=AXIS2_PLACEMENT_3D('',#668,#669,#670);
#672=PLANE('',#671);
#673=ORIENTED_EDGE('',*,*,#400,.T.);
#674=ORIENTED_EDGE('',*,*,#614,.F.);
#676=ORIENTED_EDGE('',*,*,#675,.F.);
#677=ORIENTED_EDGE('',*,*,#657,.T.);
#678=EDGE_LOOP('',(#673,#674,#676,#677));
#679=FACE_OUTER_BOUND('',#678,.F.);
#680=ADVANCED_FACE('',(#679),#672,.T.);
#681=CARTESIAN_POINT('',(0.E0,2.1E2,0.E0));
#682=DIRECTION('',(0.E0,1.E0,0.E0));
#683=DIRECTION('',(1.E0,0.E0,0.E0));
#684=AXIS2_PLACEMENT_3D('',#681,#682,#683);
#685=PLANE('',#684);
#686=ORIENTED_EDGE('',*,*,#612,.T.);
#687=ORIENTED_EDGE('',*,*,#645,.T.);
#688=ORIENTED_EDGE('',*,*,#659,.T.);
#689=ORIENTED_EDGE('',*,*,#675,.T.);
#690=EDGE_LOOP('',(#686,#687,#688,#689));
#691=FACE_OUTER_BOUND('',#690,.F.);
#692=ADVANCED_FACE('',(#691),#685,.T.);
#693=CARTESIAN_POINT('',(-3.75E1,2.E2,-4.25E1));
#694=DIRECTION('',(0.E0,0.E0,-1.E0));
#695=DIRECTION('',(-1.E0,0.E0,0.E0));
#696=AXIS2_PLACEMENT_3D('',#693,#694,#695);
#697=PLANE('',#696);
#698=ORIENTED_EDGE('',*,*,#404,.T.);
#699=ORIENTED_EDGE('',*,*,#663,.F.);
#700=ORIENTED_EDGE('',*,*,#630,.F.);
#701=ORIENTED_EDGE('',*,*,#617,.T.);
#702=EDGE_LOOP('',(#698,#699,#700,#701));
#703=FACE_OUTER_BOUND('',#702,.F.);
#704=ADVANCED_FACE('',(#703),#697,.T.);
#706=DIRECTION('',(0.E0,0.E0,1.E0));
#707=VECTOR('',#706,8.E1);
#708=CARTESIAN_POINT('',(-1.E1,2.E1,-9.E1));
#709=LINE('',#708,#707);
#710=DIRECTION('',(0.E0,-1.E0,0.E0));
#711=VECTOR('',#710,1.6E2);
#712=CARTESIAN_POINT('',(-1.E1,1.8E2,-9.E1));
#713=LINE('',#712,#711);
#714=DIRECTION('',(1.E0,0.E0,0.E0));
#715=VECTOR('',#714,8.E1);
#716=CARTESIAN_POINT('',(-9.E1,2.E1,-9.E1));
#717=LINE('',#716,#715);
#718=DIRECTION('',(0.E0,-1.E0,0.E0));
#719=VECTOR('',#718,1.6E2);
#720=CARTESIAN_POINT('',(-9.E1,1.8E2,-9.E1));
#721=LINE('',#720,#719);
#722=DIRECTION('',(1.E0,0.E0,0.E0));
#723=VECTOR('',#722,8.E1);
#724=CARTESIAN_POINT('',(-9.E1,1.8E2,-9.E1));
#725=LINE('',#724,#723);
#726=DIRECTION('',(0.E0,0.E0,1.E0));
#727=VECTOR('',#726,8.E1);
#728=CARTESIAN_POINT('',(-1.E1,1.8E2,-9.E1));
#729=LINE('',#728,#727);
#730=DIRECTION('',(-1.E0,0.E0,0.E0));
#731=VECTOR('',#730,8.E1);
#732=CARTESIAN_POINT('',(-1.E1,1.8E2,-1.E1));
#733=LINE('',#732,#731);
#734=DIRECTION('',(0.E0,0.E0,-1.E0));
#735=VECTOR('',#734,8.E1);
#736=CARTESIAN_POINT('',(-9.E1,1.8E2,-1.E1));
#737=LINE('',#736,#735);
#738=DIRECTION('',(-1.E0,0.E0,0.E0));
#739=VECTOR('',#738,8.E1);
#740=CARTESIAN_POINT('',(-1.E1,2.E1,-1.E1));
#741=LINE('',#740,#739);
#742=DIRECTION('',(0.E0,-1.E0,0.E0));
#743=VECTOR('',#742,1.6E2);
#744=CARTESIAN_POINT('',(-1.E1,1.8E2,-1.E1));
#745=LINE('',#744,#743);
#746=DIRECTION('',(0.E0,0.E0,-1.E0));
#747=VECTOR('',#746,8.E1);
#748=CARTESIAN_POINT('',(-9.E1,2.E1,-1.E1));
#749=LINE('',#748,#747);
#750=DIRECTION('',(0.E0,-1.E0,0.E0));
#751=VECTOR('',#750,1.6E2);
#752=CARTESIAN_POINT('',(-9.E1,1.8E2,-1.E1));
#753=LINE('',#752,#751);
#754=CARTESIAN_POINT('',(-1.E1,2.E1,-9.E1));
#755=CARTESIAN_POINT('',(-1.E1,2.E1,-1.E1));
#756=VERTEX_POINT('',#754);
#757=VERTEX_POINT('',#755);
#758=CARTESIAN_POINT('',(-1.E1,1.8E2,-1.E1));
#759=VERTEX_POINT('',#758);
#760=CARTESIAN_POINT('',(-1.E1,1.8E2,-9.E1));
#761=VERTEX_POINT('',#760);
#762=CARTESIAN_POINT('',(-9.E1,2.E1,-9.E1));
#763=VERTEX_POINT('',#762);
#764=CARTESIAN_POINT('',(-9.E1,2.E1,-1.E1));
#765=VERTEX_POINT('',#764);
#766=CARTESIAN_POINT('',(-9.E1,1.8E2,-9.E1));
#767=VERTEX_POINT('',#766);
#768=CARTESIAN_POINT('',(-9.E1,1.8E2,-1.E1));
#769=VERTEX_POINT('',#768);
#770=CARTESIAN_POINT('',(-1.E1,2.E1,-1.E1));
#771=DIRECTION('',(1.E0,0.E0,0.E0));
#772=DIRECTION('',(0.E0,0.E0,-1.E0));
#773=AXIS2_PLACEMENT_3D('',#770,#771,#772);
#774=PLANE('',#773);
#776=ORIENTED_EDGE('',*,*,#775,.T.);
#778=ORIENTED_EDGE('',*,*,#777,.F.);
#780=ORIENTED_EDGE('',*,*,#779,.F.);
#782=ORIENTED_EDGE('',*,*,#781,.T.);
#783=EDGE_LOOP('',(#776,#778,#780,#782));
#784=FACE_OUTER_BOUND('',#783,.F.);
#785=ADVANCED_FACE('',(#784),#774,.T.);
#786=CARTESIAN_POINT('',(0.E0,2.E1,0.E0));
#787=DIRECTION('',(0.E0,1.E0,0.E0));
#788=DIRECTION('',(1.E0,0.E0,0.E0));
#789=AXIS2_PLACEMENT_3D('',#786,#787,#788);
#790=PLANE('',#789);
#792=ORIENTED_EDGE('',*,*,#791,.F.);
#794=ORIENTED_EDGE('',*,*,#793,.F.);
#796=ORIENTED_EDGE('',*,*,#795,.F.);
#797=ORIENTED_EDGE('',*,*,#775,.F.);
#798=EDGE_LOOP('',(#792,#794,#796,#797));
#799=FACE_OUTER_BOUND('',#798,.F.);
#800=ADVANCED_FACE('',(#799),#790,.F.);
#801=CARTESIAN_POINT('',(-1.E1,2.E1,-9.E1));
#802=DIRECTION('',(0.E0,0.E0,-1.E0));
#803=DIRECTION('',(-1.E0,0.E0,0.E0));
#804=AXIS2_PLACEMENT_3D('',#801,#802,#803);
#805=PLANE('',#804);
#806=ORIENTED_EDGE('',*,*,#791,.T.);
#807=ORIENTED_EDGE('',*,*,#781,.F.);
#809=ORIENTED_EDGE('',*,*,#808,.F.);
#811=ORIENTED_EDGE('',*,*,#810,.T.);
#812=EDGE_LOOP('',(#806,#807,#809,#811));
#813=FACE_OUTER_BOUND('',#812,.F.);
#814=ADVANCED_FACE('',(#813),#805,.T.);
#815=CARTESIAN_POINT('',(0.E0,1.8E2,0.E0));
#816=DIRECTION('',(0.E0,1.E0,0.E0));
#817=DIRECTION('',(1.E0,0.E0,0.E0));
#818=AXIS2_PLACEMENT_3D('',#815,#816,#817);
#819=PLANE('',#818);
#820=ORIENTED_EDGE('',*,*,#808,.T.);
#821=ORIENTED_EDGE('',*,*,#779,.T.);
#823=ORIENTED_EDGE('',*,*,#822,.T.);
#825=ORIENTED_EDGE('',*,*,#824,.T.);
#826=EDGE_LOOP('',(#820,#821,#823,#825));
#827=FACE_OUTER_BOUND('',#826,.F.);
#828=ADVANCED_FACE('',(#827),#819,.T.);
#829=CARTESIAN_POINT('',(-9.E1,2.E1,-1.E1));
#830=DIRECTION('',(0.E0,0.E0,1.E0));
#831=DIRECTION('',(1.E0,0.E0,0.E0));
#832=AXIS2_PLACEMENT_3D('',#829,#830,#831);
#833=PLANE('',#832);
#834=ORIENTED_EDGE('',*,*,#795,.T.);
#836=ORIENTED_EDGE('',*,*,#835,.F.);
#837=ORIENTED_EDGE('',*,*,#822,.F.);
#838=ORIENTED_EDGE('',*,*,#777,.T.);
#839=EDGE_LOOP('',(#834,#836,#837,#838));
#840=FACE_OUTER_BOUND('',#839,.F.);
#841=ADVANCED_FACE('',(#840),#833,.T.);
#842=CARTESIAN_POINT('',(-9.E1,2.E1,-9.E1));
#843=DIRECTION('',(-1.E0,0.E0,0.E0));
#844=DIRECTION('',(0.E0,0.E0,1.E0));
#845=AXIS2_PLACEMENT_3D('',#842,#843,#844);
#846=PLANE('',#845);
#847=ORIENTED_EDGE('',*,*,#793,.T.);
#848=ORIENTED_EDGE('',*,*,#810,.F.);
#849=ORIENTED_EDGE('',*,*,#824,.F.);
#850=ORIENTED_EDGE('',*,*,#835,.T.);
#851=EDGE_LOOP('',(#847,#848,#849,#850));
#852=FACE_OUTER_BOUND('',#851,.F.);
#853=ADVANCED_FACE('',(#852),#846,.T.);
#855=ORIENTED_CLOSED_SHELL('',*,#854,.F.);
#858=DIMENSIONAL_EXPONENTS(0.E0,0.E0,0.E0,0.E0,0.E0,0.E0,0.E0);
#860=PLANE_ANGLE_MEASURE_WITH_UNIT(PLANE_ANGLE_MEASURE(1.745329251994E-2),#859);
#861=(CONVERSION_BASED_UNIT('DEGREE',#860)NAMED_UNIT(*)PLANE_ANGLE_UNIT());
#863=UNCERTAINTY_MEASURE_WITH_UNIT(LENGTH_MEASURE(2.767559793800E-2),#857,
'closure',
'Maximum model space distance between geometric entities at asserted connectivities');
#864=(GEOMETRIC_REPRESENTATION_CONTEXT(3)GLOBAL_UNCERTAINTY_ASSIGNED_CONTEXT((
#863))GLOBAL_UNIT_ASSIGNED_CONTEXT((#857,#861,#862))REPRESENTATION_CONTEXT
('ID1','3'));
#865=CARTESIAN_POINT('',(0.E0,0.E0,0.E0));
#866=DIRECTION('',(0.E0,0.E0,1.E0));
#867=DIRECTION('',(1.E0,0.E0,0.E0));
#870=APPLICATION_CONTEXT(
'CONFIGURATION CONTROLLED 3D DESIGNS OF MECHANICAL PARTS AND ASSEMBLIES');
#871=APPLICATION_PROTOCOL_DEFINITION('international standard',
'config_control_design',1994,#870);
#872=DESIGN_CONTEXT('',#870,'design');
#873=MECHANICAL_CONTEXT('',#870,'mechanical');
#874=PRODUCT('PRT0002','PRT0002','NOT SPECIFIED',(#873));
#875=PRODUCT_DEFINITION_FORMATION_WITH_SPECIFIED_SOURCE('1','LAST_VERSION',#874,
.MADE.);
#884=CARTESIAN_POINT('',(1.5E2,0.E0,0.E0));
#885=DIRECTION('',(0.E0,0.E0,1.E0));
#886=DIRECTION('',(1.E0,0.E0,0.E0));
#887=AXIS2_PLACEMENT_3D('',#884,#885,#886);
#888=ITEM_DEFINED_TRANSFORMATION('','',#868,#887);
#889=(REPRESENTATION_RELATIONSHIP('','',#869,#881)REPRESENTATION_RELATIONSHIP_WITH_TRANSFORMATION(#888)SHAPE_REPRESENTATION_RELATIONSHIP());
#890=CONTEXT_DEPENDENT_SHAPE_REPRESENTATION(#889,#883);
#891=DIRECTION('',(0.E0,0.E0,1.E0));
#892=VECTOR('',#891,5.E0);
#893=CARTESIAN_POINT('',(-3.75E1,2.55E2,-6.29E1));
#894=LINE('',#893,#892);
#895=DIRECTION('',(-1.E0,0.E0,0.E0));
#896=VECTOR('',#895,2.5E1);
#897=CARTESIAN_POINT('',(-3.75E1,2.55E2,-5.79E1));
#898=LINE('',#897,#896);
#899=DIRECTION('',(0.E0,0.E0,-1.E0));
#900=VECTOR('',#899,5.E0);
#901=CARTESIAN_POINT('',(-6.25E1,2.55E2,-5.79E1));
#902=LINE('',#901,#900);
#903=DIRECTION('',(-1.E0,0.E0,0.E0));
#904=VECTOR('',#903,2.5E1);
#905=CARTESIAN_POINT('',(-3.75E1,2.55E2,-6.29E1));
#906=LINE('',#905,#904);
#907=DIRECTION('',(0.E0,-1.E0,0.E0));
#908=VECTOR('',#907,5.E0);
#909=CARTESIAN_POINT('',(-3.75E1,2.6E2,-6.29E1));
#910=LINE('',#909,#908);
#911=DIRECTION('',(0.E0,-1.E0,0.E0));
#912=VECTOR('',#911,5.E0);
#913=CARTESIAN_POINT('',(-6.25E1,2.6E2,-6.29E1));
#914=LINE('',#913,#912);
#915=DIRECTION('',(0.E0,-1.E0,0.E0));
#916=VECTOR('',#915,5.E0);
#917=CARTESIAN_POINT('',(-6.25E1,2.55E2,-5.79E1));
#918=LINE('',#917,#916);
#919=DIRECTION('',(0.E0,0.E0,1.E0));
#920=VECTOR('',#919,1.E2);
#921=CARTESIAN_POINT('',(0.E0,2.5E2,-1.E2));
#922=LINE('',#921,#920);
#923=DIRECTION('',(-1.E0,0.E0,0.E0));
#924=VECTOR('',#923,1.E2);
#925=CARTESIAN_POINT('',(0.E0,2.5E2,0.E0));
#926=LINE('',#925,#924);
#927=DIRECTION('',(0.E0,0.E0,-1.E0));
#928=VECTOR('',#927,1.E2);
#929=CARTESIAN_POINT('',(-1.E2,2.5E2,0.E0));
#930=LINE('',#929,#928);
#931=DIRECTION('',(1.E0,0.E0,0.E0));
#932=VECTOR('',#931,1.E2);
#933=CARTESIAN_POINT('',(-1.E2,2.5E2,-1.E2));
#934=LINE('',#933,#932);
#935=DIRECTION('',(0.E0,0.E0,-1.E0));
#936=VECTOR('',#935,1.E1);
#937=CARTESIAN_POINT('',(-3.75E1,2.5E2,-5.79E1));
#938=LINE('',#937,#936);
#939=DIRECTION('',(0.E0,0.E0,1.E0));
#940=VECTOR('',#939,1.E1);
#941=CARTESIAN_POINT('',(-6.25E1,2.5E2,-6.79E1));
#942=LINE('',#941,#940);
#943=DIRECTION('',(0.E0,0.E0,1.E0));
#944=VECTOR('',#943,1.E1);
#945=CARTESIAN_POINT('',(-6.25E1,2.5E2,-4.25E1));
#946=LINE('',#945,#944);
#947=DIRECTION('',(0.E0,0.E0,-1.E0));
#948=VECTOR('',#947,1.E1);
#949=CARTESIAN_POINT('',(-3.75E1,2.5E2,-3.25E1));
#950=LINE('',#949,#948);
#951=DIRECTION('',(0.E0,0.E0,1.E0));
#952=VECTOR('',#951,1.E2);
#953=CARTESIAN_POINT('',(0.E0,0.E0,-1.E2));
#954=LINE('',#953,#952);
#955=DIRECTION('',(0.E0,-1.E0,0.E0));
#956=VECTOR('',#955,2.5E2);
#957=CARTESIAN_POINT('',(0.E0,2.5E2,-1.E2));
#958=LINE('',#957,#956);
#959=DIRECTION('',(-1.E0,0.E0,0.E0));
#960=VECTOR('',#959,1.5E2);
#961=CARTESIAN_POINT('',(0.E0,0.E0,-1.E2));
#962=LINE('',#961,#960);
#963=DIRECTION('',(0.E0,0.E0,1.E0));
#964=VECTOR('',#963,1.E2);
#965=CARTESIAN_POINT('',(-1.5E2,0.E0,-1.E2));
#966=LINE('',#965,#964);
#967=DIRECTION('',(1.E0,0.E0,0.E0));
#968=VECTOR('',#967,1.5E2);
#969=CARTESIAN_POINT('',(-1.5E2,0.E0,0.E0));
#970=LINE('',#969,#968);
#971=CARTESIAN_POINT('',(-1.25E2,0.E0,-5.E1));
#972=DIRECTION('',(0.E0,-1.E0,0.E0));
#973=DIRECTION('',(-1.E0,0.E0,0.E0));
#974=AXIS2_PLACEMENT_3D('',#971,#972,#973);
#976=CARTESIAN_POINT('',(-1.25E2,0.E0,-5.E1));
#977=DIRECTION('',(0.E0,-1.E0,0.E0));
#978=DIRECTION('',(1.E0,0.E0,0.E0));
#979=AXIS2_PLACEMENT_3D('',#976,#977,#978);
#981=DIRECTION('',(0.E0,-1.E0,0.E0));
#982=VECTOR('',#981,2.4E2);
#983=CARTESIAN_POINT('',(-1.E2,2.5E2,-1.E2));
#984=LINE('',#983,#982);
#985=DIRECTION('',(-1.E0,0.E0,0.E0));
#986=VECTOR('',#985,5.E1);
#987=CARTESIAN_POINT('',(-1.E2,1.E1,-1.E2));
#988=LINE('',#987,#986);
#989=DIRECTION('',(0.E0,-1.E0,0.E0));
#990=VECTOR('',#989,1.E1);
#991=CARTESIAN_POINT('',(-1.5E2,1.E1,-1.E2));
#992=LINE('',#991,#990);
#993=DIRECTION('',(0.E0,0.E0,-1.E0));
#994=VECTOR('',#993,1.E2);
#995=CARTESIAN_POINT('',(-1.E2,1.E1,0.E0));
#996=LINE('',#995,#994);
#997=DIRECTION('',(0.E0,-1.E0,0.E0));
#998=VECTOR('',#997,2.4E2);
#999=CARTESIAN_POINT('',(-1.E2,2.5E2,0.E0));
#1000=LINE('',#999,#998);
#1001=CARTESIAN_POINT('',(-1.25E2,1.E1,-5.E1));
#1002=DIRECTION('',(0.E0,1.E0,0.E0));
#1003=DIRECTION('',(1.E0,0.E0,0.E0));
#1004=AXIS2_PLACEMENT_3D('',#1001,#1002,#1003);
#1006=CARTESIAN_POINT('',(-1.25E2,1.E1,-5.E1));
#1007=DIRECTION('',(0.E0,1.E0,0.E0));
#1008=DIRECTION('',(-1.E0,0.E0,0.E0));
#1009=AXIS2_PLACEMENT_3D('',#1006,#1007,#1008);
#1011=DIRECTION('',(1.E0,0.E0,0.E0));
#1012=VECTOR('',#1011,5.E1);
#1013=CARTESIAN_POINT('',(-1.5E2,1.E1,0.E0));
#1014=LINE('',#1013,#1012);
#1015=DIRECTION('',(0.E0,-1.E0,0.E0));
#1016=VECTOR('',#1015,2.5E2);
#1017=CARTESIAN_POINT('',(0.E0,2.5E2,0.E0));
#1018=LINE('',#1017,#1016);
#1019=DIRECTION('',(0.E0,0.E0,1.E0));
#1020=VECTOR('',#1019,1.E2);
#1021=CARTESIAN_POINT('',(-1.5E2,1.E1,-1.E2));
#1022=LINE('',#1021,#1020);
#1023=DIRECTION('',(0.E0,-1.E0,0.E0));
#1024=VECTOR('',#1023,1.E1);
#1025=CARTESIAN_POINT('',(-1.5E2,1.E1,0.E0));
#1026=LINE('',#1025,#1024);
#1027=DIRECTION('',(0.E0,-1.E0,0.E0));
#1028=VECTOR('',#1027,1.E1);
#1029=CARTESIAN_POINT('',(-1.215E2,1.E1,-5.E1));
#1030=LINE('',#1029,#1028);
#1031=DIRECTION('',(0.E0,-1.E0,0.E0));
#1032=VECTOR('',#1031,1.E1);
#1033=CARTESIAN_POINT('',(-1.285E2,1.E1,-5.E1));
#1034=LINE('',#1033,#1032);
#1035=DIRECTION('',(0.E0,-1.E0,0.E0));
#1036=VECTOR('',#1035,1.E1);
#1037=CARTESIAN_POINT('',(-3.75E1,2.6E2,-6.79E1));
#1038=LINE('',#1037,#1036);
#1039=DIRECTION('',(-1.E0,0.E0,0.E0));
#1040=VECTOR('',#1039,2.5E1);
#1041=CARTESIAN_POINT('',(-3.75E1,2.6E2,-6.29E1));
#1042=LINE('',#1041,#1040);
#1043=DIRECTION('',(0.E0,0.E0,-1.E0));
#1044=VECTOR('',#1043,5.E0);
#1045=CARTESIAN_POINT('',(-6.25E1,2.6E2,-6.29E1));
#1046=LINE('',#1045,#1044);
#1047=DIRECTION('',(1.E0,0.E0,0.E0));
#1048=VECTOR('',#1047,2.5E1);
#1049=CARTESIAN_POINT('',(-6.25E1,2.6E2,-6.79E1));
#1050=LINE('',#1049,#1048);
#1051=DIRECTION('',(0.E0,0.E0,1.E0));
#1052=VECTOR('',#1051,5.E0);
#1053=CARTESIAN_POINT('',(-3.75E1,2.6E2,-6.79E1));
#1054=LINE('',#1053,#1052);
#1055=DIRECTION('',(1.E0,0.E0,0.E0));
#1056=VECTOR('',#1055,2.5E1);
#1057=CARTESIAN_POINT('',(-6.25E1,2.5E2,-6.79E1));
#1058=LINE('',#1057,#1056);
#1059=DIRECTION('',(0.E0,-1.E0,0.E0));
#1060=VECTOR('',#1059,1.E1);
#1061=CARTESIAN_POINT('',(-6.25E1,2.6E2,-6.79E1));
#1062=LINE('',#1061,#1060);
#1063=DIRECTION('',(-1.E0,0.E0,0.E0));
#1064=VECTOR('',#1063,2.5E1);
#1065=CARTESIAN_POINT('',(-3.75E1,2.5E2,-5.79E1));
#1066=LINE('',#1065,#1064);
#1067=DIRECTION('',(0.E0,-1.E0,0.E0));
#1068=VECTOR('',#1067,5.E0);
#1069=CARTESIAN_POINT('',(-3.75E1,2.55E2,-5.79E1));
#1070=LINE('',#1069,#1068);
#1071=DIRECTION('',(0.E0,-1.E0,0.E0));
#1072=VECTOR('',#1071,1.E1);
#1073=CARTESIAN_POINT('',(-6.25E1,2.6E2,-3.25E1));
#1074=LINE('',#1073,#1072);
#1075=DIRECTION('',(-1.E0,0.E0,0.E0));
#1076=VECTOR('',#1075,2.5E1);
#1077=CARTESIAN_POINT('',(-3.75E1,2.55E2,-3.75E1));
#1078=LINE('',#1077,#1076);
#1079=DIRECTION('',(0.E0,0.E0,-1.E0));
#1080=VECTOR('',#1079,5.E0);
#1081=CARTESIAN_POINT('',(-6.25E1,2.55E2,-3.75E1));
#1082=LINE('',#1081,#1080);
#1083=DIRECTION('',(1.E0,0.E0,0.E0));
#1084=VECTOR('',#1083,2.5E1);
#1085=CARTESIAN_POINT('',(-6.25E1,2.55E2,-4.25E1));
#1086=LINE('',#1085,#1084);
#1087=DIRECTION('',(0.E0,0.E0,1.E0));
#1088=VECTOR('',#1087,5.E0);
#1089=CARTESIAN_POINT('',(-3.75E1,2.55E2,-4.25E1));
#1090=LINE('',#1089,#1088);
#1091=DIRECTION('',(0.E0,-1.E0,0.E0));
#1092=VECTOR('',#1091,5.E0);
#1093=CARTESIAN_POINT('',(-6.25E1,2.6E2,-3.75E1));
#1094=LINE('',#1093,#1092);
#1095=DIRECTION('',(0.E0,-1.E0,0.E0));
#1096=VECTOR('',#1095,5.E0);
#1097=CARTESIAN_POINT('',(-3.75E1,2.6E2,-3.75E1));
#1098=LINE('',#1097,#1096);
#1099=DIRECTION('',(0.E0,-1.E0,0.E0));
#1100=VECTOR('',#1099,5.E0);
#1101=CARTESIAN_POINT('',(-3.75E1,2.55E2,-4.25E1));
#1102=LINE('',#1101,#1100);
#1103=DIRECTION('',(-1.E0,0.E0,0.E0));
#1104=VECTOR('',#1103,2.5E1);
#1105=CARTESIAN_POINT('',(-3.75E1,2.5E2,-3.25E1));
#1106=LINE('',#1105,#1104);
#1107=DIRECTION('',(0.E0,-1.E0,0.E0));
#1108=VECTOR('',#1107,1.E1);
#1109=CARTESIAN_POINT('',(-3.75E1,2.6E2,-3.25E1));
#1110=LINE('',#1109,#1108);
#1111=DIRECTION('',(0.E0,0.E0,-1.E0));
#1112=VECTOR('',#1111,5.E0);
#1113=CARTESIAN_POINT('',(-6.25E1,2.6E2,-3.25E1));
#1114=LINE('',#1113,#1112);
#1115=DIRECTION('',(1.E0,0.E0,0.E0));
#1116=VECTOR('',#1115,2.5E1);
#1117=CARTESIAN_POINT('',(-6.25E1,2.6E2,-3.75E1));
#1118=LINE('',#1117,#1116);
#1119=DIRECTION('',(0.E0,0.E0,1.E0));
#1120=VECTOR('',#1119,5.E0);
#1121=CARTESIAN_POINT('',(-3.75E1,2.6E2,-3.75E1));
#1122=LINE('',#1121,#1120);
#1123=DIRECTION('',(-1.E0,0.E0,0.E0));
#1124=VECTOR('',#1123,2.5E1);
#1125=CARTESIAN_POINT('',(-3.75E1,2.6E2,-3.25E1));
#1126=LINE('',#1125,#1124);
#1127=DIRECTION('',(1.E0,0.E0,0.E0));
#1128=VECTOR('',#1127,2.5E1);
#1129=CARTESIAN_POINT('',(-6.25E1,2.5E2,-4.25E1));
#1130=LINE('',#1129,#1128);
#1131=DIRECTION('',(0.E0,-1.E0,0.E0));
#1132=VECTOR('',#1131,5.E0);
#1133=CARTESIAN_POINT('',(-6.25E1,2.55E2,-4.25E1));
#1134=LINE('',#1133,#1132);
#1135=CARTESIAN_POINT('',(-6.25E1,2.5E2,-6.79E1));
#1136=CARTESIAN_POINT('',(-6.25E1,2.5E2,-5.79E1));
#1137=VERTEX_POINT('',#1135);
#1138=VERTEX_POINT('',#1136);
#1139=CARTESIAN_POINT('',(-6.25E1,2.6E2,-6.79E1));
#1140=VERTEX_POINT('',#1139);
#1141=CARTESIAN_POINT('',(-6.25E1,2.6E2,-6.29E1));
#1142=VERTEX_POINT('',#1141);
#1143=CARTESIAN_POINT('',(-6.25E1,2.55E2,-6.29E1));
#1144=VERTEX_POINT('',#1143);
#1145=CARTESIAN_POINT('',(-6.25E1,2.55E2,-5.79E1));
#1146=VERTEX_POINT('',#1145);
#1147=CARTESIAN_POINT('',(0.E0,2.5E2,-1.E2));
#1148=CARTESIAN_POINT('',(0.E0,2.5E2,0.E0));
#1149=VERTEX_POINT('',#1147);
#1150=VERTEX_POINT('',#1148);
#1151=CARTESIAN_POINT('',(-1.E2,2.5E2,0.E0));
#1152=VERTEX_POINT('',#1151);
#1153=CARTESIAN_POINT('',(-1.E2,2.5E2,-1.E2));
#1154=VERTEX_POINT('',#1153);
#1155=CARTESIAN_POINT('',(-3.75E1,2.5E2,-5.79E1));
#1156=CARTESIAN_POINT('',(-3.75E1,2.5E2,-6.79E1));
#1157=VERTEX_POINT('',#1155);
#1158=VERTEX_POINT('',#1156);
#1159=CARTESIAN_POINT('',(-6.25E1,2.5E2,-4.25E1));
#1160=CARTESIAN_POINT('',(-6.25E1,2.5E2,-3.25E1));
#1161=VERTEX_POINT('',#1159);
#1162=VERTEX_POINT('',#1160);
#1163=CARTESIAN_POINT('',(-3.75E1,2.5E2,-3.25E1));
#1164=VERTEX_POINT('',#1163);
#1165=CARTESIAN_POINT('',(-3.75E1,2.5E2,-4.25E1));
#1166=VERTEX_POINT('',#1165);
#1167=CARTESIAN_POINT('',(0.E0,0.E0,-1.E2));
#1168=CARTESIAN_POINT('',(0.E0,0.E0,0.E0));
#1169=VERTEX_POINT('',#1167);
#1170=VERTEX_POINT('',#1168);
#1171=CARTESIAN_POINT('',(-1.5E2,0.E0,-1.E2));
#1172=VERTEX_POINT('',#1171);
#1173=CARTESIAN_POINT('',(-1.5E2,0.E0,0.E0));
#1174=VERTEX_POINT('',#1173);
#1175=CARTESIAN_POINT('',(-1.285E2,0.E0,-5.E1));
#1176=CARTESIAN_POINT('',(-1.215E2,0.E0,-5.E1));
#1177=VERTEX_POINT('',#1175);
#1178=VERTEX_POINT('',#1176);
#1179=CARTESIAN_POINT('',(-1.285E2,1.E1,-5.E1));
#1180=VERTEX_POINT('',#1179);
#1181=CARTESIAN_POINT('',(-1.215E2,1.E1,-5.E1));
#1182=VERTEX_POINT('',#1181);
#1183=CARTESIAN_POINT('',(-1.5E2,1.E1,0.E0));
#1184=CARTESIAN_POINT('',(-1.E2,1.E1,0.E0));
#1185=VERTEX_POINT('',#1183);
#1186=VERTEX_POINT('',#1184);
#1187=CARTESIAN_POINT('',(-1.5E2,1.E1,-1.E2));
#1188=VERTEX_POINT('',#1187);
#1189=CARTESIAN_POINT('',(-1.E2,1.E1,-1.E2));
#1190=VERTEX_POINT('',#1189);
#1191=CARTESIAN_POINT('',(-3.75E1,2.55E2,-6.29E1));
#1192=CARTESIAN_POINT('',(-3.75E1,2.55E2,-5.79E1));
#1193=VERTEX_POINT('',#1191);
#1194=VERTEX_POINT('',#1192);
#1195=CARTESIAN_POINT('',(-3.75E1,2.6E2,-6.29E1));
#1196=VERTEX_POINT('',#1195);
#1197=CARTESIAN_POINT('',(-3.75E1,2.6E2,-6.79E1));
#1198=VERTEX_POINT('',#1197);
#1199=CARTESIAN_POINT('',(-3.75E1,2.55E2,-3.75E1));
#1200=CARTESIAN_POINT('',(-6.25E1,2.55E2,-3.75E1));
#1201=VERTEX_POINT('',#1199);
#1202=VERTEX_POINT('',#1200);
#1203=CARTESIAN_POINT('',(-6.25E1,2.55E2,-4.25E1));
#1204=VERTEX_POINT('',#1203);
#1205=CARTESIAN_POINT('',(-3.75E1,2.55E2,-4.25E1));
#1206=VERTEX_POINT('',#1205);
#1207=CARTESIAN_POINT('',(-6.25E1,2.6E2,-3.25E1));
#1208=CARTESIAN_POINT('',(-6.25E1,2.6E2,-3.75E1));
#1209=VERTEX_POINT('',#1207);
#1210=VERTEX_POINT('',#1208);
#1211=CARTESIAN_POINT('',(-3.75E1,2.6E2,-3.75E1));
#1212=VERTEX_POINT('',#1211);
#1213=CARTESIAN_POINT('',(-3.75E1,2.6E2,-3.25E1));
#1214=VERTEX_POINT('',#1213);
#1215=CARTESIAN_POINT('',(0.E0,2.55E2,0.E0));
#1216=DIRECTION('',(0.E0,1.E0,0.E0));
#1217=DIRECTION('',(1.E0,0.E0,0.E0));
#1218=AXIS2_PLACEMENT_3D('',#1215,#1216,#1217);
#1219=PLANE('',#1218);
#1221=ORIENTED_EDGE('',*,*,#1220,.F.);
#1223=ORIENTED_EDGE('',*,*,#1222,.T.);
#1225=ORIENTED_EDGE('',*,*,#1224,.T.);
#1227=ORIENTED_EDGE('',*,*,#1226,.T.);
#1228=EDGE_LOOP('',(#1221,#1223,#1225,#1227));
#1229=FACE_OUTER_BOUND('',#1228,.F.);
#1230=ADVANCED_FACE('',(#1229),#1219,.T.);
#1231=CARTESIAN_POINT('',(-6.25E1,2.5E2,-6.29E1));
#1232=DIRECTION('',(0.E0,0.E0,1.E0));
#1233=DIRECTION('',(1.E0,0.E0,0.E0));
#1234=AXIS2_PLACEMENT_3D('',#1231,#1232,#1233);
#1235=PLANE('',#1234);
#1236=ORIENTED_EDGE('',*,*,#1220,.T.);
#1238=ORIENTED_EDGE('',*,*,#1237,.F.);
#1240=ORIENTED_EDGE('',*,*,#1239,.F.);
#1242=ORIENTED_EDGE('',*,*,#1241,.T.);
#1243=EDGE_LOOP('',(#1236,#1238,#1240,#1242));
#1244=FACE_OUTER_BOUND('',#1243,.F.);
#1245=ADVANCED_FACE('',(#1244),#1235,.T.);
#1246=CARTESIAN_POINT('',(-6.25E1,2.5E2,-6.29E1));
#1247=DIRECTION('',(-1.E0,0.E0,0.E0));
#1248=DIRECTION('',(0.E0,0.E0,1.E0));
#1249=AXIS2_PLACEMENT_3D('',#1246,#1247,#1248);
#1250=PLANE('',#1249);
#1252=ORIENTED_EDGE('',*,*,#1251,.F.);
#1254=ORIENTED_EDGE('',*,*,#1253,.F.);
#1256=ORIENTED_EDGE('',*,*,#1255,.F.);
#1257=ORIENTED_EDGE('',*,*,#1237,.T.);
#1258=ORIENTED_EDGE('',*,*,#1226,.F.);
#1260=ORIENTED_EDGE('',*,*,#1259,.T.);
#1261=EDGE_LOOP('',(#1252,#1254,#1256,#1257,#1258,#1260));
#1262=FACE_OUTER_BOUND('',#1261,.F.);
#1263=ADVANCED_FACE('',(#1262),#1250,.T.);
#1264=CARTESIAN_POINT('',(0.E0,2.5E2,0.E0));
#1265=DIRECTION('',(0.E0,1.E0,0.E0));
#1266=DIRECTION('',(1.E0,0.E0,0.E0));
#1267=AXIS2_PLACEMENT_3D('',#1264,#1265,#1266);
#1268=PLANE('',#1267);
#1270=ORIENTED_EDGE('',*,*,#1269,.T.);
#1272=ORIENTED_EDGE('',*,*,#1271,.T.);
#1274=ORIENTED_EDGE('',*,*,#1273,.T.);
#1276=ORIENTED_EDGE('',*,*,#1275,.T.);
#1277=EDGE_LOOP('',(#1270,#1272,#1274,#1276));
#1278=FACE_OUTER_BOUND('',#1277,.F.);
#1280=ORIENTED_EDGE('',*,*,#1279,.T.);
#1282=ORIENTED_EDGE('',*,*,#1281,.F.);
#1283=ORIENTED_EDGE('',*,*,#1251,.T.);
#1285=ORIENTED_EDGE('',*,*,#1284,.F.);
#1286=EDGE_LOOP('',(#1280,#1282,#1283,#1285));
#1287=FACE_BOUND('',#1286,.F.);
#1289=ORIENTED_EDGE('',*,*,#1288,.T.);
#1291=ORIENTED_EDGE('',*,*,#1290,.F.);
#1293=ORIENTED_EDGE('',*,*,#1292,.T.);
#1295=ORIENTED_EDGE('',*,*,#1294,.F.);
#1296=EDGE_LOOP('',(#1289,#1291,#1293,#1295));
#1297=FACE_BOUND('',#1296,.F.);
#1298=ADVANCED_FACE('',(#1278,#1287,#1297),#1268,.T.);
#1299=CARTESIAN_POINT('',(0.E0,0.E0,0.E0));
#1300=DIRECTION('',(1.E0,0.E0,0.E0));
#1301=DIRECTION('',(0.E0,0.E0,-1.E0));
#1302=AXIS2_PLACEMENT_3D('',#1299,#1300,#1301);
#1303=PLANE('',#1302);
#1305=ORIENTED_EDGE('',*,*,#1304,.T.);
#1307=ORIENTED_EDGE('',*,*,#1306,.F.);
#1308=ORIENTED_EDGE('',*,*,#1269,.F.);
#1310=ORIENTED_EDGE('',*,*,#1309,.T.);
#1311=EDGE_LOOP('',(#1305,#1307,#1308,#1310));
#1312=FACE_OUTER_BOUND('',#1311,.F.);
#1313=ADVANCED_FACE('',(#1312),#1303,.T.);
#1314=CARTESIAN_POINT('',(0.E0,0.E0,0.E0));
#1315=DIRECTION('',(0.E0,1.E0,0.E0));
#1316=DIRECTION('',(1.E0,0.E0,0.E0));
#1317=AXIS2_PLACEMENT_3D('',#1314,#1315,#1316);
#1318=PLANE('',#1317);
#1320=ORIENTED_EDGE('',*,*,#1319,.T.);
#1322=ORIENTED_EDGE('',*,*,#1321,.T.);
#1324=ORIENTED_EDGE('',*,*,#1323,.T.);
#1325=ORIENTED_EDGE('',*,*,#1304,.F.);
#1326=EDGE_LOOP('',(#1320,#1322,#1324,#1325));
#1327=FACE_OUTER_BOUND('',#1326,.F.);
#1329=ORIENTED_EDGE('',*,*,#1328,.T.);
#1331=ORIENTED_EDGE('',*,*,#1330,.T.);
#1332=EDGE_LOOP('',(#1329,#1331));
#1333=FACE_BOUND('',#1332,.F.);
#1334=ADVANCED_FACE('',(#1327,#1333),#1318,.F.);
#1335=CARTESIAN_POINT('',(0.E0,0.E0,-1.E2));
#1336=DIRECTION('',(0.E0,0.E0,-1.E0));
#1337=DIRECTION('',(-1.E0,0.E0,0.E0));
#1338=AXIS2_PLACEMENT_3D('',#1335,#1336,#1337);
#1339=PLANE('',#1338);
#1341=ORIENTED_EDGE('',*,*,#1340,.T.);
#1343=ORIENTED_EDGE('',*,*,#1342,.T.);
#1345=ORIENTED_EDGE('',*,*,#1344,.T.);
#1346=ORIENTED_EDGE('',*,*,#1319,.F.);
#1347=ORIENTED_EDGE('',*,*,#1309,.F.);
#1348=ORIENTED_EDGE('',*,*,#1275,.F.);
#1349=EDGE_LOOP('',(#1341,#1343,#1345,#1346,#1347,#1348));
#1350=FACE_OUTER_BOUND('',#1349,.F.);
#1351=ADVANCED_FACE('',(#1350),#1339,.T.);
#1352=CARTESIAN_POINT('',(-1.E2,0.E0,-1.E2));
#1353=DIRECTION('',(-1.E0,0.E0,0.E0));
#1354=DIRECTION('',(0.E0,0.E0,1.E0));
#1355=AXIS2_PLACEMENT_3D('',#1352,#1353,#1354);
#1356=PLANE('',#1355);
#1358=ORIENTED_EDGE('',*,*,#1357,.T.);
#1359=ORIENTED_EDGE('',*,*,#1340,.F.);
#1360=ORIENTED_EDGE('',*,*,#1273,.F.);
#1362=ORIENTED_EDGE('',*,*,#1361,.T.);
#1363=EDGE_LOOP('',(#1358,#1359,#1360,#1362));
#1364=FACE_OUTER_BOUND('',#1363,.F.);
#1365=ADVANCED_FACE('',(#1364),#1356,.T.);
#1366=CARTESIAN_POINT('',(0.E0,1.E1,0.E0));
#1367=DIRECTION('',(0.E0,-1.E0,0.E0));
#1368=DIRECTION('',(1.E0,0.E0,0.E0));
#1369=AXIS2_PLACEMENT_3D('',#1366,#1367,#1368);
#1370=PLANE('',#1369);
#1372=ORIENTED_EDGE('',*,*,#1371,.F.);
#1374=ORIENTED_EDGE('',*,*,#1373,.F.);
#1375=ORIENTED_EDGE('',*,*,#1342,.F.);
#1376=ORIENTED_EDGE('',*,*,#1357,.F.);
#1377=EDGE_LOOP('',(#1372,#1374,#1375,#1376));
#1378=FACE_OUTER_BOUND('',#1377,.F.);
#1380=ORIENTED_EDGE('',*,*,#1379,.T.);
#1382=ORIENTED_EDGE('',*,*,#1381,.T.);
#1383=EDGE_LOOP('',(#1380,#1382));
#1384=FACE_BOUND('',#1383,.F.);
#1385=ADVANCED_FACE('',(#1378,#1384),#1370,.F.);
#1386=CARTESIAN_POINT('',(-1.E2,0.E0,0.E0));
#1387=DIRECTION('',(0.E0,0.E0,1.E0));
#1388=DIRECTION('',(1.E0,0.E0,0.E0));
#1389=AXIS2_PLACEMENT_3D('',#1386,#1387,#1388);
#1390=PLANE('',#1389);
#1391=ORIENTED_EDGE('',*,*,#1323,.F.);
#1393=ORIENTED_EDGE('',*,*,#1392,.F.);
#1394=ORIENTED_EDGE('',*,*,#1371,.T.);
#1395=ORIENTED_EDGE('',*,*,#1361,.F.);
#1396=ORIENTED_EDGE('',*,*,#1271,.F.);
#1397=ORIENTED_EDGE('',*,*,#1306,.T.);
#1398=EDGE_LOOP('',(#1391,#1393,#1394,#1395,#1396,#1397));
#1399=FACE_OUTER_BOUND('',#1398,.F.);
#1400=ADVANCED_FACE('',(#1399),#1390,.T.);
#1401=CARTESIAN_POINT('',(-1.5E2,0.E0,0.E0));
#1402=DIRECTION('',(-1.E0,0.E0,0.E0));
#1403=DIRECTION('',(0.E0,0.E0,-1.E0));
#1404=AXIS2_PLACEMENT_3D('',#1401,#1402,#1403);
#1405=PLANE('',#1404);
#1406=ORIENTED_EDGE('',*,*,#1321,.F.);
#1407=ORIENTED_EDGE('',*,*,#1344,.F.);
#1408=ORIENTED_EDGE('',*,*,#1373,.T.);
#1409=ORIENTED_EDGE('',*,*,#1392,.T.);
#1410=EDGE_LOOP('',(#1406,#1407,#1408,#1409));
#1411=FACE_OUTER_BOUND('',#1410,.F.);
#1412=ADVANCED_FACE('',(#1411),#1405,.T.);
#1413=CARTESIAN_POINT('',(-1.25E2,0.E0,-5.E1));
#1414=DIRECTION('',(0.E0,-1.E0,0.E0));
#1415=DIRECTION('',(1.E0,0.E0,0.E0));
#1416=AXIS2_PLACEMENT_3D('',#1413,#1414,#1415);
#1417=CYLINDRICAL_SURFACE('',#1416,3.5E0);
#1418=ORIENTED_EDGE('',*,*,#1328,.F.);
#1420=ORIENTED_EDGE('',*,*,#1419,.F.);
#1421=ORIENTED_EDGE('',*,*,#1379,.F.);
#1423=ORIENTED_EDGE('',*,*,#1422,.T.);
#1424=EDGE_LOOP('',(#1418,#1420,#1421,#1423));
#1425=FACE_OUTER_BOUND('',#1424,.F.);
#1426=ADVANCED_FACE('',(#1425),#1417,.F.);
#1427=CARTESIAN_POINT('',(-1.25E2,0.E0,-5.E1));
#1428=DIRECTION('',(0.E0,-1.E0,0.E0));
#1429=DIRECTION('',(1.E0,0.E0,0.E0));
#1430=AXIS2_PLACEMENT_3D('',#1427,#1428,#1429);
#1431=CYLINDRICAL_SURFACE('',#1430,3.5E0);
#1432=ORIENTED_EDGE('',*,*,#1330,.F.);
#1433=ORIENTED_EDGE('',*,*,#1422,.F.);
#1434=ORIENTED_EDGE('',*,*,#1381,.F.);
#1435=ORIENTED_EDGE('',*,*,#1419,.T.);
#1436=EDGE_LOOP('',(#1432,#1433,#1434,#1435));
#1437=FACE_OUTER_BOUND('',#1436,.F.);
#1438=ADVANCED_FACE('',(#1437),#1431,.F.);
#1439=CARTESIAN_POINT('',(-3.75E1,2.5E2,-5.79E1));
#1440=DIRECTION('',(1.E0,0.E0,0.E0));
#1441=DIRECTION('',(0.E0,0.E0,-1.E0));
#1442=AXIS2_PLACEMENT_3D('',#1439,#1440,#1441);
#1443=PLANE('',#1442);
#1444=ORIENTED_EDGE('',*,*,#1222,.F.);
#1445=ORIENTED_EDGE('',*,*,#1241,.F.);
#1447=ORIENTED_EDGE('',*,*,#1446,.F.);
#1449=ORIENTED_EDGE('',*,*,#1448,.T.);
#1450=ORIENTED_EDGE('',*,*,#1279,.F.);
#1452=ORIENTED_EDGE('',*,*,#1451,.F.);
#1453=EDGE_LOOP('',(#1444,#1445,#1447,#1449,#1450,#1452));
#1454=FACE_OUTER_BOUND('',#1453,.F.);
#1455=ADVANCED_FACE('',(#1454),#1443,.T.);
#1456=CARTESIAN_POINT('',(0.E0,2.6E2,0.E0));
#1457=DIRECTION('',(0.E0,1.E0,0.E0));
#1458=DIRECTION('',(1.E0,0.E0,0.E0));
#1459=AXIS2_PLACEMENT_3D('',#1456,#1457,#1458);
#1460=PLANE('',#1459);
#1461=ORIENTED_EDGE('',*,*,#1239,.T.);
#1462=ORIENTED_EDGE('',*,*,#1255,.T.);
#1464=ORIENTED_EDGE('',*,*,#1463,.T.);
#1465=ORIENTED_EDGE('',*,*,#1446,.T.);
#1466=EDGE_LOOP('',(#1461,#1462,#1464,#1465));
#1467=FACE_OUTER_BOUND('',#1466,.F.);
#1468=ADVANCED_FACE('',(#1467),#1460,.T.);
#1469=CARTESIAN_POINT('',(-3.75E1,2.5E2,-6.79E1));
#1470=DIRECTION('',(0.E0,0.E0,-1.E0));
#1471=DIRECTION('',(-1.E0,0.E0,0.E0));
#1472=AXIS2_PLACEMENT_3D('',#1469,#1470,#1471);
#1473=PLANE('',#1472);
#1474=ORIENTED_EDGE('',*,*,#1281,.T.);
#1475=ORIENTED_EDGE('',*,*,#1448,.F.);
#1476=ORIENTED_EDGE('',*,*,#1463,.F.);
#1477=ORIENTED_EDGE('',*,*,#1253,.T.);
#1478=EDGE_LOOP('',(#1474,#1475,#1476,#1477));
#1479=FACE_OUTER_BOUND('',#1478,.F.);
#1480=ADVANCED_FACE('',(#1479),#1473,.T.);
#1481=CARTESIAN_POINT('',(-6.25E1,2.5E2,-5.79E1));
#1482=DIRECTION('',(0.E0,0.E0,1.E0));
#1483=DIRECTION('',(1.E0,0.E0,0.E0));
#1484=AXIS2_PLACEMENT_3D('',#1481,#1482,#1483);
#1485=PLANE('',#1484);
#1486=ORIENTED_EDGE('',*,*,#1284,.T.);
#1487=ORIENTED_EDGE('',*,*,#1259,.F.);
#1488=ORIENTED_EDGE('',*,*,#1224,.F.);
#1489=ORIENTED_EDGE('',*,*,#1451,.T.);
#1490=EDGE_LOOP('',(#1486,#1487,#1488,#1489));
#1491=FACE_OUTER_BOUND('',#1490,.F.);
#1492=ADVANCED_FACE('',(#1491),#1485,.T.);
#1493=CARTESIAN_POINT('',(-6.25E1,2.5E2,-4.25E1));
#1494=DIRECTION('',(-1.E0,0.E0,0.E0));
#1495=DIRECTION('',(0.E0,0.E0,1.E0));
#1496=AXIS2_PLACEMENT_3D('',#1493,#1494,#1495);
#1497=PLANE('',#1496);
#1499=ORIENTED_EDGE('',*,*,#1498,.F.);
#1501=ORIENTED_EDGE('',*,*,#1500,.F.);
#1503=ORIENTED_EDGE('',*,*,#1502,.F.);
#1505=ORIENTED_EDGE('',*,*,#1504,.T.);
#1506=ORIENTED_EDGE('',*,*,#1288,.F.);
#1508=ORIENTED_EDGE('',*,*,#1507,.F.);
#1509=EDGE_LOOP('',(#1499,#1501,#1503,#1505,#1506,#1508));
#1510=FACE_OUTER_BOUND('',#1509,.F.);
#1511=ADVANCED_FACE('',(#1510),#1497,.T.);
#1512=CARTESIAN_POINT('',(0.E0,2.55E2,0.E0));
#1513=DIRECTION('',(0.E0,1.E0,0.E0));
#1514=DIRECTION('',(1.E0,0.E0,0.E0));
#1515=AXIS2_PLACEMENT_3D('',#1512,#1513,#1514);
#1516=PLANE('',#1515);
#1518=ORIENTED_EDGE('',*,*,#1517,.T.);
#1519=ORIENTED_EDGE('',*,*,#1498,.T.);
#1521=ORIENTED_EDGE('',*,*,#1520,.T.);
#1523=ORIENTED_EDGE('',*,*,#1522,.T.);
#1524=EDGE_LOOP('',(#1518,#1519,#1521,#1523));
#1525=FACE_OUTER_BOUND('',#1524,.F.);
#1526=ADVANCED_FACE('',(#1525),#1516,.T.);
#1527=CARTESIAN_POINT('',(-3.75E1,2.5E2,-3.75E1));
#1528=DIRECTION('',(0.E0,0.E0,-1.E0));
#1529=DIRECTION('',(-1.E0,0.E0,0.E0));
#1530=AXIS2_PLACEMENT_3D('',#1527,#1528,#1529);
#1531=PLANE('',#1530);
#1532=ORIENTED_EDGE('',*,*,#1517,.F.);
#1534=ORIENTED_EDGE('',*,*,#1533,.F.);
#1536=ORIENTED_EDGE('',*,*,#1535,.F.);
#1537=ORIENTED_EDGE('',*,*,#1500,.T.);
#1538=EDGE_LOOP('',(#1532,#1534,#1536,#1537));
#1539=FACE_OUTER_BOUND('',#1538,.F.);
#1540=ADVANCED_FACE('',(#1539),#1531,.T.);
#1541=CARTESIAN_POINT('',(-3.75E1,2.5E2,-3.75E1));
#1542=DIRECTION('',(1.E0,0.E0,0.E0));
#1543=DIRECTION('',(0.E0,0.E0,-1.E0));
#1544=AXIS2_PLACEMENT_3D('',#1541,#1542,#1543);
#1545=PLANE('',#1544);
#1546=ORIENTED_EDGE('',*,*,#1292,.F.);
#1548=ORIENTED_EDGE('',*,*,#1547,.F.);
#1550=ORIENTED_EDGE('',*,*,#1549,.F.);
#1551=ORIENTED_EDGE('',*,*,#1533,.T.);
#1552=ORIENTED_EDGE('',*,*,#1522,.F.);
#1554=ORIENTED_EDGE('',*,*,#1553,.T.);
#1555=EDGE_LOOP('',(#1546,#1548,#1550,#1551,#1552,#1554));
#1556=FACE_OUTER_BOUND('',#1555,.F.);
#1557=ADVANCED_FACE('',(#1556),#1545,.T.);
#1558=CARTESIAN_POINT('',(-6.25E1,2.5E2,-3.25E1));
#1559=DIRECTION('',(0.E0,0.E0,1.E0));
#1560=DIRECTION('',(1.E0,0.E0,0.E0));
#1561=AXIS2_PLACEMENT_3D('',#1558,#1559,#1560);
#1562=PLANE('',#1561);
#1563=ORIENTED_EDGE('',*,*,#1290,.T.);
#1564=ORIENTED_EDGE('',*,*,#1504,.F.);
#1566=ORIENTED_EDGE('',*,*,#1565,.F.);
#1567=ORIENTED_EDGE('',*,*,#1547,.T.);
#1568=EDGE_LOOP('',(#1563,#1564,#1566,#1567));
#1569=FACE_OUTER_BOUND('',#1568,.F.);
#1570=ADVANCED_FACE('',(#1569),#1562,.T.);
#1571=CARTESIAN_POINT('',(0.E0,2.6E2,0.E0));
#1572=DIRECTION('',(0.E0,1.E0,0.E0));
#1573=DIRECTION('',(1.E0,0.E0,0.E0));
#1574=AXIS2_PLACEMENT_3D('',#1571,#1572,#1573);
#1575=PLANE('',#1574);
#1576=ORIENTED_EDGE('',*,*,#1502,.T.);
#1577=ORIENTED_EDGE('',*,*,#1535,.T.);
#1578=ORIENTED_EDGE('',*,*,#1549,.T.);
#1579=ORIENTED_EDGE('',*,*,#1565,.T.);
#1580=EDGE_LOOP('',(#1576,#1577,#1578,#1579));
#1581=FACE_OUTER_BOUND('',#1580,.F.);
#1582=ADVANCED_FACE('',(#1581),#1575,.T.);
#1583=CARTESIAN_POINT('',(-3.75E1,2.5E2,-4.25E1));
#1584=DIRECTION('',(0.E0,0.E0,-1.E0));
#1585=DIRECTION('',(-1.E0,0.E0,0.E0));
#1586=AXIS2_PLACEMENT_3D('',#1583,#1584,#1585);
#1587=PLANE('',#1586);
#1588=ORIENTED_EDGE('',*,*,#1294,.T.);
#1589=ORIENTED_EDGE('',*,*,#1553,.F.);
#1590=ORIENTED_EDGE('',*,*,#1520,.F.);
#1591=ORIENTED_EDGE('',*,*,#1507,.T.);
#1592=EDGE_LOOP('',(#1588,#1589,#1590,#1591));
#1593=FACE_OUTER_BOUND('',#1592,.F.);
#1594=ADVANCED_FACE('',(#1593),#1587,.T.);
#1596=DIRECTION('',(0.E0,0.E0,1.E0));
#1597=VECTOR('',#1596,8.E1);
#1598=CARTESIAN_POINT('',(-1.E1,2.E1,-9.E1));
#1599=LINE('',#1598,#1597);
#1600=DIRECTION('',(0.E0,-1.E0,0.E0));
#1601=VECTOR('',#1600,2.1E2);
#1602=CARTESIAN_POINT('',(-1.E1,2.3E2,-9.E1));
#1603=LINE('',#1602,#1601);
#1604=DIRECTION('',(1.E0,0.E0,0.E0));
#1605=VECTOR('',#1604,8.E1);
#1606=CARTESIAN_POINT('',(-9.E1,2.E1,-9.E1));
#1607=LINE('',#1606,#1605);
#1608=DIRECTION('',(0.E0,-1.E0,0.E0));
#1609=VECTOR('',#1608,2.1E2);
#1610=CARTESIAN_POINT('',(-9.E1,2.3E2,-9.E1));
#1611=LINE('',#1610,#1609);
#1612=DIRECTION('',(1.E0,0.E0,0.E0));
#1613=VECTOR('',#1612,8.E1);
#1614=CARTESIAN_POINT('',(-9.E1,2.3E2,-9.E1));
#1615=LINE('',#1614,#1613);
#1616=DIRECTION('',(0.E0,0.E0,1.E0));
#1617=VECTOR('',#1616,8.E1);
#1618=CARTESIAN_POINT('',(-1.E1,2.3E2,-9.E1));
#1619=LINE('',#1618,#1617);
#1620=DIRECTION('',(-1.E0,0.E0,0.E0));
#1621=VECTOR('',#1620,8.E1);
#1622=CARTESIAN_POINT('',(-1.E1,2.3E2,-1.E1));
#1623=LINE('',#1622,#1621);
#1624=DIRECTION('',(0.E0,0.E0,-1.E0));
#1625=VECTOR('',#1624,8.E1);
#1626=CARTESIAN_POINT('',(-9.E1,2.3E2,-1.E1));
#1627=LINE('',#1626,#1625);
#1628=DIRECTION('',(-1.E0,0.E0,0.E0));
#1629=VECTOR('',#1628,8.E1);
#1630=CARTESIAN_POINT('',(-1.E1,2.E1,-1.E1));
#1631=LINE('',#1630,#1629);
#1632=DIRECTION('',(0.E0,-1.E0,0.E0));
#1633=VECTOR('',#1632,2.1E2);
#1634=CARTESIAN_POINT('',(-1.E1,2.3E2,-1.E1));
#1635=LINE('',#1634,#1633);
#1636=DIRECTION('',(0.E0,0.E0,-1.E0));
#1637=VECTOR('',#1636,8.E1);
#1638=CARTESIAN_POINT('',(-9.E1,2.E1,-1.E1));
#1639=LINE('',#1638,#1637);
#1640=DIRECTION('',(0.E0,-1.E0,0.E0));
#1641=VECTOR('',#1640,2.1E2);
#1642=CARTESIAN_POINT('',(-9.E1,2.3E2,-1.E1));
#1643=LINE('',#1642,#1641);
#1644=CARTESIAN_POINT('',(-1.E1,2.E1,-9.E1));
#1645=CARTESIAN_POINT('',(-1.E1,2.E1,-1.E1));
#1646=VERTEX_POINT('',#1644);
#1647=VERTEX_POINT('',#1645);
#1648=CARTESIAN_POINT('',(-1.E1,2.3E2,-1.E1));
#1649=VERTEX_POINT('',#1648);
#1650=CARTESIAN_POINT('',(-1.E1,2.3E2,-9.E1));
#1651=VERTEX_POINT('',#1650);
#1652=CARTESIAN_POINT('',(-9.E1,2.E1,-9.E1));
#1653=VERTEX_POINT('',#1652);
#1654=CARTESIAN_POINT('',(-9.E1,2.E1,-1.E1));
#1655=VERTEX_POINT('',#1654);
#1656=CARTESIAN_POINT('',(-9.E1,2.3E2,-9.E1));
#1657=VERTEX_POINT('',#1656);
#1658=CARTESIAN_POINT('',(-9.E1,2.3E2,-1.E1));
#1659=VERTEX_POINT('',#1658);
#1660=CARTESIAN_POINT('',(-1.E1,2.E1,-1.E1));
#1661=DIRECTION('',(1.E0,0.E0,0.E0));
#1662=DIRECTION('',(0.E0,0.E0,-1.E0));
#1663=AXIS2_PLACEMENT_3D('',#1660,#1661,#1662);
#1664=PLANE('',#1663);
#1666=ORIENTED_EDGE('',*,*,#1665,.T.);
#1668=ORIENTED_EDGE('',*,*,#1667,.F.);
#1670=ORIENTED_EDGE('',*,*,#1669,.F.);
#1672=ORIENTED_EDGE('',*,*,#1671,.T.);
#1673=EDGE_LOOP('',(#1666,#1668,#1670,#1672));
#1674=FACE_OUTER_BOUND('',#1673,.F.);
#1675=ADVANCED_FACE('',(#1674),#1664,.T.);
#1676=CARTESIAN_POINT('',(0.E0,2.E1,0.E0));
#1677=DIRECTION('',(0.E0,1.E0,0.E0));
#1678=DIRECTION('',(1.E0,0.E0,0.E0));
#1679=AXIS2_PLACEMENT_3D('',#1676,#1677,#1678);
#1680=PLANE('',#1679);
#1682=ORIENTED_EDGE('',*,*,#1681,.F.);
#1684=ORIENTED_EDGE('',*,*,#1683,.F.);
#1686=ORIENTED_EDGE('',*,*,#1685,.F.);
#1687=ORIENTED_EDGE('',*,*,#1665,.F.);
#1688=EDGE_LOOP('',(#1682,#1684,#1686,#1687));
#1689=FACE_OUTER_BOUND('',#1688,.F.);
#1690=ADVANCED_FACE('',(#1689),#1680,.F.);
#1691=CARTESIAN_POINT('',(-1.E1,2.E1,-9.E1));
#1692=DIRECTION('',(0.E0,0.E0,-1.E0));
#1693=DIRECTION('',(-1.E0,0.E0,0.E0));
#1694=AXIS2_PLACEMENT_3D('',#1691,#1692,#1693);
#1695=PLANE('',#1694);
#1696=ORIENTED_EDGE('',*,*,#1681,.T.);
#1697=ORIENTED_EDGE('',*,*,#1671,.F.);
#1699=ORIENTED_EDGE('',*,*,#1698,.F.);
#1701=ORIENTED_EDGE('',*,*,#1700,.T.);
#1702=EDGE_LOOP('',(#1696,#1697,#1699,#1701));
#1703=FACE_OUTER_BOUND('',#1702,.F.);
#1704=ADVANCED_FACE('',(#1703),#1695,.T.);
#1705=CARTESIAN_POINT('',(0.E0,2.3E2,0.E0));
#1706=DIRECTION('',(0.E0,1.E0,0.E0));
#1707=DIRECTION('',(1.E0,0.E0,0.E0));
#1708=AXIS2_PLACEMENT_3D('',#1705,#1706,#1707);
#1709=PLANE('',#1708);
#1710=ORIENTED_EDGE('',*,*,#1698,.T.);
#1711=ORIENTED_EDGE('',*,*,#1669,.T.);
#1713=ORIENTED_EDGE('',*,*,#1712,.T.);
#1715=ORIENTED_EDGE('',*,*,#1714,.T.);
#1716=EDGE_LOOP('',(#1710,#1711,#1713,#1715));
#1717=FACE_OUTER_BOUND('',#1716,.F.);
#1718=ADVANCED_FACE('',(#1717),#1709,.T.);
#1719=CARTESIAN_POINT('',(-9.E1,2.E1,-1.E1));
#1720=DIRECTION('',(0.E0,0.E0,1.E0));
#1721=DIRECTION('',(1.E0,0.E0,0.E0));
#1722=AXIS2_PLACEMENT_3D('',#1719,#1720,#1721);
#1723=PLANE('',#1722);
#1724=ORIENTED_EDGE('',*,*,#1685,.T.);
#1726=ORIENTED_EDGE('',*,*,#1725,.F.);
#1727=ORIENTED_EDGE('',*,*,#1712,.F.);
#1728=ORIENTED_EDGE('',*,*,#1667,.T.);
#1729=EDGE_LOOP('',(#1724,#1726,#1727,#1728));
#1730=FACE_OUTER_BOUND('',#1729,.F.);
#1731=ADVANCED_FACE('',(#1730),#1723,.T.);
#1732=CARTESIAN_POINT('',(-9.E1,2.E1,-9.E1));
#1733=DIRECTION('',(-1.E0,0.E0,0.E0));
#1734=DIRECTION('',(0.E0,0.E0,1.E0));
#1735=AXIS2_PLACEMENT_3D('',#1732,#1733,#1734);
#1736=PLANE('',#1735);
#1737=ORIENTED_EDGE('',*,*,#1683,.T.);
#1738=ORIENTED_EDGE('',*,*,#1700,.F.);
#1739=ORIENTED_EDGE('',*,*,#1714,.F.);
#1740=ORIENTED_EDGE('',*,*,#1725,.T.);
#1741=EDGE_LOOP('',(#1737,#1738,#1739,#1740));
#1742=FACE_OUTER_BOUND('',#1741,.F.);
#1743=ADVANCED_FACE('',(#1742),#1736,.T.);
#1745=ORIENTED_CLOSED_SHELL('',*,#1744,.F.);
#1748=DIMENSIONAL_EXPONENTS(0.E0,0.E0,0.E0,0.E0,0.E0,0.E0,0.E0);
#1750=PLANE_ANGLE_MEASURE_WITH_UNIT(PLANE_ANGLE_MEASURE(1.745329251994E-2),
#1749);
#1751=(CONVERSION_BASED_UNIT('DEGREE',#1750)NAMED_UNIT(*)PLANE_ANGLE_UNIT());
#1753=UNCERTAINTY_MEASURE_WITH_UNIT(LENGTH_MEASURE(3.163731849575E-2),#1747,
'closure',
'Maximum model space distance between geometric entities at asserted connectivities');
#1754=(GEOMETRIC_REPRESENTATION_CONTEXT(3)GLOBAL_UNCERTAINTY_ASSIGNED_CONTEXT((
#1753))GLOBAL_UNIT_ASSIGNED_CONTEXT((#1747,#1751,#1752))REPRESENTATION_CONTEXT(
'ID2','3'));
#1755=CARTESIAN_POINT('',(0.E0,0.E0,0.E0));
#1756=DIRECTION('',(0.E0,0.E0,1.E0));
#1757=DIRECTION('',(1.E0,0.E0,0.E0));
#1760=MECHANICAL_CONTEXT('',#870,'mechanical');
#1761=PRODUCT('HOLDER25','HOLDER25','NOT SPECIFIED',(#1760));
#1762=PRODUCT_DEFINITION_FORMATION_WITH_SPECIFIED_SOURCE('1','LAST_VERSION',
#1761,.MADE.);
#1768=CARTESIAN_POINT('',(3.15E2,0.E0,0.E0));
#1769=DIRECTION('',(0.E0,0.E0,1.E0));
#1770=DIRECTION('',(1.E0,0.E0,0.E0));
#1771=AXIS2_PLACEMENT_3D('',#1768,#1769,#1770);
#1772=ITEM_DEFINED_TRANSFORMATION('','',#1758,#1771);
#1773=(REPRESENTATION_RELATIONSHIP('','',#1759,#881)REPRESENTATION_RELATIONSHIP_WITH_TRANSFORMATION(#1772)SHAPE_REPRESENTATION_RELATIONSHIP());
#1774=CONTEXT_DEPENDENT_SHAPE_REPRESENTATION(#1773,#1767);
#1776=DIMENSIONAL_EXPONENTS(0.E0,0.E0,0.E0,0.E0,0.E0,0.E0,0.E0);
#1778=PLANE_ANGLE_MEASURE_WITH_UNIT(PLANE_ANGLE_MEASURE(1.745329251994E-2),
#1777);
#1779=(CONVERSION_BASED_UNIT('DEGREE',#1778)NAMED_UNIT(*)PLANE_ANGLE_UNIT());
#1781=UNCERTAINTY_MEASURE_WITH_UNIT(LENGTH_MEASURE(1.E-2),#1775,'closure',
'Maximum model space distance between geometric entities at asserted connectivities');
#1782=(GEOMETRIC_REPRESENTATION_CONTEXT(3)GLOBAL_UNCERTAINTY_ASSIGNED_CONTEXT((
#1781))GLOBAL_UNIT_ASSIGNED_CONTEXT((#1775,#1779,#1780))REPRESENTATION_CONTEXT(
'ID3','3'));
#1783=CARTESIAN_POINT('',(0.E0,0.E0,0.E0));
#1784=DIRECTION('',(0.E0,0.E0,1.E0));
#1785=DIRECTION('',(1.E0,0.E0,0.E0));
#1787=DESIGN_CONTEXT('',#870,'design');
#1788=MECHANICAL_CONTEXT('',#870,'mechanical');
#1789=PRODUCT('HOLDER_ASM','HOLDER_ASM','NOT SPECIFIED',(#1788));
#1790=PRODUCT_DEFINITION_FORMATION_WITH_SPECIFIED_SOURCE('1','LAST_VERSION',
#1789,.MADE.);
#1792=PRODUCT_CATEGORY('part','');
#1793=PRODUCT_RELATED_PRODUCT_CATEGORY('assembly','',(#1789));
#1794=PRODUCT_CATEGORY_RELATIONSHIP('','',#1792,#1793);
#1795=PRODUCT_CATEGORY('part','');
#1796=PRODUCT_RELATED_PRODUCT_CATEGORY('detail','',(#874,#1761));
#1797=PRODUCT_CATEGORY_RELATIONSHIP('','',#1795,#1796);
#1798=SECURITY_CLASSIFICATION_LEVEL('unclassified');
#1799=SECURITY_CLASSIFICATION('','',#1798);
#1800=CC_DESIGN_SECURITY_CLASSIFICATION(#1799,(#875,#1762,#1790,#882,#1766));
#1801=APPROVAL_STATUS('approved');
#1802=APPROVAL(#1801,'');
#1803=CC_DESIGN_APPROVAL(#1802,(#1799,#875,#1762,#1790,#876,#1763,#1791));
#1804=CALENDAR_DATE(126,14,4);
#1805=COORDINATED_UNIVERSAL_TIME_OFFSET(9,0,.AHEAD.);
#1806=LOCAL_TIME(15,2,4.5E1,#1805);
#1807=DATE_AND_TIME(#1804,#1806);
#1808=APPROVAL_DATE_TIME(#1807,#1802);
#1809=DATE_TIME_ROLE('creation_date');
#1810=CC_DESIGN_DATE_AND_TIME_ASSIGNMENT(#1807,#1809,(#876,#1763,#1791));
#1811=DATE_TIME_ROLE('classification_date');
#1812=CC_DESIGN_DATE_AND_TIME_ASSIGNMENT(#1807,#1811,(#1799));
#1813=PERSON('UNSPECIFIED','UNSPECIFIED',$,$,$,$);
#1814=ORGANIZATION('UNSPECIFIED','UNSPECIFIED','UNSPECIFIED');
#1815=PERSON_AND_ORGANIZATION(#1813,#1814);
#1816=APPROVAL_ROLE('approver');
#1817=APPROVAL_PERSON_ORGANIZATION(#1815,#1802,#1816);
#1818=PERSON_AND_ORGANIZATION_ROLE('creator');
#1819=CC_DESIGN_PERSON_AND_ORGANIZATION_ASSIGNMENT(#1815,#1818,(#875,#1762,
#1790,#876,#1763,#1791));
#1820=PERSON_AND_ORGANIZATION_ROLE('design_supplier');
#1821=CC_DESIGN_PERSON_AND_ORGANIZATION_ASSIGNMENT(#1815,#1820,(#875,#1762,
#1790));
#1822=PERSON_AND_ORGANIZATION_ROLE('classification_officer');
#1823=CC_DESIGN_PERSON_AND_ORGANIZATION_ASSIGNMENT(#1815,#1822,(#1799));
#1824=PERSON_AND_ORGANIZATION_ROLE('design_owner');
#1825=CC_DESIGN_PERSON_AND_ORGANIZATION_ASSIGNMENT(#1815,#1824,(#1789,#874,
#1761));
#85=CIRCLE('',#84,3.5E0);
#90=CIRCLE('',#89,3.5E0);
#115=CIRCLE('',#114,3.5E0);
#120=CIRCLE('',#119,3.5E0);
#330=EDGE_CURVE('',#303,#310,#16,.T.);
#332=EDGE_CURVE('',#303,#304,#4,.T.);
#334=EDGE_CURVE('',#304,#312,#8,.T.);
#336=EDGE_CURVE('',#312,#310,#12,.T.);
#347=EDGE_CURVE('',#318,#310,#24,.T.);
#349=EDGE_CURVE('',#306,#318,#152,.T.);
#351=EDGE_CURVE('',#306,#303,#20,.T.);
#361=EDGE_CURVE('',#270,#272,#52,.T.);
#363=EDGE_CURVE('',#320,#270,#172,.T.);
#365=EDGE_CURVE('',#318,#320,#156,.T.);
#369=EDGE_CURVE('',#312,#272,#28,.T.);
#379=EDGE_CURVE('',#259,#260,#32,.T.);
#381=EDGE_CURVE('',#260,#262,#36,.T.);
#383=EDGE_CURVE('',#262,#264,#40,.T.);
#385=EDGE_CURVE('',#264,#259,#44,.T.);
#389=EDGE_CURVE('',#267,#268,#48,.T.);
#391=EDGE_CURVE('',#270,#268,#168,.T.);
#394=EDGE_CURVE('',#267,#272,#176,.T.);
#398=EDGE_CURVE('',#275,#276,#56,.T.);
#400=EDGE_CURVE('',#247,#276,#216,.T.);
#402=EDGE_CURVE('',#247,#248,#60,.T.);
#404=EDGE_CURVE('',#275,#248,#240,.T.);
#414=EDGE_CURVE('',#279,#280,#64,.T.);
#416=EDGE_CURVE('',#260,#280,#128,.T.);
#419=EDGE_CURVE('',#259,#279,#68,.T.);
#429=EDGE_CURVE('',#279,#282,#72,.T.);
#431=EDGE_CURVE('',#282,#284,#76,.T.);
#433=EDGE_CURVE('',#284,#280,#80,.T.);
#438=EDGE_CURVE('',#287,#288,#85,.T.);
#440=EDGE_CURVE('',#288,#287,#90,.T.);
#450=EDGE_CURVE('',#264,#300,#94,.T.);
#452=EDGE_CURVE('',#300,#298,#98,.T.);
#454=EDGE_CURVE('',#298,#282,#102,.T.);
#467=EDGE_CURVE('',#296,#300,#106,.T.);
#471=EDGE_CURVE('',#262,#296,#110,.T.);
#481=EDGE_CURVE('',#295,#296,#124,.T.);
#483=EDGE_CURVE('',#298,#295,#132,.T.);
#489=EDGE_CURVE('',#292,#290,#115,.T.);
#491=EDGE_CURVE('',#290,#292,#120,.T.);
#502=EDGE_CURVE('',#295,#284,#136,.T.);
#529=EDGE_CURVE('',#290,#287,#144,.T.);
#532=EDGE_CURVE('',#292,#288,#140,.T.);
#556=EDGE_CURVE('',#308,#306,#164,.T.);
#558=EDGE_CURVE('',#308,#268,#148,.T.);
#561=EDGE_CURVE('',#304,#267,#180,.T.);
#573=EDGE_CURVE('',#320,#308,#160,.T.);
#608=EDGE_CURVE('',#314,#316,#192,.T.);
#610=EDGE_CURVE('',#324,#314,#204,.T.);
#612=EDGE_CURVE('',#323,#324,#224,.T.);
#614=EDGE_CURVE('',#323,#276,#184,.T.);
#617=EDGE_CURVE('',#316,#275,#244,.T.);
#627=EDGE_CURVE('',#254,#314,#188,.T.);
#630=EDGE_CURVE('',#316,#256,#196,.T.);
#632=EDGE_CURVE('',#256,#254,#200,.T.);
#643=EDGE_CURVE('',#252,#254,#208,.T.);
#645=EDGE_CURVE('',#324,#252,#228,.T.);
#657=EDGE_CURVE('',#250,#247,#220,.T.);
#659=EDGE_CURVE('',#252,#250,#232,.T.);
#663=EDGE_CURVE('',#256,#248,#212,.T.);
#675=EDGE_CURVE('',#250,#323,#236,.T.);
#705=CLOSED_SHELL('',(#340,#355,#373,#408,#423,#444,#461,#475,#495,#510,#522,
#536,#548,#565,#578,#590,#602,#621,#636,#650,#667,#680,#692,#704));
#775=EDGE_CURVE('',#756,#757,#709,.T.);
#777=EDGE_CURVE('',#759,#757,#745,.T.);
#779=EDGE_CURVE('',#761,#759,#729,.T.);
#781=EDGE_CURVE('',#761,#756,#713,.T.);
#791=EDGE_CURVE('',#763,#756,#717,.T.);
#793=EDGE_CURVE('',#765,#763,#749,.T.);
#795=EDGE_CURVE('',#757,#765,#741,.T.);
#808=EDGE_CURVE('',#767,#761,#725,.T.);
#810=EDGE_CURVE('',#767,#763,#721,.T.);
#822=EDGE_CURVE('',#759,#769,#733,.T.);
#824=EDGE_CURVE('',#769,#767,#737,.T.);
#835=EDGE_CURVE('',#769,#765,#753,.T.);
#854=CLOSED_SHELL('',(#785,#800,#814,#828,#841,#853));
#856=BREP_WITH_VOIDS('',#705,(#855));
#857=(LENGTH_UNIT()NAMED_UNIT(*)SI_UNIT(.MILLI.,.METRE.));
#859=(NAMED_UNIT(*)PLANE_ANGLE_UNIT()SI_UNIT($,.RADIAN.));
#862=(NAMED_UNIT(*)SI_UNIT($,.STERADIAN.)SOLID_ANGLE_UNIT());
#868=AXIS2_PLACEMENT_3D('',#865,#866,#867);
#869=ADVANCED_BREP_SHAPE_REPRESENTATION('',(#868,#856),#864);
#876=PRODUCT_DEFINITION('design','',#875,#872);
#877=PRODUCT_DEFINITION_SHAPE('','SHAPE FOR PRT0002.',#876);
#878=SHAPE_DEFINITION_REPRESENTATION(#877,#869);
#879=SHAPE_DEFINITION_REPRESENTATION(#880,#881);
#880=PRODUCT_DEFINITION_SHAPE('','SHAPE FOR HOLDER_ASM.',#1791);
#881=SHAPE_REPRESENTATION('',(#887,#1771,#1786),#1782);
#882=NEXT_ASSEMBLY_USAGE_OCCURRENCE('0','Next assembly relationship','PRT0002',
#1791,#876,$);
#883=PRODUCT_DEFINITION_SHAPE('Placement #0',
'Placement of PRT0002 with respect to HOLDER_ASM',#882);
#975=CIRCLE('',#974,3.5E0);
#980=CIRCLE('',#979,3.5E0);
#1005=CIRCLE('',#1004,3.5E0);
#1010=CIRCLE('',#1009,3.5E0);
#1220=EDGE_CURVE('',#1193,#1144,#906,.T.);
#1222=EDGE_CURVE('',#1193,#1194,#894,.T.);
#1224=EDGE_CURVE('',#1194,#1146,#898,.T.);
#1226=EDGE_CURVE('',#1146,#1144,#902,.T.);
#1237=EDGE_CURVE('',#1142,#1144,#914,.T.);
#1239=EDGE_CURVE('',#1196,#1142,#1042,.T.);
#1241=EDGE_CURVE('',#1196,#1193,#910,.T.);
#1251=EDGE_CURVE('',#1137,#1138,#942,.T.);
#1253=EDGE_CURVE('',#1140,#1137,#1062,.T.);
#1255=EDGE_CURVE('',#1142,#1140,#1046,.T.);
#1259=EDGE_CURVE('',#1146,#1138,#918,.T.);
#1269=EDGE_CURVE('',#1149,#1150,#922,.T.);
#1271=EDGE_CURVE('',#1150,#1152,#926,.T.);
#1273=EDGE_CURVE('',#1152,#1154,#930,.T.);
#1275=EDGE_CURVE('',#1154,#1149,#934,.T.);
#1279=EDGE_CURVE('',#1157,#1158,#938,.T.);
#1281=EDGE_CURVE('',#1137,#1158,#1058,.T.);
#1284=EDGE_CURVE('',#1157,#1138,#1066,.T.);
#1288=EDGE_CURVE('',#1161,#1162,#946,.T.);
#1290=EDGE_CURVE('',#1164,#1162,#1106,.T.);
#1292=EDGE_CURVE('',#1164,#1166,#950,.T.);
#1294=EDGE_CURVE('',#1161,#1166,#1130,.T.);
#1304=EDGE_CURVE('',#1169,#1170,#954,.T.);
#1306=EDGE_CURVE('',#1150,#1170,#1018,.T.);
#1309=EDGE_CURVE('',#1149,#1169,#958,.T.);
#1319=EDGE_CURVE('',#1169,#1172,#962,.T.);
#1321=EDGE_CURVE('',#1172,#1174,#966,.T.);
#1323=EDGE_CURVE('',#1174,#1170,#970,.T.);
#1328=EDGE_CURVE('',#1177,#1178,#975,.T.);
#1330=EDGE_CURVE('',#1178,#1177,#980,.T.);
#1340=EDGE_CURVE('',#1154,#1190,#984,.T.);
#1342=EDGE_CURVE('',#1190,#1188,#988,.T.);
#1344=EDGE_CURVE('',#1188,#1172,#992,.T.);
#1357=EDGE_CURVE('',#1186,#1190,#996,.T.);
#1361=EDGE_CURVE('',#1152,#1186,#1000,.T.);
#1371=EDGE_CURVE('',#1185,#1186,#1014,.T.);
#1373=EDGE_CURVE('',#1188,#1185,#1022,.T.);
#1379=EDGE_CURVE('',#1182,#1180,#1005,.T.);
#1381=EDGE_CURVE('',#1180,#1182,#1010,.T.);
#1392=EDGE_CURVE('',#1185,#1174,#1026,.T.);
#1419=EDGE_CURVE('',#1180,#1177,#1034,.T.);
#1422=EDGE_CURVE('',#1182,#1178,#1030,.T.);
#1446=EDGE_CURVE('',#1198,#1196,#1054,.T.);
#1448=EDGE_CURVE('',#1198,#1158,#1038,.T.);
#1451=EDGE_CURVE('',#1194,#1157,#1070,.T.);
#1463=EDGE_CURVE('',#1140,#1198,#1050,.T.);
#1498=EDGE_CURVE('',#1202,#1204,#1082,.T.);
#1500=EDGE_CURVE('',#1210,#1202,#1094,.T.);
#1502=EDGE_CURVE('',#1209,#1210,#1114,.T.);
#1504=EDGE_CURVE('',#1209,#1162,#1074,.T.);
#1507=EDGE_CURVE('',#1204,#1161,#1134,.T.);
#1517=EDGE_CURVE('',#1201,#1202,#1078,.T.);
#1520=EDGE_CURVE('',#1204,#1206,#1086,.T.);
#1522=EDGE_CURVE('',#1206,#1201,#1090,.T.);
#1533=EDGE_CURVE('',#1212,#1201,#1098,.T.);
#1535=EDGE_CURVE('',#1210,#1212,#1118,.T.);
#1547=EDGE_CURVE('',#1214,#1164,#1110,.T.);
#1549=EDGE_CURVE('',#1212,#1214,#1122,.T.);
#1553=EDGE_CURVE('',#1206,#1166,#1102,.T.);
#1565=EDGE_CURVE('',#1214,#1209,#1126,.T.);
#1595=CLOSED_SHELL('',(#1230,#1245,#1263,#1298,#1313,#1334,#1351,#1365,#1385,
#1400,#1412,#1426,#1438,#1455,#1468,#1480,#1492,#1511,#1526,#1540,#1557,#1570,
#1582,#1594));
#1665=EDGE_CURVE('',#1646,#1647,#1599,.T.);
#1667=EDGE_CURVE('',#1649,#1647,#1635,.T.);
#1669=EDGE_CURVE('',#1651,#1649,#1619,.T.);
#1671=EDGE_CURVE('',#1651,#1646,#1603,.T.);
#1681=EDGE_CURVE('',#1653,#1646,#1607,.T.);
#1683=EDGE_CURVE('',#1655,#1653,#1639,.T.);
#1685=EDGE_CURVE('',#1647,#1655,#1631,.T.);
#1698=EDGE_CURVE('',#1657,#1651,#1615,.T.);
#1700=EDGE_CURVE('',#1657,#1653,#1611,.T.);
#1712=EDGE_CURVE('',#1649,#1659,#1623,.T.);
#1714=EDGE_CURVE('',#1659,#1657,#1627,.T.);
#1725=EDGE_CURVE('',#1659,#1655,#1643,.T.);
#1744=CLOSED_SHELL('',(#1675,#1690,#1704,#1718,#1731,#1743));
#1746=BREP_WITH_VOIDS('',#1595,(#1745));
#1747=(LENGTH_UNIT()NAMED_UNIT(*)SI_UNIT(.MILLI.,.METRE.));
#1749=(NAMED_UNIT(*)PLANE_ANGLE_UNIT()SI_UNIT($,.RADIAN.));
#1752=(NAMED_UNIT(*)SI_UNIT($,.STERADIAN.)SOLID_ANGLE_UNIT());
#1758=AXIS2_PLACEMENT_3D('',#1755,#1756,#1757);
#1759=ADVANCED_BREP_SHAPE_REPRESENTATION('',(#1758,#1746),#1754);
#1763=PRODUCT_DEFINITION('design','',#1762,#872);
#1764=PRODUCT_DEFINITION_SHAPE('','SHAPE FOR HOLDER25.',#1763);
#1765=SHAPE_DEFINITION_REPRESENTATION(#1764,#1759);
#1766=NEXT_ASSEMBLY_USAGE_OCCURRENCE('1','Next assembly relationship',
'HOLDER25',#1791,#1763,$);
#1767=PRODUCT_DEFINITION_SHAPE('Placement #1',
'Placement of HOLDER25 with respect to HOLDER_ASM',#1766);
#1775=(LENGTH_UNIT()NAMED_UNIT(*)SI_UNIT(.MILLI.,.METRE.));
#1777=(NAMED_UNIT(*)PLANE_ANGLE_UNIT()SI_UNIT($,.RADIAN.));
#1780=(NAMED_UNIT(*)SI_UNIT($,.STERADIAN.)SOLID_ANGLE_UNIT());
#1786=AXIS2_PLACEMENT_3D('',#1783,#1784,#1785);
#1791=PRODUCT_DEFINITION('design','',#1790,#1787);
ENDSEC;
END-ISO-10303-21;
