ISO-10303-21;
HEADER;
FILE_DESCRIPTION((''),'2;1');
FILE_NAME('HOTPLATETRAY','2026-05-27T15:10:07',('user'),(''),
'CREO PARAMETRIC BY PTC INC, 2025102','CREO PARAMETRIC BY PTC INC, 2025102','');
FILE_SCHEMA(('CONFIG_CONTROL_DESIGN'));
ENDSEC;
DATA;
#1=DIRECTION('',(0.E0,0.E0,-1.E0));
#2=VECTOR('',#1,3.E1);
#3=CARTESIAN_POINT('',(-2.4E2,0.E0,-1.E1));
#4=LINE('',#3,#2);
#5=DIRECTION('',(1.E0,0.E0,0.E0));
#6=VECTOR('',#5,3.E1);
#7=CARTESIAN_POINT('',(-2.4E2,0.E0,-4.E1));
#8=LINE('',#7,#6);
#9=DIRECTION('',(0.E0,0.E0,1.E0));
#10=VECTOR('',#9,3.E1);
#11=CARTESIAN_POINT('',(-2.1E2,0.E0,-4.E1));
#12=LINE('',#11,#10);
#13=DIRECTION('',(-1.E0,0.E0,0.E0));
#14=VECTOR('',#13,3.E1);
#15=CARTESIAN_POINT('',(-2.1E2,0.E0,-1.E1));
#16=LINE('',#15,#14);
#17=DIRECTION('',(0.E0,0.E0,1.E0));
#18=VECTOR('',#17,3.E1);
#19=CARTESIAN_POINT('',(-1.E1,0.E0,-4.E1));
#20=LINE('',#19,#18);
#21=DIRECTION('',(-1.E0,0.E0,0.E0));
#22=VECTOR('',#21,3.E1);
#23=CARTESIAN_POINT('',(-1.E1,0.E0,-1.E1));
#24=LINE('',#23,#22);
#25=DIRECTION('',(0.E0,0.E0,-1.E0));
#26=VECTOR('',#25,3.E1);
#27=CARTESIAN_POINT('',(-4.E1,0.E0,-1.E1));
#28=LINE('',#27,#26);
#29=DIRECTION('',(1.E0,0.E0,0.E0));
#30=VECTOR('',#29,3.E1);
#31=CARTESIAN_POINT('',(-4.E1,0.E0,-4.E1));
#32=LINE('',#31,#30);
#33=DIRECTION('',(1.E0,0.E0,0.E0));
#34=VECTOR('',#33,3.E1);
#35=CARTESIAN_POINT('',(-2.4E2,0.E0,-2.4E2));
#36=LINE('',#35,#34);
#37=DIRECTION('',(0.E0,0.E0,1.E0));
#38=VECTOR('',#37,3.E1);
#39=CARTESIAN_POINT('',(-2.1E2,0.E0,-2.4E2));
#40=LINE('',#39,#38);
#41=DIRECTION('',(-1.E0,0.E0,0.E0));
#42=VECTOR('',#41,3.E1);
#43=CARTESIAN_POINT('',(-2.1E2,0.E0,-2.1E2));
#44=LINE('',#43,#42);
#45=DIRECTION('',(0.E0,0.E0,-1.E0));
#46=VECTOR('',#45,3.E1);
#47=CARTESIAN_POINT('',(-2.4E2,0.E0,-2.1E2));
#48=LINE('',#47,#46);
#49=DIRECTION('',(0.E0,0.E0,1.E0));
#50=VECTOR('',#49,3.E1);
#51=CARTESIAN_POINT('',(-1.E1,0.E0,-2.4E2));
#52=LINE('',#51,#50);
#53=DIRECTION('',(-1.E0,0.E0,0.E0));
#54=VECTOR('',#53,3.E1);
#55=CARTESIAN_POINT('',(-1.E1,0.E0,-2.1E2));
#56=LINE('',#55,#54);
#57=DIRECTION('',(0.E0,0.E0,-1.E0));
#58=VECTOR('',#57,3.E1);
#59=CARTESIAN_POINT('',(-4.E1,0.E0,-2.1E2));
#60=LINE('',#59,#58);
#61=DIRECTION('',(1.E0,0.E0,0.E0));
#62=VECTOR('',#61,3.E1);
#63=CARTESIAN_POINT('',(-4.E1,0.E0,-2.4E2));
#64=LINE('',#63,#62);
#65=DIRECTION('',(0.E0,0.E0,-1.E0));
#66=VECTOR('',#65,2.5E2);
#67=CARTESIAN_POINT('',(0.E0,0.E0,0.E0));
#68=LINE('',#67,#66);
#69=DIRECTION('',(1.E0,0.E0,0.E0));
#70=VECTOR('',#69,2.5E2);
#71=CARTESIAN_POINT('',(-2.5E2,0.E0,-2.5E2));
#72=LINE('',#71,#70);
#73=DIRECTION('',(0.E0,0.E0,-1.E0));
#74=VECTOR('',#73,2.5E2);
#75=CARTESIAN_POINT('',(-2.5E2,0.E0,0.E0));
#76=LINE('',#75,#74);
#77=DIRECTION('',(1.E0,0.E0,0.E0));
#78=VECTOR('',#77,2.5E2);
#79=CARTESIAN_POINT('',(-2.5E2,0.E0,0.E0));
#80=LINE('',#79,#78);
#81=DIRECTION('',(0.E0,1.E0,0.E0));
#82=VECTOR('',#81,1.5E1);
#83=CARTESIAN_POINT('',(-2.4E2,0.E0,-1.E1));
#84=LINE('',#83,#82);
#85=DIRECTION('',(0.E0,1.E0,0.E0));
#86=VECTOR('',#85,1.5E1);
#87=CARTESIAN_POINT('',(-2.1E2,0.E0,-1.E1));
#88=LINE('',#87,#86);
#89=DIRECTION('',(0.E0,1.E0,0.E0));
#90=VECTOR('',#89,1.5E1);
#91=CARTESIAN_POINT('',(-2.1E2,0.E0,-4.E1));
#92=LINE('',#91,#90);
#93=DIRECTION('',(0.E0,1.E0,0.E0));
#94=VECTOR('',#93,1.5E1);
#95=CARTESIAN_POINT('',(-2.4E2,0.E0,-4.E1));
#96=LINE('',#95,#94);
#97=DIRECTION('',(0.E0,0.E0,-1.E0));
#98=VECTOR('',#97,3.E1);
#99=CARTESIAN_POINT('',(-2.4E2,1.5E1,-1.E1));
#100=LINE('',#99,#98);
#101=DIRECTION('',(-1.E0,0.E0,0.E0));
#102=VECTOR('',#101,3.E1);
#103=CARTESIAN_POINT('',(-2.1E2,1.5E1,-1.E1));
#104=LINE('',#103,#102);
#105=DIRECTION('',(0.E0,0.E0,1.E0));
#106=VECTOR('',#105,3.E1);
#107=CARTESIAN_POINT('',(-2.1E2,1.5E1,-4.E1));
#108=LINE('',#107,#106);
#109=DIRECTION('',(1.E0,0.E0,0.E0));
#110=VECTOR('',#109,3.E1);
#111=CARTESIAN_POINT('',(-2.4E2,1.5E1,-4.E1));
#112=LINE('',#111,#110);
#113=DIRECTION('',(0.E0,0.E0,1.E0));
#114=VECTOR('',#113,3.E1);
#115=CARTESIAN_POINT('',(-1.E1,1.5E1,-4.E1));
#116=LINE('',#115,#114);
#117=DIRECTION('',(1.E0,0.E0,0.E0));
#118=VECTOR('',#117,3.E1);
#119=CARTESIAN_POINT('',(-4.E1,1.5E1,-4.E1));
#120=LINE('',#119,#118);
#121=DIRECTION('',(0.E0,0.E0,-1.E0));
#122=VECTOR('',#121,3.E1);
#123=CARTESIAN_POINT('',(-4.E1,1.5E1,-1.E1));
#124=LINE('',#123,#122);
#125=DIRECTION('',(-1.E0,0.E0,0.E0));
#126=VECTOR('',#125,3.E1);
#127=CARTESIAN_POINT('',(-1.E1,1.5E1,-1.E1));
#128=LINE('',#127,#126);
#129=DIRECTION('',(1.E0,0.E0,0.E0));
#130=VECTOR('',#129,3.E1);
#131=CARTESIAN_POINT('',(-2.4E2,1.5E1,-2.4E2));
#132=LINE('',#131,#130);
#133=DIRECTION('',(0.E0,0.E0,-1.E0));
#134=VECTOR('',#133,3.E1);
#135=CARTESIAN_POINT('',(-2.4E2,1.5E1,-2.1E2));
#136=LINE('',#135,#134);
#137=DIRECTION('',(-1.E0,0.E0,0.E0));
#138=VECTOR('',#137,3.E1);
#139=CARTESIAN_POINT('',(-2.1E2,1.5E1,-2.1E2));
#140=LINE('',#139,#138);
#141=DIRECTION('',(0.E0,0.E0,1.E0));
#142=VECTOR('',#141,3.E1);
#143=CARTESIAN_POINT('',(-2.1E2,1.5E1,-2.4E2));
#144=LINE('',#143,#142);
#145=DIRECTION('',(0.E0,0.E0,1.E0));
#146=VECTOR('',#145,3.E1);
#147=CARTESIAN_POINT('',(-1.E1,1.5E1,-2.4E2));
#148=LINE('',#147,#146);
#149=DIRECTION('',(1.E0,0.E0,0.E0));
#150=VECTOR('',#149,3.E1);
#151=CARTESIAN_POINT('',(-4.E1,1.5E1,-2.4E2));
#152=LINE('',#151,#150);
#153=DIRECTION('',(0.E0,0.E0,-1.E0));
#154=VECTOR('',#153,3.E1);
#155=CARTESIAN_POINT('',(-4.E1,1.5E1,-2.1E2));
#156=LINE('',#155,#154);
#157=DIRECTION('',(-1.E0,0.E0,0.E0));
#158=VECTOR('',#157,3.E1);
#159=CARTESIAN_POINT('',(-1.E1,1.5E1,-2.1E2));
#160=LINE('',#159,#158);
#161=DIRECTION('',(0.E0,1.E0,0.E0));
#162=VECTOR('',#161,1.5E1);
#163=CARTESIAN_POINT('',(-1.E1,0.E0,-4.E1));
#164=LINE('',#163,#162);
#165=DIRECTION('',(0.E0,1.E0,0.E0));
#166=VECTOR('',#165,1.5E1);
#167=CARTESIAN_POINT('',(-4.E1,0.E0,-4.E1));
#168=LINE('',#167,#166);
#169=DIRECTION('',(0.E0,1.E0,0.E0));
#170=VECTOR('',#169,1.5E1);
#171=CARTESIAN_POINT('',(-4.E1,0.E0,-1.E1));
#172=LINE('',#171,#170);
#173=DIRECTION('',(0.E0,1.E0,0.E0));
#174=VECTOR('',#173,1.5E1);
#175=CARTESIAN_POINT('',(-1.E1,0.E0,-1.E1));
#176=LINE('',#175,#174);
#177=DIRECTION('',(0.E0,1.E0,0.E0));
#178=VECTOR('',#177,1.5E1);
#179=CARTESIAN_POINT('',(-2.4E2,0.E0,-2.4E2));
#180=LINE('',#179,#178);
#181=DIRECTION('',(0.E0,1.E0,0.E0));
#182=VECTOR('',#181,1.5E1);
#183=CARTESIAN_POINT('',(-2.4E2,0.E0,-2.1E2));
#184=LINE('',#183,#182);
#185=DIRECTION('',(0.E0,1.E0,0.E0));
#186=VECTOR('',#185,1.5E1);
#187=CARTESIAN_POINT('',(-2.1E2,0.E0,-2.1E2));
#188=LINE('',#187,#186);
#189=DIRECTION('',(0.E0,1.E0,0.E0));
#190=VECTOR('',#189,1.5E1);
#191=CARTESIAN_POINT('',(-2.1E2,0.E0,-2.4E2));
#192=LINE('',#191,#190);
#193=DIRECTION('',(0.E0,1.E0,0.E0));
#194=VECTOR('',#193,1.5E1);
#195=CARTESIAN_POINT('',(-1.E1,0.E0,-2.4E2));
#196=LINE('',#195,#194);
#197=DIRECTION('',(0.E0,1.E0,0.E0));
#198=VECTOR('',#197,1.5E1);
#199=CARTESIAN_POINT('',(-4.E1,0.E0,-2.4E2));
#200=LINE('',#199,#198);
#201=DIRECTION('',(0.E0,1.E0,0.E0));
#202=VECTOR('',#201,1.5E1);
#203=CARTESIAN_POINT('',(-4.E1,0.E0,-2.1E2));
#204=LINE('',#203,#202);
#205=DIRECTION('',(0.E0,1.E0,0.E0));
#206=VECTOR('',#205,1.5E1);
#207=CARTESIAN_POINT('',(-1.E1,0.E0,-2.1E2));
#208=LINE('',#207,#206);
#209=DIRECTION('',(0.E0,-1.E0,0.E0));
#210=VECTOR('',#209,3.E1);
#211=CARTESIAN_POINT('',(0.E0,0.E0,-2.5E2));
#212=LINE('',#211,#210);
#213=DIRECTION('',(0.E0,-1.E0,0.E0));
#214=VECTOR('',#213,3.E1);
#215=CARTESIAN_POINT('',(0.E0,0.E0,0.E0));
#216=LINE('',#215,#214);
#217=DIRECTION('',(0.E0,-1.E0,0.E0));
#218=VECTOR('',#217,3.E1);
#219=CARTESIAN_POINT('',(-2.5E2,0.E0,0.E0));
#220=LINE('',#219,#218);
#221=DIRECTION('',(0.E0,-1.E0,0.E0));
#222=VECTOR('',#221,3.E1);
#223=CARTESIAN_POINT('',(-2.5E2,0.E0,-2.5E2));
#224=LINE('',#223,#222);
#225=DIRECTION('',(0.E0,0.E0,1.E0));
#226=VECTOR('',#225,2.5E2);
#227=CARTESIAN_POINT('',(0.E0,-3.E1,-2.5E2));
#228=LINE('',#227,#226);
#229=DIRECTION('',(-1.E0,0.E0,0.E0));
#230=VECTOR('',#229,2.5E2);
#231=CARTESIAN_POINT('',(0.E0,-3.E1,0.E0));
#232=LINE('',#231,#230);
#233=DIRECTION('',(0.E0,0.E0,-1.E0));
#234=VECTOR('',#233,2.5E2);
#235=CARTESIAN_POINT('',(-2.5E2,-3.E1,0.E0));
#236=LINE('',#235,#234);
#237=DIRECTION('',(1.E0,0.E0,0.E0));
#238=VECTOR('',#237,2.5E2);
#239=CARTESIAN_POINT('',(-2.5E2,-3.E1,-2.5E2));
#240=LINE('',#239,#238);
#241=DIRECTION('',(0.E0,0.E0,-1.E0));
#242=VECTOR('',#241,2.7E2);
#243=CARTESIAN_POINT('',(1.E1,-3.E1,1.E1));
#244=LINE('',#243,#242);
#245=DIRECTION('',(1.E0,0.E0,0.E0));
#246=VECTOR('',#245,2.7E2);
#247=CARTESIAN_POINT('',(-2.6E2,4.E1,1.E1));
#248=LINE('',#247,#246);
#249=DIRECTION('',(-1.E0,0.E0,0.E0));
#250=VECTOR('',#249,2.7E2);
#251=CARTESIAN_POINT('',(1.E1,-3.E1,1.E1));
#252=LINE('',#251,#250);
#253=DIRECTION('',(0.E0,-1.E0,0.E0));
#254=VECTOR('',#253,7.E1);
#255=CARTESIAN_POINT('',(-2.6E2,4.E1,1.E1));
#256=LINE('',#255,#254);
#257=DIRECTION('',(0.E0,0.E0,1.E0));
#258=VECTOR('',#257,2.5E1);
#259=CARTESIAN_POINT('',(-2.6E2,4.E1,1.E1));
#260=LINE('',#259,#258);
#261=CARTESIAN_POINT('',(0.E0,4.E1,2.5E1));
#262=DIRECTION('',(0.E0,-1.E0,0.E0));
#263=DIRECTION('',(0.E0,0.E0,1.E0));
#264=AXIS2_PLACEMENT_3D('',#261,#262,#263);
#266=CARTESIAN_POINT('',(0.E0,4.E1,2.5E1));
#267=DIRECTION('',(0.E0,-1.E0,0.E0));
#268=DIRECTION('',(0.E0,0.E0,-1.E0));
#269=AXIS2_PLACEMENT_3D('',#266,#267,#268);
#271=CARTESIAN_POINT('',(-2.5E2,4.E1,2.5E1));
#272=DIRECTION('',(0.E0,-1.E0,0.E0));
#273=DIRECTION('',(0.E0,0.E0,1.E0));
#274=AXIS2_PLACEMENT_3D('',#271,#272,#273);
#276=CARTESIAN_POINT('',(-2.5E2,4.E1,2.5E1));
#277=DIRECTION('',(0.E0,-1.E0,0.E0));
#278=DIRECTION('',(0.E0,0.E0,-1.E0));
#279=AXIS2_PLACEMENT_3D('',#276,#277,#278);
#281=DIRECTION('',(0.E0,-1.E0,0.E0));
#282=VECTOR('',#281,7.E1);
#283=CARTESIAN_POINT('',(-2.6E2,4.E1,-2.6E2));
#284=LINE('',#283,#282);
#285=DIRECTION('',(0.E0,0.E0,-1.E0));
#286=VECTOR('',#285,2.5E1);
#287=CARTESIAN_POINT('',(-2.6E2,4.E1,-2.6E2));
#288=LINE('',#287,#286);
#289=DIRECTION('',(0.E0,0.E0,1.E0));
#290=VECTOR('',#289,3.2E2);
#291=CARTESIAN_POINT('',(-2.6E2,5.E1,-2.85E2));
#292=LINE('',#291,#290);
#293=DIRECTION('',(0.E0,0.E0,-1.E0));
#294=VECTOR('',#293,2.7E2);
#295=CARTESIAN_POINT('',(-2.6E2,-3.E1,1.E1));
#296=LINE('',#295,#294);
#297=DIRECTION('',(-1.E0,0.E0,0.E0));
#298=VECTOR('',#297,2.7E2);
#299=CARTESIAN_POINT('',(1.E1,4.E1,-2.6E2));
#300=LINE('',#299,#298);
#301=DIRECTION('',(1.E0,0.E0,0.E0));
#302=VECTOR('',#301,2.7E2);
#303=CARTESIAN_POINT('',(-2.6E2,-3.E1,-2.6E2));
#304=LINE('',#303,#302);
#305=DIRECTION('',(0.E0,-1.E0,0.E0));
#306=VECTOR('',#305,7.E1);
#307=CARTESIAN_POINT('',(1.E1,4.E1,-2.6E2));
#308=LINE('',#307,#306);
#309=DIRECTION('',(0.E0,0.E0,-1.E0));
#310=VECTOR('',#309,2.5E1);
#311=CARTESIAN_POINT('',(1.E1,4.E1,-2.6E2));
#312=LINE('',#311,#310);
#313=CARTESIAN_POINT('',(0.E0,4.E1,-2.75E2));
#314=DIRECTION('',(0.E0,-1.E0,0.E0));
#315=DIRECTION('',(0.E0,0.E0,1.E0));
#316=AXIS2_PLACEMENT_3D('',#313,#314,#315);
#318=CARTESIAN_POINT('',(0.E0,4.E1,-2.75E2));
#319=DIRECTION('',(0.E0,-1.E0,0.E0));
#320=DIRECTION('',(0.E0,0.E0,-1.E0));
#321=AXIS2_PLACEMENT_3D('',#318,#319,#320);
#323=CARTESIAN_POINT('',(-2.4E2,4.E1,-2.75E2));
#324=DIRECTION('',(0.E0,-1.E0,0.E0));
#325=DIRECTION('',(0.E0,0.E0,1.E0));
#326=AXIS2_PLACEMENT_3D('',#323,#324,#325);
#328=CARTESIAN_POINT('',(-2.4E2,4.E1,-2.75E2));
#329=DIRECTION('',(0.E0,-1.E0,0.E0));
#330=DIRECTION('',(0.E0,0.E0,-1.E0));
#331=AXIS2_PLACEMENT_3D('',#328,#329,#330);
#333=DIRECTION('',(0.E0,0.E0,-1.E0));
#334=VECTOR('',#333,3.2E2);
#335=CARTESIAN_POINT('',(1.E1,5.E1,3.5E1));
#336=LINE('',#335,#334);
#337=DIRECTION('',(0.E0,-1.E0,0.E0));
#338=VECTOR('',#337,7.E1);
#339=CARTESIAN_POINT('',(1.E1,4.E1,1.E1));
#340=LINE('',#339,#338);
#341=DIRECTION('',(0.E0,0.E0,1.E0));
#342=VECTOR('',#341,2.5E1);
#343=CARTESIAN_POINT('',(1.E1,4.E1,1.E1));
#344=LINE('',#343,#342);
#345=CARTESIAN_POINT('',(0.E0,5.E1,2.5E1));
#346=DIRECTION('',(0.E0,-1.E0,0.E0));
#347=DIRECTION('',(0.E0,0.E0,1.E0));
#348=AXIS2_PLACEMENT_3D('',#345,#346,#347);
#350=CARTESIAN_POINT('',(0.E0,5.E1,2.5E1));
#351=DIRECTION('',(0.E0,-1.E0,0.E0));
#352=DIRECTION('',(0.E0,0.E0,-1.E0));
#353=AXIS2_PLACEMENT_3D('',#350,#351,#352);
#355=CARTESIAN_POINT('',(-2.5E2,5.E1,2.5E1));
#356=DIRECTION('',(0.E0,-1.E0,0.E0));
#357=DIRECTION('',(0.E0,0.E0,1.E0));
#358=AXIS2_PLACEMENT_3D('',#355,#356,#357);
#360=CARTESIAN_POINT('',(-2.5E2,5.E1,2.5E1));
#361=DIRECTION('',(0.E0,-1.E0,0.E0));
#362=DIRECTION('',(0.E0,0.E0,-1.E0));
#363=AXIS2_PLACEMENT_3D('',#360,#361,#362);
#365=CARTESIAN_POINT('',(0.E0,5.E1,-2.75E2));
#366=DIRECTION('',(0.E0,-1.E0,0.E0));
#367=DIRECTION('',(0.E0,0.E0,1.E0));
#368=AXIS2_PLACEMENT_3D('',#365,#366,#367);
#370=CARTESIAN_POINT('',(0.E0,5.E1,-2.75E2));
#371=DIRECTION('',(0.E0,-1.E0,0.E0));
#372=DIRECTION('',(0.E0,0.E0,-1.E0));
#373=AXIS2_PLACEMENT_3D('',#370,#371,#372);
#375=CARTESIAN_POINT('',(-2.4E2,5.E1,-2.75E2));
#376=DIRECTION('',(0.E0,-1.E0,0.E0));
#377=DIRECTION('',(0.E0,0.E0,1.E0));
#378=AXIS2_PLACEMENT_3D('',#375,#376,#377);
#380=CARTESIAN_POINT('',(-2.4E2,5.E1,-2.75E2));
#381=DIRECTION('',(0.E0,-1.E0,0.E0));
#382=DIRECTION('',(0.E0,0.E0,-1.E0));
#383=AXIS2_PLACEMENT_3D('',#380,#381,#382);
#385=DIRECTION('',(0.E0,1.E0,0.E0));
#386=VECTOR('',#385,1.E1);
#387=CARTESIAN_POINT('',(0.E0,4.E1,2.85E1));
#388=LINE('',#387,#386);
#389=DIRECTION('',(0.E0,1.E0,0.E0));
#390=VECTOR('',#389,1.E1);
#391=CARTESIAN_POINT('',(0.E0,4.E1,2.15E1));
#392=LINE('',#391,#390);
#393=DIRECTION('',(0.E0,1.E0,0.E0));
#394=VECTOR('',#393,1.E1);
#395=CARTESIAN_POINT('',(-2.5E2,4.E1,2.85E1));
#396=LINE('',#395,#394);
#397=DIRECTION('',(0.E0,1.E0,0.E0));
#398=VECTOR('',#397,1.E1);
#399=CARTESIAN_POINT('',(-2.5E2,4.E1,2.15E1));
#400=LINE('',#399,#398);
#401=DIRECTION('',(1.E0,0.E0,0.E0));
#402=VECTOR('',#401,2.7E2);
#403=CARTESIAN_POINT('',(-2.6E2,5.E1,-2.85E2));
#404=LINE('',#403,#402);
#405=DIRECTION('',(0.E0,1.E0,0.E0));
#406=VECTOR('',#405,1.E1);
#407=CARTESIAN_POINT('',(-2.6E2,4.E1,-2.85E2));
#408=LINE('',#407,#406);
#409=DIRECTION('',(-1.E0,0.E0,0.E0));
#410=VECTOR('',#409,2.7E2);
#411=CARTESIAN_POINT('',(1.E1,4.E1,-2.85E2));
#412=LINE('',#411,#410);
#413=DIRECTION('',(0.E0,-1.E0,0.E0));
#414=VECTOR('',#413,1.E1);
#415=CARTESIAN_POINT('',(1.E1,5.E1,-2.85E2));
#416=LINE('',#415,#414);
#417=DIRECTION('',(-1.E0,0.E0,0.E0));
#418=VECTOR('',#417,2.7E2);
#419=CARTESIAN_POINT('',(1.E1,5.E1,3.5E1));
#420=LINE('',#419,#418);
#421=DIRECTION('',(0.E0,1.E0,0.E0));
#422=VECTOR('',#421,1.E1);
#423=CARTESIAN_POINT('',(1.E1,4.E1,3.5E1));
#424=LINE('',#423,#422);
#425=DIRECTION('',(1.E0,0.E0,0.E0));
#426=VECTOR('',#425,2.7E2);
#427=CARTESIAN_POINT('',(-2.6E2,4.E1,3.5E1));
#428=LINE('',#427,#426);
#429=DIRECTION('',(0.E0,-1.E0,0.E0));
#430=VECTOR('',#429,1.E1);
#431=CARTESIAN_POINT('',(-2.6E2,5.E1,3.5E1));
#432=LINE('',#431,#430);
#433=DIRECTION('',(0.E0,1.E0,0.E0));
#434=VECTOR('',#433,1.E1);
#435=CARTESIAN_POINT('',(0.E0,4.E1,-2.715E2));
#436=LINE('',#435,#434);
#437=DIRECTION('',(0.E0,1.E0,0.E0));
#438=VECTOR('',#437,1.E1);
#439=CARTESIAN_POINT('',(0.E0,4.E1,-2.785E2));
#440=LINE('',#439,#438);
#441=DIRECTION('',(0.E0,1.E0,0.E0));
#442=VECTOR('',#441,1.E1);
#443=CARTESIAN_POINT('',(-2.4E2,4.E1,-2.715E2));
#444=LINE('',#443,#442);
#445=DIRECTION('',(0.E0,1.E0,0.E0));
#446=VECTOR('',#445,1.E1);
#447=CARTESIAN_POINT('',(-2.4E2,4.E1,-2.785E2));
#448=LINE('',#447,#446);
#449=CARTESIAN_POINT('',(-2.4E2,1.5E1,-1.E1));
#450=CARTESIAN_POINT('',(-2.4E2,1.5E1,-4.E1));
#451=VERTEX_POINT('',#449);
#452=VERTEX_POINT('',#450);
#453=CARTESIAN_POINT('',(-2.1E2,1.5E1,-4.E1));
#454=VERTEX_POINT('',#453);
#455=CARTESIAN_POINT('',(-2.1E2,1.5E1,-1.E1));
#456=VERTEX_POINT('',#455);
#457=CARTESIAN_POINT('',(-1.E1,1.5E1,-4.E1));
#458=CARTESIAN_POINT('',(-1.E1,1.5E1,-1.E1));
#459=VERTEX_POINT('',#457);
#460=VERTEX_POINT('',#458);
#461=CARTESIAN_POINT('',(-4.E1,1.5E1,-1.E1));
#462=VERTEX_POINT('',#461);
#463=CARTESIAN_POINT('',(-4.E1,1.5E1,-4.E1));
#464=VERTEX_POINT('',#463);
#465=CARTESIAN_POINT('',(-2.4E2,1.5E1,-2.4E2));
#466=CARTESIAN_POINT('',(-2.1E2,1.5E1,-2.4E2));
#467=VERTEX_POINT('',#465);
#468=VERTEX_POINT('',#466);
#469=CARTESIAN_POINT('',(-2.1E2,1.5E1,-2.1E2));
#470=VERTEX_POINT('',#469);
#471=CARTESIAN_POINT('',(-2.4E2,1.5E1,-2.1E2));
#472=VERTEX_POINT('',#471);
#473=CARTESIAN_POINT('',(-1.E1,1.5E1,-2.4E2));
#474=CARTESIAN_POINT('',(-1.E1,1.5E1,-2.1E2));
#475=VERTEX_POINT('',#473);
#476=VERTEX_POINT('',#474);
#477=CARTESIAN_POINT('',(-4.E1,1.5E1,-2.1E2));
#478=VERTEX_POINT('',#477);
#479=CARTESIAN_POINT('',(-4.E1,1.5E1,-2.4E2));
#480=VERTEX_POINT('',#479);
#481=CARTESIAN_POINT('',(-2.4E2,0.E0,-1.E1));
#482=CARTESIAN_POINT('',(-2.4E2,0.E0,-4.E1));
#483=VERTEX_POINT('',#481);
#484=VERTEX_POINT('',#482);
#485=CARTESIAN_POINT('',(-2.1E2,0.E0,-4.E1));
#486=VERTEX_POINT('',#485);
#487=CARTESIAN_POINT('',(-2.1E2,0.E0,-1.E1));
#488=VERTEX_POINT('',#487);
#489=CARTESIAN_POINT('',(-1.E1,0.E0,-4.E1));
#490=CARTESIAN_POINT('',(-1.E1,0.E0,-1.E1));
#491=VERTEX_POINT('',#489);
#492=VERTEX_POINT('',#490);
#493=CARTESIAN_POINT('',(-4.E1,0.E0,-1.E1));
#494=VERTEX_POINT('',#493);
#495=CARTESIAN_POINT('',(-4.E1,0.E0,-4.E1));
#496=VERTEX_POINT('',#495);
#497=CARTESIAN_POINT('',(-2.4E2,0.E0,-2.4E2));
#498=CARTESIAN_POINT('',(-2.1E2,0.E0,-2.4E2));
#499=VERTEX_POINT('',#497);
#500=VERTEX_POINT('',#498);
#501=CARTESIAN_POINT('',(-2.1E2,0.E0,-2.1E2));
#502=VERTEX_POINT('',#501);
#503=CARTESIAN_POINT('',(-2.4E2,0.E0,-2.1E2));
#504=VERTEX_POINT('',#503);
#505=CARTESIAN_POINT('',(-1.E1,0.E0,-2.4E2));
#506=CARTESIAN_POINT('',(-1.E1,0.E0,-2.1E2));
#507=VERTEX_POINT('',#505);
#508=VERTEX_POINT('',#506);
#509=CARTESIAN_POINT('',(-4.E1,0.E0,-2.1E2));
#510=VERTEX_POINT('',#509);
#511=CARTESIAN_POINT('',(-4.E1,0.E0,-2.4E2));
#512=VERTEX_POINT('',#511);
#513=CARTESIAN_POINT('',(0.E0,-3.E1,-2.5E2));
#514=CARTESIAN_POINT('',(0.E0,-3.E1,0.E0));
#515=VERTEX_POINT('',#513);
#516=VERTEX_POINT('',#514);
#517=CARTESIAN_POINT('',(-2.5E2,-3.E1,0.E0));
#518=VERTEX_POINT('',#517);
#519=CARTESIAN_POINT('',(-2.5E2,-3.E1,-2.5E2));
#520=VERTEX_POINT('',#519);
#521=CARTESIAN_POINT('',(1.E1,-3.E1,1.E1));
#522=CARTESIAN_POINT('',(1.E1,-3.E1,-2.6E2));
#523=VERTEX_POINT('',#521);
#524=VERTEX_POINT('',#522);
#525=CARTESIAN_POINT('',(0.E0,0.E0,0.E0));
#526=CARTESIAN_POINT('',(0.E0,0.E0,-2.5E2));
#527=VERTEX_POINT('',#525);
#528=VERTEX_POINT('',#526);
#529=CARTESIAN_POINT('',(-2.5E2,0.E0,0.E0));
#530=VERTEX_POINT('',#529);
#531=CARTESIAN_POINT('',(-2.5E2,0.E0,-2.5E2));
#532=VERTEX_POINT('',#531);
#533=CARTESIAN_POINT('',(-2.6E2,-3.E1,1.E1));
#534=VERTEX_POINT('',#533);
#535=CARTESIAN_POINT('',(-2.6E2,-3.E1,-2.6E2));
#536=VERTEX_POINT('',#535);
#537=CARTESIAN_POINT('',(1.E1,5.E1,3.5E1));
#538=CARTESIAN_POINT('',(-2.6E2,5.E1,3.5E1));
#539=VERTEX_POINT('',#537);
#540=VERTEX_POINT('',#538);
#541=CARTESIAN_POINT('',(-2.6E2,4.E1,3.5E1));
#542=VERTEX_POINT('',#541);
#543=CARTESIAN_POINT('',(1.E1,4.E1,3.5E1));
#544=VERTEX_POINT('',#543);
#545=CARTESIAN_POINT('',(-2.6E2,4.E1,1.E1));
#546=CARTESIAN_POINT('',(1.E1,4.E1,1.E1));
#547=VERTEX_POINT('',#545);
#548=VERTEX_POINT('',#546);
#549=CARTESIAN_POINT('',(0.E0,5.E1,2.85E1));
#550=CARTESIAN_POINT('',(0.E0,5.E1,2.15E1));
#551=VERTEX_POINT('',#549);
#552=VERTEX_POINT('',#550);
#553=CARTESIAN_POINT('',(-2.5E2,5.E1,2.85E1));
#554=CARTESIAN_POINT('',(-2.5E2,5.E1,2.15E1));
#555=VERTEX_POINT('',#553);
#556=VERTEX_POINT('',#554);
#557=CARTESIAN_POINT('',(0.E0,4.E1,2.85E1));
#558=CARTESIAN_POINT('',(0.E0,4.E1,2.15E1));
#559=VERTEX_POINT('',#557);
#560=VERTEX_POINT('',#558);
#561=CARTESIAN_POINT('',(-2.5E2,4.E1,2.85E1));
#562=CARTESIAN_POINT('',(-2.5E2,4.E1,2.15E1));
#563=VERTEX_POINT('',#561);
#564=VERTEX_POINT('',#562);
#565=CARTESIAN_POINT('',(-2.6E2,5.E1,-2.85E2));
#566=CARTESIAN_POINT('',(1.E1,5.E1,-2.85E2));
#567=VERTEX_POINT('',#565);
#568=VERTEX_POINT('',#566);
#569=CARTESIAN_POINT('',(1.E1,4.E1,-2.85E2));
#570=VERTEX_POINT('',#569);
#571=CARTESIAN_POINT('',(-2.6E2,4.E1,-2.85E2));
#572=VERTEX_POINT('',#571);
#573=CARTESIAN_POINT('',(1.E1,4.E1,-2.6E2));
#574=CARTESIAN_POINT('',(-2.6E2,4.E1,-2.6E2));
#575=VERTEX_POINT('',#573);
#576=VERTEX_POINT('',#574);
#577=CARTESIAN_POINT('',(0.E0,5.E1,-2.715E2));
#578=CARTESIAN_POINT('',(0.E0,5.E1,-2.785E2));
#579=VERTEX_POINT('',#577);
#580=VERTEX_POINT('',#578);
#581=CARTESIAN_POINT('',(-2.4E2,5.E1,-2.715E2));
#582=CARTESIAN_POINT('',(-2.4E2,5.E1,-2.785E2));
#583=VERTEX_POINT('',#581);
#584=VERTEX_POINT('',#582);
#585=CARTESIAN_POINT('',(0.E0,4.E1,-2.715E2));
#586=CARTESIAN_POINT('',(0.E0,4.E1,-2.785E2));
#587=VERTEX_POINT('',#585);
#588=VERTEX_POINT('',#586);
#589=CARTESIAN_POINT('',(-2.4E2,4.E1,-2.715E2));
#590=CARTESIAN_POINT('',(-2.4E2,4.E1,-2.785E2));
#591=VERTEX_POINT('',#589);
#592=VERTEX_POINT('',#590);
#593=CARTESIAN_POINT('',(0.E0,0.E0,0.E0));
#594=DIRECTION('',(0.E0,1.E0,0.E0));
#595=DIRECTION('',(1.E0,0.E0,0.E0));
#596=AXIS2_PLACEMENT_3D('',#593,#594,#595);
#597=PLANE('',#596);
#599=ORIENTED_EDGE('',*,*,#598,.T.);
#601=ORIENTED_EDGE('',*,*,#600,.F.);
#603=ORIENTED_EDGE('',*,*,#602,.F.);
#605=ORIENTED_EDGE('',*,*,#604,.T.);
#606=EDGE_LOOP('',(#599,#601,#603,#605));
#607=FACE_OUTER_BOUND('',#606,.F.);
#609=ORIENTED_EDGE('',*,*,#608,.T.);
#611=ORIENTED_EDGE('',*,*,#610,.T.);
#613=ORIENTED_EDGE('',*,*,#612,.T.);
#615=ORIENTED_EDGE('',*,*,#614,.T.);
#616=EDGE_LOOP('',(#609,#611,#613,#615));
#617=FACE_BOUND('',#616,.F.);
#619=ORIENTED_EDGE('',*,*,#618,.T.);
#621=ORIENTED_EDGE('',*,*,#620,.T.);
#623=ORIENTED_EDGE('',*,*,#622,.T.);
#625=ORIENTED_EDGE('',*,*,#624,.T.);
#626=EDGE_LOOP('',(#619,#621,#623,#625));
#627=FACE_BOUND('',#626,.F.);
#629=ORIENTED_EDGE('',*,*,#628,.T.);
#631=ORIENTED_EDGE('',*,*,#630,.T.);
#633=ORIENTED_EDGE('',*,*,#632,.T.);
#635=ORIENTED_EDGE('',*,*,#634,.T.);
#636=EDGE_LOOP('',(#629,#631,#633,#635));
#637=FACE_BOUND('',#636,.F.);
#639=ORIENTED_EDGE('',*,*,#638,.T.);
#641=ORIENTED_EDGE('',*,*,#640,.T.);
#643=ORIENTED_EDGE('',*,*,#642,.T.);
#645=ORIENTED_EDGE('',*,*,#644,.T.);
#646=EDGE_LOOP('',(#639,#641,#643,#645));
#647=FACE_BOUND('',#646,.F.);
#648=ADVANCED_FACE('',(#607,#617,#627,#637,#647),#597,.F.);
#649=CARTESIAN_POINT('',(-2.4E2,0.E0,-1.E1));
#650=DIRECTION('',(-1.E0,0.E0,0.E0));
#651=DIRECTION('',(0.E0,0.E0,-1.E0));
#652=AXIS2_PLACEMENT_3D('',#649,#650,#651);
#653=PLANE('',#652);
#654=ORIENTED_EDGE('',*,*,#638,.F.);
#656=ORIENTED_EDGE('',*,*,#655,.T.);
#658=ORIENTED_EDGE('',*,*,#657,.T.);
#660=ORIENTED_EDGE('',*,*,#659,.F.);
#661=EDGE_LOOP('',(#654,#656,#658,#660));
#662=FACE_OUTER_BOUND('',#661,.F.);
#663=ADVANCED_FACE('',(#662),#653,.F.);
#664=CARTESIAN_POINT('',(-2.1E2,0.E0,-1.E1));
#665=DIRECTION('',(0.E0,0.E0,1.E0));
#666=DIRECTION('',(-1.E0,0.E0,0.E0));
#667=AXIS2_PLACEMENT_3D('',#664,#665,#666);
#668=PLANE('',#667);
#669=ORIENTED_EDGE('',*,*,#644,.F.);
#671=ORIENTED_EDGE('',*,*,#670,.T.);
#673=ORIENTED_EDGE('',*,*,#672,.T.);
#674=ORIENTED_EDGE('',*,*,#655,.F.);
#675=EDGE_LOOP('',(#669,#671,#673,#674));
#676=FACE_OUTER_BOUND('',#675,.F.);
#677=ADVANCED_FACE('',(#676),#668,.F.);
#678=CARTESIAN_POINT('',(-2.1E2,0.E0,-4.E1));
#679=DIRECTION('',(1.E0,0.E0,0.E0));
#680=DIRECTION('',(0.E0,0.E0,1.E0));
#681=AXIS2_PLACEMENT_3D('',#678,#679,#680);
#682=PLANE('',#681);
#683=ORIENTED_EDGE('',*,*,#642,.F.);
#685=ORIENTED_EDGE('',*,*,#684,.T.);
#687=ORIENTED_EDGE('',*,*,#686,.T.);
#688=ORIENTED_EDGE('',*,*,#670,.F.);
#689=EDGE_LOOP('',(#683,#685,#687,#688));
#690=FACE_OUTER_BOUND('',#689,.F.);
#691=ADVANCED_FACE('',(#690),#682,.F.);
#692=CARTESIAN_POINT('',(-2.4E2,0.E0,-4.E1));
#693=DIRECTION('',(0.E0,0.E0,-1.E0));
#694=DIRECTION('',(1.E0,0.E0,0.E0));
#695=AXIS2_PLACEMENT_3D('',#692,#693,#694);
#696=PLANE('',#695);
#697=ORIENTED_EDGE('',*,*,#640,.F.);
#698=ORIENTED_EDGE('',*,*,#659,.T.);
#700=ORIENTED_EDGE('',*,*,#699,.T.);
#701=ORIENTED_EDGE('',*,*,#684,.F.);
#702=EDGE_LOOP('',(#697,#698,#700,#701));
#703=FACE_OUTER_BOUND('',#702,.F.);
#704=ADVANCED_FACE('',(#703),#696,.F.);
#705=CARTESIAN_POINT('',(0.E0,1.5E1,0.E0));
#706=DIRECTION('',(0.E0,-1.E0,0.E0));
#707=DIRECTION('',(1.E0,0.E0,0.E0));
#708=AXIS2_PLACEMENT_3D('',#705,#706,#707);
#709=PLANE('',#708);
#710=ORIENTED_EDGE('',*,*,#657,.F.);
#711=ORIENTED_EDGE('',*,*,#672,.F.);
#712=ORIENTED_EDGE('',*,*,#686,.F.);
#713=ORIENTED_EDGE('',*,*,#699,.F.);
#714=EDGE_LOOP('',(#710,#711,#712,#713));
#715=FACE_OUTER_BOUND('',#714,.F.);
#716=ADVANCED_FACE('',(#715),#709,.T.);
#717=CARTESIAN_POINT('',(0.E0,1.5E1,0.E0));
#718=DIRECTION('',(0.E0,-1.E0,0.E0));
#719=DIRECTION('',(1.E0,0.E0,0.E0));
#720=AXIS2_PLACEMENT_3D('',#717,#718,#719);
#721=PLANE('',#720);
#723=ORIENTED_EDGE('',*,*,#722,.F.);
#725=ORIENTED_EDGE('',*,*,#724,.F.);
#727=ORIENTED_EDGE('',*,*,#726,.F.);
#729=ORIENTED_EDGE('',*,*,#728,.F.);
#730=EDGE_LOOP('',(#723,#725,#727,#729));
#731=FACE_OUTER_BOUND('',#730,.F.);
#732=ADVANCED_FACE('',(#731),#721,.T.);
#733=CARTESIAN_POINT('',(0.E0,1.5E1,0.E0));
#734=DIRECTION('',(0.E0,-1.E0,0.E0));
#735=DIRECTION('',(1.E0,0.E0,0.E0));
#736=AXIS2_PLACEMENT_3D('',#733,#734,#735);
#737=PLANE('',#736);
#739=ORIENTED_EDGE('',*,*,#738,.F.);
#741=ORIENTED_EDGE('',*,*,#740,.F.);
#743=ORIENTED_EDGE('',*,*,#742,.F.);
#745=ORIENTED_EDGE('',*,*,#744,.F.);
#746=EDGE_LOOP('',(#739,#741,#743,#745));
#747=FACE_OUTER_BOUND('',#746,.F.);
#748=ADVANCED_FACE('',(#747),#737,.T.);
#749=CARTESIAN_POINT('',(0.E0,1.5E1,0.E0));
#750=DIRECTION('',(0.E0,-1.E0,0.E0));
#751=DIRECTION('',(1.E0,0.E0,0.E0));
#752=AXIS2_PLACEMENT_3D('',#749,#750,#751);
#753=PLANE('',#752);
#755=ORIENTED_EDGE('',*,*,#754,.F.);
#757=ORIENTED_EDGE('',*,*,#756,.F.);
#759=ORIENTED_EDGE('',*,*,#758,.F.);
#761=ORIENTED_EDGE('',*,*,#760,.F.);
#762=EDGE_LOOP('',(#755,#757,#759,#761));
#763=FACE_OUTER_BOUND('',#762,.F.);
#764=ADVANCED_FACE('',(#763),#753,.T.);
#765=CARTESIAN_POINT('',(-1.E1,0.E0,-4.E1));
#766=DIRECTION('',(1.E0,0.E0,0.E0));
#767=DIRECTION('',(0.E0,0.E0,1.E0));
#768=AXIS2_PLACEMENT_3D('',#765,#766,#767);
#769=PLANE('',#768);
#770=ORIENTED_EDGE('',*,*,#608,.F.);
#772=ORIENTED_EDGE('',*,*,#771,.T.);
#773=ORIENTED_EDGE('',*,*,#722,.T.);
#775=ORIENTED_EDGE('',*,*,#774,.F.);
#776=EDGE_LOOP('',(#770,#772,#773,#775));
#777=FACE_OUTER_BOUND('',#776,.F.);
#778=ADVANCED_FACE('',(#777),#769,.F.);
#779=CARTESIAN_POINT('',(-4.E1,0.E0,-4.E1));
#780=DIRECTION('',(0.E0,0.E0,-1.E0));
#781=DIRECTION('',(1.E0,0.E0,0.E0));
#782=AXIS2_PLACEMENT_3D('',#779,#780,#781);
#783=PLANE('',#782);
#784=ORIENTED_EDGE('',*,*,#614,.F.);
#786=ORIENTED_EDGE('',*,*,#785,.T.);
#787=ORIENTED_EDGE('',*,*,#724,.T.);
#788=ORIENTED_EDGE('',*,*,#771,.F.);
#789=EDGE_LOOP('',(#784,#786,#787,#788));
#790=FACE_OUTER_BOUND('',#789,.F.);
#791=ADVANCED_FACE('',(#790),#783,.F.);
#792=CARTESIAN_POINT('',(-4.E1,0.E0,-1.E1));
#793=DIRECTION('',(-1.E0,0.E0,0.E0));
#794=DIRECTION('',(0.E0,0.E0,-1.E0));
#795=AXIS2_PLACEMENT_3D('',#792,#793,#794);
#796=PLANE('',#795);
#797=ORIENTED_EDGE('',*,*,#612,.F.);
#799=ORIENTED_EDGE('',*,*,#798,.T.);
#800=ORIENTED_EDGE('',*,*,#726,.T.);
#801=ORIENTED_EDGE('',*,*,#785,.F.);
#802=EDGE_LOOP('',(#797,#799,#800,#801));
#803=FACE_OUTER_BOUND('',#802,.F.);
#804=ADVANCED_FACE('',(#803),#796,.F.);
#805=CARTESIAN_POINT('',(-1.E1,0.E0,-1.E1));
#806=DIRECTION('',(0.E0,0.E0,1.E0));
#807=DIRECTION('',(-1.E0,0.E0,0.E0));
#808=AXIS2_PLACEMENT_3D('',#805,#806,#807);
#809=PLANE('',#808);
#810=ORIENTED_EDGE('',*,*,#610,.F.);
#811=ORIENTED_EDGE('',*,*,#774,.T.);
#812=ORIENTED_EDGE('',*,*,#728,.T.);
#813=ORIENTED_EDGE('',*,*,#798,.F.);
#814=EDGE_LOOP('',(#810,#811,#812,#813));
#815=FACE_OUTER_BOUND('',#814,.F.);
#816=ADVANCED_FACE('',(#815),#809,.F.);
#817=CARTESIAN_POINT('',(-2.4E2,0.E0,-2.4E2));
#818=DIRECTION('',(0.E0,0.E0,-1.E0));
#819=DIRECTION('',(1.E0,0.E0,0.E0));
#820=AXIS2_PLACEMENT_3D('',#817,#818,#819);
#821=PLANE('',#820);
#822=ORIENTED_EDGE('',*,*,#618,.F.);
#824=ORIENTED_EDGE('',*,*,#823,.T.);
#825=ORIENTED_EDGE('',*,*,#738,.T.);
#827=ORIENTED_EDGE('',*,*,#826,.F.);
#828=EDGE_LOOP('',(#822,#824,#825,#827));
#829=FACE_OUTER_BOUND('',#828,.F.);
#830=ADVANCED_FACE('',(#829),#821,.F.);
#831=CARTESIAN_POINT('',(-2.4E2,0.E0,-2.1E2));
#832=DIRECTION('',(-1.E0,0.E0,0.E0));
#833=DIRECTION('',(0.E0,0.E0,-1.E0));
#834=AXIS2_PLACEMENT_3D('',#831,#832,#833);
#835=PLANE('',#834);
#836=ORIENTED_EDGE('',*,*,#624,.F.);
#838=ORIENTED_EDGE('',*,*,#837,.T.);
#839=ORIENTED_EDGE('',*,*,#740,.T.);
#840=ORIENTED_EDGE('',*,*,#823,.F.);
#841=EDGE_LOOP('',(#836,#838,#839,#840));
#842=FACE_OUTER_BOUND('',#841,.F.);
#843=ADVANCED_FACE('',(#842),#835,.F.);
#844=CARTESIAN_POINT('',(-2.1E2,0.E0,-2.1E2));
#845=DIRECTION('',(0.E0,0.E0,1.E0));
#846=DIRECTION('',(-1.E0,0.E0,0.E0));
#847=AXIS2_PLACEMENT_3D('',#844,#845,#846);
#848=PLANE('',#847);
#849=ORIENTED_EDGE('',*,*,#622,.F.);
#851=ORIENTED_EDGE('',*,*,#850,.T.);
#852=ORIENTED_EDGE('',*,*,#742,.T.);
#853=ORIENTED_EDGE('',*,*,#837,.F.);
#854=EDGE_LOOP('',(#849,#851,#852,#853));
#855=FACE_OUTER_BOUND('',#854,.F.);
#856=ADVANCED_FACE('',(#855),#848,.F.);
#857=CARTESIAN_POINT('',(-2.1E2,0.E0,-2.4E2));
#858=DIRECTION('',(1.E0,0.E0,0.E0));
#859=DIRECTION('',(0.E0,0.E0,1.E0));
#860=AXIS2_PLACEMENT_3D('',#857,#858,#859);
#861=PLANE('',#860);
#862=ORIENTED_EDGE('',*,*,#620,.F.);
#863=ORIENTED_EDGE('',*,*,#826,.T.);
#864=ORIENTED_EDGE('',*,*,#744,.T.);
#865=ORIENTED_EDGE('',*,*,#850,.F.);
#866=EDGE_LOOP('',(#862,#863,#864,#865));
#867=FACE_OUTER_BOUND('',#866,.F.);
#868=ADVANCED_FACE('',(#867),#861,.F.);
#869=CARTESIAN_POINT('',(-1.E1,0.E0,-2.4E2));
#870=DIRECTION('',(1.E0,0.E0,0.E0));
#871=DIRECTION('',(0.E0,0.E0,1.E0));
#872=AXIS2_PLACEMENT_3D('',#869,#870,#871);
#873=PLANE('',#872);
#874=ORIENTED_EDGE('',*,*,#628,.F.);
#876=ORIENTED_EDGE('',*,*,#875,.T.);
#877=ORIENTED_EDGE('',*,*,#754,.T.);
#879=ORIENTED_EDGE('',*,*,#878,.F.);
#880=EDGE_LOOP('',(#874,#876,#877,#879));
#881=FACE_OUTER_BOUND('',#880,.F.);
#882=ADVANCED_FACE('',(#881),#873,.F.);
#883=CARTESIAN_POINT('',(-4.E1,0.E0,-2.4E2));
#884=DIRECTION('',(0.E0,0.E0,-1.E0));
#885=DIRECTION('',(1.E0,0.E0,0.E0));
#886=AXIS2_PLACEMENT_3D('',#883,#884,#885);
#887=PLANE('',#886);
#888=ORIENTED_EDGE('',*,*,#634,.F.);
#890=ORIENTED_EDGE('',*,*,#889,.T.);
#891=ORIENTED_EDGE('',*,*,#756,.T.);
#892=ORIENTED_EDGE('',*,*,#875,.F.);
#893=EDGE_LOOP('',(#888,#890,#891,#892));
#894=FACE_OUTER_BOUND('',#893,.F.);
#895=ADVANCED_FACE('',(#894),#887,.F.);
#896=CARTESIAN_POINT('',(-4.E1,0.E0,-2.1E2));
#897=DIRECTION('',(-1.E0,0.E0,0.E0));
#898=DIRECTION('',(0.E0,0.E0,-1.E0));
#899=AXIS2_PLACEMENT_3D('',#896,#897,#898);
#900=PLANE('',#899);
#901=ORIENTED_EDGE('',*,*,#632,.F.);
#903=ORIENTED_EDGE('',*,*,#902,.T.);
#904=ORIENTED_EDGE('',*,*,#758,.T.);
#905=ORIENTED_EDGE('',*,*,#889,.F.);
#906=EDGE_LOOP('',(#901,#903,#904,#905));
#907=FACE_OUTER_BOUND('',#906,.F.);
#908=ADVANCED_FACE('',(#907),#900,.F.);
#909=CARTESIAN_POINT('',(-1.E1,0.E0,-2.1E2));
#910=DIRECTION('',(0.E0,0.E0,1.E0));
#911=DIRECTION('',(-1.E0,0.E0,0.E0));
#912=AXIS2_PLACEMENT_3D('',#909,#910,#911);
#913=PLANE('',#912);
#914=ORIENTED_EDGE('',*,*,#630,.F.);
#915=ORIENTED_EDGE('',*,*,#878,.T.);
#916=ORIENTED_EDGE('',*,*,#760,.T.);
#917=ORIENTED_EDGE('',*,*,#902,.F.);
#918=EDGE_LOOP('',(#914,#915,#916,#917));
#919=FACE_OUTER_BOUND('',#918,.F.);
#920=ADVANCED_FACE('',(#919),#913,.F.);
#921=CARTESIAN_POINT('',(0.E0,5.E1,-2.5E2));
#922=DIRECTION('',(-1.E0,0.E0,0.E0));
#923=DIRECTION('',(0.E0,0.E0,1.E0));
#924=AXIS2_PLACEMENT_3D('',#921,#922,#923);
#925=PLANE('',#924);
#926=ORIENTED_EDGE('',*,*,#598,.F.);
#928=ORIENTED_EDGE('',*,*,#927,.T.);
#930=ORIENTED_EDGE('',*,*,#929,.F.);
#932=ORIENTED_EDGE('',*,*,#931,.F.);
#933=EDGE_LOOP('',(#926,#928,#930,#932));
#934=FACE_OUTER_BOUND('',#933,.F.);
#935=ADVANCED_FACE('',(#934),#925,.T.);
#936=CARTESIAN_POINT('',(0.E0,5.E1,0.E0));
#937=DIRECTION('',(0.E0,0.E0,-1.E0));
#938=DIRECTION('',(-1.E0,0.E0,0.E0));
#939=AXIS2_PLACEMENT_3D('',#936,#937,#938);
#940=PLANE('',#939);
#941=ORIENTED_EDGE('',*,*,#604,.F.);
#943=ORIENTED_EDGE('',*,*,#942,.T.);
#945=ORIENTED_EDGE('',*,*,#944,.F.);
#946=ORIENTED_EDGE('',*,*,#927,.F.);
#947=EDGE_LOOP('',(#941,#943,#945,#946));
#948=FACE_OUTER_BOUND('',#947,.F.);
#949=ADVANCED_FACE('',(#948),#940,.T.);
#950=CARTESIAN_POINT('',(-2.5E2,5.E1,0.E0));
#951=DIRECTION('',(1.E0,0.E0,0.E0));
#952=DIRECTION('',(0.E0,0.E0,-1.E0));
#953=AXIS2_PLACEMENT_3D('',#950,#951,#952);
#954=PLANE('',#953);
#955=ORIENTED_EDGE('',*,*,#602,.T.);
#957=ORIENTED_EDGE('',*,*,#956,.T.);
#959=ORIENTED_EDGE('',*,*,#958,.F.);
#960=ORIENTED_EDGE('',*,*,#942,.F.);
#961=EDGE_LOOP('',(#955,#957,#959,#960));
#962=FACE_OUTER_BOUND('',#961,.F.);
#963=ADVANCED_FACE('',(#962),#954,.T.);
#964=CARTESIAN_POINT('',(-2.5E2,5.E1,-2.5E2));
#965=DIRECTION('',(0.E0,0.E0,1.E0));
#966=DIRECTION('',(1.E0,0.E0,0.E0));
#967=AXIS2_PLACEMENT_3D('',#964,#965,#966);
#968=PLANE('',#967);
#969=ORIENTED_EDGE('',*,*,#600,.T.);
#970=ORIENTED_EDGE('',*,*,#931,.T.);
#972=ORIENTED_EDGE('',*,*,#971,.F.);
#973=ORIENTED_EDGE('',*,*,#956,.F.);
#974=EDGE_LOOP('',(#969,#970,#972,#973));
#975=FACE_OUTER_BOUND('',#974,.F.);
#976=ADVANCED_FACE('',(#975),#968,.T.);
#977=CARTESIAN_POINT('',(0.E0,-3.E1,0.E0));
#978=DIRECTION('',(0.E0,1.E0,0.E0));
#979=DIRECTION('',(0.E0,0.E0,1.E0));
#980=AXIS2_PLACEMENT_3D('',#977,#978,#979);
#981=PLANE('',#980);
#983=ORIENTED_EDGE('',*,*,#982,.F.);
#985=ORIENTED_EDGE('',*,*,#984,.T.);
#987=ORIENTED_EDGE('',*,*,#986,.F.);
#989=ORIENTED_EDGE('',*,*,#988,.F.);
#990=EDGE_LOOP('',(#983,#985,#987,#989));
#991=FACE_OUTER_BOUND('',#990,.F.);
#992=ORIENTED_EDGE('',*,*,#929,.T.);
#993=ORIENTED_EDGE('',*,*,#944,.T.);
#994=ORIENTED_EDGE('',*,*,#958,.T.);
#995=ORIENTED_EDGE('',*,*,#971,.T.);
#996=EDGE_LOOP('',(#992,#993,#994,#995));
#997=FACE_BOUND('',#996,.F.);
#998=ADVANCED_FACE('',(#991,#997),#981,.F.);
#999=CARTESIAN_POINT('',(0.E0,5.E1,1.E1));
#1000=DIRECTION('',(0.E0,0.E0,1.E0));
#1001=DIRECTION('',(1.E0,0.E0,0.E0));
#1002=AXIS2_PLACEMENT_3D('',#999,#1000,#1001);
#1003=PLANE('',#1002);
#1005=ORIENTED_EDGE('',*,*,#1004,.T.);
#1007=ORIENTED_EDGE('',*,*,#1006,.T.);
#1008=ORIENTED_EDGE('',*,*,#982,.T.);
#1010=ORIENTED_EDGE('',*,*,#1009,.F.);
#1011=EDGE_LOOP('',(#1005,#1007,#1008,#1010));
#1012=FACE_OUTER_BOUND('',#1011,.F.);
#1013=ADVANCED_FACE('',(#1012),#1003,.T.);
#1014=CARTESIAN_POINT('',(-2.6E2,4.E1,1.E1));
#1015=DIRECTION('',(0.E0,-1.E0,0.E0));
#1016=DIRECTION('',(1.E0,0.E0,0.E0));
#1017=AXIS2_PLACEMENT_3D('',#1014,#1015,#1016);
#1018=PLANE('',#1017);
#1019=ORIENTED_EDGE('',*,*,#1004,.F.);
#1021=ORIENTED_EDGE('',*,*,#1020,.T.);
#1023=ORIENTED_EDGE('',*,*,#1022,.T.);
#1025=ORIENTED_EDGE('',*,*,#1024,.F.);
#1026=EDGE_LOOP('',(#1019,#1021,#1023,#1025));
#1027=FACE_OUTER_BOUND('',#1026,.F.);
#1029=ORIENTED_EDGE('',*,*,#1028,.T.);
#1031=ORIENTED_EDGE('',*,*,#1030,.T.);
#1032=EDGE_LOOP('',(#1029,#1031));
#1033=FACE_BOUND('',#1032,.F.);
#1035=ORIENTED_EDGE('',*,*,#1034,.T.);
#1037=ORIENTED_EDGE('',*,*,#1036,.T.);
#1038=EDGE_LOOP('',(#1035,#1037));
#1039=FACE_BOUND('',#1038,.F.);
#1040=ADVANCED_FACE('',(#1027,#1033,#1039),#1018,.T.);
#1041=CARTESIAN_POINT('',(-2.6E2,5.E1,-2.6E2));
#1042=DIRECTION('',(-1.E0,0.E0,0.E0));
#1043=DIRECTION('',(0.E0,0.E0,1.E0));
#1044=AXIS2_PLACEMENT_3D('',#1041,#1042,#1043);
#1045=PLANE('',#1044);
#1047=ORIENTED_EDGE('',*,*,#1046,.F.);
#1049=ORIENTED_EDGE('',*,*,#1048,.T.);
#1051=ORIENTED_EDGE('',*,*,#1050,.T.);
#1053=ORIENTED_EDGE('',*,*,#1052,.T.);
#1055=ORIENTED_EDGE('',*,*,#1054,.T.);
#1056=ORIENTED_EDGE('',*,*,#1020,.F.);
#1057=ORIENTED_EDGE('',*,*,#1009,.T.);
#1058=ORIENTED_EDGE('',*,*,#988,.T.);
#1059=EDGE_LOOP('',(#1047,#1049,#1051,#1053,#1055,#1056,#1057,#1058));
#1060=FACE_OUTER_BOUND('',#1059,.F.);
#1061=ADVANCED_FACE('',(#1060),#1045,.T.);
#1062=CARTESIAN_POINT('',(1.E1,5.E1,-2.6E2));
#1063=DIRECTION('',(0.E0,0.E0,-1.E0));
#1064=DIRECTION('',(-1.E0,0.E0,0.E0));
#1065=AXIS2_PLACEMENT_3D('',#1062,#1063,#1064);
#1066=PLANE('',#1065);
#1068=ORIENTED_EDGE('',*,*,#1067,.T.);
#1069=ORIENTED_EDGE('',*,*,#1046,.T.);
#1070=ORIENTED_EDGE('',*,*,#986,.T.);
#1072=ORIENTED_EDGE('',*,*,#1071,.F.);
#1073=EDGE_LOOP('',(#1068,#1069,#1070,#1072));
#1074=FACE_OUTER_BOUND('',#1073,.F.);
#1075=ADVANCED_FACE('',(#1074),#1066,.T.);
#1076=CARTESIAN_POINT('',(1.E1,4.E1,-2.6E2));
#1077=DIRECTION('',(0.E0,-1.E0,0.E0));
#1078=DIRECTION('',(-1.E0,0.E0,0.E0));
#1079=AXIS2_PLACEMENT_3D('',#1076,#1077,#1078);
#1080=PLANE('',#1079);
#1081=ORIENTED_EDGE('',*,*,#1067,.F.);
#1083=ORIENTED_EDGE('',*,*,#1082,.T.);
#1085=ORIENTED_EDGE('',*,*,#1084,.T.);
#1086=ORIENTED_EDGE('',*,*,#1048,.F.);
#1087=EDGE_LOOP('',(#1081,#1083,#1085,#1086));
#1088=FACE_OUTER_BOUND('',#1087,.F.);
#1090=ORIENTED_EDGE('',*,*,#1089,.T.);
#1092=ORIENTED_EDGE('',*,*,#1091,.T.);
#1093=EDGE_LOOP('',(#1090,#1092));
#1094=FACE_BOUND('',#1093,.F.);
#1096=ORIENTED_EDGE('',*,*,#1095,.T.);
#1098=ORIENTED_EDGE('',*,*,#1097,.T.);
#1099=EDGE_LOOP('',(#1096,#1098));
#1100=FACE_BOUND('',#1099,.F.);
#1101=ADVANCED_FACE('',(#1088,#1094,#1100),#1080,.T.);
#1102=CARTESIAN_POINT('',(1.E1,5.E1,1.E1));
#1103=DIRECTION('',(1.E0,0.E0,0.E0));
#1104=DIRECTION('',(0.E0,0.E0,-1.E0));
#1105=AXIS2_PLACEMENT_3D('',#1102,#1103,#1104);
#1106=PLANE('',#1105);
#1108=ORIENTED_EDGE('',*,*,#1107,.T.);
#1110=ORIENTED_EDGE('',*,*,#1109,.T.);
#1111=ORIENTED_EDGE('',*,*,#1082,.F.);
#1112=ORIENTED_EDGE('',*,*,#1071,.T.);
#1113=ORIENTED_EDGE('',*,*,#984,.F.);
#1114=ORIENTED_EDGE('',*,*,#1006,.F.);
#1115=ORIENTED_EDGE('',*,*,#1024,.T.);
#1117=ORIENTED_EDGE('',*,*,#1116,.T.);
#1118=EDGE_LOOP('',(#1108,#1110,#1111,#1112,#1113,#1114,#1115,#1117));
#1119=FACE_OUTER_BOUND('',#1118,.F.);
#1120=ADVANCED_FACE('',(#1119),#1106,.T.);
#1121=CARTESIAN_POINT('',(0.E0,5.E1,0.E0));
#1122=DIRECTION('',(0.E0,1.E0,0.E0));
#1123=DIRECTION('',(1.E0,0.E0,0.E0));
#1124=AXIS2_PLACEMENT_3D('',#1121,#1122,#1123);
#1125=PLANE('',#1124);
#1126=ORIENTED_EDGE('',*,*,#1052,.F.);
#1128=ORIENTED_EDGE('',*,*,#1127,.T.);
#1129=ORIENTED_EDGE('',*,*,#1107,.F.);
#1131=ORIENTED_EDGE('',*,*,#1130,.T.);
#1132=EDGE_LOOP('',(#1126,#1128,#1129,#1131));
#1133=FACE_OUTER_BOUND('',#1132,.F.);
#1135=ORIENTED_EDGE('',*,*,#1134,.F.);
#1137=ORIENTED_EDGE('',*,*,#1136,.F.);
#1138=EDGE_LOOP('',(#1135,#1137));
#1139=FACE_BOUND('',#1138,.F.);
#1141=ORIENTED_EDGE('',*,*,#1140,.F.);
#1143=ORIENTED_EDGE('',*,*,#1142,.F.);
#1144=EDGE_LOOP('',(#1141,#1143));
#1145=FACE_BOUND('',#1144,.F.);
#1147=ORIENTED_EDGE('',*,*,#1146,.F.);
#1149=ORIENTED_EDGE('',*,*,#1148,.F.);
#1150=EDGE_LOOP('',(#1147,#1149));
#1151=FACE_BOUND('',#1150,.F.);
#1153=ORIENTED_EDGE('',*,*,#1152,.F.);
#1155=ORIENTED_EDGE('',*,*,#1154,.F.);
#1156=EDGE_LOOP('',(#1153,#1155));
#1157=FACE_BOUND('',#1156,.F.);
#1158=ADVANCED_FACE('',(#1133,#1139,#1145,#1151,#1157),#1125,.T.);
#1159=CARTESIAN_POINT('',(0.E0,4.E1,2.5E1));
#1160=DIRECTION('',(0.E0,-1.E0,0.E0));
#1161=DIRECTION('',(0.E0,0.E0,1.E0));
#1162=AXIS2_PLACEMENT_3D('',#1159,#1160,#1161);
#1163=CYLINDRICAL_SURFACE('',#1162,3.5E0);
#1164=ORIENTED_EDGE('',*,*,#1140,.T.);
#1166=ORIENTED_EDGE('',*,*,#1165,.F.);
#1167=ORIENTED_EDGE('',*,*,#1028,.F.);
#1169=ORIENTED_EDGE('',*,*,#1168,.T.);
#1170=EDGE_LOOP('',(#1164,#1166,#1167,#1169));
#1171=FACE_OUTER_BOUND('',#1170,.F.);
#1172=ADVANCED_FACE('',(#1171),#1163,.F.);
#1173=CARTESIAN_POINT('',(0.E0,4.E1,2.5E1));
#1174=DIRECTION('',(0.E0,-1.E0,0.E0));
#1175=DIRECTION('',(0.E0,0.E0,1.E0));
#1176=AXIS2_PLACEMENT_3D('',#1173,#1174,#1175);
#1177=CYLINDRICAL_SURFACE('',#1176,3.5E0);
#1178=ORIENTED_EDGE('',*,*,#1142,.T.);
#1179=ORIENTED_EDGE('',*,*,#1168,.F.);
#1180=ORIENTED_EDGE('',*,*,#1030,.F.);
#1181=ORIENTED_EDGE('',*,*,#1165,.T.);
#1182=EDGE_LOOP('',(#1178,#1179,#1180,#1181));
#1183=FACE_OUTER_BOUND('',#1182,.F.);
#1184=ADVANCED_FACE('',(#1183),#1177,.F.);
#1185=CARTESIAN_POINT('',(-2.5E2,4.E1,2.5E1));
#1186=DIRECTION('',(0.E0,-1.E0,0.E0));
#1187=DIRECTION('',(0.E0,0.E0,1.E0));
#1188=AXIS2_PLACEMENT_3D('',#1185,#1186,#1187);
#1189=CYLINDRICAL_SURFACE('',#1188,3.5E0);
#1190=ORIENTED_EDGE('',*,*,#1134,.T.);
#1192=ORIENTED_EDGE('',*,*,#1191,.F.);
#1193=ORIENTED_EDGE('',*,*,#1034,.F.);
#1195=ORIENTED_EDGE('',*,*,#1194,.T.);
#1196=EDGE_LOOP('',(#1190,#1192,#1193,#1195));
#1197=FACE_OUTER_BOUND('',#1196,.F.);
#1198=ADVANCED_FACE('',(#1197),#1189,.F.);
#1199=CARTESIAN_POINT('',(-2.5E2,4.E1,2.5E1));
#1200=DIRECTION('',(0.E0,-1.E0,0.E0));
#1201=DIRECTION('',(0.E0,0.E0,1.E0));
#1202=AXIS2_PLACEMENT_3D('',#1199,#1200,#1201);
#1203=CYLINDRICAL_SURFACE('',#1202,3.5E0);
#1204=ORIENTED_EDGE('',*,*,#1136,.T.);
#1205=ORIENTED_EDGE('',*,*,#1194,.F.);
#1206=ORIENTED_EDGE('',*,*,#1036,.F.);
#1207=ORIENTED_EDGE('',*,*,#1191,.T.);
#1208=EDGE_LOOP('',(#1204,#1205,#1206,#1207));
#1209=FACE_OUTER_BOUND('',#1208,.F.);
#1210=ADVANCED_FACE('',(#1209),#1203,.F.);
#1211=CARTESIAN_POINT('',(0.E0,-3.E1,-2.85E2));
#1212=DIRECTION('',(0.E0,0.E0,-1.E0));
#1213=DIRECTION('',(1.E0,0.E0,0.E0));
#1214=AXIS2_PLACEMENT_3D('',#1211,#1212,#1213);
#1215=PLANE('',#1214);
#1216=ORIENTED_EDGE('',*,*,#1127,.F.);
#1217=ORIENTED_EDGE('',*,*,#1050,.F.);
#1218=ORIENTED_EDGE('',*,*,#1084,.F.);
#1219=ORIENTED_EDGE('',*,*,#1109,.F.);
#1220=EDGE_LOOP('',(#1216,#1217,#1218,#1219));
#1221=FACE_OUTER_BOUND('',#1220,.F.);
#1222=ADVANCED_FACE('',(#1221),#1215,.T.);
#1223=CARTESIAN_POINT('',(0.E0,-3.E1,3.5E1));
#1224=DIRECTION('',(0.E0,0.E0,1.E0));
#1225=DIRECTION('',(-1.E0,0.E0,0.E0));
#1226=AXIS2_PLACEMENT_3D('',#1223,#1224,#1225);
#1227=PLANE('',#1226);
#1228=ORIENTED_EDGE('',*,*,#1130,.F.);
#1229=ORIENTED_EDGE('',*,*,#1116,.F.);
#1230=ORIENTED_EDGE('',*,*,#1022,.F.);
#1231=ORIENTED_EDGE('',*,*,#1054,.F.);
#1232=EDGE_LOOP('',(#1228,#1229,#1230,#1231));
#1233=FACE_OUTER_BOUND('',#1232,.F.);
#1234=ADVANCED_FACE('',(#1233),#1227,.T.);
#1235=CARTESIAN_POINT('',(0.E0,4.E1,-2.75E2));
#1236=DIRECTION('',(0.E0,-1.E0,0.E0));
#1237=DIRECTION('',(0.E0,0.E0,1.E0));
#1238=AXIS2_PLACEMENT_3D('',#1235,#1236,#1237);
#1239=CYLINDRICAL_SURFACE('',#1238,3.5E0);
#1240=ORIENTED_EDGE('',*,*,#1146,.T.);
#1242=ORIENTED_EDGE('',*,*,#1241,.F.);
#1243=ORIENTED_EDGE('',*,*,#1089,.F.);
#1245=ORIENTED_EDGE('',*,*,#1244,.T.);
#1246=EDGE_LOOP('',(#1240,#1242,#1243,#1245));
#1247=FACE_OUTER_BOUND('',#1246,.F.);
#1248=ADVANCED_FACE('',(#1247),#1239,.F.);
#1249=CARTESIAN_POINT('',(0.E0,4.E1,-2.75E2));
#1250=DIRECTION('',(0.E0,-1.E0,0.E0));
#1251=DIRECTION('',(0.E0,0.E0,1.E0));
#1252=AXIS2_PLACEMENT_3D('',#1249,#1250,#1251);
#1253=CYLINDRICAL_SURFACE('',#1252,3.5E0);
#1254=ORIENTED_EDGE('',*,*,#1148,.T.);
#1255=ORIENTED_EDGE('',*,*,#1244,.F.);
#1256=ORIENTED_EDGE('',*,*,#1091,.F.);
#1257=ORIENTED_EDGE('',*,*,#1241,.T.);
#1258=EDGE_LOOP('',(#1254,#1255,#1256,#1257));
#1259=FACE_OUTER_BOUND('',#1258,.F.);
#1260=ADVANCED_FACE('',(#1259),#1253,.F.);
#1261=CARTESIAN_POINT('',(-2.4E2,4.E1,-2.75E2));
#1262=DIRECTION('',(0.E0,-1.E0,0.E0));
#1263=DIRECTION('',(0.E0,0.E0,1.E0));
#1264=AXIS2_PLACEMENT_3D('',#1261,#1262,#1263);
#1265=CYLINDRICAL_SURFACE('',#1264,3.5E0);
#1266=ORIENTED_EDGE('',*,*,#1152,.T.);
#1268=ORIENTED_EDGE('',*,*,#1267,.F.);
#1269=ORIENTED_EDGE('',*,*,#1095,.F.);
#1271=ORIENTED_EDGE('',*,*,#1270,.T.);
#1272=EDGE_LOOP('',(#1266,#1268,#1269,#1271));
#1273=FACE_OUTER_BOUND('',#1272,.F.);
#1274=ADVANCED_FACE('',(#1273),#1265,.F.);
#1275=CARTESIAN_POINT('',(-2.4E2,4.E1,-2.75E2));
#1276=DIRECTION('',(0.E0,-1.E0,0.E0));
#1277=DIRECTION('',(0.E0,0.E0,1.E0));
#1278=AXIS2_PLACEMENT_3D('',#1275,#1276,#1277);
#1279=CYLINDRICAL_SURFACE('',#1278,3.5E0);
#1280=ORIENTED_EDGE('',*,*,#1154,.T.);
#1281=ORIENTED_EDGE('',*,*,#1270,.F.);
#1282=ORIENTED_EDGE('',*,*,#1097,.F.);
#1283=ORIENTED_EDGE('',*,*,#1267,.T.);
#1284=EDGE_LOOP('',(#1280,#1281,#1282,#1283));
#1285=FACE_OUTER_BOUND('',#1284,.F.);
#1286=ADVANCED_FACE('',(#1285),#1279,.F.);
#1290=DIMENSIONAL_EXPONENTS(0.E0,0.E0,0.E0,0.E0,0.E0,0.E0,0.E0);
#1292=PLANE_ANGLE_MEASURE_WITH_UNIT(PLANE_ANGLE_MEASURE(1.745329251994E-2),
#1291);
#1293=(CONVERSION_BASED_UNIT('DEGREE',#1292)NAMED_UNIT(*)PLANE_ANGLE_UNIT());
#1295=UNCERTAINTY_MEASURE_WITH_UNIT(LENGTH_MEASURE(1.E-2),#1289,'closure',
'Maximum model space distance between geometric entities at asserted connectivities');
#1296=(GEOMETRIC_REPRESENTATION_CONTEXT(3)GLOBAL_UNCERTAINTY_ASSIGNED_CONTEXT((
#1295))GLOBAL_UNIT_ASSIGNED_CONTEXT((#1289,#1293,#1294))REPRESENTATION_CONTEXT(
'ID1','3'));
#1298=APPLICATION_CONTEXT(
'CONFIGURATION CONTROLLED 3D DESIGNS OF MECHANICAL PARTS AND ASSEMBLIES');
#1299=APPLICATION_PROTOCOL_DEFINITION('international standard',
'config_control_design',1994,#1298);
#1300=DESIGN_CONTEXT('',#1298,'design');
#1301=MECHANICAL_CONTEXT('',#1298,'mechanical');
#1302=PRODUCT('HOTPLATETRAY','HOTPLATETRAY','NOT SPECIFIED',(#1301));
#1303=PRODUCT_DEFINITION_FORMATION_WITH_SPECIFIED_SOURCE('1','LAST_VERSION',
#1302,.MADE.);
#1307=PRODUCT_CATEGORY('part','');
#1308=PRODUCT_RELATED_PRODUCT_CATEGORY('detail','',(#1302));
#1309=PRODUCT_CATEGORY_RELATIONSHIP('','',#1307,#1308);
#1310=SECURITY_CLASSIFICATION_LEVEL('unclassified');
#1311=SECURITY_CLASSIFICATION('','',#1310);
#1312=CC_DESIGN_SECURITY_CLASSIFICATION(#1311,(#1303));
#1313=APPROVAL_STATUS('approved');
#1314=APPROVAL(#1313,'');
#1315=CC_DESIGN_APPROVAL(#1314,(#1311,#1303,#1304));
#1316=CALENDAR_DATE(126,27,5);
#1317=COORDINATED_UNIVERSAL_TIME_OFFSET(9,0,.AHEAD.);
#1318=LOCAL_TIME(15,10,7.E0,#1317);
#1319=DATE_AND_TIME(#1316,#1318);
#1320=APPROVAL_DATE_TIME(#1319,#1314);
#1321=DATE_TIME_ROLE('creation_date');
#1322=CC_DESIGN_DATE_AND_TIME_ASSIGNMENT(#1319,#1321,(#1304));
#1323=DATE_TIME_ROLE('classification_date');
#1324=CC_DESIGN_DATE_AND_TIME_ASSIGNMENT(#1319,#1323,(#1311));
#1325=PERSON('UNSPECIFIED','UNSPECIFIED',$,$,$,$);
#1326=ORGANIZATION('UNSPECIFIED','UNSPECIFIED','UNSPECIFIED');
#1327=PERSON_AND_ORGANIZATION(#1325,#1326);
#1328=APPROVAL_ROLE('approver');
#1329=APPROVAL_PERSON_ORGANIZATION(#1327,#1314,#1328);
#1330=PERSON_AND_ORGANIZATION_ROLE('creator');
#1331=CC_DESIGN_PERSON_AND_ORGANIZATION_ASSIGNMENT(#1327,#1330,(#1303,#1304));
#1332=PERSON_AND_ORGANIZATION_ROLE('design_supplier');
#1333=CC_DESIGN_PERSON_AND_ORGANIZATION_ASSIGNMENT(#1327,#1332,(#1303));
#1334=PERSON_AND_ORGANIZATION_ROLE('classification_officer');
#1335=CC_DESIGN_PERSON_AND_ORGANIZATION_ASSIGNMENT(#1327,#1334,(#1311));
#1336=PERSON_AND_ORGANIZATION_ROLE('design_owner');
#1337=CC_DESIGN_PERSON_AND_ORGANIZATION_ASSIGNMENT(#1327,#1336,(#1302));
#265=CIRCLE('',#264,3.5E0);
#270=CIRCLE('',#269,3.5E0);
#275=CIRCLE('',#274,3.5E0);
#280=CIRCLE('',#279,3.5E0);
#317=CIRCLE('',#316,3.5E0);
#322=CIRCLE('',#321,3.5E0);
#327=CIRCLE('',#326,3.5E0);
#332=CIRCLE('',#331,3.5E0);
#349=CIRCLE('',#348,3.5E0);
#354=CIRCLE('',#353,3.5E0);
#359=CIRCLE('',#358,3.5E0);
#364=CIRCLE('',#363,3.5E0);
#369=CIRCLE('',#368,3.5E0);
#374=CIRCLE('',#373,3.5E0);
#379=CIRCLE('',#378,3.5E0);
#384=CIRCLE('',#383,3.5E0);
#598=EDGE_CURVE('',#527,#528,#68,.T.);
#600=EDGE_CURVE('',#532,#528,#72,.T.);
#602=EDGE_CURVE('',#530,#532,#76,.T.);
#604=EDGE_CURVE('',#530,#527,#80,.T.);
#608=EDGE_CURVE('',#491,#492,#20,.T.);
#610=EDGE_CURVE('',#492,#494,#24,.T.);
#612=EDGE_CURVE('',#494,#496,#28,.T.);
#614=EDGE_CURVE('',#496,#491,#32,.T.);
#618=EDGE_CURVE('',#499,#500,#36,.T.);
#620=EDGE_CURVE('',#500,#502,#40,.T.);
#622=EDGE_CURVE('',#502,#504,#44,.T.);
#624=EDGE_CURVE('',#504,#499,#48,.T.);
#628=EDGE_CURVE('',#507,#508,#52,.T.);
#630=EDGE_CURVE('',#508,#510,#56,.T.);
#632=EDGE_CURVE('',#510,#512,#60,.T.);
#634=EDGE_CURVE('',#512,#507,#64,.T.);
#638=EDGE_CURVE('',#483,#484,#4,.T.);
#640=EDGE_CURVE('',#484,#486,#8,.T.);
#642=EDGE_CURVE('',#486,#488,#12,.T.);
#644=EDGE_CURVE('',#488,#483,#16,.T.);
#655=EDGE_CURVE('',#483,#451,#84,.T.);
#657=EDGE_CURVE('',#451,#452,#100,.T.);
#659=EDGE_CURVE('',#484,#452,#96,.T.);
#670=EDGE_CURVE('',#488,#456,#88,.T.);
#672=EDGE_CURVE('',#456,#451,#104,.T.);
#684=EDGE_CURVE('',#486,#454,#92,.T.);
#686=EDGE_CURVE('',#454,#456,#108,.T.);
#699=EDGE_CURVE('',#452,#454,#112,.T.);
#722=EDGE_CURVE('',#459,#460,#116,.T.);
#724=EDGE_CURVE('',#464,#459,#120,.T.);
#726=EDGE_CURVE('',#462,#464,#124,.T.);
#728=EDGE_CURVE('',#460,#462,#128,.T.);
#738=EDGE_CURVE('',#467,#468,#132,.T.);
#740=EDGE_CURVE('',#472,#467,#136,.T.);
#742=EDGE_CURVE('',#470,#472,#140,.T.);
#744=EDGE_CURVE('',#468,#470,#144,.T.);
#754=EDGE_CURVE('',#475,#476,#148,.T.);
#756=EDGE_CURVE('',#480,#475,#152,.T.);
#758=EDGE_CURVE('',#478,#480,#156,.T.);
#760=EDGE_CURVE('',#476,#478,#160,.T.);
#771=EDGE_CURVE('',#491,#459,#164,.T.);
#774=EDGE_CURVE('',#492,#460,#176,.T.);
#785=EDGE_CURVE('',#496,#464,#168,.T.);
#798=EDGE_CURVE('',#494,#462,#172,.T.);
#823=EDGE_CURVE('',#499,#467,#180,.T.);
#826=EDGE_CURVE('',#500,#468,#192,.T.);
#837=EDGE_CURVE('',#504,#472,#184,.T.);
#850=EDGE_CURVE('',#502,#470,#188,.T.);
#875=EDGE_CURVE('',#507,#475,#196,.T.);
#878=EDGE_CURVE('',#508,#476,#208,.T.);
#889=EDGE_CURVE('',#512,#480,#200,.T.);
#902=EDGE_CURVE('',#510,#478,#204,.T.);
#927=EDGE_CURVE('',#527,#516,#216,.T.);
#929=EDGE_CURVE('',#515,#516,#228,.T.);
#931=EDGE_CURVE('',#528,#515,#212,.T.);
#942=EDGE_CURVE('',#530,#518,#220,.T.);
#944=EDGE_CURVE('',#516,#518,#232,.T.);
#956=EDGE_CURVE('',#532,#520,#224,.T.);
#958=EDGE_CURVE('',#518,#520,#236,.T.);
#971=EDGE_CURVE('',#520,#515,#240,.T.);
#982=EDGE_CURVE('',#523,#534,#252,.T.);
#984=EDGE_CURVE('',#523,#524,#244,.T.);
#986=EDGE_CURVE('',#536,#524,#304,.T.);
#988=EDGE_CURVE('',#534,#536,#296,.T.);
#1004=EDGE_CURVE('',#547,#548,#248,.T.);
#1006=EDGE_CURVE('',#548,#523,#340,.T.);
#1009=EDGE_CURVE('',#547,#534,#256,.T.);
#1020=EDGE_CURVE('',#547,#542,#260,.T.);
#1022=EDGE_CURVE('',#542,#544,#428,.T.);
#1024=EDGE_CURVE('',#548,#544,#344,.T.);
#1028=EDGE_CURVE('',#559,#560,#265,.T.);
#1030=EDGE_CURVE('',#560,#559,#270,.T.);
#1034=EDGE_CURVE('',#563,#564,#275,.T.);
#1036=EDGE_CURVE('',#564,#563,#280,.T.);
#1046=EDGE_CURVE('',#576,#536,#284,.T.);
#1048=EDGE_CURVE('',#576,#572,#288,.T.);
#1050=EDGE_CURVE('',#572,#567,#408,.T.);
#1052=EDGE_CURVE('',#567,#540,#292,.T.);
#1054=EDGE_CURVE('',#540,#542,#432,.T.);
#1067=EDGE_CURVE('',#575,#576,#300,.T.);
#1071=EDGE_CURVE('',#575,#524,#308,.T.);
#1082=EDGE_CURVE('',#575,#570,#312,.T.);
#1084=EDGE_CURVE('',#570,#572,#412,.T.);
#1089=EDGE_CURVE('',#587,#588,#317,.T.);
#1091=EDGE_CURVE('',#588,#587,#322,.T.);
#1095=EDGE_CURVE('',#591,#592,#327,.T.);
#1097=EDGE_CURVE('',#592,#591,#332,.T.);
#1107=EDGE_CURVE('',#539,#568,#336,.T.);
#1109=EDGE_CURVE('',#568,#570,#416,.T.);
#1116=EDGE_CURVE('',#544,#539,#424,.T.);
#1127=EDGE_CURVE('',#567,#568,#404,.T.);
#1130=EDGE_CURVE('',#539,#540,#420,.T.);
#1134=EDGE_CURVE('',#555,#556,#359,.T.);
#1136=EDGE_CURVE('',#556,#555,#364,.T.);
#1140=EDGE_CURVE('',#551,#552,#349,.T.);
#1142=EDGE_CURVE('',#552,#551,#354,.T.);
#1146=EDGE_CURVE('',#579,#580,#369,.T.);
#1148=EDGE_CURVE('',#580,#579,#374,.T.);
#1152=EDGE_CURVE('',#583,#584,#379,.T.);
#1154=EDGE_CURVE('',#584,#583,#384,.T.);
#1165=EDGE_CURVE('',#560,#552,#392,.T.);
#1168=EDGE_CURVE('',#559,#551,#388,.T.);
#1191=EDGE_CURVE('',#564,#556,#400,.T.);
#1194=EDGE_CURVE('',#563,#555,#396,.T.);
#1241=EDGE_CURVE('',#588,#580,#440,.T.);
#1244=EDGE_CURVE('',#587,#579,#436,.T.);
#1267=EDGE_CURVE('',#592,#584,#448,.T.);
#1270=EDGE_CURVE('',#591,#583,#444,.T.);
#1287=CLOSED_SHELL('',(#648,#663,#677,#691,#704,#716,#732,#748,#764,#778,#791,
#804,#816,#830,#843,#856,#868,#882,#895,#908,#920,#935,#949,#963,#976,#998,
#1013,#1040,#1061,#1075,#1101,#1120,#1158,#1172,#1184,#1198,#1210,#1222,#1234,
#1248,#1260,#1274,#1286));
#1288=MANIFOLD_SOLID_BREP('',#1287);
#1289=(LENGTH_UNIT()NAMED_UNIT(*)SI_UNIT(.MILLI.,.METRE.));
#1291=(NAMED_UNIT(*)PLANE_ANGLE_UNIT()SI_UNIT($,.RADIAN.));
#1294=(NAMED_UNIT(*)SI_UNIT($,.STERADIAN.)SOLID_ANGLE_UNIT());
#1297=ADVANCED_BREP_SHAPE_REPRESENTATION('',(#1288),#1296);
#1304=PRODUCT_DEFINITION('design','',#1303,#1300);
#1305=PRODUCT_DEFINITION_SHAPE('','SHAPE FOR HOTPLATETRAY.',#1304);
#1306=SHAPE_DEFINITION_REPRESENTATION(#1305,#1297);
ENDSEC;
END-ISO-10303-21;
