ISO-10303-21;
HEADER;
FILE_DESCRIPTION((''),'2;1');
FILE_NAME('PIPETTEADAPTOR','2026-05-29T11:26:47',('user'),(''),
'CREO PARAMETRIC BY PTC INC, 2025102','CREO PARAMETRIC BY PTC INC, 2025102','');
FILE_SCHEMA(('CONFIG_CONTROL_DESIGN'));
ENDSEC;
DATA;
#1=DIRECTION('',(1.E0,0.E0,0.E0));
#2=VECTOR('',#1,2.3E1);
#3=CARTESIAN_POINT('',(-1.E1,7.E0,2.36E2));
#4=LINE('',#3,#2);
#5=DIRECTION('',(0.E0,0.E0,1.E0));
#6=VECTOR('',#5,1.E1);
#7=CARTESIAN_POINT('',(1.1E1,7.E0,-2.8E1));
#8=LINE('',#7,#6);
#9=DIRECTION('',(1.E0,0.E0,0.E0));
#10=VECTOR('',#9,1.1E1);
#11=CARTESIAN_POINT('',(2.3E1,7.E0,-2.8E1));
#12=LINE('',#11,#10);
#13=DIRECTION('',(0.E0,0.E0,1.E0));
#14=VECTOR('',#13,2.E1);
#15=CARTESIAN_POINT('',(3.4E1,7.E0,-2.8E1));
#16=LINE('',#15,#14);
#17=DIRECTION('',(0.E0,0.E0,1.E0));
#18=VECTOR('',#17,2.44E2);
#19=CARTESIAN_POINT('',(1.3E1,7.E0,-8.E0));
#20=LINE('',#19,#18);
#21=DIRECTION('',(1.E0,0.E0,0.E0));
#22=VECTOR('',#21,2.E1);
#23=CARTESIAN_POINT('',(1.3E1,-7.E0,2.36E2));
#24=LINE('',#23,#22);
#25=CARTESIAN_POINT('',(1.8E1,1.E1,2.36E2));
#26=DIRECTION('',(0.E0,0.E0,1.E0));
#27=DIRECTION('',(0.E0,1.E0,0.E0));
#28=AXIS2_PLACEMENT_3D('',#25,#26,#27);
#30=CARTESIAN_POINT('',(1.8E1,1.E1,2.36E2));
#31=DIRECTION('',(0.E0,0.E0,1.E0));
#32=DIRECTION('',(0.E0,-1.E0,0.E0));
#33=AXIS2_PLACEMENT_3D('',#30,#31,#32);
#35=CARTESIAN_POINT('',(3.E1,1.E1,2.36E2));
#36=DIRECTION('',(0.E0,0.E0,1.E0));
#37=DIRECTION('',(0.E0,1.E0,0.E0));
#38=AXIS2_PLACEMENT_3D('',#35,#36,#37);
#40=CARTESIAN_POINT('',(3.E1,1.E1,2.36E2));
#41=DIRECTION('',(0.E0,0.E0,1.E0));
#42=DIRECTION('',(0.E0,-1.E0,0.E0));
#43=AXIS2_PLACEMENT_3D('',#40,#41,#42);
#45=CARTESIAN_POINT('',(3.E1,7.E1,2.36E2));
#46=DIRECTION('',(0.E0,0.E0,1.E0));
#47=DIRECTION('',(0.E0,1.E0,0.E0));
#48=AXIS2_PLACEMENT_3D('',#45,#46,#47);
#50=CARTESIAN_POINT('',(3.E1,7.E1,2.36E2));
#51=DIRECTION('',(0.E0,0.E0,1.E0));
#52=DIRECTION('',(0.E0,-1.E0,0.E0));
#53=AXIS2_PLACEMENT_3D('',#50,#51,#52);
#55=CARTESIAN_POINT('',(1.8E1,7.E1,2.36E2));
#56=DIRECTION('',(0.E0,0.E0,1.E0));
#57=DIRECTION('',(0.E0,1.E0,0.E0));
#58=AXIS2_PLACEMENT_3D('',#55,#56,#57);
#60=CARTESIAN_POINT('',(1.8E1,7.E1,2.36E2));
#61=DIRECTION('',(0.E0,0.E0,1.E0));
#62=DIRECTION('',(0.E0,-1.E0,0.E0));
#63=AXIS2_PLACEMENT_3D('',#60,#61,#62);
#65=DIRECTION('',(0.E0,0.E0,-1.E0));
#66=VECTOR('',#65,1.7E1);
#67=CARTESIAN_POINT('',(1.3E1,-7.E0,4.4E1));
#68=LINE('',#67,#66);
#69=DIRECTION('',(0.E0,1.E0,0.E0));
#70=VECTOR('',#69,1.4E1);
#71=CARTESIAN_POINT('',(1.3E1,-7.E0,2.36E2));
#72=LINE('',#71,#70);
#73=DIRECTION('',(0.E0,0.E0,-1.E0));
#74=VECTOR('',#73,1.299725664054E1);
#75=CARTESIAN_POINT('',(1.3E1,0.E0,4.997256640537E0));
#76=LINE('',#75,#74);
#77=DIRECTION('',(0.E0,-1.E0,0.E0));
#78=VECTOR('',#77,7.E0);
#79=CARTESIAN_POINT('',(1.3E1,0.E0,4.997256640537E0));
#80=LINE('',#79,#78);
#81=DIRECTION('',(1.E0,0.E0,0.E0));
#82=VECTOR('',#81,3.1E1);
#83=CARTESIAN_POINT('',(1.3E1,-7.E0,2.7E1));
#84=LINE('',#83,#82);
#85=DIRECTION('',(0.E0,0.E0,1.E0));
#86=VECTOR('',#85,1.7E1);
#87=CARTESIAN_POINT('',(4.4E1,-7.E0,2.7E1));
#88=LINE('',#87,#86);
#89=DIRECTION('',(-1.E0,0.E0,0.E0));
#90=VECTOR('',#89,3.1E1);
#91=CARTESIAN_POINT('',(4.4E1,-7.E0,4.4E1));
#92=LINE('',#91,#90);
#93=DIRECTION('',(0.E0,-1.E0,0.E0));
#94=VECTOR('',#93,9.6E1);
#95=CARTESIAN_POINT('',(-1.E1,-7.E0,2.7E1));
#96=LINE('',#95,#94);
#97=CARTESIAN_POINT('',(3.1E1,-1.5E1,2.7E1));
#98=DIRECTION('',(0.E0,0.E0,1.E0));
#99=DIRECTION('',(0.E0,-1.E0,0.E0));
#100=AXIS2_PLACEMENT_3D('',#97,#98,#99);
#102=CARTESIAN_POINT('',(3.1E1,-1.5E1,2.7E1));
#103=DIRECTION('',(0.E0,0.E0,1.E0));
#104=DIRECTION('',(0.E0,1.E0,0.E0));
#105=AXIS2_PLACEMENT_3D('',#102,#103,#104);
#107=CARTESIAN_POINT('',(3.1E1,-9.5E1,2.7E1));
#108=DIRECTION('',(0.E0,0.E0,1.E0));
#109=DIRECTION('',(0.E0,-1.E0,0.E0));
#110=AXIS2_PLACEMENT_3D('',#107,#108,#109);
#112=CARTESIAN_POINT('',(3.1E1,-9.5E1,2.7E1));
#113=DIRECTION('',(0.E0,0.E0,1.E0));
#114=DIRECTION('',(0.E0,1.E0,0.E0));
#115=AXIS2_PLACEMENT_3D('',#112,#113,#114);
#117=CARTESIAN_POINT('',(-1.E0,-2.2E1,2.7E1));
#118=DIRECTION('',(0.E0,0.E0,1.E0));
#119=DIRECTION('',(0.E0,-1.E0,0.E0));
#120=AXIS2_PLACEMENT_3D('',#117,#118,#119);
#122=CARTESIAN_POINT('',(-1.E0,-2.2E1,2.7E1));
#123=DIRECTION('',(0.E0,0.E0,1.E0));
#124=DIRECTION('',(0.E0,1.E0,0.E0));
#125=AXIS2_PLACEMENT_3D('',#122,#123,#124);
#127=CARTESIAN_POINT('',(-1.E0,-8.8E1,2.7E1));
#128=DIRECTION('',(0.E0,0.E0,1.E0));
#129=DIRECTION('',(0.E0,-1.E0,0.E0));
#130=AXIS2_PLACEMENT_3D('',#127,#128,#129);
#132=CARTESIAN_POINT('',(-1.E0,-8.8E1,2.7E1));
#133=DIRECTION('',(0.E0,0.E0,1.E0));
#134=DIRECTION('',(0.E0,1.E0,0.E0));
#135=AXIS2_PLACEMENT_3D('',#132,#133,#134);
#137=DIRECTION('',(1.E0,0.E0,0.E0));
#138=VECTOR('',#137,2.3E1);
#139=CARTESIAN_POINT('',(-1.E1,-7.E0,2.7E1));
#140=LINE('',#139,#138);
#141=DIRECTION('',(0.E0,0.E0,-1.E0));
#142=VECTOR('',#141,2.200274335946E1);
#143=CARTESIAN_POINT('',(1.3E1,-7.E0,2.7E1));
#144=LINE('',#143,#142);
#145=DIRECTION('',(1.E0,0.E0,0.E0));
#146=VECTOR('',#145,3.1E1);
#147=CARTESIAN_POINT('',(1.3E1,-7.E0,4.997256640537E0));
#148=LINE('',#147,#146);
#149=DIRECTION('',(-1.E0,0.E0,0.E0));
#150=VECTOR('',#149,5.4E1);
#151=CARTESIAN_POINT('',(4.4E1,-7.E0,-2.8E1));
#152=LINE('',#151,#150);
#153=DIRECTION('',(0.E0,0.E0,1.E0));
#154=VECTOR('',#153,5.5E1);
#155=CARTESIAN_POINT('',(-1.E1,-7.E0,-2.8E1));
#156=LINE('',#155,#154);
#157=DIRECTION('',(1.E0,0.E0,0.E0));
#158=VECTOR('',#157,2.3E1);
#159=CARTESIAN_POINT('',(-1.E1,-7.E0,4.4E1));
#160=LINE('',#159,#158);
#161=DIRECTION('',(0.E0,0.E0,1.E0));
#162=VECTOR('',#161,2.08E2);
#163=CARTESIAN_POINT('',(-1.E1,-7.E0,4.4E1));
#164=LINE('',#163,#162);
#165=DIRECTION('',(0.E0,0.E0,-1.E0));
#166=VECTOR('',#165,1.92E2);
#167=CARTESIAN_POINT('',(1.3E1,-7.E0,2.36E2));
#168=LINE('',#167,#166);
#169=DIRECTION('',(0.E0,1.E0,0.E0));
#170=VECTOR('',#169,6.4E1);
#171=CARTESIAN_POINT('',(3.4E1,0.E0,4.997256640537E0));
#172=LINE('',#171,#170);
#173=CARTESIAN_POINT('',(3.4E1,3.7E1,-1.335182369078E1));
#174=DIRECTION('',(1.E0,0.E0,0.E0));
#175=DIRECTION('',(0.E0,-1.E0,0.E0));
#176=AXIS2_PLACEMENT_3D('',#173,#174,#175);
#178=CARTESIAN_POINT('',(3.4E1,3.7E1,-1.335182369078E1));
#179=DIRECTION('',(1.E0,0.E0,0.E0));
#180=DIRECTION('',(0.E0,1.E0,0.E0));
#181=AXIS2_PLACEMENT_3D('',#178,#179,#180);
#183=DIRECTION('',(-1.E0,0.E0,0.E0));
#184=VECTOR('',#183,5.E0);
#185=CARTESIAN_POINT('',(3.9E1,3.525E1,-1.335182369078E1));
#186=LINE('',#185,#184);
#187=CARTESIAN_POINT('',(3.9E1,3.7E1,-1.335182369078E1));
#188=DIRECTION('',(1.E0,0.E0,0.E0));
#189=DIRECTION('',(0.E0,-1.E0,0.E0));
#190=AXIS2_PLACEMENT_3D('',#187,#188,#189);
#192=CARTESIAN_POINT('',(3.9E1,3.7E1,-1.335182369078E1));
#193=DIRECTION('',(1.E0,0.E0,0.E0));
#194=DIRECTION('',(0.E0,1.E0,0.E0));
#195=AXIS2_PLACEMENT_3D('',#192,#193,#194);
#197=DIRECTION('',(-1.E0,0.E0,0.E0));
#198=VECTOR('',#197,5.E0);
#199=CARTESIAN_POINT('',(3.9E1,3.875E1,-1.335182369078E1));
#200=LINE('',#199,#198);
#201=DIRECTION('',(0.E0,1.E0,0.E0));
#202=VECTOR('',#201,7.1E1);
#203=CARTESIAN_POINT('',(4.4E1,-7.E0,-2.8E1));
#204=LINE('',#203,#202);
#205=DIRECTION('',(0.E0,-1.E0,0.E0));
#206=VECTOR('',#205,5.7E1);
#207=CARTESIAN_POINT('',(3.4E1,6.4E1,-2.8E1));
#208=LINE('',#207,#206);
#209=DIRECTION('',(-1.E0,0.E0,0.E0));
#210=VECTOR('',#209,1.2E1);
#211=CARTESIAN_POINT('',(2.3E1,1.3E1,-2.8E1));
#212=LINE('',#211,#210);
#213=DIRECTION('',(-1.E0,0.E0,0.E0));
#214=VECTOR('',#213,2.1E1);
#215=CARTESIAN_POINT('',(1.1E1,7.E0,-2.8E1));
#216=LINE('',#215,#214);
#217=DIRECTION('',(0.E0,-1.E0,0.E0));
#218=VECTOR('',#217,1.4E1);
#219=CARTESIAN_POINT('',(-1.E1,7.E0,-2.8E1));
#220=LINE('',#219,#218);
#221=DIRECTION('',(0.E0,1.E0,0.E0));
#222=VECTOR('',#221,7.1E1);
#223=CARTESIAN_POINT('',(4.4E1,-7.E0,4.997256640537E0));
#224=LINE('',#223,#222);
#225=DIRECTION('',(0.E0,0.E0,-1.E0));
#226=VECTOR('',#225,3.299725664054E1);
#227=CARTESIAN_POINT('',(4.4E1,-7.E0,4.997256640537E0));
#228=LINE('',#227,#226);
#229=DIRECTION('',(0.E0,0.E0,1.E0));
#230=VECTOR('',#229,3.299725664054E1);
#231=CARTESIAN_POINT('',(3.4E1,6.4E1,-2.8E1));
#232=LINE('',#231,#230);
#233=DIRECTION('',(-1.E0,0.E0,0.E0));
#234=VECTOR('',#233,1.E1);
#235=CARTESIAN_POINT('',(4.4E1,6.4E1,-2.8E1));
#236=LINE('',#235,#234);
#237=DIRECTION('',(0.E0,0.E0,-1.E0));
#238=VECTOR('',#237,3.299725664054E1);
#239=CARTESIAN_POINT('',(4.4E1,6.4E1,4.997256640537E0));
#240=LINE('',#239,#238);
#241=DIRECTION('',(1.E0,0.E0,0.E0));
#242=VECTOR('',#241,1.E1);
#243=CARTESIAN_POINT('',(3.4E1,6.4E1,4.997256640537E0));
#244=LINE('',#243,#242);
#245=CARTESIAN_POINT('',(2.3E1,1.E1,-2.2E1));
#246=DIRECTION('',(-1.E0,0.E0,0.E0));
#247=DIRECTION('',(0.E0,1.E0,0.E0));
#248=AXIS2_PLACEMENT_3D('',#245,#246,#247);
#250=CARTESIAN_POINT('',(2.3E1,1.E1,-2.2E1));
#251=DIRECTION('',(-1.E0,0.E0,0.E0));
#252=DIRECTION('',(0.E0,-1.E0,0.E0));
#253=AXIS2_PLACEMENT_3D('',#250,#251,#252);
#255=DIRECTION('',(0.E0,0.E0,-1.E0));
#256=VECTOR('',#255,1.E1);
#257=CARTESIAN_POINT('',(2.3E1,7.E0,-1.8E1));
#258=LINE('',#257,#256);
#259=DIRECTION('',(0.E0,1.E0,0.E0));
#260=VECTOR('',#259,6.E0);
#261=CARTESIAN_POINT('',(2.3E1,7.E0,-1.8E1));
#262=LINE('',#261,#260);
#263=DIRECTION('',(0.E0,-1.E0,0.E0));
#264=VECTOR('',#263,6.E0);
#265=CARTESIAN_POINT('',(2.3E1,1.3E1,-2.8E1));
#266=LINE('',#265,#264);
#267=DIRECTION('',(-1.E0,0.E0,0.E0));
#268=VECTOR('',#267,1.2E1);
#269=CARTESIAN_POINT('',(2.3E1,8.1E0,-2.2E1));
#270=LINE('',#269,#268);
#271=DIRECTION('',(1.E0,0.E0,0.E0));
#272=VECTOR('',#271,1.2E1);
#273=CARTESIAN_POINT('',(1.1E1,1.19E1,-2.2E1));
#274=LINE('',#273,#272);
#275=CARTESIAN_POINT('',(1.1E1,1.E1,-2.2E1));
#276=DIRECTION('',(1.E0,0.E0,0.E0));
#277=DIRECTION('',(0.E0,1.E0,0.E0));
#278=AXIS2_PLACEMENT_3D('',#275,#276,#277);
#280=CARTESIAN_POINT('',(1.1E1,1.E1,-2.2E1));
#281=DIRECTION('',(1.E0,0.E0,0.E0));
#282=DIRECTION('',(0.E0,-1.E0,0.E0));
#283=AXIS2_PLACEMENT_3D('',#280,#281,#282);
#285=DIRECTION('',(0.E0,-1.E0,0.E0));
#286=VECTOR('',#285,6.E0);
#287=CARTESIAN_POINT('',(1.1E1,1.3E1,-2.8E1));
#288=LINE('',#287,#286);
#289=DIRECTION('',(0.E0,0.E0,-1.E0));
#290=VECTOR('',#289,1.E1);
#291=CARTESIAN_POINT('',(1.1E1,1.3E1,-1.8E1));
#292=LINE('',#291,#290);
#293=DIRECTION('',(0.E0,1.E0,0.E0));
#294=VECTOR('',#293,6.E0);
#295=CARTESIAN_POINT('',(1.1E1,7.E0,-1.8E1));
#296=LINE('',#295,#294);
#297=DIRECTION('',(-1.E0,0.E0,0.E0));
#298=VECTOR('',#297,1.2E1);
#299=CARTESIAN_POINT('',(2.3E1,1.3E1,-1.8E1));
#300=LINE('',#299,#298);
#301=DIRECTION('',(0.E0,0.E0,-1.E0));
#302=VECTOR('',#301,1.E1);
#303=CARTESIAN_POINT('',(2.3E1,1.3E1,-1.8E1));
#304=LINE('',#303,#302);
#305=DIRECTION('',(-1.E0,0.E0,0.E0));
#306=VECTOR('',#305,1.2E1);
#307=CARTESIAN_POINT('',(2.3E1,7.E0,-1.8E1));
#308=LINE('',#307,#306);
#309=DIRECTION('',(0.E0,-1.E0,0.E0));
#310=VECTOR('',#309,9.6E1);
#311=CARTESIAN_POINT('',(-1.E1,-7.E0,4.4E1));
#312=LINE('',#311,#310);
#313=DIRECTION('',(0.E0,0.E0,1.E0));
#314=VECTOR('',#313,2.64E2);
#315=CARTESIAN_POINT('',(-1.E1,7.E0,-2.8E1));
#316=LINE('',#315,#314);
#317=DIRECTION('',(0.E0,1.E0,0.E0));
#318=VECTOR('',#317,7.E1);
#319=CARTESIAN_POINT('',(-1.E1,7.E0,2.36E2));
#320=LINE('',#319,#318);
#321=DIRECTION('',(0.E0,-1.E0,0.E0));
#322=VECTOR('',#321,9.6E1);
#323=CARTESIAN_POINT('',(4.4E1,-7.E0,4.4E1));
#324=LINE('',#323,#322);
#325=CARTESIAN_POINT('',(3.1E1,-1.5E1,4.4E1));
#326=DIRECTION('',(0.E0,0.E0,1.E0));
#327=DIRECTION('',(0.E0,-1.E0,0.E0));
#328=AXIS2_PLACEMENT_3D('',#325,#326,#327);
#330=CARTESIAN_POINT('',(3.1E1,-1.5E1,4.4E1));
#331=DIRECTION('',(0.E0,0.E0,1.E0));
#332=DIRECTION('',(0.E0,1.E0,0.E0));
#333=AXIS2_PLACEMENT_3D('',#330,#331,#332);
#335=CARTESIAN_POINT('',(3.1E1,-9.5E1,4.4E1));
#336=DIRECTION('',(0.E0,0.E0,1.E0));
#337=DIRECTION('',(0.E0,-1.E0,0.E0));
#338=AXIS2_PLACEMENT_3D('',#335,#336,#337);
#340=CARTESIAN_POINT('',(3.1E1,-9.5E1,4.4E1));
#341=DIRECTION('',(0.E0,0.E0,1.E0));
#342=DIRECTION('',(0.E0,1.E0,0.E0));
#343=AXIS2_PLACEMENT_3D('',#340,#341,#342);
#345=CARTESIAN_POINT('',(-1.E0,-2.2E1,4.4E1));
#346=DIRECTION('',(0.E0,0.E0,1.E0));
#347=DIRECTION('',(0.E0,-1.E0,0.E0));
#348=AXIS2_PLACEMENT_3D('',#345,#346,#347);
#350=CARTESIAN_POINT('',(-1.E0,-2.2E1,4.4E1));
#351=DIRECTION('',(0.E0,0.E0,1.E0));
#352=DIRECTION('',(0.E0,1.E0,0.E0));
#353=AXIS2_PLACEMENT_3D('',#350,#351,#352);
#355=CARTESIAN_POINT('',(-1.E0,-8.8E1,4.4E1));
#356=DIRECTION('',(0.E0,0.E0,1.E0));
#357=DIRECTION('',(0.E0,-1.E0,0.E0));
#358=AXIS2_PLACEMENT_3D('',#355,#356,#357);
#360=CARTESIAN_POINT('',(-1.E0,-8.8E1,4.4E1));
#361=DIRECTION('',(0.E0,0.E0,1.E0));
#362=DIRECTION('',(0.E0,1.E0,0.E0));
#363=AXIS2_PLACEMENT_3D('',#360,#361,#362);
#365=DIRECTION('',(0.E0,-1.E0,0.E0));
#366=VECTOR('',#365,9.6E1);
#367=CARTESIAN_POINT('',(4.4E1,-7.E0,2.7E1));
#368=LINE('',#367,#366);
#369=DIRECTION('',(1.E0,0.E0,0.E0));
#370=VECTOR('',#369,5.4E1);
#371=CARTESIAN_POINT('',(-1.E1,-1.03E2,2.7E1));
#372=LINE('',#371,#370);
#373=DIRECTION('',(0.E0,0.E0,-1.E0));
#374=VECTOR('',#373,1.7E1);
#375=CARTESIAN_POINT('',(-1.E1,-1.03E2,4.4E1));
#376=LINE('',#375,#374);
#377=DIRECTION('',(-1.E0,0.E0,0.E0));
#378=VECTOR('',#377,5.4E1);
#379=CARTESIAN_POINT('',(4.4E1,-1.03E2,4.4E1));
#380=LINE('',#379,#378);
#381=DIRECTION('',(0.E0,0.E0,1.E0));
#382=VECTOR('',#381,1.7E1);
#383=CARTESIAN_POINT('',(4.4E1,-1.03E2,2.7E1));
#384=LINE('',#383,#382);
#385=DIRECTION('',(0.E0,0.E0,-1.E0));
#386=VECTOR('',#385,1.7E1);
#387=CARTESIAN_POINT('',(3.1E1,-1.85E1,4.4E1));
#388=LINE('',#387,#386);
#389=DIRECTION('',(0.E0,0.E0,-1.E0));
#390=VECTOR('',#389,1.7E1);
#391=CARTESIAN_POINT('',(3.1E1,-1.15E1,4.4E1));
#392=LINE('',#391,#390);
#393=DIRECTION('',(0.E0,0.E0,-1.E0));
#394=VECTOR('',#393,1.7E1);
#395=CARTESIAN_POINT('',(3.1E1,-9.85E1,4.4E1));
#396=LINE('',#395,#394);
#397=DIRECTION('',(0.E0,0.E0,-1.E0));
#398=VECTOR('',#397,1.7E1);
#399=CARTESIAN_POINT('',(3.1E1,-9.15E1,4.4E1));
#400=LINE('',#399,#398);
#401=DIRECTION('',(0.E0,0.E0,-1.E0));
#402=VECTOR('',#401,1.7E1);
#403=CARTESIAN_POINT('',(-1.E0,-2.55E1,4.4E1));
#404=LINE('',#403,#402);
#405=DIRECTION('',(0.E0,0.E0,-1.E0));
#406=VECTOR('',#405,1.7E1);
#407=CARTESIAN_POINT('',(-1.E0,-1.85E1,4.4E1));
#408=LINE('',#407,#406);
#409=DIRECTION('',(0.E0,0.E0,-1.E0));
#410=VECTOR('',#409,1.7E1);
#411=CARTESIAN_POINT('',(-1.E0,-9.15E1,4.4E1));
#412=LINE('',#411,#410);
#413=DIRECTION('',(0.E0,0.E0,-1.E0));
#414=VECTOR('',#413,1.7E1);
#415=CARTESIAN_POINT('',(-1.E0,-8.45E1,4.4E1));
#416=LINE('',#415,#414);
#417=DIRECTION('',(1.E0,0.E0,0.E0));
#418=VECTOR('',#417,4.3E1);
#419=CARTESIAN_POINT('',(-1.E1,7.7E1,2.36E2));
#420=LINE('',#419,#418);
#421=DIRECTION('',(0.E0,0.E0,1.E0));
#422=VECTOR('',#421,1.6E1);
#423=CARTESIAN_POINT('',(-1.E1,7.7E1,2.36E2));
#424=LINE('',#423,#422);
#425=DIRECTION('',(0.E0,0.E0,-1.E0));
#426=VECTOR('',#425,1.6E1);
#427=CARTESIAN_POINT('',(3.3E1,-7.E0,2.52E2));
#428=LINE('',#427,#426);
#429=DIRECTION('',(0.E0,-1.E0,0.E0));
#430=VECTOR('',#429,8.4E1);
#431=CARTESIAN_POINT('',(3.3E1,7.7E1,2.52E2));
#432=LINE('',#431,#430);
#433=DIRECTION('',(0.E0,0.E0,1.E0));
#434=VECTOR('',#433,1.6E1);
#435=CARTESIAN_POINT('',(3.3E1,7.7E1,2.36E2));
#436=LINE('',#435,#434);
#437=DIRECTION('',(0.E0,1.E0,0.E0));
#438=VECTOR('',#437,8.4E1);
#439=CARTESIAN_POINT('',(3.3E1,-7.E0,2.36E2));
#440=LINE('',#439,#438);
#441=DIRECTION('',(1.E0,0.E0,0.E0));
#442=VECTOR('',#441,4.3E1);
#443=CARTESIAN_POINT('',(-1.E1,7.7E1,2.52E2));
#444=LINE('',#443,#442);
#445=DIRECTION('',(-1.E0,0.E0,0.E0));
#446=VECTOR('',#445,4.3E1);
#447=CARTESIAN_POINT('',(3.3E1,-7.E0,2.52E2));
#448=LINE('',#447,#446);
#449=DIRECTION('',(0.E0,1.E0,0.E0));
#450=VECTOR('',#449,8.4E1);
#451=CARTESIAN_POINT('',(-1.E1,-7.E0,2.52E2));
#452=LINE('',#451,#450);
#453=CARTESIAN_POINT('',(1.8E1,1.E1,2.52E2));
#454=DIRECTION('',(0.E0,0.E0,1.E0));
#455=DIRECTION('',(0.E0,1.E0,0.E0));
#456=AXIS2_PLACEMENT_3D('',#453,#454,#455);
#458=CARTESIAN_POINT('',(1.8E1,1.E1,2.52E2));
#459=DIRECTION('',(0.E0,0.E0,1.E0));
#460=DIRECTION('',(0.E0,-1.E0,0.E0));
#461=AXIS2_PLACEMENT_3D('',#458,#459,#460);
#463=CARTESIAN_POINT('',(3.E1,1.E1,2.52E2));
#464=DIRECTION('',(0.E0,0.E0,1.E0));
#465=DIRECTION('',(0.E0,1.E0,0.E0));
#466=AXIS2_PLACEMENT_3D('',#463,#464,#465);
#468=CARTESIAN_POINT('',(3.E1,1.E1,2.52E2));
#469=DIRECTION('',(0.E0,0.E0,1.E0));
#470=DIRECTION('',(0.E0,-1.E0,0.E0));
#471=AXIS2_PLACEMENT_3D('',#468,#469,#470);
#473=CARTESIAN_POINT('',(3.E1,7.E1,2.52E2));
#474=DIRECTION('',(0.E0,0.E0,1.E0));
#475=DIRECTION('',(0.E0,1.E0,0.E0));
#476=AXIS2_PLACEMENT_3D('',#473,#474,#475);
#478=CARTESIAN_POINT('',(3.E1,7.E1,2.52E2));
#479=DIRECTION('',(0.E0,0.E0,1.E0));
#480=DIRECTION('',(0.E0,-1.E0,0.E0));
#481=AXIS2_PLACEMENT_3D('',#478,#479,#480);
#483=CARTESIAN_POINT('',(1.8E1,7.E1,2.52E2));
#484=DIRECTION('',(0.E0,0.E0,1.E0));
#485=DIRECTION('',(0.E0,1.E0,0.E0));
#486=AXIS2_PLACEMENT_3D('',#483,#484,#485);
#488=CARTESIAN_POINT('',(1.8E1,7.E1,2.52E2));
#489=DIRECTION('',(0.E0,0.E0,1.E0));
#490=DIRECTION('',(0.E0,-1.E0,0.E0));
#491=AXIS2_PLACEMENT_3D('',#488,#489,#490);
#493=DIRECTION('',(0.E0,0.E0,-1.E0));
#494=VECTOR('',#493,1.6E1);
#495=CARTESIAN_POINT('',(1.8E1,1.2E1,2.52E2));
#496=LINE('',#495,#494);
#497=DIRECTION('',(0.E0,0.E0,-1.E0));
#498=VECTOR('',#497,1.6E1);
#499=CARTESIAN_POINT('',(1.8E1,8.E0,2.52E2));
#500=LINE('',#499,#498);
#501=DIRECTION('',(0.E0,0.E0,-1.E0));
#502=VECTOR('',#501,1.6E1);
#503=CARTESIAN_POINT('',(3.E1,1.2E1,2.52E2));
#504=LINE('',#503,#502);
#505=DIRECTION('',(0.E0,0.E0,-1.E0));
#506=VECTOR('',#505,1.6E1);
#507=CARTESIAN_POINT('',(3.E1,8.E0,2.52E2));
#508=LINE('',#507,#506);
#509=DIRECTION('',(0.E0,0.E0,-1.E0));
#510=VECTOR('',#509,1.6E1);
#511=CARTESIAN_POINT('',(3.E1,7.2E1,2.52E2));
#512=LINE('',#511,#510);
#513=DIRECTION('',(0.E0,0.E0,-1.E0));
#514=VECTOR('',#513,1.6E1);
#515=CARTESIAN_POINT('',(3.E1,6.8E1,2.52E2));
#516=LINE('',#515,#514);
#517=DIRECTION('',(0.E0,0.E0,-1.E0));
#518=VECTOR('',#517,1.6E1);
#519=CARTESIAN_POINT('',(1.8E1,7.2E1,2.52E2));
#520=LINE('',#519,#518);
#521=DIRECTION('',(0.E0,0.E0,-1.E0));
#522=VECTOR('',#521,1.6E1);
#523=CARTESIAN_POINT('',(1.8E1,6.8E1,2.52E2));
#524=LINE('',#523,#522);
#525=DIRECTION('',(0.E0,0.E0,1.E0));
#526=VECTOR('',#525,1.299725664054E1);
#527=CARTESIAN_POINT('',(3.4E1,0.E0,-8.E0));
#528=LINE('',#527,#526);
#529=DIRECTION('',(-1.E0,0.E0,0.E0));
#530=VECTOR('',#529,2.1E1);
#531=CARTESIAN_POINT('',(3.4E1,0.E0,4.997256640537E0));
#532=LINE('',#531,#530);
#533=DIRECTION('',(0.E0,1.E0,0.E0));
#534=VECTOR('',#533,7.E0);
#535=CARTESIAN_POINT('',(3.4E1,0.E0,-8.E0));
#536=LINE('',#535,#534);
#537=DIRECTION('',(1.E0,0.E0,0.E0));
#538=VECTOR('',#537,2.1E1);
#539=CARTESIAN_POINT('',(1.3E1,0.E0,-8.E0));
#540=LINE('',#539,#538);
#541=DIRECTION('',(0.E0,1.E0,0.E0));
#542=VECTOR('',#541,7.E0);
#543=CARTESIAN_POINT('',(1.3E1,0.E0,-8.E0));
#544=LINE('',#543,#542);
#545=DIRECTION('',(1.E0,0.E0,0.E0));
#546=VECTOR('',#545,2.1E1);
#547=CARTESIAN_POINT('',(1.3E1,7.E0,-8.E0));
#548=LINE('',#547,#546);
#549=CARTESIAN_POINT('',(2.3E1,1.3E1,-1.8E1));
#550=CARTESIAN_POINT('',(2.3E1,1.3E1,-2.8E1));
#551=VERTEX_POINT('',#549);
#552=VERTEX_POINT('',#550);
#553=CARTESIAN_POINT('',(2.3E1,1.19E1,-2.2E1));
#554=CARTESIAN_POINT('',(2.3E1,8.1E0,-2.2E1));
#555=VERTEX_POINT('',#553);
#556=VERTEX_POINT('',#554);
#557=CARTESIAN_POINT('',(2.3E1,7.E0,-1.8E1));
#558=CARTESIAN_POINT('',(2.3E1,7.E0,-2.8E1));
#559=VERTEX_POINT('',#557);
#560=VERTEX_POINT('',#558);
#561=CARTESIAN_POINT('',(3.4E1,7.E0,-2.8E1));
#562=VERTEX_POINT('',#561);
#563=CARTESIAN_POINT('',(1.3E1,0.E0,4.997256640537E0));
#564=CARTESIAN_POINT('',(1.3E1,0.E0,-8.E0));
#565=VERTEX_POINT('',#563);
#566=VERTEX_POINT('',#564);
#567=CARTESIAN_POINT('',(1.3E1,7.E0,-8.E0));
#568=VERTEX_POINT('',#567);
#569=CARTESIAN_POINT('',(1.3E1,-7.E0,4.997256640537E0));
#570=VERTEX_POINT('',#569);
#571=CARTESIAN_POINT('',(-1.E1,7.E0,-2.8E1));
#572=CARTESIAN_POINT('',(-1.E1,-7.E0,-2.8E1));
#573=VERTEX_POINT('',#571);
#574=VERTEX_POINT('',#572);
#575=CARTESIAN_POINT('',(3.4E1,3.525E1,-1.335182369078E1));
#576=CARTESIAN_POINT('',(3.4E1,3.875E1,-1.335182369078E1));
#577=VERTEX_POINT('',#575);
#578=VERTEX_POINT('',#576);
#579=CARTESIAN_POINT('',(3.4E1,0.E0,-8.E0));
#580=CARTESIAN_POINT('',(3.4E1,7.E0,-8.E0));
#581=VERTEX_POINT('',#579);
#582=VERTEX_POINT('',#580);
#583=CARTESIAN_POINT('',(3.4E1,0.E0,4.997256640537E0));
#584=VERTEX_POINT('',#583);
#585=CARTESIAN_POINT('',(4.4E1,-7.E0,4.997256640537E0));
#586=CARTESIAN_POINT('',(4.4E1,-7.E0,-2.8E1));
#587=VERTEX_POINT('',#585);
#588=VERTEX_POINT('',#586);
#589=CARTESIAN_POINT('',(3.9E1,3.525E1,-1.335182369078E1));
#590=VERTEX_POINT('',#589);
#591=CARTESIAN_POINT('',(3.9E1,3.875E1,-1.335182369078E1));
#592=VERTEX_POINT('',#591);
#593=CARTESIAN_POINT('',(1.1E1,1.19E1,-2.2E1));
#594=CARTESIAN_POINT('',(1.1E1,8.1E0,-2.2E1));
#595=VERTEX_POINT('',#593);
#596=VERTEX_POINT('',#594);
#597=CARTESIAN_POINT('',(1.1E1,1.3E1,-1.8E1));
#598=CARTESIAN_POINT('',(1.1E1,1.3E1,-2.8E1));
#599=VERTEX_POINT('',#597);
#600=VERTEX_POINT('',#598);
#601=CARTESIAN_POINT('',(1.1E1,7.E0,-2.8E1));
#602=CARTESIAN_POINT('',(1.1E1,7.E0,-1.8E1));
#603=VERTEX_POINT('',#601);
#604=VERTEX_POINT('',#602);
#605=CARTESIAN_POINT('',(3.4E1,6.4E1,-2.8E1));
#606=CARTESIAN_POINT('',(3.4E1,6.4E1,4.997256640537E0));
#607=VERTEX_POINT('',#605);
#608=VERTEX_POINT('',#606);
#609=CARTESIAN_POINT('',(4.4E1,6.4E1,4.997256640537E0));
#610=VERTEX_POINT('',#609);
#611=CARTESIAN_POINT('',(4.4E1,6.4E1,-2.8E1));
#612=VERTEX_POINT('',#611);
#613=CARTESIAN_POINT('',(-1.E1,7.7E1,2.36E2));
#614=CARTESIAN_POINT('',(-1.E1,7.7E1,2.52E2));
#615=VERTEX_POINT('',#613);
#616=VERTEX_POINT('',#614);
#617=CARTESIAN_POINT('',(-1.E1,7.E0,2.36E2));
#618=VERTEX_POINT('',#617);
#619=CARTESIAN_POINT('',(-1.E1,-7.E0,2.52E2));
#620=VERTEX_POINT('',#619);
#621=CARTESIAN_POINT('',(3.3E1,-7.E0,2.52E2));
#622=CARTESIAN_POINT('',(3.3E1,-7.E0,2.36E2));
#623=VERTEX_POINT('',#621);
#624=VERTEX_POINT('',#622);
#625=CARTESIAN_POINT('',(3.3E1,7.7E1,2.36E2));
#626=VERTEX_POINT('',#625);
#627=CARTESIAN_POINT('',(3.3E1,7.7E1,2.52E2));
#628=VERTEX_POINT('',#627);
#629=CARTESIAN_POINT('',(1.3E1,-7.E0,2.36E2));
#630=CARTESIAN_POINT('',(1.3E1,7.E0,2.36E2));
#631=VERTEX_POINT('',#629);
#632=VERTEX_POINT('',#630);
#633=CARTESIAN_POINT('',(1.8E1,1.2E1,2.52E2));
#634=CARTESIAN_POINT('',(1.8E1,8.E0,2.52E2));
#635=VERTEX_POINT('',#633);
#636=VERTEX_POINT('',#634);
#637=CARTESIAN_POINT('',(3.E1,1.2E1,2.52E2));
#638=CARTESIAN_POINT('',(3.E1,8.E0,2.52E2));
#639=VERTEX_POINT('',#637);
#640=VERTEX_POINT('',#638);
#641=CARTESIAN_POINT('',(3.E1,7.2E1,2.52E2));
#642=CARTESIAN_POINT('',(3.E1,6.8E1,2.52E2));
#643=VERTEX_POINT('',#641);
#644=VERTEX_POINT('',#642);
#645=CARTESIAN_POINT('',(1.8E1,7.2E1,2.52E2));
#646=CARTESIAN_POINT('',(1.8E1,6.8E1,2.52E2));
#647=VERTEX_POINT('',#645);
#648=VERTEX_POINT('',#646);
#649=CARTESIAN_POINT('',(1.8E1,1.2E1,2.36E2));
#650=CARTESIAN_POINT('',(1.8E1,8.E0,2.36E2));
#651=VERTEX_POINT('',#649);
#652=VERTEX_POINT('',#650);
#653=CARTESIAN_POINT('',(3.E1,1.2E1,2.36E2));
#654=CARTESIAN_POINT('',(3.E1,8.E0,2.36E2));
#655=VERTEX_POINT('',#653);
#656=VERTEX_POINT('',#654);
#657=CARTESIAN_POINT('',(3.E1,7.2E1,2.36E2));
#658=CARTESIAN_POINT('',(3.E1,6.8E1,2.36E2));
#659=VERTEX_POINT('',#657);
#660=VERTEX_POINT('',#658);
#661=CARTESIAN_POINT('',(1.8E1,7.2E1,2.36E2));
#662=CARTESIAN_POINT('',(1.8E1,6.8E1,2.36E2));
#663=VERTEX_POINT('',#661);
#664=VERTEX_POINT('',#662);
#665=CARTESIAN_POINT('',(4.4E1,-7.E0,2.7E1));
#666=CARTESIAN_POINT('',(4.4E1,-7.E0,4.4E1));
#667=VERTEX_POINT('',#665);
#668=VERTEX_POINT('',#666);
#669=CARTESIAN_POINT('',(-1.E1,-1.03E2,2.7E1));
#670=CARTESIAN_POINT('',(4.4E1,-1.03E2,2.7E1));
#671=VERTEX_POINT('',#669);
#672=VERTEX_POINT('',#670);
#673=CARTESIAN_POINT('',(4.4E1,-1.03E2,4.4E1));
#674=VERTEX_POINT('',#673);
#675=CARTESIAN_POINT('',(-1.E1,-1.03E2,4.4E1));
#676=VERTEX_POINT('',#675);
#677=CARTESIAN_POINT('',(1.3E1,-7.E0,4.4E1));
#678=CARTESIAN_POINT('',(1.3E1,-7.E0,2.7E1));
#679=VERTEX_POINT('',#677);
#680=VERTEX_POINT('',#678);
#681=CARTESIAN_POINT('',(-1.E1,-7.E0,2.7E1));
#682=VERTEX_POINT('',#681);
#683=CARTESIAN_POINT('',(-1.E1,-7.E0,4.4E1));
#684=VERTEX_POINT('',#683);
#685=CARTESIAN_POINT('',(3.1E1,-1.85E1,2.7E1));
#686=CARTESIAN_POINT('',(3.1E1,-1.15E1,2.7E1));
#687=VERTEX_POINT('',#685);
#688=VERTEX_POINT('',#686);
#689=CARTESIAN_POINT('',(3.1E1,-9.85E1,2.7E1));
#690=CARTESIAN_POINT('',(3.1E1,-9.15E1,2.7E1));
#691=VERTEX_POINT('',#689);
#692=VERTEX_POINT('',#690);
#693=CARTESIAN_POINT('',(-1.E0,-2.55E1,2.7E1));
#694=CARTESIAN_POINT('',(-1.E0,-1.85E1,2.7E1));
#695=VERTEX_POINT('',#693);
#696=VERTEX_POINT('',#694);
#697=CARTESIAN_POINT('',(-1.E0,-9.15E1,2.7E1));
#698=CARTESIAN_POINT('',(-1.E0,-8.45E1,2.7E1));
#699=VERTEX_POINT('',#697);
#700=VERTEX_POINT('',#698);
#701=CARTESIAN_POINT('',(3.1E1,-1.85E1,4.4E1));
#702=CARTESIAN_POINT('',(3.1E1,-1.15E1,4.4E1));
#703=VERTEX_POINT('',#701);
#704=VERTEX_POINT('',#702);
#705=CARTESIAN_POINT('',(3.1E1,-9.85E1,4.4E1));
#706=CARTESIAN_POINT('',(3.1E1,-9.15E1,4.4E1));
#707=VERTEX_POINT('',#705);
#708=VERTEX_POINT('',#706);
#709=CARTESIAN_POINT('',(-1.E0,-2.55E1,4.4E1));
#710=CARTESIAN_POINT('',(-1.E0,-1.85E1,4.4E1));
#711=VERTEX_POINT('',#709);
#712=VERTEX_POINT('',#710);
#713=CARTESIAN_POINT('',(-1.E0,-9.15E1,4.4E1));
#714=CARTESIAN_POINT('',(-1.E0,-8.45E1,4.4E1));
#715=VERTEX_POINT('',#713);
#716=VERTEX_POINT('',#714);
#717=CARTESIAN_POINT('',(0.E0,7.E0,0.E0));
#718=DIRECTION('',(0.E0,1.E0,0.E0));
#719=DIRECTION('',(1.E0,0.E0,0.E0));
#720=AXIS2_PLACEMENT_3D('',#717,#718,#719);
#721=PLANE('',#720);
#723=ORIENTED_EDGE('',*,*,#722,.F.);
#725=ORIENTED_EDGE('',*,*,#724,.F.);
#727=ORIENTED_EDGE('',*,*,#726,.F.);
#729=ORIENTED_EDGE('',*,*,#728,.T.);
#731=ORIENTED_EDGE('',*,*,#730,.F.);
#733=ORIENTED_EDGE('',*,*,#732,.T.);
#735=ORIENTED_EDGE('',*,*,#734,.T.);
#737=ORIENTED_EDGE('',*,*,#736,.T.);
#739=ORIENTED_EDGE('',*,*,#738,.F.);
#741=ORIENTED_EDGE('',*,*,#740,.T.);
#742=EDGE_LOOP('',(#723,#725,#727,#729,#731,#733,#735,#737,#739,#741));
#743=FACE_OUTER_BOUND('',#742,.F.);
#744=ADVANCED_FACE('',(#743),#721,.T.);
#745=CARTESIAN_POINT('',(1.3E1,7.E0,2.36E2));
#746=DIRECTION('',(0.E0,0.E0,-1.E0));
#747=DIRECTION('',(-1.E0,0.E0,0.E0));
#748=AXIS2_PLACEMENT_3D('',#745,#746,#747);
#749=PLANE('',#748);
#750=ORIENTED_EDGE('',*,*,#722,.T.);
#752=ORIENTED_EDGE('',*,*,#751,.F.);
#754=ORIENTED_EDGE('',*,*,#753,.T.);
#756=ORIENTED_EDGE('',*,*,#755,.T.);
#758=ORIENTED_EDGE('',*,*,#757,.F.);
#760=ORIENTED_EDGE('',*,*,#759,.F.);
#761=EDGE_LOOP('',(#750,#752,#754,#756,#758,#760));
#762=FACE_OUTER_BOUND('',#761,.F.);
#764=ORIENTED_EDGE('',*,*,#763,.F.);
#766=ORIENTED_EDGE('',*,*,#765,.F.);
#767=EDGE_LOOP('',(#764,#766));
#768=FACE_BOUND('',#767,.F.);
#770=ORIENTED_EDGE('',*,*,#769,.F.);
#772=ORIENTED_EDGE('',*,*,#771,.F.);
#773=EDGE_LOOP('',(#770,#772));
#774=FACE_BOUND('',#773,.F.);
#776=ORIENTED_EDGE('',*,*,#775,.F.);
#778=ORIENTED_EDGE('',*,*,#777,.F.);
#779=EDGE_LOOP('',(#776,#778));
#780=FACE_BOUND('',#779,.F.);
#782=ORIENTED_EDGE('',*,*,#781,.F.);
#784=ORIENTED_EDGE('',*,*,#783,.F.);
#785=EDGE_LOOP('',(#782,#784));
#786=FACE_BOUND('',#785,.F.);
#787=ADVANCED_FACE('',(#762,#768,#774,#780,#786),#749,.T.);
#788=CARTESIAN_POINT('',(1.3E1,0.E0,9.2E1));
#789=DIRECTION('',(1.E0,0.E0,0.E0));
#790=DIRECTION('',(0.E0,0.E0,-1.E0));
#791=AXIS2_PLACEMENT_3D('',#788,#789,#790);
#792=PLANE('',#791);
#794=ORIENTED_EDGE('',*,*,#793,.F.);
#796=ORIENTED_EDGE('',*,*,#795,.F.);
#797=ORIENTED_EDGE('',*,*,#751,.T.);
#798=ORIENTED_EDGE('',*,*,#740,.F.);
#800=ORIENTED_EDGE('',*,*,#799,.F.);
#802=ORIENTED_EDGE('',*,*,#801,.F.);
#804=ORIENTED_EDGE('',*,*,#803,.T.);
#806=ORIENTED_EDGE('',*,*,#805,.F.);
#807=EDGE_LOOP('',(#794,#796,#797,#798,#800,#802,#804,#806));
#808=FACE_OUTER_BOUND('',#807,.F.);
#809=ADVANCED_FACE('',(#808),#792,.T.);
#810=CARTESIAN_POINT('',(0.E0,-7.E0,0.E0));
#811=DIRECTION('',(0.E0,-1.E0,0.E0));
#812=DIRECTION('',(-1.E0,0.E0,0.E0));
#813=AXIS2_PLACEMENT_3D('',#810,#811,#812);
#814=PLANE('',#813);
#815=ORIENTED_EDGE('',*,*,#793,.T.);
#817=ORIENTED_EDGE('',*,*,#816,.T.);
#819=ORIENTED_EDGE('',*,*,#818,.T.);
#821=ORIENTED_EDGE('',*,*,#820,.T.);
#822=EDGE_LOOP('',(#815,#817,#819,#821));
#823=FACE_OUTER_BOUND('',#822,.F.);
#824=ADVANCED_FACE('',(#823),#814,.F.);
#825=CARTESIAN_POINT('',(-1.E1,-7.E0,2.7E1));
#826=DIRECTION('',(0.E0,0.E0,-1.E0));
#827=DIRECTION('',(1.E0,0.E0,0.E0));
#828=AXIS2_PLACEMENT_3D('',#825,#826,#827);
#829=PLANE('',#828);
#831=ORIENTED_EDGE('',*,*,#830,.F.);
#833=ORIENTED_EDGE('',*,*,#832,.T.);
#835=ORIENTED_EDGE('',*,*,#834,.T.);
#837=ORIENTED_EDGE('',*,*,#836,.F.);
#838=ORIENTED_EDGE('',*,*,#816,.F.);
#839=EDGE_LOOP('',(#831,#833,#835,#837,#838));
#840=FACE_OUTER_BOUND('',#839,.F.);
#842=ORIENTED_EDGE('',*,*,#841,.F.);
#844=ORIENTED_EDGE('',*,*,#843,.F.);
#845=EDGE_LOOP('',(#842,#844));
#846=FACE_BOUND('',#845,.F.);
#848=ORIENTED_EDGE('',*,*,#847,.F.);
#850=ORIENTED_EDGE('',*,*,#849,.F.);
#851=EDGE_LOOP('',(#848,#850));
#852=FACE_BOUND('',#851,.F.);
#854=ORIENTED_EDGE('',*,*,#853,.F.);
#856=ORIENTED_EDGE('',*,*,#855,.F.);
#857=EDGE_LOOP('',(#854,#856));
#858=FACE_BOUND('',#857,.F.);
#860=ORIENTED_EDGE('',*,*,#859,.F.);
#862=ORIENTED_EDGE('',*,*,#861,.F.);
#863=EDGE_LOOP('',(#860,#862));
#864=FACE_BOUND('',#863,.F.);
#865=ADVANCED_FACE('',(#840,#846,#852,#858,#864),#829,.T.);
#866=CARTESIAN_POINT('',(0.E0,-7.E0,0.E0));
#867=DIRECTION('',(0.E0,-1.E0,0.E0));
#868=DIRECTION('',(0.E0,0.E0,-1.E0));
#869=AXIS2_PLACEMENT_3D('',#866,#867,#868);
#870=PLANE('',#869);
#871=ORIENTED_EDGE('',*,*,#830,.T.);
#872=ORIENTED_EDGE('',*,*,#805,.T.);
#874=ORIENTED_EDGE('',*,*,#873,.T.);
#876=ORIENTED_EDGE('',*,*,#875,.T.);
#878=ORIENTED_EDGE('',*,*,#877,.T.);
#880=ORIENTED_EDGE('',*,*,#879,.T.);
#881=EDGE_LOOP('',(#871,#872,#874,#876,#878,#880));
#882=FACE_OUTER_BOUND('',#881,.F.);
#883=ADVANCED_FACE('',(#882),#870,.T.);
#884=CARTESIAN_POINT('',(0.E0,-7.E0,0.E0));
#885=DIRECTION('',(0.E0,-1.E0,0.E0));
#886=DIRECTION('',(0.E0,0.E0,-1.E0));
#887=AXIS2_PLACEMENT_3D('',#884,#885,#886);
#888=PLANE('',#887);
#890=ORIENTED_EDGE('',*,*,#889,.F.);
#892=ORIENTED_EDGE('',*,*,#891,.T.);
#894=ORIENTED_EDGE('',*,*,#893,.F.);
#896=ORIENTED_EDGE('',*,*,#895,.T.);
#897=ORIENTED_EDGE('',*,*,#753,.F.);
#898=ORIENTED_EDGE('',*,*,#795,.T.);
#899=EDGE_LOOP('',(#890,#892,#894,#896,#897,#898));
#900=FACE_OUTER_BOUND('',#899,.F.);
#901=ADVANCED_FACE('',(#900),#888,.T.);
#902=CARTESIAN_POINT('',(3.9E1,0.E0,4.997256640537E0));
#903=DIRECTION('',(0.E0,0.E0,1.E0));
#904=DIRECTION('',(-1.E0,0.E0,0.E0));
#905=AXIS2_PLACEMENT_3D('',#902,#903,#904);
#906=PLANE('',#905);
#908=ORIENTED_EDGE('',*,*,#907,.T.);
#910=ORIENTED_EDGE('',*,*,#909,.T.);
#912=ORIENTED_EDGE('',*,*,#911,.F.);
#913=ORIENTED_EDGE('',*,*,#873,.F.);
#914=ORIENTED_EDGE('',*,*,#803,.F.);
#916=ORIENTED_EDGE('',*,*,#915,.F.);
#917=EDGE_LOOP('',(#908,#910,#912,#913,#914,#916));
#918=FACE_OUTER_BOUND('',#917,.F.);
#919=ADVANCED_FACE('',(#918),#906,.T.);
#920=CARTESIAN_POINT('',(3.4E1,7.E0,-2.8E1));
#921=DIRECTION('',(-1.E0,0.E0,0.E0));
#922=DIRECTION('',(0.E0,0.E0,1.E0));
#923=AXIS2_PLACEMENT_3D('',#920,#921,#922);
#924=PLANE('',#923);
#926=ORIENTED_EDGE('',*,*,#925,.F.);
#928=ORIENTED_EDGE('',*,*,#927,.T.);
#929=ORIENTED_EDGE('',*,*,#907,.F.);
#931=ORIENTED_EDGE('',*,*,#930,.F.);
#933=ORIENTED_EDGE('',*,*,#932,.T.);
#934=ORIENTED_EDGE('',*,*,#736,.F.);
#935=EDGE_LOOP('',(#926,#928,#929,#931,#933,#934));
#936=FACE_OUTER_BOUND('',#935,.F.);
#938=ORIENTED_EDGE('',*,*,#937,.F.);
#940=ORIENTED_EDGE('',*,*,#939,.F.);
#941=EDGE_LOOP('',(#938,#940));
#942=FACE_BOUND('',#941,.F.);
#943=ADVANCED_FACE('',(#936,#942),#924,.T.);
#944=CARTESIAN_POINT('',(3.9E1,3.7E1,-1.335182369078E1));
#945=DIRECTION('',(1.E0,0.E0,0.E0));
#946=DIRECTION('',(0.E0,-1.E0,0.E0));
#947=AXIS2_PLACEMENT_3D('',#944,#945,#946);
#948=CYLINDRICAL_SURFACE('',#947,1.75E0);
#950=ORIENTED_EDGE('',*,*,#949,.T.);
#951=ORIENTED_EDGE('',*,*,#937,.T.);
#953=ORIENTED_EDGE('',*,*,#952,.F.);
#955=ORIENTED_EDGE('',*,*,#954,.F.);
#956=EDGE_LOOP('',(#950,#951,#953,#955));
#957=FACE_OUTER_BOUND('',#956,.F.);
#958=ADVANCED_FACE('',(#957),#948,.F.);
#959=CARTESIAN_POINT('',(3.9E1,3.7E1,-1.335182369078E1));
#960=DIRECTION('',(1.E0,0.E0,0.E0));
#961=DIRECTION('',(0.E0,-1.E0,0.E0));
#962=AXIS2_PLACEMENT_3D('',#959,#960,#961);
#963=CYLINDRICAL_SURFACE('',#962,1.75E0);
#964=ORIENTED_EDGE('',*,*,#949,.F.);
#966=ORIENTED_EDGE('',*,*,#965,.F.);
#967=ORIENTED_EDGE('',*,*,#952,.T.);
#968=ORIENTED_EDGE('',*,*,#939,.T.);
#969=EDGE_LOOP('',(#964,#966,#967,#968));
#970=FACE_OUTER_BOUND('',#969,.F.);
#971=ADVANCED_FACE('',(#970),#963,.F.);
#972=CARTESIAN_POINT('',(3.9E1,0.E0,0.E0));
#973=DIRECTION('',(1.E0,0.E0,0.E0));
#974=DIRECTION('',(0.E0,0.E0,1.E0));
#975=AXIS2_PLACEMENT_3D('',#972,#973,#974);
#976=PLANE('',#975);
#977=ORIENTED_EDGE('',*,*,#954,.T.);
#978=ORIENTED_EDGE('',*,*,#965,.T.);
#979=EDGE_LOOP('',(#977,#978));
#980=FACE_OUTER_BOUND('',#979,.F.);
#981=ADVANCED_FACE('',(#980),#976,.F.);
#982=CARTESIAN_POINT('',(0.E0,0.E0,-2.8E1));
#983=DIRECTION('',(0.E0,0.E0,-1.E0));
#984=DIRECTION('',(-1.E0,0.E0,0.E0));
#985=AXIS2_PLACEMENT_3D('',#982,#983,#984);
#986=PLANE('',#985);
#988=ORIENTED_EDGE('',*,*,#987,.T.);
#990=ORIENTED_EDGE('',*,*,#989,.T.);
#991=ORIENTED_EDGE('',*,*,#925,.T.);
#992=ORIENTED_EDGE('',*,*,#734,.F.);
#994=ORIENTED_EDGE('',*,*,#993,.F.);
#996=ORIENTED_EDGE('',*,*,#995,.T.);
#998=ORIENTED_EDGE('',*,*,#997,.T.);
#999=ORIENTED_EDGE('',*,*,#726,.T.);
#1001=ORIENTED_EDGE('',*,*,#1000,.T.);
#1002=ORIENTED_EDGE('',*,*,#877,.F.);
#1003=EDGE_LOOP('',(#988,#990,#991,#992,#994,#996,#998,#999,#1001,#1002));
#1004=FACE_OUTER_BOUND('',#1003,.F.);
#1005=ADVANCED_FACE('',(#1004),#986,.T.);
#1006=CARTESIAN_POINT('',(4.4E1,0.E0,0.E0));
#1007=DIRECTION('',(1.E0,0.E0,0.E0));
#1008=DIRECTION('',(0.E0,0.E0,1.E0));
#1009=AXIS2_PLACEMENT_3D('',#1006,#1007,#1008);
#1010=PLANE('',#1009);
#1011=ORIENTED_EDGE('',*,*,#911,.T.);
#1013=ORIENTED_EDGE('',*,*,#1012,.T.);
#1014=ORIENTED_EDGE('',*,*,#987,.F.);
#1015=ORIENTED_EDGE('',*,*,#875,.F.);
#1016=EDGE_LOOP('',(#1011,#1013,#1014,#1015));
#1017=FACE_OUTER_BOUND('',#1016,.F.);
#1018=ADVANCED_FACE('',(#1017),#1010,.T.);
#1019=CARTESIAN_POINT('',(0.E0,6.4E1,0.E0));
#1020=DIRECTION('',(0.E0,1.E0,0.E0));
#1021=DIRECTION('',(1.E0,0.E0,0.E0));
#1022=AXIS2_PLACEMENT_3D('',#1019,#1020,#1021);
#1023=PLANE('',#1022);
#1024=ORIENTED_EDGE('',*,*,#927,.F.);
#1025=ORIENTED_EDGE('',*,*,#989,.F.);
#1026=ORIENTED_EDGE('',*,*,#1012,.F.);
#1027=ORIENTED_EDGE('',*,*,#909,.F.);
#1028=EDGE_LOOP('',(#1024,#1025,#1026,#1027));
#1029=FACE_OUTER_BOUND('',#1028,.F.);
#1030=ADVANCED_FACE('',(#1029),#1023,.T.);
#1031=CARTESIAN_POINT('',(2.3E1,0.E0,-8.E0));
#1032=DIRECTION('',(1.E0,0.E0,0.E0));
#1033=DIRECTION('',(0.E0,0.E0,-1.E0));
#1034=AXIS2_PLACEMENT_3D('',#1031,#1032,#1033);
#1035=PLANE('',#1034);
#1036=ORIENTED_EDGE('',*,*,#732,.F.);
#1038=ORIENTED_EDGE('',*,*,#1037,.T.);
#1040=ORIENTED_EDGE('',*,*,#1039,.T.);
#1041=ORIENTED_EDGE('',*,*,#993,.T.);
#1042=EDGE_LOOP('',(#1036,#1038,#1040,#1041));
#1043=FACE_OUTER_BOUND('',#1042,.F.);
#1045=ORIENTED_EDGE('',*,*,#1044,.F.);
#1047=ORIENTED_EDGE('',*,*,#1046,.F.);
#1048=EDGE_LOOP('',(#1045,#1047));
#1049=FACE_BOUND('',#1048,.F.);
#1050=ADVANCED_FACE('',(#1043,#1049),#1035,.T.);
#1051=CARTESIAN_POINT('',(1.8E1,1.E1,-2.2E1));
#1052=DIRECTION('',(-1.E0,0.E0,0.E0));
#1053=DIRECTION('',(0.E0,1.E0,0.E0));
#1054=AXIS2_PLACEMENT_3D('',#1051,#1052,#1053);
#1055=CYLINDRICAL_SURFACE('',#1054,1.9E0);
#1057=ORIENTED_EDGE('',*,*,#1056,.T.);
#1059=ORIENTED_EDGE('',*,*,#1058,.T.);
#1061=ORIENTED_EDGE('',*,*,#1060,.T.);
#1062=ORIENTED_EDGE('',*,*,#1044,.T.);
#1063=EDGE_LOOP('',(#1057,#1059,#1061,#1062));
#1064=FACE_OUTER_BOUND('',#1063,.F.);
#1065=ADVANCED_FACE('',(#1064),#1055,.F.);
#1066=CARTESIAN_POINT('',(1.8E1,1.E1,-2.2E1));
#1067=DIRECTION('',(-1.E0,0.E0,0.E0));
#1068=DIRECTION('',(0.E0,1.E0,0.E0));
#1069=AXIS2_PLACEMENT_3D('',#1066,#1067,#1068);
#1070=CYLINDRICAL_SURFACE('',#1069,1.9E0);
#1071=ORIENTED_EDGE('',*,*,#1060,.F.);
#1073=ORIENTED_EDGE('',*,*,#1072,.T.);
#1074=ORIENTED_EDGE('',*,*,#1056,.F.);
#1075=ORIENTED_EDGE('',*,*,#1046,.T.);
#1076=EDGE_LOOP('',(#1071,#1073,#1074,#1075));
#1077=FACE_OUTER_BOUND('',#1076,.F.);
#1078=ADVANCED_FACE('',(#1077),#1070,.F.);
#1079=CARTESIAN_POINT('',(1.1E1,1.3E1,0.E0));
#1080=DIRECTION('',(-1.E0,0.E0,0.E0));
#1081=DIRECTION('',(0.E0,1.E0,0.E0));
#1082=AXIS2_PLACEMENT_3D('',#1079,#1080,#1081);
#1083=PLANE('',#1082);
#1084=ORIENTED_EDGE('',*,*,#997,.F.);
#1086=ORIENTED_EDGE('',*,*,#1085,.F.);
#1088=ORIENTED_EDGE('',*,*,#1087,.F.);
#1089=ORIENTED_EDGE('',*,*,#728,.F.);
#1090=EDGE_LOOP('',(#1084,#1086,#1088,#1089));
#1091=FACE_OUTER_BOUND('',#1090,.F.);
#1092=ORIENTED_EDGE('',*,*,#1072,.F.);
#1093=ORIENTED_EDGE('',*,*,#1058,.F.);
#1094=EDGE_LOOP('',(#1092,#1093));
#1095=FACE_BOUND('',#1094,.F.);
#1096=ADVANCED_FACE('',(#1091,#1095),#1083,.T.);
#1097=CARTESIAN_POINT('',(0.E0,1.3E1,0.E0));
#1098=DIRECTION('',(0.E0,1.E0,0.E0));
#1099=DIRECTION('',(1.E0,0.E0,0.E0));
#1100=AXIS2_PLACEMENT_3D('',#1097,#1098,#1099);
#1101=PLANE('',#1100);
#1103=ORIENTED_EDGE('',*,*,#1102,.T.);
#1104=ORIENTED_EDGE('',*,*,#1085,.T.);
#1105=ORIENTED_EDGE('',*,*,#995,.F.);
#1106=ORIENTED_EDGE('',*,*,#1039,.F.);
#1107=EDGE_LOOP('',(#1103,#1104,#1105,#1106));
#1108=FACE_OUTER_BOUND('',#1107,.F.);
#1109=ADVANCED_FACE('',(#1108),#1101,.T.);
#1110=CARTESIAN_POINT('',(1.8E1,7.E0,-1.8E1));
#1111=DIRECTION('',(0.E0,0.E0,1.E0));
#1112=DIRECTION('',(1.E0,0.E0,0.E0));
#1113=AXIS2_PLACEMENT_3D('',#1110,#1111,#1112);
#1114=PLANE('',#1113);
#1115=ORIENTED_EDGE('',*,*,#730,.T.);
#1116=ORIENTED_EDGE('',*,*,#1087,.T.);
#1117=ORIENTED_EDGE('',*,*,#1102,.F.);
#1118=ORIENTED_EDGE('',*,*,#1037,.F.);
#1119=EDGE_LOOP('',(#1115,#1116,#1117,#1118));
#1120=FACE_OUTER_BOUND('',#1119,.F.);
#1121=ADVANCED_FACE('',(#1120),#1114,.T.);
#1122=CARTESIAN_POINT('',(-1.E1,0.E0,-2.8E1));
#1123=DIRECTION('',(-1.E0,0.E0,0.E0));
#1124=DIRECTION('',(0.E0,0.E0,1.E0));
#1125=AXIS2_PLACEMENT_3D('',#1122,#1123,#1124);
#1126=PLANE('',#1125);
#1127=ORIENTED_EDGE('',*,*,#891,.F.);
#1129=ORIENTED_EDGE('',*,*,#1128,.T.);
#1131=ORIENTED_EDGE('',*,*,#1130,.T.);
#1132=ORIENTED_EDGE('',*,*,#832,.F.);
#1133=ORIENTED_EDGE('',*,*,#879,.F.);
#1134=ORIENTED_EDGE('',*,*,#1000,.F.);
#1135=ORIENTED_EDGE('',*,*,#724,.T.);
#1136=ORIENTED_EDGE('',*,*,#759,.T.);
#1138=ORIENTED_EDGE('',*,*,#1137,.T.);
#1140=ORIENTED_EDGE('',*,*,#1139,.F.);
#1141=EDGE_LOOP('',(#1127,#1129,#1131,#1132,#1133,#1134,#1135,#1136,#1138,
#1140));
#1142=FACE_OUTER_BOUND('',#1141,.F.);
#1143=ADVANCED_FACE('',(#1142),#1126,.T.);
#1144=CARTESIAN_POINT('',(4.4E1,-7.E0,4.4E1));
#1145=DIRECTION('',(0.E0,0.E0,1.E0));
#1146=DIRECTION('',(-1.E0,0.E0,0.E0));
#1147=AXIS2_PLACEMENT_3D('',#1144,#1145,#1146);
#1148=PLANE('',#1147);
#1149=ORIENTED_EDGE('',*,*,#889,.T.);
#1150=ORIENTED_EDGE('',*,*,#820,.F.);
#1152=ORIENTED_EDGE('',*,*,#1151,.T.);
#1154=ORIENTED_EDGE('',*,*,#1153,.T.);
#1155=ORIENTED_EDGE('',*,*,#1128,.F.);
#1156=EDGE_LOOP('',(#1149,#1150,#1152,#1154,#1155));
#1157=FACE_OUTER_BOUND('',#1156,.F.);
#1159=ORIENTED_EDGE('',*,*,#1158,.T.);
#1161=ORIENTED_EDGE('',*,*,#1160,.T.);
#1162=EDGE_LOOP('',(#1159,#1161));
#1163=FACE_BOUND('',#1162,.F.);
#1165=ORIENTED_EDGE('',*,*,#1164,.T.);
#1167=ORIENTED_EDGE('',*,*,#1166,.T.);
#1168=EDGE_LOOP('',(#1165,#1167));
#1169=FACE_BOUND('',#1168,.F.);
#1171=ORIENTED_EDGE('',*,*,#1170,.T.);
#1173=ORIENTED_EDGE('',*,*,#1172,.T.);
#1174=EDGE_LOOP('',(#1171,#1173));
#1175=FACE_BOUND('',#1174,.F.);
#1177=ORIENTED_EDGE('',*,*,#1176,.T.);
#1179=ORIENTED_EDGE('',*,*,#1178,.T.);
#1180=EDGE_LOOP('',(#1177,#1179));
#1181=FACE_BOUND('',#1180,.F.);
#1182=ADVANCED_FACE('',(#1157,#1163,#1169,#1175,#1181),#1148,.T.);
#1183=CARTESIAN_POINT('',(4.4E1,-7.E0,2.7E1));
#1184=DIRECTION('',(1.E0,0.E0,0.E0));
#1185=DIRECTION('',(0.E0,0.E0,1.E0));
#1186=AXIS2_PLACEMENT_3D('',#1183,#1184,#1185);
#1187=PLANE('',#1186);
#1188=ORIENTED_EDGE('',*,*,#818,.F.);
#1189=ORIENTED_EDGE('',*,*,#836,.T.);
#1191=ORIENTED_EDGE('',*,*,#1190,.T.);
#1192=ORIENTED_EDGE('',*,*,#1151,.F.);
#1193=EDGE_LOOP('',(#1188,#1189,#1191,#1192));
#1194=FACE_OUTER_BOUND('',#1193,.F.);
#1195=ADVANCED_FACE('',(#1194),#1187,.T.);
#1196=CARTESIAN_POINT('',(0.E0,-1.03E2,0.E0));
#1197=DIRECTION('',(0.E0,-1.E0,0.E0));
#1198=DIRECTION('',(-1.E0,0.E0,0.E0));
#1199=AXIS2_PLACEMENT_3D('',#1196,#1197,#1198);
#1200=PLANE('',#1199);
#1201=ORIENTED_EDGE('',*,*,#834,.F.);
#1202=ORIENTED_EDGE('',*,*,#1130,.F.);
#1203=ORIENTED_EDGE('',*,*,#1153,.F.);
#1204=ORIENTED_EDGE('',*,*,#1190,.F.);
#1205=EDGE_LOOP('',(#1201,#1202,#1203,#1204));
#1206=FACE_OUTER_BOUND('',#1205,.F.);
#1207=ADVANCED_FACE('',(#1206),#1200,.T.);
#1208=CARTESIAN_POINT('',(3.1E1,-1.5E1,4.4E1));
#1209=DIRECTION('',(0.E0,0.E0,1.E0));
#1210=DIRECTION('',(0.E0,-1.E0,0.E0));
#1211=AXIS2_PLACEMENT_3D('',#1208,#1209,#1210);
#1212=CYLINDRICAL_SURFACE('',#1211,3.5E0);
#1213=ORIENTED_EDGE('',*,*,#841,.T.);
#1215=ORIENTED_EDGE('',*,*,#1214,.F.);
#1216=ORIENTED_EDGE('',*,*,#1158,.F.);
#1218=ORIENTED_EDGE('',*,*,#1217,.T.);
#1219=EDGE_LOOP('',(#1213,#1215,#1216,#1218));
#1220=FACE_OUTER_BOUND('',#1219,.F.);
#1221=ADVANCED_FACE('',(#1220),#1212,.F.);
#1222=CARTESIAN_POINT('',(3.1E1,-1.5E1,4.4E1));
#1223=DIRECTION('',(0.E0,0.E0,1.E0));
#1224=DIRECTION('',(0.E0,-1.E0,0.E0));
#1225=AXIS2_PLACEMENT_3D('',#1222,#1223,#1224);
#1226=CYLINDRICAL_SURFACE('',#1225,3.5E0);
#1227=ORIENTED_EDGE('',*,*,#843,.T.);
#1228=ORIENTED_EDGE('',*,*,#1217,.F.);
#1229=ORIENTED_EDGE('',*,*,#1160,.F.);
#1230=ORIENTED_EDGE('',*,*,#1214,.T.);
#1231=EDGE_LOOP('',(#1227,#1228,#1229,#1230));
#1232=FACE_OUTER_BOUND('',#1231,.F.);
#1233=ADVANCED_FACE('',(#1232),#1226,.F.);
#1234=CARTESIAN_POINT('',(3.1E1,-9.5E1,4.4E1));
#1235=DIRECTION('',(0.E0,0.E0,1.E0));
#1236=DIRECTION('',(0.E0,-1.E0,0.E0));
#1237=AXIS2_PLACEMENT_3D('',#1234,#1235,#1236);
#1238=CYLINDRICAL_SURFACE('',#1237,3.5E0);
#1239=ORIENTED_EDGE('',*,*,#847,.T.);
#1241=ORIENTED_EDGE('',*,*,#1240,.F.);
#1242=ORIENTED_EDGE('',*,*,#1164,.F.);
#1244=ORIENTED_EDGE('',*,*,#1243,.T.);
#1245=EDGE_LOOP('',(#1239,#1241,#1242,#1244));
#1246=FACE_OUTER_BOUND('',#1245,.F.);
#1247=ADVANCED_FACE('',(#1246),#1238,.F.);
#1248=CARTESIAN_POINT('',(3.1E1,-9.5E1,4.4E1));
#1249=DIRECTION('',(0.E0,0.E0,1.E0));
#1250=DIRECTION('',(0.E0,-1.E0,0.E0));
#1251=AXIS2_PLACEMENT_3D('',#1248,#1249,#1250);
#1252=CYLINDRICAL_SURFACE('',#1251,3.5E0);
#1253=ORIENTED_EDGE('',*,*,#849,.T.);
#1254=ORIENTED_EDGE('',*,*,#1243,.F.);
#1255=ORIENTED_EDGE('',*,*,#1166,.F.);
#1256=ORIENTED_EDGE('',*,*,#1240,.T.);
#1257=EDGE_LOOP('',(#1253,#1254,#1255,#1256));
#1258=FACE_OUTER_BOUND('',#1257,.F.);
#1259=ADVANCED_FACE('',(#1258),#1252,.F.);
#1260=CARTESIAN_POINT('',(-1.E0,-2.2E1,4.4E1));
#1261=DIRECTION('',(0.E0,0.E0,1.E0));
#1262=DIRECTION('',(0.E0,-1.E0,0.E0));
#1263=AXIS2_PLACEMENT_3D('',#1260,#1261,#1262);
#1264=CYLINDRICAL_SURFACE('',#1263,3.5E0);
#1265=ORIENTED_EDGE('',*,*,#853,.T.);
#1267=ORIENTED_EDGE('',*,*,#1266,.F.);
#1268=ORIENTED_EDGE('',*,*,#1170,.F.);
#1270=ORIENTED_EDGE('',*,*,#1269,.T.);
#1271=EDGE_LOOP('',(#1265,#1267,#1268,#1270));
#1272=FACE_OUTER_BOUND('',#1271,.F.);
#1273=ADVANCED_FACE('',(#1272),#1264,.F.);
#1274=CARTESIAN_POINT('',(-1.E0,-2.2E1,4.4E1));
#1275=DIRECTION('',(0.E0,0.E0,1.E0));
#1276=DIRECTION('',(0.E0,-1.E0,0.E0));
#1277=AXIS2_PLACEMENT_3D('',#1274,#1275,#1276);
#1278=CYLINDRICAL_SURFACE('',#1277,3.5E0);
#1279=ORIENTED_EDGE('',*,*,#855,.T.);
#1280=ORIENTED_EDGE('',*,*,#1269,.F.);
#1281=ORIENTED_EDGE('',*,*,#1172,.F.);
#1282=ORIENTED_EDGE('',*,*,#1266,.T.);
#1283=EDGE_LOOP('',(#1279,#1280,#1281,#1282));
#1284=FACE_OUTER_BOUND('',#1283,.F.);
#1285=ADVANCED_FACE('',(#1284),#1278,.F.);
#1286=CARTESIAN_POINT('',(-1.E0,-8.8E1,4.4E1));
#1287=DIRECTION('',(0.E0,0.E0,1.E0));
#1288=DIRECTION('',(0.E0,-1.E0,0.E0));
#1289=AXIS2_PLACEMENT_3D('',#1286,#1287,#1288);
#1290=CYLINDRICAL_SURFACE('',#1289,3.5E0);
#1291=ORIENTED_EDGE('',*,*,#859,.T.);
#1293=ORIENTED_EDGE('',*,*,#1292,.F.);
#1294=ORIENTED_EDGE('',*,*,#1176,.F.);
#1296=ORIENTED_EDGE('',*,*,#1295,.T.);
#1297=EDGE_LOOP('',(#1291,#1293,#1294,#1296));
#1298=FACE_OUTER_BOUND('',#1297,.F.);
#1299=ADVANCED_FACE('',(#1298),#1290,.F.);
#1300=CARTESIAN_POINT('',(-1.E0,-8.8E1,4.4E1));
#1301=DIRECTION('',(0.E0,0.E0,1.E0));
#1302=DIRECTION('',(0.E0,-1.E0,0.E0));
#1303=AXIS2_PLACEMENT_3D('',#1300,#1301,#1302);
#1304=CYLINDRICAL_SURFACE('',#1303,3.5E0);
#1305=ORIENTED_EDGE('',*,*,#861,.T.);
#1306=ORIENTED_EDGE('',*,*,#1295,.F.);
#1307=ORIENTED_EDGE('',*,*,#1178,.F.);
#1308=ORIENTED_EDGE('',*,*,#1292,.T.);
#1309=EDGE_LOOP('',(#1305,#1306,#1307,#1308));
#1310=FACE_OUTER_BOUND('',#1309,.F.);
#1311=ADVANCED_FACE('',(#1310),#1304,.F.);
#1312=CARTESIAN_POINT('',(0.E0,7.7E1,0.E0));
#1313=DIRECTION('',(0.E0,1.E0,0.E0));
#1314=DIRECTION('',(1.E0,0.E0,0.E0));
#1315=AXIS2_PLACEMENT_3D('',#1312,#1313,#1314);
#1316=PLANE('',#1315);
#1317=ORIENTED_EDGE('',*,*,#757,.T.);
#1319=ORIENTED_EDGE('',*,*,#1318,.T.);
#1321=ORIENTED_EDGE('',*,*,#1320,.F.);
#1322=ORIENTED_EDGE('',*,*,#1137,.F.);
#1323=EDGE_LOOP('',(#1317,#1319,#1321,#1322));
#1324=FACE_OUTER_BOUND('',#1323,.F.);
#1325=ADVANCED_FACE('',(#1324),#1316,.T.);
#1326=CARTESIAN_POINT('',(3.3E1,0.E0,0.E0));
#1327=DIRECTION('',(1.E0,0.E0,0.E0));
#1328=DIRECTION('',(0.E0,1.E0,0.E0));
#1329=AXIS2_PLACEMENT_3D('',#1326,#1327,#1328);
#1330=PLANE('',#1329);
#1331=ORIENTED_EDGE('',*,*,#895,.F.);
#1333=ORIENTED_EDGE('',*,*,#1332,.F.);
#1334=ORIENTED_EDGE('',*,*,#1318,.F.);
#1335=ORIENTED_EDGE('',*,*,#755,.F.);
#1336=EDGE_LOOP('',(#1331,#1333,#1334,#1335));
#1337=FACE_OUTER_BOUND('',#1336,.F.);
#1338=ADVANCED_FACE('',(#1337),#1330,.T.);
#1339=CARTESIAN_POINT('',(0.E0,0.E0,2.52E2));
#1340=DIRECTION('',(0.E0,0.E0,1.E0));
#1341=DIRECTION('',(-1.E0,0.E0,0.E0));
#1342=AXIS2_PLACEMENT_3D('',#1339,#1340,#1341);
#1343=PLANE('',#1342);
#1344=ORIENTED_EDGE('',*,*,#1320,.T.);
#1345=ORIENTED_EDGE('',*,*,#1332,.T.);
#1346=ORIENTED_EDGE('',*,*,#893,.T.);
#1347=ORIENTED_EDGE('',*,*,#1139,.T.);
#1348=EDGE_LOOP('',(#1344,#1345,#1346,#1347));
#1349=FACE_OUTER_BOUND('',#1348,.F.);
#1351=ORIENTED_EDGE('',*,*,#1350,.T.);
#1353=ORIENTED_EDGE('',*,*,#1352,.T.);
#1354=EDGE_LOOP('',(#1351,#1353));
#1355=FACE_BOUND('',#1354,.F.);
#1357=ORIENTED_EDGE('',*,*,#1356,.T.);
#1359=ORIENTED_EDGE('',*,*,#1358,.T.);
#1360=EDGE_LOOP('',(#1357,#1359));
#1361=FACE_BOUND('',#1360,.F.);
#1363=ORIENTED_EDGE('',*,*,#1362,.T.);
#1365=ORIENTED_EDGE('',*,*,#1364,.T.);
#1366=EDGE_LOOP('',(#1363,#1365));
#1367=FACE_BOUND('',#1366,.F.);
#1369=ORIENTED_EDGE('',*,*,#1368,.T.);
#1371=ORIENTED_EDGE('',*,*,#1370,.T.);
#1372=EDGE_LOOP('',(#1369,#1371));
#1373=FACE_BOUND('',#1372,.F.);
#1374=ADVANCED_FACE('',(#1349,#1355,#1361,#1367,#1373),#1343,.T.);
#1375=CARTESIAN_POINT('',(1.8E1,1.E1,2.52E2));
#1376=DIRECTION('',(0.E0,0.E0,1.E0));
#1377=DIRECTION('',(0.E0,1.E0,0.E0));
#1378=AXIS2_PLACEMENT_3D('',#1375,#1376,#1377);
#1379=CYLINDRICAL_SURFACE('',#1378,2.E0);
#1380=ORIENTED_EDGE('',*,*,#1350,.F.);
#1382=ORIENTED_EDGE('',*,*,#1381,.T.);
#1383=ORIENTED_EDGE('',*,*,#763,.T.);
#1385=ORIENTED_EDGE('',*,*,#1384,.F.);
#1386=EDGE_LOOP('',(#1380,#1382,#1383,#1385));
#1387=FACE_OUTER_BOUND('',#1386,.F.);
#1388=ADVANCED_FACE('',(#1387),#1379,.F.);
#1389=CARTESIAN_POINT('',(1.8E1,1.E1,2.52E2));
#1390=DIRECTION('',(0.E0,0.E0,1.E0));
#1391=DIRECTION('',(0.E0,1.E0,0.E0));
#1392=AXIS2_PLACEMENT_3D('',#1389,#1390,#1391);
#1393=CYLINDRICAL_SURFACE('',#1392,2.E0);
#1394=ORIENTED_EDGE('',*,*,#1352,.F.);
#1395=ORIENTED_EDGE('',*,*,#1384,.T.);
#1396=ORIENTED_EDGE('',*,*,#765,.T.);
#1397=ORIENTED_EDGE('',*,*,#1381,.F.);
#1398=EDGE_LOOP('',(#1394,#1395,#1396,#1397));
#1399=FACE_OUTER_BOUND('',#1398,.F.);
#1400=ADVANCED_FACE('',(#1399),#1393,.F.);
#1401=CARTESIAN_POINT('',(3.E1,1.E1,2.52E2));
#1402=DIRECTION('',(0.E0,0.E0,1.E0));
#1403=DIRECTION('',(0.E0,1.E0,0.E0));
#1404=AXIS2_PLACEMENT_3D('',#1401,#1402,#1403);
#1405=CYLINDRICAL_SURFACE('',#1404,2.E0);
#1406=ORIENTED_EDGE('',*,*,#1356,.F.);
#1408=ORIENTED_EDGE('',*,*,#1407,.T.);
#1409=ORIENTED_EDGE('',*,*,#769,.T.);
#1411=ORIENTED_EDGE('',*,*,#1410,.F.);
#1412=EDGE_LOOP('',(#1406,#1408,#1409,#1411));
#1413=FACE_OUTER_BOUND('',#1412,.F.);
#1414=ADVANCED_FACE('',(#1413),#1405,.F.);
#1415=CARTESIAN_POINT('',(3.E1,1.E1,2.52E2));
#1416=DIRECTION('',(0.E0,0.E0,1.E0));
#1417=DIRECTION('',(0.E0,1.E0,0.E0));
#1418=AXIS2_PLACEMENT_3D('',#1415,#1416,#1417);
#1419=CYLINDRICAL_SURFACE('',#1418,2.E0);
#1420=ORIENTED_EDGE('',*,*,#1358,.F.);
#1421=ORIENTED_EDGE('',*,*,#1410,.T.);
#1422=ORIENTED_EDGE('',*,*,#771,.T.);
#1423=ORIENTED_EDGE('',*,*,#1407,.F.);
#1424=EDGE_LOOP('',(#1420,#1421,#1422,#1423));
#1425=FACE_OUTER_BOUND('',#1424,.F.);
#1426=ADVANCED_FACE('',(#1425),#1419,.F.);
#1427=CARTESIAN_POINT('',(3.E1,7.E1,2.52E2));
#1428=DIRECTION('',(0.E0,0.E0,1.E0));
#1429=DIRECTION('',(0.E0,1.E0,0.E0));
#1430=AXIS2_PLACEMENT_3D('',#1427,#1428,#1429);
#1431=CYLINDRICAL_SURFACE('',#1430,2.E0);
#1432=ORIENTED_EDGE('',*,*,#1362,.F.);
#1434=ORIENTED_EDGE('',*,*,#1433,.T.);
#1435=ORIENTED_EDGE('',*,*,#775,.T.);
#1437=ORIENTED_EDGE('',*,*,#1436,.F.);
#1438=EDGE_LOOP('',(#1432,#1434,#1435,#1437));
#1439=FACE_OUTER_BOUND('',#1438,.F.);
#1440=ADVANCED_FACE('',(#1439),#1431,.F.);
#1441=CARTESIAN_POINT('',(3.E1,7.E1,2.52E2));
#1442=DIRECTION('',(0.E0,0.E0,1.E0));
#1443=DIRECTION('',(0.E0,1.E0,0.E0));
#1444=AXIS2_PLACEMENT_3D('',#1441,#1442,#1443);
#1445=CYLINDRICAL_SURFACE('',#1444,2.E0);
#1446=ORIENTED_EDGE('',*,*,#1364,.F.);
#1447=ORIENTED_EDGE('',*,*,#1436,.T.);
#1448=ORIENTED_EDGE('',*,*,#777,.T.);
#1449=ORIENTED_EDGE('',*,*,#1433,.F.);
#1450=EDGE_LOOP('',(#1446,#1447,#1448,#1449));
#1451=FACE_OUTER_BOUND('',#1450,.F.);
#1452=ADVANCED_FACE('',(#1451),#1445,.F.);
#1453=CARTESIAN_POINT('',(1.8E1,7.E1,2.52E2));
#1454=DIRECTION('',(0.E0,0.E0,1.E0));
#1455=DIRECTION('',(0.E0,1.E0,0.E0));
#1456=AXIS2_PLACEMENT_3D('',#1453,#1454,#1455);
#1457=CYLINDRICAL_SURFACE('',#1456,2.E0);
#1458=ORIENTED_EDGE('',*,*,#1368,.F.);
#1460=ORIENTED_EDGE('',*,*,#1459,.T.);
#1461=ORIENTED_EDGE('',*,*,#781,.T.);
#1463=ORIENTED_EDGE('',*,*,#1462,.F.);
#1464=EDGE_LOOP('',(#1458,#1460,#1461,#1463));
#1465=FACE_OUTER_BOUND('',#1464,.F.);
#1466=ADVANCED_FACE('',(#1465),#1457,.F.);
#1467=CARTESIAN_POINT('',(1.8E1,7.E1,2.52E2));
#1468=DIRECTION('',(0.E0,0.E0,1.E0));
#1469=DIRECTION('',(0.E0,1.E0,0.E0));
#1470=AXIS2_PLACEMENT_3D('',#1467,#1468,#1469);
#1471=CYLINDRICAL_SURFACE('',#1470,2.E0);
#1472=ORIENTED_EDGE('',*,*,#1370,.F.);
#1473=ORIENTED_EDGE('',*,*,#1462,.T.);
#1474=ORIENTED_EDGE('',*,*,#783,.T.);
#1475=ORIENTED_EDGE('',*,*,#1459,.F.);
#1476=EDGE_LOOP('',(#1472,#1473,#1474,#1475));
#1477=FACE_OUTER_BOUND('',#1476,.F.);
#1478=ADVANCED_FACE('',(#1477),#1471,.F.);
#1479=CARTESIAN_POINT('',(0.E0,0.E0,0.E0));
#1480=DIRECTION('',(0.E0,-1.E0,0.E0));
#1481=DIRECTION('',(0.E0,0.E0,-1.E0));
#1482=AXIS2_PLACEMENT_3D('',#1479,#1480,#1481);
#1483=PLANE('',#1482);
#1484=ORIENTED_EDGE('',*,*,#930,.T.);
#1485=ORIENTED_EDGE('',*,*,#915,.T.);
#1486=ORIENTED_EDGE('',*,*,#801,.T.);
#1488=ORIENTED_EDGE('',*,*,#1487,.T.);
#1489=EDGE_LOOP('',(#1484,#1485,#1486,#1488));
#1490=FACE_OUTER_BOUND('',#1489,.F.);
#1491=ADVANCED_FACE('',(#1490),#1483,.F.);
#1492=CARTESIAN_POINT('',(1.3E1,0.E0,-8.E0));
#1493=DIRECTION('',(0.E0,0.E0,1.E0));
#1494=DIRECTION('',(1.E0,0.E0,0.E0));
#1495=AXIS2_PLACEMENT_3D('',#1492,#1493,#1494);
#1496=PLANE('',#1495);
#1497=ORIENTED_EDGE('',*,*,#932,.F.);
#1498=ORIENTED_EDGE('',*,*,#1487,.F.);
#1499=ORIENTED_EDGE('',*,*,#799,.T.);
#1500=ORIENTED_EDGE('',*,*,#738,.T.);
#1501=EDGE_LOOP('',(#1497,#1498,#1499,#1500));
#1502=FACE_OUTER_BOUND('',#1501,.F.);
#1503=ADVANCED_FACE('',(#1502),#1496,.T.);
#1507=DIMENSIONAL_EXPONENTS(0.E0,0.E0,0.E0,0.E0,0.E0,0.E0,0.E0);
#1509=PLANE_ANGLE_MEASURE_WITH_UNIT(PLANE_ANGLE_MEASURE(1.745329251994E-2),
#1508);
#1510=(CONVERSION_BASED_UNIT('DEGREE',#1509)NAMED_UNIT(*)PLANE_ANGLE_UNIT());
#1512=UNCERTAINTY_MEASURE_WITH_UNIT(LENGTH_MEASURE(9.906E-3),#1506,'closure',
'Maximum model space distance between geometric entities at asserted connectivities');
#1513=(GEOMETRIC_REPRESENTATION_CONTEXT(3)GLOBAL_UNCERTAINTY_ASSIGNED_CONTEXT((
#1512))GLOBAL_UNIT_ASSIGNED_CONTEXT((#1506,#1510,#1511))REPRESENTATION_CONTEXT(
'ID1','3'));
#1515=APPLICATION_CONTEXT(
'CONFIGURATION CONTROLLED 3D DESIGNS OF MECHANICAL PARTS AND ASSEMBLIES');
#1516=APPLICATION_PROTOCOL_DEFINITION('international standard',
'config_control_design',1994,#1515);
#1517=DESIGN_CONTEXT('',#1515,'design');
#1518=MECHANICAL_CONTEXT('',#1515,'mechanical');
#1519=PRODUCT('PIPETTEADAPTOR','PIPETTEADAPTOR','NOT SPECIFIED',(#1518));
#1520=PRODUCT_DEFINITION_FORMATION_WITH_SPECIFIED_SOURCE('2','LAST_VERSION',
#1519,.MADE.);
#1524=PRODUCT_CATEGORY('part','');
#1525=PRODUCT_RELATED_PRODUCT_CATEGORY('detail','',(#1519));
#1526=PRODUCT_CATEGORY_RELATIONSHIP('','',#1524,#1525);
#1527=SECURITY_CLASSIFICATION_LEVEL('unclassified');
#1528=SECURITY_CLASSIFICATION('','',#1527);
#1529=CC_DESIGN_SECURITY_CLASSIFICATION(#1528,(#1520));
#1530=APPROVAL_STATUS('approved');
#1531=APPROVAL(#1530,'');
#1532=CC_DESIGN_APPROVAL(#1531,(#1528,#1520,#1521));
#1533=CALENDAR_DATE(126,29,5);
#1534=COORDINATED_UNIVERSAL_TIME_OFFSET(9,0,.AHEAD.);
#1535=LOCAL_TIME(11,26,4.7E1,#1534);
#1536=DATE_AND_TIME(#1533,#1535);
#1537=APPROVAL_DATE_TIME(#1536,#1531);
#1538=DATE_TIME_ROLE('creation_date');
#1539=CC_DESIGN_DATE_AND_TIME_ASSIGNMENT(#1536,#1538,(#1521));
#1540=DATE_TIME_ROLE('classification_date');
#1541=CC_DESIGN_DATE_AND_TIME_ASSIGNMENT(#1536,#1540,(#1528));
#1542=PERSON('UNSPECIFIED','UNSPECIFIED',$,$,$,$);
#1543=ORGANIZATION('UNSPECIFIED','UNSPECIFIED','UNSPECIFIED');
#1544=PERSON_AND_ORGANIZATION(#1542,#1543);
#1545=APPROVAL_ROLE('approver');
#1546=APPROVAL_PERSON_ORGANIZATION(#1544,#1531,#1545);
#1547=PERSON_AND_ORGANIZATION_ROLE('creator');
#1548=CC_DESIGN_PERSON_AND_ORGANIZATION_ASSIGNMENT(#1544,#1547,(#1520,#1521));
#1549=PERSON_AND_ORGANIZATION_ROLE('design_supplier');
#1550=CC_DESIGN_PERSON_AND_ORGANIZATION_ASSIGNMENT(#1544,#1549,(#1520));
#1551=PERSON_AND_ORGANIZATION_ROLE('classification_officer');
#1552=CC_DESIGN_PERSON_AND_ORGANIZATION_ASSIGNMENT(#1544,#1551,(#1528));
#1553=PERSON_AND_ORGANIZATION_ROLE('design_owner');
#1554=CC_DESIGN_PERSON_AND_ORGANIZATION_ASSIGNMENT(#1544,#1553,(#1519));
#29=CIRCLE('',#28,2.E0);
#34=CIRCLE('',#33,2.E0);
#39=CIRCLE('',#38,2.E0);
#44=CIRCLE('',#43,2.E0);
#49=CIRCLE('',#48,2.E0);
#54=CIRCLE('',#53,2.E0);
#59=CIRCLE('',#58,2.E0);
#64=CIRCLE('',#63,2.E0);
#101=CIRCLE('',#100,3.5E0);
#106=CIRCLE('',#105,3.5E0);
#111=CIRCLE('',#110,3.5E0);
#116=CIRCLE('',#115,3.5E0);
#121=CIRCLE('',#120,3.5E0);
#126=CIRCLE('',#125,3.5E0);
#131=CIRCLE('',#130,3.5E0);
#136=CIRCLE('',#135,3.5E0);
#177=CIRCLE('',#176,1.75E0);
#182=CIRCLE('',#181,1.75E0);
#191=CIRCLE('',#190,1.75E0);
#196=CIRCLE('',#195,1.75E0);
#249=CIRCLE('',#248,1.9E0);
#254=CIRCLE('',#253,1.9E0);
#279=CIRCLE('',#278,1.9E0);
#284=CIRCLE('',#283,1.9E0);
#329=CIRCLE('',#328,3.5E0);
#334=CIRCLE('',#333,3.5E0);
#339=CIRCLE('',#338,3.5E0);
#344=CIRCLE('',#343,3.5E0);
#349=CIRCLE('',#348,3.5E0);
#354=CIRCLE('',#353,3.5E0);
#359=CIRCLE('',#358,3.5E0);
#364=CIRCLE('',#363,3.5E0);
#457=CIRCLE('',#456,2.E0);
#462=CIRCLE('',#461,2.E0);
#467=CIRCLE('',#466,2.E0);
#472=CIRCLE('',#471,2.E0);
#477=CIRCLE('',#476,2.E0);
#482=CIRCLE('',#481,2.E0);
#487=CIRCLE('',#486,2.E0);
#492=CIRCLE('',#491,2.E0);
#722=EDGE_CURVE('',#618,#632,#4,.T.);
#724=EDGE_CURVE('',#573,#618,#316,.T.);
#726=EDGE_CURVE('',#603,#573,#216,.T.);
#728=EDGE_CURVE('',#603,#604,#8,.T.);
#730=EDGE_CURVE('',#559,#604,#308,.T.);
#732=EDGE_CURVE('',#559,#560,#258,.T.);
#734=EDGE_CURVE('',#560,#562,#12,.T.);
#736=EDGE_CURVE('',#562,#582,#16,.T.);
#738=EDGE_CURVE('',#568,#582,#548,.T.);
#740=EDGE_CURVE('',#568,#632,#20,.T.);
#751=EDGE_CURVE('',#631,#632,#72,.T.);
#753=EDGE_CURVE('',#631,#624,#24,.T.);
#755=EDGE_CURVE('',#624,#626,#440,.T.);
#757=EDGE_CURVE('',#615,#626,#420,.T.);
#759=EDGE_CURVE('',#618,#615,#320,.T.);
#763=EDGE_CURVE('',#651,#652,#29,.T.);
#765=EDGE_CURVE('',#652,#651,#34,.T.);
#769=EDGE_CURVE('',#655,#656,#39,.T.);
#771=EDGE_CURVE('',#656,#655,#44,.T.);
#775=EDGE_CURVE('',#659,#660,#49,.T.);
#777=EDGE_CURVE('',#660,#659,#54,.T.);
#781=EDGE_CURVE('',#663,#664,#59,.T.);
#783=EDGE_CURVE('',#664,#663,#64,.T.);
#793=EDGE_CURVE('',#679,#680,#68,.T.);
#795=EDGE_CURVE('',#631,#679,#168,.T.);
#799=EDGE_CURVE('',#566,#568,#544,.T.);
#801=EDGE_CURVE('',#565,#566,#76,.T.);
#803=EDGE_CURVE('',#565,#570,#80,.T.);
#805=EDGE_CURVE('',#680,#570,#144,.T.);
#816=EDGE_CURVE('',#680,#667,#84,.T.);
#818=EDGE_CURVE('',#667,#668,#88,.T.);
#820=EDGE_CURVE('',#668,#679,#92,.T.);
#830=EDGE_CURVE('',#682,#680,#140,.T.);
#832=EDGE_CURVE('',#682,#671,#96,.T.);
#834=EDGE_CURVE('',#671,#672,#372,.T.);
#836=EDGE_CURVE('',#667,#672,#368,.T.);
#841=EDGE_CURVE('',#687,#688,#101,.T.);
#843=EDGE_CURVE('',#688,#687,#106,.T.);
#847=EDGE_CURVE('',#691,#692,#111,.T.);
#849=EDGE_CURVE('',#692,#691,#116,.T.);
#853=EDGE_CURVE('',#695,#696,#121,.T.);
#855=EDGE_CURVE('',#696,#695,#126,.T.);
#859=EDGE_CURVE('',#699,#700,#131,.T.);
#861=EDGE_CURVE('',#700,#699,#136,.T.);
#873=EDGE_CURVE('',#570,#587,#148,.T.);
#875=EDGE_CURVE('',#587,#588,#228,.T.);
#877=EDGE_CURVE('',#588,#574,#152,.T.);
#879=EDGE_CURVE('',#574,#682,#156,.T.);
#889=EDGE_CURVE('',#684,#679,#160,.T.);
#891=EDGE_CURVE('',#684,#620,#164,.T.);
#893=EDGE_CURVE('',#623,#620,#448,.T.);
#895=EDGE_CURVE('',#623,#624,#428,.T.);
#907=EDGE_CURVE('',#584,#608,#172,.T.);
#909=EDGE_CURVE('',#608,#610,#244,.T.);
#911=EDGE_CURVE('',#587,#610,#224,.T.);
#915=EDGE_CURVE('',#584,#565,#532,.T.);
#925=EDGE_CURVE('',#607,#562,#208,.T.);
#927=EDGE_CURVE('',#607,#608,#232,.T.);
#930=EDGE_CURVE('',#581,#584,#528,.T.);
#932=EDGE_CURVE('',#581,#582,#536,.T.);
#937=EDGE_CURVE('',#577,#578,#177,.T.);
#939=EDGE_CURVE('',#578,#577,#182,.T.);
#949=EDGE_CURVE('',#590,#577,#186,.T.);
#952=EDGE_CURVE('',#592,#578,#200,.T.);
#954=EDGE_CURVE('',#590,#592,#191,.T.);
#965=EDGE_CURVE('',#592,#590,#196,.T.);
#987=EDGE_CURVE('',#588,#612,#204,.T.);
#989=EDGE_CURVE('',#612,#607,#236,.T.);
#993=EDGE_CURVE('',#552,#560,#266,.T.);
#995=EDGE_CURVE('',#552,#600,#212,.T.);
#997=EDGE_CURVE('',#600,#603,#288,.T.);
#1000=EDGE_CURVE('',#573,#574,#220,.T.);
#1012=EDGE_CURVE('',#610,#612,#240,.T.);
#1037=EDGE_CURVE('',#559,#551,#262,.T.);
#1039=EDGE_CURVE('',#551,#552,#304,.T.);
#1044=EDGE_CURVE('',#555,#556,#249,.T.);
#1046=EDGE_CURVE('',#556,#555,#254,.T.);
#1056=EDGE_CURVE('',#556,#596,#270,.T.);
#1058=EDGE_CURVE('',#596,#595,#284,.T.);
#1060=EDGE_CURVE('',#595,#555,#274,.T.);
#1072=EDGE_CURVE('',#595,#596,#279,.T.);
#1085=EDGE_CURVE('',#599,#600,#292,.T.);
#1087=EDGE_CURVE('',#604,#599,#296,.T.);
#1102=EDGE_CURVE('',#551,#599,#300,.T.);
#1128=EDGE_CURVE('',#684,#676,#312,.T.);
#1130=EDGE_CURVE('',#676,#671,#376,.T.);
#1137=EDGE_CURVE('',#615,#616,#424,.T.);
#1139=EDGE_CURVE('',#620,#616,#452,.T.);
#1151=EDGE_CURVE('',#668,#674,#324,.T.);
#1153=EDGE_CURVE('',#674,#676,#380,.T.);
#1158=EDGE_CURVE('',#703,#704,#329,.T.);
#1160=EDGE_CURVE('',#704,#703,#334,.T.);
#1164=EDGE_CURVE('',#707,#708,#339,.T.);
#1166=EDGE_CURVE('',#708,#707,#344,.T.);
#1170=EDGE_CURVE('',#711,#712,#349,.T.);
#1172=EDGE_CURVE('',#712,#711,#354,.T.);
#1176=EDGE_CURVE('',#715,#716,#359,.T.);
#1178=EDGE_CURVE('',#716,#715,#364,.T.);
#1190=EDGE_CURVE('',#672,#674,#384,.T.);
#1214=EDGE_CURVE('',#704,#688,#392,.T.);
#1217=EDGE_CURVE('',#703,#687,#388,.T.);
#1240=EDGE_CURVE('',#708,#692,#400,.T.);
#1243=EDGE_CURVE('',#707,#691,#396,.T.);
#1266=EDGE_CURVE('',#712,#696,#408,.T.);
#1269=EDGE_CURVE('',#711,#695,#404,.T.);
#1292=EDGE_CURVE('',#716,#700,#416,.T.);
#1295=EDGE_CURVE('',#715,#699,#412,.T.);
#1318=EDGE_CURVE('',#626,#628,#436,.T.);
#1320=EDGE_CURVE('',#616,#628,#444,.T.);
#1332=EDGE_CURVE('',#628,#623,#432,.T.);
#1350=EDGE_CURVE('',#635,#636,#457,.T.);
#1352=EDGE_CURVE('',#636,#635,#462,.T.);
#1356=EDGE_CURVE('',#639,#640,#467,.T.);
#1358=EDGE_CURVE('',#640,#639,#472,.T.);
#1362=EDGE_CURVE('',#643,#644,#477,.T.);
#1364=EDGE_CURVE('',#644,#643,#482,.T.);
#1368=EDGE_CURVE('',#647,#648,#487,.T.);
#1370=EDGE_CURVE('',#648,#647,#492,.T.);
#1381=EDGE_CURVE('',#635,#651,#496,.T.);
#1384=EDGE_CURVE('',#636,#652,#500,.T.);
#1407=EDGE_CURVE('',#639,#655,#504,.T.);
#1410=EDGE_CURVE('',#640,#656,#508,.T.);
#1433=EDGE_CURVE('',#643,#659,#512,.T.);
#1436=EDGE_CURVE('',#644,#660,#516,.T.);
#1459=EDGE_CURVE('',#647,#663,#520,.T.);
#1462=EDGE_CURVE('',#648,#664,#524,.T.);
#1487=EDGE_CURVE('',#566,#581,#540,.T.);
#1504=CLOSED_SHELL('',(#744,#787,#809,#824,#865,#883,#901,#919,#943,#958,#971,
#981,#1005,#1018,#1030,#1050,#1065,#1078,#1096,#1109,#1121,#1143,#1182,#1195,
#1207,#1221,#1233,#1247,#1259,#1273,#1285,#1299,#1311,#1325,#1338,#1374,#1388,
#1400,#1414,#1426,#1440,#1452,#1466,#1478,#1491,#1503));
#1505=MANIFOLD_SOLID_BREP('',#1504);
#1506=(LENGTH_UNIT()NAMED_UNIT(*)SI_UNIT(.MILLI.,.METRE.));
#1508=(NAMED_UNIT(*)PLANE_ANGLE_UNIT()SI_UNIT($,.RADIAN.));
#1511=(NAMED_UNIT(*)SI_UNIT($,.STERADIAN.)SOLID_ANGLE_UNIT());
#1514=ADVANCED_BREP_SHAPE_REPRESENTATION('',(#1505),#1513);
#1521=PRODUCT_DEFINITION('design','',#1520,#1517);
#1522=PRODUCT_DEFINITION_SHAPE('','SHAPE FOR PIPETTEADAPTOR.',#1521);
#1523=SHAPE_DEFINITION_REPRESENTATION(#1522,#1514);
ENDSEC;
END-ISO-10303-21;
