ISO-10303-21;
HEADER;
FILE_DESCRIPTION((''),'2;1');
FILE_NAME('VIALCAP','2026-06-04T13:44:14',('user'),(''),
'CREO PARAMETRIC BY PTC INC, 2025102','CREO PARAMETRIC BY PTC INC, 2025102','');
FILE_SCHEMA(('CONFIG_CONTROL_DESIGN'));
ENDSEC;
DATA;
#1=DIRECTION('',(0.E0,0.E0,-1.E0));
#2=VECTOR('',#1,2.3E1);
#3=CARTESIAN_POINT('',(1.E0,0.E0,1.E0));
#4=LINE('',#3,#2);
#5=DIRECTION('',(-1.E0,0.E0,0.E0));
#6=VECTOR('',#5,2.3E1);
#7=CARTESIAN_POINT('',(1.E0,0.E0,-2.2E1));
#8=LINE('',#7,#6);
#9=DIRECTION('',(0.E0,0.E0,1.E0));
#10=VECTOR('',#9,2.3E1);
#11=CARTESIAN_POINT('',(-2.2E1,0.E0,-2.2E1));
#12=LINE('',#11,#10);
#13=DIRECTION('',(1.E0,0.E0,0.E0));
#14=VECTOR('',#13,2.3E1);
#15=CARTESIAN_POINT('',(-2.2E1,0.E0,1.E0));
#16=LINE('',#15,#14);
#17=DIRECTION('',(0.E0,1.E0,0.E0));
#18=VECTOR('',#17,1.2E1);
#19=CARTESIAN_POINT('',(1.E0,0.E0,1.E0));
#20=LINE('',#19,#18);
#21=DIRECTION('',(0.E0,1.E0,0.E0));
#22=VECTOR('',#21,1.2E1);
#23=CARTESIAN_POINT('',(-2.2E1,0.E0,1.E0));
#24=LINE('',#23,#22);
#25=DIRECTION('',(0.E0,1.E0,0.E0));
#26=VECTOR('',#25,1.2E1);
#27=CARTESIAN_POINT('',(-2.2E1,0.E0,-2.2E1));
#28=LINE('',#27,#26);
#29=DIRECTION('',(0.E0,1.E0,0.E0));
#30=VECTOR('',#29,1.2E1);
#31=CARTESIAN_POINT('',(1.E0,0.E0,-2.2E1));
#32=LINE('',#31,#30);
#33=DIRECTION('',(0.E0,0.E0,-1.E0));
#34=VECTOR('',#33,2.3E1);
#35=CARTESIAN_POINT('',(1.E0,1.2E1,1.E0));
#36=LINE('',#35,#34);
#37=DIRECTION('',(1.E0,0.E0,0.E0));
#38=VECTOR('',#37,2.3E1);
#39=CARTESIAN_POINT('',(-2.2E1,1.2E1,1.E0));
#40=LINE('',#39,#38);
#41=DIRECTION('',(0.E0,0.E0,1.E0));
#42=VECTOR('',#41,2.3E1);
#43=CARTESIAN_POINT('',(-2.2E1,1.2E1,-2.2E1));
#44=LINE('',#43,#42);
#45=DIRECTION('',(-1.E0,0.E0,0.E0));
#46=VECTOR('',#45,2.3E1);
#47=CARTESIAN_POINT('',(1.E0,1.2E1,-2.2E1));
#48=LINE('',#47,#46);
#49=DIRECTION('',(1.E0,0.E0,0.E0));
#50=VECTOR('',#49,2.1E1);
#51=CARTESIAN_POINT('',(-2.1E1,1.2E1,-2.1E1));
#52=LINE('',#51,#50);
#53=DIRECTION('',(0.E0,0.E0,-1.E0));
#54=VECTOR('',#53,2.1E1);
#55=CARTESIAN_POINT('',(-2.1E1,1.2E1,0.E0));
#56=LINE('',#55,#54);
#57=DIRECTION('',(-1.E0,0.E0,0.E0));
#58=VECTOR('',#57,2.1E1);
#59=CARTESIAN_POINT('',(0.E0,1.2E1,0.E0));
#60=LINE('',#59,#58);
#61=DIRECTION('',(0.E0,0.E0,1.E0));
#62=VECTOR('',#61,2.1E1);
#63=CARTESIAN_POINT('',(0.E0,1.2E1,-2.1E1));
#64=LINE('',#63,#62);
#65=DIRECTION('',(0.E0,1.E0,0.E0));
#66=VECTOR('',#65,9.E0);
#67=CARTESIAN_POINT('',(-2.1E1,3.E0,-2.1E1));
#68=LINE('',#67,#66);
#69=DIRECTION('',(1.E0,0.E0,0.E0));
#70=VECTOR('',#69,2.1E1);
#71=CARTESIAN_POINT('',(-2.1E1,3.E0,-2.1E1));
#72=LINE('',#71,#70);
#73=DIRECTION('',(0.E0,0.E0,-1.E0));
#74=VECTOR('',#73,2.1E1);
#75=CARTESIAN_POINT('',(0.E0,3.E0,0.E0));
#76=LINE('',#75,#74);
#77=DIRECTION('',(1.E0,0.E0,0.E0));
#78=VECTOR('',#77,2.1E1);
#79=CARTESIAN_POINT('',(-2.1E1,3.E0,0.E0));
#80=LINE('',#79,#78);
#81=DIRECTION('',(0.E0,0.E0,-1.E0));
#82=VECTOR('',#81,2.1E1);
#83=CARTESIAN_POINT('',(-2.1E1,3.E0,0.E0));
#84=LINE('',#83,#82);
#85=DIRECTION('',(0.E0,1.E0,0.E0));
#86=VECTOR('',#85,9.E0);
#87=CARTESIAN_POINT('',(0.E0,3.E0,-2.1E1));
#88=LINE('',#87,#86);
#89=DIRECTION('',(0.E0,1.E0,0.E0));
#90=VECTOR('',#89,9.E0);
#91=CARTESIAN_POINT('',(0.E0,3.E0,0.E0));
#92=LINE('',#91,#90);
#93=DIRECTION('',(0.E0,1.E0,0.E0));
#94=VECTOR('',#93,9.E0);
#95=CARTESIAN_POINT('',(-2.1E1,3.E0,0.E0));
#96=LINE('',#95,#94);
#97=CARTESIAN_POINT('',(1.E0,0.E0,1.E0));
#98=CARTESIAN_POINT('',(1.E0,0.E0,-2.2E1));
#99=VERTEX_POINT('',#97);
#100=VERTEX_POINT('',#98);
#101=CARTESIAN_POINT('',(-2.2E1,0.E0,-2.2E1));
#102=VERTEX_POINT('',#101);
#103=CARTESIAN_POINT('',(-2.2E1,0.E0,1.E0));
#104=VERTEX_POINT('',#103);
#105=CARTESIAN_POINT('',(1.E0,1.2E1,1.E0));
#106=CARTESIAN_POINT('',(1.E0,1.2E1,-2.2E1));
#107=VERTEX_POINT('',#105);
#108=VERTEX_POINT('',#106);
#109=CARTESIAN_POINT('',(-2.2E1,1.2E1,-2.2E1));
#110=VERTEX_POINT('',#109);
#111=CARTESIAN_POINT('',(-2.2E1,1.2E1,1.E0));
#112=VERTEX_POINT('',#111);
#113=CARTESIAN_POINT('',(-2.1E1,1.2E1,-2.1E1));
#114=CARTESIAN_POINT('',(0.E0,1.2E1,-2.1E1));
#115=VERTEX_POINT('',#113);
#116=VERTEX_POINT('',#114);
#117=CARTESIAN_POINT('',(0.E0,1.2E1,0.E0));
#118=VERTEX_POINT('',#117);
#119=CARTESIAN_POINT('',(-2.1E1,1.2E1,0.E0));
#120=VERTEX_POINT('',#119);
#121=CARTESIAN_POINT('',(-2.1E1,3.E0,-2.1E1));
#122=CARTESIAN_POINT('',(0.E0,3.E0,-2.1E1));
#123=VERTEX_POINT('',#121);
#124=VERTEX_POINT('',#122);
#125=CARTESIAN_POINT('',(0.E0,3.E0,0.E0));
#126=VERTEX_POINT('',#125);
#127=CARTESIAN_POINT('',(-2.1E1,3.E0,0.E0));
#128=VERTEX_POINT('',#127);
#129=CARTESIAN_POINT('',(0.E0,0.E0,0.E0));
#130=DIRECTION('',(0.E0,1.E0,0.E0));
#131=DIRECTION('',(1.E0,0.E0,0.E0));
#132=AXIS2_PLACEMENT_3D('',#129,#130,#131);
#133=PLANE('',#132);
#135=ORIENTED_EDGE('',*,*,#134,.T.);
#137=ORIENTED_EDGE('',*,*,#136,.T.);
#139=ORIENTED_EDGE('',*,*,#138,.T.);
#141=ORIENTED_EDGE('',*,*,#140,.T.);
#142=EDGE_LOOP('',(#135,#137,#139,#141));
#143=FACE_OUTER_BOUND('',#142,.F.);
#144=ADVANCED_FACE('',(#143),#133,.F.);
#145=CARTESIAN_POINT('',(1.E0,0.E0,1.E0));
#146=DIRECTION('',(1.E0,0.E0,0.E0));
#147=DIRECTION('',(0.E0,0.E0,-1.E0));
#148=AXIS2_PLACEMENT_3D('',#145,#146,#147);
#149=PLANE('',#148);
#150=ORIENTED_EDGE('',*,*,#134,.F.);
#152=ORIENTED_EDGE('',*,*,#151,.T.);
#154=ORIENTED_EDGE('',*,*,#153,.T.);
#156=ORIENTED_EDGE('',*,*,#155,.F.);
#157=EDGE_LOOP('',(#150,#152,#154,#156));
#158=FACE_OUTER_BOUND('',#157,.F.);
#159=ADVANCED_FACE('',(#158),#149,.T.);
#160=CARTESIAN_POINT('',(-2.2E1,0.E0,1.E0));
#161=DIRECTION('',(0.E0,0.E0,1.E0));
#162=DIRECTION('',(1.E0,0.E0,0.E0));
#163=AXIS2_PLACEMENT_3D('',#160,#161,#162);
#164=PLANE('',#163);
#165=ORIENTED_EDGE('',*,*,#140,.F.);
#167=ORIENTED_EDGE('',*,*,#166,.T.);
#169=ORIENTED_EDGE('',*,*,#168,.T.);
#170=ORIENTED_EDGE('',*,*,#151,.F.);
#171=EDGE_LOOP('',(#165,#167,#169,#170));
#172=FACE_OUTER_BOUND('',#171,.F.);
#173=ADVANCED_FACE('',(#172),#164,.T.);
#174=CARTESIAN_POINT('',(-2.2E1,0.E0,-2.2E1));
#175=DIRECTION('',(-1.E0,0.E0,0.E0));
#176=DIRECTION('',(0.E0,0.E0,1.E0));
#177=AXIS2_PLACEMENT_3D('',#174,#175,#176);
#178=PLANE('',#177);
#179=ORIENTED_EDGE('',*,*,#138,.F.);
#181=ORIENTED_EDGE('',*,*,#180,.T.);
#183=ORIENTED_EDGE('',*,*,#182,.T.);
#184=ORIENTED_EDGE('',*,*,#166,.F.);
#185=EDGE_LOOP('',(#179,#181,#183,#184));
#186=FACE_OUTER_BOUND('',#185,.F.);
#187=ADVANCED_FACE('',(#186),#178,.T.);
#188=CARTESIAN_POINT('',(1.E0,0.E0,-2.2E1));
#189=DIRECTION('',(0.E0,0.E0,-1.E0));
#190=DIRECTION('',(-1.E0,0.E0,0.E0));
#191=AXIS2_PLACEMENT_3D('',#188,#189,#190);
#192=PLANE('',#191);
#193=ORIENTED_EDGE('',*,*,#136,.F.);
#194=ORIENTED_EDGE('',*,*,#155,.T.);
#196=ORIENTED_EDGE('',*,*,#195,.T.);
#197=ORIENTED_EDGE('',*,*,#180,.F.);
#198=EDGE_LOOP('',(#193,#194,#196,#197));
#199=FACE_OUTER_BOUND('',#198,.F.);
#200=ADVANCED_FACE('',(#199),#192,.T.);
#201=CARTESIAN_POINT('',(0.E0,1.2E1,0.E0));
#202=DIRECTION('',(0.E0,1.E0,0.E0));
#203=DIRECTION('',(1.E0,0.E0,0.E0));
#204=AXIS2_PLACEMENT_3D('',#201,#202,#203);
#205=PLANE('',#204);
#206=ORIENTED_EDGE('',*,*,#153,.F.);
#207=ORIENTED_EDGE('',*,*,#168,.F.);
#208=ORIENTED_EDGE('',*,*,#182,.F.);
#209=ORIENTED_EDGE('',*,*,#195,.F.);
#210=EDGE_LOOP('',(#206,#207,#208,#209));
#211=FACE_OUTER_BOUND('',#210,.F.);
#213=ORIENTED_EDGE('',*,*,#212,.F.);
#215=ORIENTED_EDGE('',*,*,#214,.F.);
#217=ORIENTED_EDGE('',*,*,#216,.F.);
#219=ORIENTED_EDGE('',*,*,#218,.F.);
#220=EDGE_LOOP('',(#213,#215,#217,#219));
#221=FACE_BOUND('',#220,.F.);
#222=ADVANCED_FACE('',(#211,#221),#205,.T.);
#223=CARTESIAN_POINT('',(-2.1E1,0.E0,-2.1E1));
#224=DIRECTION('',(0.E0,0.E0,1.E0));
#225=DIRECTION('',(1.E0,0.E0,0.E0));
#226=AXIS2_PLACEMENT_3D('',#223,#224,#225);
#227=PLANE('',#226);
#229=ORIENTED_EDGE('',*,*,#228,.F.);
#231=ORIENTED_EDGE('',*,*,#230,.T.);
#232=ORIENTED_EDGE('',*,*,#212,.T.);
#234=ORIENTED_EDGE('',*,*,#233,.F.);
#235=EDGE_LOOP('',(#229,#231,#232,#234));
#236=FACE_OUTER_BOUND('',#235,.F.);
#237=ADVANCED_FACE('',(#236),#227,.T.);
#238=CARTESIAN_POINT('',(0.E0,3.E0,0.E0));
#239=DIRECTION('',(0.E0,1.E0,0.E0));
#240=DIRECTION('',(1.E0,0.E0,0.E0));
#241=AXIS2_PLACEMENT_3D('',#238,#239,#240);
#242=PLANE('',#241);
#243=ORIENTED_EDGE('',*,*,#228,.T.);
#245=ORIENTED_EDGE('',*,*,#244,.F.);
#247=ORIENTED_EDGE('',*,*,#246,.F.);
#249=ORIENTED_EDGE('',*,*,#248,.T.);
#250=EDGE_LOOP('',(#243,#245,#247,#249));
#251=FACE_OUTER_BOUND('',#250,.F.);
#252=ADVANCED_FACE('',(#251),#242,.T.);
#253=CARTESIAN_POINT('',(0.E0,0.E0,-2.1E1));
#254=DIRECTION('',(-1.E0,0.E0,0.E0));
#255=DIRECTION('',(0.E0,0.E0,1.E0));
#256=AXIS2_PLACEMENT_3D('',#253,#254,#255);
#257=PLANE('',#256);
#258=ORIENTED_EDGE('',*,*,#244,.T.);
#259=ORIENTED_EDGE('',*,*,#233,.T.);
#260=ORIENTED_EDGE('',*,*,#218,.T.);
#262=ORIENTED_EDGE('',*,*,#261,.F.);
#263=EDGE_LOOP('',(#258,#259,#260,#262));
#264=FACE_OUTER_BOUND('',#263,.F.);
#265=ADVANCED_FACE('',(#264),#257,.T.);
#266=CARTESIAN_POINT('',(0.E0,0.E0,0.E0));
#267=DIRECTION('',(0.E0,0.E0,-1.E0));
#268=DIRECTION('',(-1.E0,0.E0,0.E0));
#269=AXIS2_PLACEMENT_3D('',#266,#267,#268);
#270=PLANE('',#269);
#271=ORIENTED_EDGE('',*,*,#246,.T.);
#272=ORIENTED_EDGE('',*,*,#261,.T.);
#273=ORIENTED_EDGE('',*,*,#216,.T.);
#275=ORIENTED_EDGE('',*,*,#274,.F.);
#276=EDGE_LOOP('',(#271,#272,#273,#275));
#277=FACE_OUTER_BOUND('',#276,.F.);
#278=ADVANCED_FACE('',(#277),#270,.T.);
#279=CARTESIAN_POINT('',(-2.1E1,0.E0,0.E0));
#280=DIRECTION('',(1.E0,0.E0,0.E0));
#281=DIRECTION('',(0.E0,0.E0,-1.E0));
#282=AXIS2_PLACEMENT_3D('',#279,#280,#281);
#283=PLANE('',#282);
#284=ORIENTED_EDGE('',*,*,#248,.F.);
#285=ORIENTED_EDGE('',*,*,#274,.T.);
#286=ORIENTED_EDGE('',*,*,#214,.T.);
#287=ORIENTED_EDGE('',*,*,#230,.F.);
#288=EDGE_LOOP('',(#284,#285,#286,#287));
#289=FACE_OUTER_BOUND('',#288,.F.);
#290=ADVANCED_FACE('',(#289),#283,.T.);
#294=DIMENSIONAL_EXPONENTS(0.E0,0.E0,0.E0,0.E0,0.E0,0.E0,0.E0);
#296=PLANE_ANGLE_MEASURE_WITH_UNIT(PLANE_ANGLE_MEASURE(1.745329251994E-2),#295);
#297=(CONVERSION_BASED_UNIT('DEGREE',#296)NAMED_UNIT(*)PLANE_ANGLE_UNIT());
#299=UNCERTAINTY_MEASURE_WITH_UNIT(LENGTH_MEASURE(1.E-2),#293,'closure',
'Maximum model space distance between geometric entities at asserted connectivities');
#300=(GEOMETRIC_REPRESENTATION_CONTEXT(3)GLOBAL_UNCERTAINTY_ASSIGNED_CONTEXT((
#299))GLOBAL_UNIT_ASSIGNED_CONTEXT((#293,#297,#298))REPRESENTATION_CONTEXT
('ID1','3'));
#302=APPLICATION_CONTEXT(
'CONFIGURATION CONTROLLED 3D DESIGNS OF MECHANICAL PARTS AND ASSEMBLIES');
#303=APPLICATION_PROTOCOL_DEFINITION('international standard',
'config_control_design',1994,#302);
#304=DESIGN_CONTEXT('',#302,'design');
#305=MECHANICAL_CONTEXT('',#302,'mechanical');
#306=PRODUCT('VIALCAP','VIALCAP','NOT SPECIFIED',(#305));
#307=PRODUCT_DEFINITION_FORMATION_WITH_SPECIFIED_SOURCE('1','LAST_VERSION',#306,
.MADE.);
#311=PRODUCT_CATEGORY('part','');
#312=PRODUCT_RELATED_PRODUCT_CATEGORY('detail','',(#306));
#313=PRODUCT_CATEGORY_RELATIONSHIP('','',#311,#312);
#314=SECURITY_CLASSIFICATION_LEVEL('unclassified');
#315=SECURITY_CLASSIFICATION('','',#314);
#316=CC_DESIGN_SECURITY_CLASSIFICATION(#315,(#307));
#317=APPROVAL_STATUS('approved');
#318=APPROVAL(#317,'');
#319=CC_DESIGN_APPROVAL(#318,(#315,#307,#308));
#320=CALENDAR_DATE(126,4,6);
#321=COORDINATED_UNIVERSAL_TIME_OFFSET(9,0,.AHEAD.);
#322=LOCAL_TIME(13,44,1.4E1,#321);
#323=DATE_AND_TIME(#320,#322);
#324=APPROVAL_DATE_TIME(#323,#318);
#325=DATE_TIME_ROLE('creation_date');
#326=CC_DESIGN_DATE_AND_TIME_ASSIGNMENT(#323,#325,(#308));
#327=DATE_TIME_ROLE('classification_date');
#328=CC_DESIGN_DATE_AND_TIME_ASSIGNMENT(#323,#327,(#315));
#329=PERSON('UNSPECIFIED','UNSPECIFIED',$,$,$,$);
#330=ORGANIZATION('UNSPECIFIED','UNSPECIFIED','UNSPECIFIED');
#331=PERSON_AND_ORGANIZATION(#329,#330);
#332=APPROVAL_ROLE('approver');
#333=APPROVAL_PERSON_ORGANIZATION(#331,#318,#332);
#334=PERSON_AND_ORGANIZATION_ROLE('creator');
#335=CC_DESIGN_PERSON_AND_ORGANIZATION_ASSIGNMENT(#331,#334,(#307,#308));
#336=PERSON_AND_ORGANIZATION_ROLE('design_supplier');
#337=CC_DESIGN_PERSON_AND_ORGANIZATION_ASSIGNMENT(#331,#336,(#307));
#338=PERSON_AND_ORGANIZATION_ROLE('classification_officer');
#339=CC_DESIGN_PERSON_AND_ORGANIZATION_ASSIGNMENT(#331,#338,(#315));
#340=PERSON_AND_ORGANIZATION_ROLE('design_owner');
#341=CC_DESIGN_PERSON_AND_ORGANIZATION_ASSIGNMENT(#331,#340,(#306));
#134=EDGE_CURVE('',#99,#100,#4,.T.);
#136=EDGE_CURVE('',#100,#102,#8,.T.);
#138=EDGE_CURVE('',#102,#104,#12,.T.);
#140=EDGE_CURVE('',#104,#99,#16,.T.);
#151=EDGE_CURVE('',#99,#107,#20,.T.);
#153=EDGE_CURVE('',#107,#108,#36,.T.);
#155=EDGE_CURVE('',#100,#108,#32,.T.);
#166=EDGE_CURVE('',#104,#112,#24,.T.);
#168=EDGE_CURVE('',#112,#107,#40,.T.);
#180=EDGE_CURVE('',#102,#110,#28,.T.);
#182=EDGE_CURVE('',#110,#112,#44,.T.);
#195=EDGE_CURVE('',#108,#110,#48,.T.);
#212=EDGE_CURVE('',#115,#116,#52,.T.);
#214=EDGE_CURVE('',#120,#115,#56,.T.);
#216=EDGE_CURVE('',#118,#120,#60,.T.);
#218=EDGE_CURVE('',#116,#118,#64,.T.);
#228=EDGE_CURVE('',#123,#124,#72,.T.);
#230=EDGE_CURVE('',#123,#115,#68,.T.);
#233=EDGE_CURVE('',#124,#116,#88,.T.);
#244=EDGE_CURVE('',#126,#124,#76,.T.);
#246=EDGE_CURVE('',#128,#126,#80,.T.);
#248=EDGE_CURVE('',#128,#123,#84,.T.);
#261=EDGE_CURVE('',#126,#118,#92,.T.);
#274=EDGE_CURVE('',#128,#120,#96,.T.);
#291=CLOSED_SHELL('',(#144,#159,#173,#187,#200,#222,#237,#252,#265,#278,#290));
#292=MANIFOLD_SOLID_BREP('',#291);
#293=(LENGTH_UNIT()NAMED_UNIT(*)SI_UNIT(.MILLI.,.METRE.));
#295=(NAMED_UNIT(*)PLANE_ANGLE_UNIT()SI_UNIT($,.RADIAN.));
#298=(NAMED_UNIT(*)SI_UNIT($,.STERADIAN.)SOLID_ANGLE_UNIT());
#301=ADVANCED_BREP_SHAPE_REPRESENTATION('',(#292),#300);
#308=PRODUCT_DEFINITION('design','',#307,#304);
#309=PRODUCT_DEFINITION_SHAPE('','SHAPE FOR VIALCAP.',#308);
#310=SHAPE_DEFINITION_REPRESENTATION(#309,#301);
ENDSEC;
END-ISO-10303-21;
