ISO-10303-21;
HEADER;
FILE_DESCRIPTION((''),'2;1');
FILE_NAME('VIALRACK','2026-05-29T11:34:22',('user'),(''),
'CREO PARAMETRIC BY PTC INC, 2025102','CREO PARAMETRIC BY PTC INC, 2025102','');
FILE_SCHEMA(('CONFIG_CONTROL_DESIGN'));
ENDSEC;
DATA;
#1=CARTESIAN_POINT('',(0.E0,0.E0,0.E0));
#2=DIRECTION('',(0.E0,-1.E0,0.E0));
#3=DIRECTION('',(1.E0,0.E0,0.E0));
#4=AXIS2_PLACEMENT_3D('',#1,#2,#3);
#6=CARTESIAN_POINT('',(0.E0,0.E0,0.E0));
#7=DIRECTION('',(0.E0,-1.E0,0.E0));
#8=DIRECTION('',(-1.E0,0.E0,0.E0));
#9=AXIS2_PLACEMENT_3D('',#6,#7,#8);
#11=CARTESIAN_POINT('',(-1.E2,0.E0,0.E0));
#12=DIRECTION('',(0.E0,-1.E0,0.E0));
#13=DIRECTION('',(1.E0,0.E0,0.E0));
#14=AXIS2_PLACEMENT_3D('',#11,#12,#13);
#16=CARTESIAN_POINT('',(-1.E2,0.E0,0.E0));
#17=DIRECTION('',(0.E0,-1.E0,0.E0));
#18=DIRECTION('',(-1.E0,0.E0,0.E0));
#19=AXIS2_PLACEMENT_3D('',#16,#17,#18);
#21=CARTESIAN_POINT('',(-1.E2,0.E0,5.E1));
#22=DIRECTION('',(0.E0,-1.E0,0.E0));
#23=DIRECTION('',(1.E0,0.E0,0.E0));
#24=AXIS2_PLACEMENT_3D('',#21,#22,#23);
#26=CARTESIAN_POINT('',(-1.E2,0.E0,5.E1));
#27=DIRECTION('',(0.E0,-1.E0,0.E0));
#28=DIRECTION('',(-1.E0,0.E0,0.E0));
#29=AXIS2_PLACEMENT_3D('',#26,#27,#28);
#31=CARTESIAN_POINT('',(0.E0,0.E0,5.E1));
#32=DIRECTION('',(0.E0,-1.E0,0.E0));
#33=DIRECTION('',(1.E0,0.E0,0.E0));
#34=AXIS2_PLACEMENT_3D('',#31,#32,#33);
#36=CARTESIAN_POINT('',(0.E0,0.E0,5.E1));
#37=DIRECTION('',(0.E0,-1.E0,0.E0));
#38=DIRECTION('',(-1.E0,0.E0,0.E0));
#39=AXIS2_PLACEMENT_3D('',#36,#37,#38);
#41=DIRECTION('',(0.E0,0.E0,1.E0));
#42=VECTOR('',#41,6.422253277272E1);
#43=CARTESIAN_POINT('',(-1.065649536598E2,0.E0,-7.111266386358E0));
#44=LINE('',#43,#42);
#45=DIRECTION('',(1.E0,0.E0,0.E0));
#46=VECTOR('',#45,1.131299073195E2);
#47=CARTESIAN_POINT('',(-1.065649536598E2,0.E0,5.711126638636E1));
#48=LINE('',#47,#46);
#49=DIRECTION('',(0.E0,0.E0,-1.E0));
#50=VECTOR('',#49,6.422253277272E1);
#51=CARTESIAN_POINT('',(6.564953659759E0,0.E0,5.711126638636E1));
#52=LINE('',#51,#50);
#53=DIRECTION('',(-1.E0,0.E0,0.E0));
#54=VECTOR('',#53,1.131299073195E2);
#55=CARTESIAN_POINT('',(6.564953659759E0,0.E0,-7.111266386358E0));
#56=LINE('',#55,#54);
#57=DIRECTION('',(0.E0,1.E0,0.E0));
#58=VECTOR('',#57,1.E1);
#59=CARTESIAN_POINT('',(3.5E0,0.E0,0.E0));
#60=LINE('',#59,#58);
#61=DIRECTION('',(0.E0,1.E0,0.E0));
#62=VECTOR('',#61,1.E1);
#63=CARTESIAN_POINT('',(-3.5E0,0.E0,0.E0));
#64=LINE('',#63,#62);
#65=CARTESIAN_POINT('',(0.E0,1.E1,0.E0));
#66=DIRECTION('',(0.E0,-1.E0,0.E0));
#67=DIRECTION('',(1.E0,0.E0,0.E0));
#68=AXIS2_PLACEMENT_3D('',#65,#66,#67);
#70=CARTESIAN_POINT('',(0.E0,1.E1,0.E0));
#71=DIRECTION('',(0.E0,-1.E0,0.E0));
#72=DIRECTION('',(-1.E0,0.E0,0.E0));
#73=AXIS2_PLACEMENT_3D('',#70,#71,#72);
#75=CARTESIAN_POINT('',(-1.E2,1.E1,0.E0));
#76=DIRECTION('',(0.E0,-1.E0,0.E0));
#77=DIRECTION('',(1.E0,0.E0,0.E0));
#78=AXIS2_PLACEMENT_3D('',#75,#76,#77);
#80=CARTESIAN_POINT('',(-1.E2,1.E1,0.E0));
#81=DIRECTION('',(0.E0,-1.E0,0.E0));
#82=DIRECTION('',(-1.E0,0.E0,0.E0));
#83=AXIS2_PLACEMENT_3D('',#80,#81,#82);
#85=CARTESIAN_POINT('',(-1.E2,1.E1,5.E1));
#86=DIRECTION('',(0.E0,-1.E0,0.E0));
#87=DIRECTION('',(1.E0,0.E0,0.E0));
#88=AXIS2_PLACEMENT_3D('',#85,#86,#87);
#90=CARTESIAN_POINT('',(-1.E2,1.E1,5.E1));
#91=DIRECTION('',(0.E0,-1.E0,0.E0));
#92=DIRECTION('',(-1.E0,0.E0,0.E0));
#93=AXIS2_PLACEMENT_3D('',#90,#91,#92);
#95=CARTESIAN_POINT('',(0.E0,1.E1,5.E1));
#96=DIRECTION('',(0.E0,-1.E0,0.E0));
#97=DIRECTION('',(1.E0,0.E0,0.E0));
#98=AXIS2_PLACEMENT_3D('',#95,#96,#97);
#100=CARTESIAN_POINT('',(0.E0,1.E1,5.E1));
#101=DIRECTION('',(0.E0,-1.E0,0.E0));
#102=DIRECTION('',(-1.E0,0.E0,0.E0));
#103=AXIS2_PLACEMENT_3D('',#100,#101,#102);
#105=DIRECTION('',(0.E0,0.E0,-1.E0));
#106=VECTOR('',#105,6.422253277272E1);
#107=CARTESIAN_POINT('',(-9.418728178372E1,1.E1,5.711126638636E1));
#108=LINE('',#107,#106);
#109=DIRECTION('',(1.E0,0.E0,0.E0));
#110=VECTOR('',#109,1.237767187604E1);
#111=CARTESIAN_POINT('',(-1.065649536598E2,1.E1,5.711126638636E1));
#112=LINE('',#111,#110);
#113=DIRECTION('',(0.E0,0.E0,1.E0));
#114=VECTOR('',#113,6.422253277272E1);
#115=CARTESIAN_POINT('',(-1.065649536598E2,1.E1,-7.111266386358E0));
#116=LINE('',#115,#114);
#117=DIRECTION('',(-1.E0,0.E0,0.E0));
#118=VECTOR('',#117,1.237767187604E1);
#119=CARTESIAN_POINT('',(-9.418728178372E1,1.E1,-7.111266386358E0));
#120=LINE('',#119,#118);
#121=DIRECTION('',(0.E0,0.E0,-1.E0));
#122=VECTOR('',#121,6.422253277272E1);
#123=CARTESIAN_POINT('',(-5.812718216284E0,1.E1,5.711126638636E1));
#124=LINE('',#123,#122);
#125=DIRECTION('',(-1.E0,0.E0,0.E0));
#126=VECTOR('',#125,1.237767187604E1);
#127=CARTESIAN_POINT('',(6.564953659759E0,1.E1,-7.111266386358E0));
#128=LINE('',#127,#126);
#129=DIRECTION('',(0.E0,0.E0,-1.E0));
#130=VECTOR('',#129,6.422253277272E1);
#131=CARTESIAN_POINT('',(6.564953659759E0,1.E1,5.711126638636E1));
#132=LINE('',#131,#130);
#133=DIRECTION('',(1.E0,0.E0,0.E0));
#134=VECTOR('',#133,1.237767187604E1);
#135=CARTESIAN_POINT('',(-5.812718216284E0,1.E1,5.711126638636E1));
#136=LINE('',#135,#134);
#137=DIRECTION('',(0.E0,1.E0,0.E0));
#138=VECTOR('',#137,1.E1);
#139=CARTESIAN_POINT('',(-9.65E1,0.E0,0.E0));
#140=LINE('',#139,#138);
#141=DIRECTION('',(0.E0,1.E0,0.E0));
#142=VECTOR('',#141,1.E1);
#143=CARTESIAN_POINT('',(-1.035E2,0.E0,0.E0));
#144=LINE('',#143,#142);
#145=DIRECTION('',(0.E0,1.E0,0.E0));
#146=VECTOR('',#145,1.E1);
#147=CARTESIAN_POINT('',(-9.65E1,0.E0,5.E1));
#148=LINE('',#147,#146);
#149=DIRECTION('',(0.E0,1.E0,0.E0));
#150=VECTOR('',#149,1.E1);
#151=CARTESIAN_POINT('',(-1.035E2,0.E0,5.E1));
#152=LINE('',#151,#150);
#153=DIRECTION('',(0.E0,1.E0,0.E0));
#154=VECTOR('',#153,1.E1);
#155=CARTESIAN_POINT('',(3.5E0,0.E0,5.E1));
#156=LINE('',#155,#154);
#157=DIRECTION('',(0.E0,1.E0,0.E0));
#158=VECTOR('',#157,1.E1);
#159=CARTESIAN_POINT('',(-3.5E0,0.E0,5.E1));
#160=LINE('',#159,#158);
#161=DIRECTION('',(0.E0,1.E0,0.E0));
#162=VECTOR('',#161,1.4E2);
#163=CARTESIAN_POINT('',(-9.418728178372E1,1.E1,-7.111266386358E0));
#164=LINE('',#163,#162);
#165=DIRECTION('',(0.E0,1.E0,0.E0));
#166=VECTOR('',#165,1.4E2);
#167=CARTESIAN_POINT('',(-5.812718216284E0,1.E1,-7.111266386358E0));
#168=LINE('',#167,#166);
#169=DIRECTION('',(0.E0,1.E0,0.E0));
#170=VECTOR('',#169,1.E1);
#171=CARTESIAN_POINT('',(6.564953659759E0,0.E0,-7.111266386358E0));
#172=LINE('',#171,#170);
#173=DIRECTION('',(0.E0,1.E0,0.E0));
#174=VECTOR('',#173,1.4E2);
#175=CARTESIAN_POINT('',(-5.812718216284E0,1.E1,5.711126638636E1));
#176=LINE('',#175,#174);
#177=DIRECTION('',(0.E0,1.E0,0.E0));
#178=VECTOR('',#177,1.4E2);
#179=CARTESIAN_POINT('',(-9.418728178372E1,1.E1,5.711126638636E1));
#180=LINE('',#179,#178);
#181=DIRECTION('',(0.E0,1.E0,0.E0));
#182=VECTOR('',#181,1.E1);
#183=CARTESIAN_POINT('',(-1.065649536598E2,0.E0,5.711126638636E1));
#184=LINE('',#183,#182);
#185=DIRECTION('',(0.E0,0.E0,1.E0));
#186=VECTOR('',#185,6.422253277272E1);
#187=CARTESIAN_POINT('',(-9.418728178372E1,1.5E2,-7.111266386358E0));
#188=LINE('',#187,#186);
#189=DIRECTION('',(-1.E0,0.E0,0.E0));
#190=VECTOR('',#189,8.837456356743E1);
#191=CARTESIAN_POINT('',(-5.812718216284E0,1.5E2,-7.111266386358E0));
#192=LINE('',#191,#190);
#193=DIRECTION('',(0.E0,0.E0,-1.E0));
#194=VECTOR('',#193,6.422253277272E1);
#195=CARTESIAN_POINT('',(-5.812718216284E0,1.5E2,5.711126638636E1));
#196=LINE('',#195,#194);
#197=DIRECTION('',(1.E0,0.E0,0.E0));
#198=VECTOR('',#197,8.837456356743E1);
#199=CARTESIAN_POINT('',(-9.418728178372E1,1.5E2,5.711126638636E1));
#200=LINE('',#199,#198);
#201=CARTESIAN_POINT('',(-8.E1,1.5E2,1.E1));
#202=DIRECTION('',(0.E0,1.E0,0.E0));
#203=DIRECTION('',(1.E0,0.E0,0.E0));
#204=AXIS2_PLACEMENT_3D('',#201,#202,#203);
#206=CARTESIAN_POINT('',(-8.E1,1.5E2,1.E1));
#207=DIRECTION('',(0.E0,1.E0,0.E0));
#208=DIRECTION('',(-1.E0,0.E0,0.E0));
#209=AXIS2_PLACEMENT_3D('',#206,#207,#208);
#211=CARTESIAN_POINT('',(-5.E1,1.5E2,1.E1));
#212=DIRECTION('',(0.E0,1.E0,0.E0));
#213=DIRECTION('',(1.E0,0.E0,0.E0));
#214=AXIS2_PLACEMENT_3D('',#211,#212,#213);
#216=CARTESIAN_POINT('',(-5.E1,1.5E2,1.E1));
#217=DIRECTION('',(0.E0,1.E0,0.E0));
#218=DIRECTION('',(-1.E0,0.E0,0.E0));
#219=AXIS2_PLACEMENT_3D('',#216,#217,#218);
#221=CARTESIAN_POINT('',(-2.E1,1.5E2,1.E1));
#222=DIRECTION('',(0.E0,1.E0,0.E0));
#223=DIRECTION('',(1.E0,0.E0,0.E0));
#224=AXIS2_PLACEMENT_3D('',#221,#222,#223);
#226=CARTESIAN_POINT('',(-2.E1,1.5E2,1.E1));
#227=DIRECTION('',(0.E0,1.E0,0.E0));
#228=DIRECTION('',(-1.E0,0.E0,0.E0));
#229=AXIS2_PLACEMENT_3D('',#226,#227,#228);
#231=CARTESIAN_POINT('',(-8.E1,1.5E2,4.E1));
#232=DIRECTION('',(0.E0,1.E0,0.E0));
#233=DIRECTION('',(1.E0,0.E0,0.E0));
#234=AXIS2_PLACEMENT_3D('',#231,#232,#233);
#236=CARTESIAN_POINT('',(-8.E1,1.5E2,4.E1));
#237=DIRECTION('',(0.E0,1.E0,0.E0));
#238=DIRECTION('',(-1.E0,0.E0,0.E0));
#239=AXIS2_PLACEMENT_3D('',#236,#237,#238);
#241=CARTESIAN_POINT('',(-5.E1,1.5E2,4.E1));
#242=DIRECTION('',(0.E0,1.E0,0.E0));
#243=DIRECTION('',(1.E0,0.E0,0.E0));
#244=AXIS2_PLACEMENT_3D('',#241,#242,#243);
#246=CARTESIAN_POINT('',(-5.E1,1.5E2,4.E1));
#247=DIRECTION('',(0.E0,1.E0,0.E0));
#248=DIRECTION('',(-1.E0,0.E0,0.E0));
#249=AXIS2_PLACEMENT_3D('',#246,#247,#248);
#251=CARTESIAN_POINT('',(-2.E1,1.5E2,4.E1));
#252=DIRECTION('',(0.E0,1.E0,0.E0));
#253=DIRECTION('',(1.E0,0.E0,0.E0));
#254=AXIS2_PLACEMENT_3D('',#251,#252,#253);
#256=CARTESIAN_POINT('',(-2.E1,1.5E2,4.E1));
#257=DIRECTION('',(0.E0,1.E0,0.E0));
#258=DIRECTION('',(-1.E0,0.E0,0.E0));
#259=AXIS2_PLACEMENT_3D('',#256,#257,#258);
#261=DIRECTION('',(0.E0,-1.E0,0.E0));
#262=VECTOR('',#261,1.E1);
#263=CARTESIAN_POINT('',(-6.875E1,1.5E2,1.E1));
#264=LINE('',#263,#262);
#265=DIRECTION('',(0.E0,-1.E0,0.E0));
#266=VECTOR('',#265,1.E1);
#267=CARTESIAN_POINT('',(-9.125E1,1.5E2,1.E1));
#268=LINE('',#267,#266);
#269=CARTESIAN_POINT('',(-8.E1,1.4E2,1.E1));
#270=DIRECTION('',(0.E0,1.E0,0.E0));
#271=DIRECTION('',(1.E0,0.E0,0.E0));
#272=AXIS2_PLACEMENT_3D('',#269,#270,#271);
#274=CARTESIAN_POINT('',(-8.E1,1.4E2,1.E1));
#275=DIRECTION('',(0.E0,1.E0,0.E0));
#276=DIRECTION('',(-1.E0,0.E0,0.E0));
#277=AXIS2_PLACEMENT_3D('',#274,#275,#276);
#279=DIRECTION('',(0.E0,-1.E0,0.E0));
#280=VECTOR('',#279,1.E1);
#281=CARTESIAN_POINT('',(-3.875E1,1.5E2,1.E1));
#282=LINE('',#281,#280);
#283=DIRECTION('',(0.E0,-1.E0,0.E0));
#284=VECTOR('',#283,1.E1);
#285=CARTESIAN_POINT('',(-6.125E1,1.5E2,1.E1));
#286=LINE('',#285,#284);
#287=CARTESIAN_POINT('',(-5.E1,1.4E2,1.E1));
#288=DIRECTION('',(0.E0,1.E0,0.E0));
#289=DIRECTION('',(1.E0,0.E0,0.E0));
#290=AXIS2_PLACEMENT_3D('',#287,#288,#289);
#292=CARTESIAN_POINT('',(-5.E1,1.4E2,1.E1));
#293=DIRECTION('',(0.E0,1.E0,0.E0));
#294=DIRECTION('',(-1.E0,0.E0,0.E0));
#295=AXIS2_PLACEMENT_3D('',#292,#293,#294);
#297=DIRECTION('',(0.E0,-1.E0,0.E0));
#298=VECTOR('',#297,1.E1);
#299=CARTESIAN_POINT('',(-8.75E0,1.5E2,1.E1));
#300=LINE('',#299,#298);
#301=DIRECTION('',(0.E0,-1.E0,0.E0));
#302=VECTOR('',#301,1.E1);
#303=CARTESIAN_POINT('',(-3.125E1,1.5E2,1.E1));
#304=LINE('',#303,#302);
#305=CARTESIAN_POINT('',(-2.E1,1.4E2,1.E1));
#306=DIRECTION('',(0.E0,1.E0,0.E0));
#307=DIRECTION('',(1.E0,0.E0,0.E0));
#308=AXIS2_PLACEMENT_3D('',#305,#306,#307);
#310=CARTESIAN_POINT('',(-2.E1,1.4E2,1.E1));
#311=DIRECTION('',(0.E0,1.E0,0.E0));
#312=DIRECTION('',(-1.E0,0.E0,0.E0));
#313=AXIS2_PLACEMENT_3D('',#310,#311,#312);
#315=DIRECTION('',(0.E0,-1.E0,0.E0));
#316=VECTOR('',#315,1.E1);
#317=CARTESIAN_POINT('',(-6.875E1,1.5E2,4.E1));
#318=LINE('',#317,#316);
#319=DIRECTION('',(0.E0,-1.E0,0.E0));
#320=VECTOR('',#319,1.E1);
#321=CARTESIAN_POINT('',(-9.125E1,1.5E2,4.E1));
#322=LINE('',#321,#320);
#323=CARTESIAN_POINT('',(-8.E1,1.4E2,4.E1));
#324=DIRECTION('',(0.E0,1.E0,0.E0));
#325=DIRECTION('',(1.E0,0.E0,0.E0));
#326=AXIS2_PLACEMENT_3D('',#323,#324,#325);
#328=CARTESIAN_POINT('',(-8.E1,1.4E2,4.E1));
#329=DIRECTION('',(0.E0,1.E0,0.E0));
#330=DIRECTION('',(-1.E0,0.E0,0.E0));
#331=AXIS2_PLACEMENT_3D('',#328,#329,#330);
#333=DIRECTION('',(0.E0,-1.E0,0.E0));
#334=VECTOR('',#333,1.E1);
#335=CARTESIAN_POINT('',(-3.875E1,1.5E2,4.E1));
#336=LINE('',#335,#334);
#337=DIRECTION('',(0.E0,-1.E0,0.E0));
#338=VECTOR('',#337,1.E1);
#339=CARTESIAN_POINT('',(-6.125E1,1.5E2,4.E1));
#340=LINE('',#339,#338);
#341=CARTESIAN_POINT('',(-5.E1,1.4E2,4.E1));
#342=DIRECTION('',(0.E0,1.E0,0.E0));
#343=DIRECTION('',(1.E0,0.E0,0.E0));
#344=AXIS2_PLACEMENT_3D('',#341,#342,#343);
#346=CARTESIAN_POINT('',(-5.E1,1.4E2,4.E1));
#347=DIRECTION('',(0.E0,1.E0,0.E0));
#348=DIRECTION('',(-1.E0,0.E0,0.E0));
#349=AXIS2_PLACEMENT_3D('',#346,#347,#348);
#351=DIRECTION('',(0.E0,-1.E0,0.E0));
#352=VECTOR('',#351,1.E1);
#353=CARTESIAN_POINT('',(-8.75E0,1.5E2,4.E1));
#354=LINE('',#353,#352);
#355=DIRECTION('',(0.E0,-1.E0,0.E0));
#356=VECTOR('',#355,1.E1);
#357=CARTESIAN_POINT('',(-3.125E1,1.5E2,4.E1));
#358=LINE('',#357,#356);
#359=CARTESIAN_POINT('',(-2.E1,1.4E2,4.E1));
#360=DIRECTION('',(0.E0,1.E0,0.E0));
#361=DIRECTION('',(1.E0,0.E0,0.E0));
#362=AXIS2_PLACEMENT_3D('',#359,#360,#361);
#364=CARTESIAN_POINT('',(-2.E1,1.4E2,4.E1));
#365=DIRECTION('',(0.E0,1.E0,0.E0));
#366=DIRECTION('',(-1.E0,0.E0,0.E0));
#367=AXIS2_PLACEMENT_3D('',#364,#365,#366);
#369=DIRECTION('',(0.E0,1.E0,0.E0));
#370=VECTOR('',#369,1.E1);
#371=CARTESIAN_POINT('',(6.564953659759E0,0.E0,5.711126638636E1));
#372=LINE('',#371,#370);
#373=DIRECTION('',(0.E0,1.E0,0.E0));
#374=VECTOR('',#373,1.E1);
#375=CARTESIAN_POINT('',(-1.065649536598E2,0.E0,-7.111266386358E0));
#376=LINE('',#375,#374);
#377=CARTESIAN_POINT('',(3.5E0,0.E0,0.E0));
#378=CARTESIAN_POINT('',(-3.5E0,0.E0,0.E0));
#379=VERTEX_POINT('',#377);
#380=VERTEX_POINT('',#378);
#381=CARTESIAN_POINT('',(-9.65E1,0.E0,0.E0));
#382=CARTESIAN_POINT('',(-1.035E2,0.E0,0.E0));
#383=VERTEX_POINT('',#381);
#384=VERTEX_POINT('',#382);
#385=CARTESIAN_POINT('',(-9.65E1,0.E0,5.E1));
#386=CARTESIAN_POINT('',(-1.035E2,0.E0,5.E1));
#387=VERTEX_POINT('',#385);
#388=VERTEX_POINT('',#386);
#389=CARTESIAN_POINT('',(3.5E0,0.E0,5.E1));
#390=CARTESIAN_POINT('',(-3.5E0,0.E0,5.E1));
#391=VERTEX_POINT('',#389);
#392=VERTEX_POINT('',#390);
#393=CARTESIAN_POINT('',(-1.065649536598E2,0.E0,-7.111266386358E0));
#394=CARTESIAN_POINT('',(-1.065649536598E2,0.E0,5.711126638636E1));
#395=VERTEX_POINT('',#393);
#396=VERTEX_POINT('',#394);
#397=CARTESIAN_POINT('',(6.564953659759E0,0.E0,5.711126638636E1));
#398=VERTEX_POINT('',#397);
#399=CARTESIAN_POINT('',(6.564953659759E0,0.E0,-7.111266386358E0));
#400=VERTEX_POINT('',#399);
#401=CARTESIAN_POINT('',(3.5E0,1.E1,0.E0));
#402=CARTESIAN_POINT('',(-3.5E0,1.E1,0.E0));
#403=VERTEX_POINT('',#401);
#404=VERTEX_POINT('',#402);
#405=CARTESIAN_POINT('',(-9.65E1,1.E1,0.E0));
#406=CARTESIAN_POINT('',(-1.035E2,1.E1,0.E0));
#407=VERTEX_POINT('',#405);
#408=VERTEX_POINT('',#406);
#409=CARTESIAN_POINT('',(-9.65E1,1.E1,5.E1));
#410=CARTESIAN_POINT('',(-1.035E2,1.E1,5.E1));
#411=VERTEX_POINT('',#409);
#412=VERTEX_POINT('',#410);
#413=CARTESIAN_POINT('',(3.5E0,1.E1,5.E1));
#414=CARTESIAN_POINT('',(-3.5E0,1.E1,5.E1));
#415=VERTEX_POINT('',#413);
#416=VERTEX_POINT('',#414);
#417=CARTESIAN_POINT('',(-1.065649536598E2,1.E1,-7.111266386358E0));
#418=CARTESIAN_POINT('',(-1.065649536598E2,1.E1,5.711126638636E1));
#419=VERTEX_POINT('',#417);
#420=VERTEX_POINT('',#418);
#421=CARTESIAN_POINT('',(6.564953659759E0,1.E1,5.711126638636E1));
#422=CARTESIAN_POINT('',(6.564953659759E0,1.E1,-7.111266386358E0));
#423=VERTEX_POINT('',#421);
#424=VERTEX_POINT('',#422);
#425=CARTESIAN_POINT('',(-9.418728178372E1,1.5E2,-7.111266386358E0));
#426=CARTESIAN_POINT('',(-9.418728178372E1,1.5E2,5.711126638636E1));
#427=VERTEX_POINT('',#425);
#428=VERTEX_POINT('',#426);
#429=CARTESIAN_POINT('',(-5.812718216284E0,1.5E2,5.711126638636E1));
#430=VERTEX_POINT('',#429);
#431=CARTESIAN_POINT('',(-5.812718216284E0,1.5E2,-7.111266386358E0));
#432=VERTEX_POINT('',#431);
#433=CARTESIAN_POINT('',(-9.418728178372E1,1.E1,5.711126638636E1));
#434=CARTESIAN_POINT('',(-9.418728178372E1,1.E1,-7.111266386358E0));
#435=VERTEX_POINT('',#433);
#436=VERTEX_POINT('',#434);
#437=CARTESIAN_POINT('',(-5.812718216284E0,1.E1,5.711126638636E1));
#438=CARTESIAN_POINT('',(-5.812718216284E0,1.E1,-7.111266386358E0));
#439=VERTEX_POINT('',#437);
#440=VERTEX_POINT('',#438);
#441=CARTESIAN_POINT('',(-6.875E1,1.4E2,1.E1));
#442=CARTESIAN_POINT('',(-9.125E1,1.4E2,1.E1));
#443=VERTEX_POINT('',#441);
#444=VERTEX_POINT('',#442);
#445=CARTESIAN_POINT('',(-6.875E1,1.5E2,1.E1));
#446=CARTESIAN_POINT('',(-9.125E1,1.5E2,1.E1));
#447=VERTEX_POINT('',#445);
#448=VERTEX_POINT('',#446);
#449=CARTESIAN_POINT('',(-3.875E1,1.4E2,1.E1));
#450=CARTESIAN_POINT('',(-6.125E1,1.4E2,1.E1));
#451=VERTEX_POINT('',#449);
#452=VERTEX_POINT('',#450);
#453=CARTESIAN_POINT('',(-3.875E1,1.5E2,1.E1));
#454=CARTESIAN_POINT('',(-6.125E1,1.5E2,1.E1));
#455=VERTEX_POINT('',#453);
#456=VERTEX_POINT('',#454);
#457=CARTESIAN_POINT('',(-8.75E0,1.4E2,1.E1));
#458=CARTESIAN_POINT('',(-3.125E1,1.4E2,1.E1));
#459=VERTEX_POINT('',#457);
#460=VERTEX_POINT('',#458);
#461=CARTESIAN_POINT('',(-8.75E0,1.5E2,1.E1));
#462=CARTESIAN_POINT('',(-3.125E1,1.5E2,1.E1));
#463=VERTEX_POINT('',#461);
#464=VERTEX_POINT('',#462);
#465=CARTESIAN_POINT('',(-6.875E1,1.4E2,4.E1));
#466=CARTESIAN_POINT('',(-9.125E1,1.4E2,4.E1));
#467=VERTEX_POINT('',#465);
#468=VERTEX_POINT('',#466);
#469=CARTESIAN_POINT('',(-6.875E1,1.5E2,4.E1));
#470=CARTESIAN_POINT('',(-9.125E1,1.5E2,4.E1));
#471=VERTEX_POINT('',#469);
#472=VERTEX_POINT('',#470);
#473=CARTESIAN_POINT('',(-3.875E1,1.4E2,4.E1));
#474=CARTESIAN_POINT('',(-6.125E1,1.4E2,4.E1));
#475=VERTEX_POINT('',#473);
#476=VERTEX_POINT('',#474);
#477=CARTESIAN_POINT('',(-3.875E1,1.5E2,4.E1));
#478=CARTESIAN_POINT('',(-6.125E1,1.5E2,4.E1));
#479=VERTEX_POINT('',#477);
#480=VERTEX_POINT('',#478);
#481=CARTESIAN_POINT('',(-8.75E0,1.4E2,4.E1));
#482=CARTESIAN_POINT('',(-3.125E1,1.4E2,4.E1));
#483=VERTEX_POINT('',#481);
#484=VERTEX_POINT('',#482);
#485=CARTESIAN_POINT('',(-8.75E0,1.5E2,4.E1));
#486=CARTESIAN_POINT('',(-3.125E1,1.5E2,4.E1));
#487=VERTEX_POINT('',#485);
#488=VERTEX_POINT('',#486);
#489=CARTESIAN_POINT('',(0.E0,0.E0,0.E0));
#490=DIRECTION('',(0.E0,1.E0,0.E0));
#491=DIRECTION('',(1.E0,0.E0,0.E0));
#492=AXIS2_PLACEMENT_3D('',#489,#490,#491);
#493=PLANE('',#492);
#495=ORIENTED_EDGE('',*,*,#494,.T.);
#497=ORIENTED_EDGE('',*,*,#496,.T.);
#499=ORIENTED_EDGE('',*,*,#498,.T.);
#501=ORIENTED_EDGE('',*,*,#500,.T.);
#502=EDGE_LOOP('',(#495,#497,#499,#501));
#503=FACE_OUTER_BOUND('',#502,.F.);
#505=ORIENTED_EDGE('',*,*,#504,.T.);
#507=ORIENTED_EDGE('',*,*,#506,.T.);
#508=EDGE_LOOP('',(#505,#507));
#509=FACE_BOUND('',#508,.F.);
#511=ORIENTED_EDGE('',*,*,#510,.T.);
#513=ORIENTED_EDGE('',*,*,#512,.T.);
#514=EDGE_LOOP('',(#511,#513));
#515=FACE_BOUND('',#514,.F.);
#517=ORIENTED_EDGE('',*,*,#516,.T.);
#519=ORIENTED_EDGE('',*,*,#518,.T.);
#520=EDGE_LOOP('',(#517,#519));
#521=FACE_BOUND('',#520,.F.);
#523=ORIENTED_EDGE('',*,*,#522,.T.);
#525=ORIENTED_EDGE('',*,*,#524,.T.);
#526=EDGE_LOOP('',(#523,#525));
#527=FACE_BOUND('',#526,.F.);
#528=ADVANCED_FACE('',(#503,#509,#515,#521,#527),#493,.F.);
#529=CARTESIAN_POINT('',(0.E0,0.E0,0.E0));
#530=DIRECTION('',(0.E0,1.E0,0.E0));
#531=DIRECTION('',(1.E0,0.E0,0.E0));
#532=AXIS2_PLACEMENT_3D('',#529,#530,#531);
#533=CYLINDRICAL_SURFACE('',#532,3.5E0);
#534=ORIENTED_EDGE('',*,*,#522,.F.);
#536=ORIENTED_EDGE('',*,*,#535,.T.);
#538=ORIENTED_EDGE('',*,*,#537,.T.);
#540=ORIENTED_EDGE('',*,*,#539,.F.);
#541=EDGE_LOOP('',(#534,#536,#538,#540));
#542=FACE_OUTER_BOUND('',#541,.F.);
#543=ADVANCED_FACE('',(#542),#533,.F.);
#544=CARTESIAN_POINT('',(0.E0,0.E0,0.E0));
#545=DIRECTION('',(0.E0,1.E0,0.E0));
#546=DIRECTION('',(1.E0,0.E0,0.E0));
#547=AXIS2_PLACEMENT_3D('',#544,#545,#546);
#548=CYLINDRICAL_SURFACE('',#547,3.5E0);
#549=ORIENTED_EDGE('',*,*,#524,.F.);
#550=ORIENTED_EDGE('',*,*,#539,.T.);
#552=ORIENTED_EDGE('',*,*,#551,.T.);
#553=ORIENTED_EDGE('',*,*,#535,.F.);
#554=EDGE_LOOP('',(#549,#550,#552,#553));
#555=FACE_OUTER_BOUND('',#554,.F.);
#556=ADVANCED_FACE('',(#555),#548,.F.);
#557=CARTESIAN_POINT('',(0.E0,1.E1,0.E0));
#558=DIRECTION('',(0.E0,1.E0,0.E0));
#559=DIRECTION('',(1.E0,0.E0,0.E0));
#560=AXIS2_PLACEMENT_3D('',#557,#558,#559);
#561=PLANE('',#560);
#563=ORIENTED_EDGE('',*,*,#562,.F.);
#565=ORIENTED_EDGE('',*,*,#564,.F.);
#567=ORIENTED_EDGE('',*,*,#566,.F.);
#569=ORIENTED_EDGE('',*,*,#568,.F.);
#570=EDGE_LOOP('',(#563,#565,#567,#569));
#571=FACE_OUTER_BOUND('',#570,.F.);
#573=ORIENTED_EDGE('',*,*,#572,.F.);
#575=ORIENTED_EDGE('',*,*,#574,.F.);
#576=EDGE_LOOP('',(#573,#575));
#577=FACE_BOUND('',#576,.F.);
#579=ORIENTED_EDGE('',*,*,#578,.F.);
#581=ORIENTED_EDGE('',*,*,#580,.F.);
#582=EDGE_LOOP('',(#579,#581));
#583=FACE_BOUND('',#582,.F.);
#584=ADVANCED_FACE('',(#571,#577,#583),#561,.T.);
#585=CARTESIAN_POINT('',(0.E0,1.E1,0.E0));
#586=DIRECTION('',(0.E0,1.E0,0.E0));
#587=DIRECTION('',(1.E0,0.E0,0.E0));
#588=AXIS2_PLACEMENT_3D('',#585,#586,#587);
#589=PLANE('',#588);
#591=ORIENTED_EDGE('',*,*,#590,.T.);
#593=ORIENTED_EDGE('',*,*,#592,.F.);
#595=ORIENTED_EDGE('',*,*,#594,.F.);
#597=ORIENTED_EDGE('',*,*,#596,.F.);
#598=EDGE_LOOP('',(#591,#593,#595,#597));
#599=FACE_OUTER_BOUND('',#598,.F.);
#600=ORIENTED_EDGE('',*,*,#537,.F.);
#601=ORIENTED_EDGE('',*,*,#551,.F.);
#602=EDGE_LOOP('',(#600,#601));
#603=FACE_BOUND('',#602,.F.);
#605=ORIENTED_EDGE('',*,*,#604,.F.);
#607=ORIENTED_EDGE('',*,*,#606,.F.);
#608=EDGE_LOOP('',(#605,#607));
#609=FACE_BOUND('',#608,.F.);
#610=ADVANCED_FACE('',(#599,#603,#609),#589,.T.);
#611=CARTESIAN_POINT('',(-1.E2,0.E0,0.E0));
#612=DIRECTION('',(0.E0,1.E0,0.E0));
#613=DIRECTION('',(1.E0,0.E0,0.E0));
#614=AXIS2_PLACEMENT_3D('',#611,#612,#613);
#615=CYLINDRICAL_SURFACE('',#614,3.5E0);
#616=ORIENTED_EDGE('',*,*,#504,.F.);
#618=ORIENTED_EDGE('',*,*,#617,.T.);
#619=ORIENTED_EDGE('',*,*,#572,.T.);
#621=ORIENTED_EDGE('',*,*,#620,.F.);
#622=EDGE_LOOP('',(#616,#618,#619,#621));
#623=FACE_OUTER_BOUND('',#622,.F.);
#624=ADVANCED_FACE('',(#623),#615,.F.);
#625=CARTESIAN_POINT('',(-1.E2,0.E0,0.E0));
#626=DIRECTION('',(0.E0,1.E0,0.E0));
#627=DIRECTION('',(1.E0,0.E0,0.E0));
#628=AXIS2_PLACEMENT_3D('',#625,#626,#627);
#629=CYLINDRICAL_SURFACE('',#628,3.5E0);
#630=ORIENTED_EDGE('',*,*,#506,.F.);
#631=ORIENTED_EDGE('',*,*,#620,.T.);
#632=ORIENTED_EDGE('',*,*,#574,.T.);
#633=ORIENTED_EDGE('',*,*,#617,.F.);
#634=EDGE_LOOP('',(#630,#631,#632,#633));
#635=FACE_OUTER_BOUND('',#634,.F.);
#636=ADVANCED_FACE('',(#635),#629,.F.);
#637=CARTESIAN_POINT('',(-1.E2,0.E0,5.E1));
#638=DIRECTION('',(0.E0,1.E0,0.E0));
#639=DIRECTION('',(1.E0,0.E0,0.E0));
#640=AXIS2_PLACEMENT_3D('',#637,#638,#639);
#641=CYLINDRICAL_SURFACE('',#640,3.5E0);
#642=ORIENTED_EDGE('',*,*,#510,.F.);
#644=ORIENTED_EDGE('',*,*,#643,.T.);
#645=ORIENTED_EDGE('',*,*,#578,.T.);
#647=ORIENTED_EDGE('',*,*,#646,.F.);
#648=EDGE_LOOP('',(#642,#644,#645,#647));
#649=FACE_OUTER_BOUND('',#648,.F.);
#650=ADVANCED_FACE('',(#649),#641,.F.);
#651=CARTESIAN_POINT('',(-1.E2,0.E0,5.E1));
#652=DIRECTION('',(0.E0,1.E0,0.E0));
#653=DIRECTION('',(1.E0,0.E0,0.E0));
#654=AXIS2_PLACEMENT_3D('',#651,#652,#653);
#655=CYLINDRICAL_SURFACE('',#654,3.5E0);
#656=ORIENTED_EDGE('',*,*,#512,.F.);
#657=ORIENTED_EDGE('',*,*,#646,.T.);
#658=ORIENTED_EDGE('',*,*,#580,.T.);
#659=ORIENTED_EDGE('',*,*,#643,.F.);
#660=EDGE_LOOP('',(#656,#657,#658,#659));
#661=FACE_OUTER_BOUND('',#660,.F.);
#662=ADVANCED_FACE('',(#661),#655,.F.);
#663=CARTESIAN_POINT('',(0.E0,0.E0,5.E1));
#664=DIRECTION('',(0.E0,1.E0,0.E0));
#665=DIRECTION('',(1.E0,0.E0,0.E0));
#666=AXIS2_PLACEMENT_3D('',#663,#664,#665);
#667=CYLINDRICAL_SURFACE('',#666,3.5E0);
#668=ORIENTED_EDGE('',*,*,#516,.F.);
#670=ORIENTED_EDGE('',*,*,#669,.T.);
#671=ORIENTED_EDGE('',*,*,#604,.T.);
#673=ORIENTED_EDGE('',*,*,#672,.F.);
#674=EDGE_LOOP('',(#668,#670,#671,#673));
#675=FACE_OUTER_BOUND('',#674,.F.);
#676=ADVANCED_FACE('',(#675),#667,.F.);
#677=CARTESIAN_POINT('',(0.E0,0.E0,5.E1));
#678=DIRECTION('',(0.E0,1.E0,0.E0));
#679=DIRECTION('',(1.E0,0.E0,0.E0));
#680=AXIS2_PLACEMENT_3D('',#677,#678,#679);
#681=CYLINDRICAL_SURFACE('',#680,3.5E0);
#682=ORIENTED_EDGE('',*,*,#518,.F.);
#683=ORIENTED_EDGE('',*,*,#672,.T.);
#684=ORIENTED_EDGE('',*,*,#606,.T.);
#685=ORIENTED_EDGE('',*,*,#669,.F.);
#686=EDGE_LOOP('',(#682,#683,#684,#685));
#687=FACE_OUTER_BOUND('',#686,.F.);
#688=ADVANCED_FACE('',(#687),#681,.F.);
#689=CARTESIAN_POINT('',(-9.418728178372E1,1.E1,-7.111266386358E0));
#690=DIRECTION('',(-1.E0,0.E0,0.E0));
#691=DIRECTION('',(0.E0,0.E0,1.E0));
#692=AXIS2_PLACEMENT_3D('',#689,#690,#691);
#693=PLANE('',#692);
#694=ORIENTED_EDGE('',*,*,#562,.T.);
#696=ORIENTED_EDGE('',*,*,#695,.T.);
#698=ORIENTED_EDGE('',*,*,#697,.T.);
#700=ORIENTED_EDGE('',*,*,#699,.F.);
#701=EDGE_LOOP('',(#694,#696,#698,#700));
#702=FACE_OUTER_BOUND('',#701,.F.);
#703=ADVANCED_FACE('',(#702),#693,.T.);
#704=CARTESIAN_POINT('',(6.564953659759E0,0.E0,-7.111266386358E0));
#705=DIRECTION('',(0.E0,0.E0,-1.E0));
#706=DIRECTION('',(-1.E0,0.E0,0.E0));
#707=AXIS2_PLACEMENT_3D('',#704,#705,#706);
#708=PLANE('',#707);
#709=ORIENTED_EDGE('',*,*,#592,.T.);
#711=ORIENTED_EDGE('',*,*,#710,.T.);
#713=ORIENTED_EDGE('',*,*,#712,.T.);
#714=ORIENTED_EDGE('',*,*,#695,.F.);
#715=ORIENTED_EDGE('',*,*,#568,.T.);
#717=ORIENTED_EDGE('',*,*,#716,.F.);
#718=ORIENTED_EDGE('',*,*,#500,.F.);
#720=ORIENTED_EDGE('',*,*,#719,.T.);
#721=EDGE_LOOP('',(#709,#711,#713,#714,#715,#717,#718,#720));
#722=FACE_OUTER_BOUND('',#721,.F.);
#723=ADVANCED_FACE('',(#722),#708,.T.);
#724=CARTESIAN_POINT('',(-5.812718216284E0,1.E1,5.711126638636E1));
#725=DIRECTION('',(1.E0,0.E0,0.E0));
#726=DIRECTION('',(0.E0,0.E0,-1.E0));
#727=AXIS2_PLACEMENT_3D('',#724,#725,#726);
#728=PLANE('',#727);
#729=ORIENTED_EDGE('',*,*,#590,.F.);
#731=ORIENTED_EDGE('',*,*,#730,.T.);
#733=ORIENTED_EDGE('',*,*,#732,.T.);
#734=ORIENTED_EDGE('',*,*,#710,.F.);
#735=EDGE_LOOP('',(#729,#731,#733,#734));
#736=FACE_OUTER_BOUND('',#735,.F.);
#737=ADVANCED_FACE('',(#736),#728,.T.);
#738=CARTESIAN_POINT('',(-1.065649536598E2,0.E0,5.711126638636E1));
#739=DIRECTION('',(0.E0,0.E0,1.E0));
#740=DIRECTION('',(1.E0,0.E0,0.E0));
#741=AXIS2_PLACEMENT_3D('',#738,#739,#740);
#742=PLANE('',#741);
#743=ORIENTED_EDGE('',*,*,#564,.T.);
#744=ORIENTED_EDGE('',*,*,#699,.T.);
#746=ORIENTED_EDGE('',*,*,#745,.T.);
#747=ORIENTED_EDGE('',*,*,#730,.F.);
#748=ORIENTED_EDGE('',*,*,#596,.T.);
#750=ORIENTED_EDGE('',*,*,#749,.F.);
#751=ORIENTED_EDGE('',*,*,#496,.F.);
#753=ORIENTED_EDGE('',*,*,#752,.T.);
#754=EDGE_LOOP('',(#743,#744,#746,#747,#748,#750,#751,#753));
#755=FACE_OUTER_BOUND('',#754,.F.);
#756=ADVANCED_FACE('',(#755),#742,.T.);
#757=CARTESIAN_POINT('',(0.E0,1.5E2,0.E0));
#758=DIRECTION('',(0.E0,1.E0,0.E0));
#759=DIRECTION('',(1.E0,0.E0,0.E0));
#760=AXIS2_PLACEMENT_3D('',#757,#758,#759);
#761=PLANE('',#760);
#762=ORIENTED_EDGE('',*,*,#697,.F.);
#763=ORIENTED_EDGE('',*,*,#712,.F.);
#764=ORIENTED_EDGE('',*,*,#732,.F.);
#765=ORIENTED_EDGE('',*,*,#745,.F.);
#766=EDGE_LOOP('',(#762,#763,#764,#765));
#767=FACE_OUTER_BOUND('',#766,.F.);
#769=ORIENTED_EDGE('',*,*,#768,.T.);
#771=ORIENTED_EDGE('',*,*,#770,.T.);
#772=EDGE_LOOP('',(#769,#771));
#773=FACE_BOUND('',#772,.F.);
#775=ORIENTED_EDGE('',*,*,#774,.T.);
#777=ORIENTED_EDGE('',*,*,#776,.T.);
#778=EDGE_LOOP('',(#775,#777));
#779=FACE_BOUND('',#778,.F.);
#781=ORIENTED_EDGE('',*,*,#780,.T.);
#783=ORIENTED_EDGE('',*,*,#782,.T.);
#784=EDGE_LOOP('',(#781,#783));
#785=FACE_BOUND('',#784,.F.);
#787=ORIENTED_EDGE('',*,*,#786,.T.);
#789=ORIENTED_EDGE('',*,*,#788,.T.);
#790=EDGE_LOOP('',(#787,#789));
#791=FACE_BOUND('',#790,.F.);
#793=ORIENTED_EDGE('',*,*,#792,.T.);
#795=ORIENTED_EDGE('',*,*,#794,.T.);
#796=EDGE_LOOP('',(#793,#795));
#797=FACE_BOUND('',#796,.F.);
#799=ORIENTED_EDGE('',*,*,#798,.T.);
#801=ORIENTED_EDGE('',*,*,#800,.T.);
#802=EDGE_LOOP('',(#799,#801));
#803=FACE_BOUND('',#802,.F.);
#804=ADVANCED_FACE('',(#767,#773,#779,#785,#791,#797,#803),#761,.T.);
#805=CARTESIAN_POINT('',(-8.E1,1.5E2,1.E1));
#806=DIRECTION('',(0.E0,1.E0,0.E0));
#807=DIRECTION('',(1.E0,0.E0,0.E0));
#808=AXIS2_PLACEMENT_3D('',#805,#806,#807);
#809=CYLINDRICAL_SURFACE('',#808,1.125E1);
#810=ORIENTED_EDGE('',*,*,#768,.F.);
#812=ORIENTED_EDGE('',*,*,#811,.T.);
#814=ORIENTED_EDGE('',*,*,#813,.T.);
#816=ORIENTED_EDGE('',*,*,#815,.F.);
#817=EDGE_LOOP('',(#810,#812,#814,#816));
#818=FACE_OUTER_BOUND('',#817,.F.);
#819=ADVANCED_FACE('',(#818),#809,.F.);
#820=CARTESIAN_POINT('',(-8.E1,1.5E2,1.E1));
#821=DIRECTION('',(0.E0,1.E0,0.E0));
#822=DIRECTION('',(1.E0,0.E0,0.E0));
#823=AXIS2_PLACEMENT_3D('',#820,#821,#822);
#824=CYLINDRICAL_SURFACE('',#823,1.125E1);
#825=ORIENTED_EDGE('',*,*,#770,.F.);
#826=ORIENTED_EDGE('',*,*,#815,.T.);
#828=ORIENTED_EDGE('',*,*,#827,.T.);
#829=ORIENTED_EDGE('',*,*,#811,.F.);
#830=EDGE_LOOP('',(#825,#826,#828,#829));
#831=FACE_OUTER_BOUND('',#830,.F.);
#832=ADVANCED_FACE('',(#831),#824,.F.);
#833=CARTESIAN_POINT('',(0.E0,1.4E2,0.E0));
#834=DIRECTION('',(0.E0,1.E0,0.E0));
#835=DIRECTION('',(1.E0,0.E0,0.E0));
#836=AXIS2_PLACEMENT_3D('',#833,#834,#835);
#837=PLANE('',#836);
#838=ORIENTED_EDGE('',*,*,#813,.F.);
#839=ORIENTED_EDGE('',*,*,#827,.F.);
#840=EDGE_LOOP('',(#838,#839));
#841=FACE_OUTER_BOUND('',#840,.F.);
#842=ADVANCED_FACE('',(#841),#837,.T.);
#843=CARTESIAN_POINT('',(-5.E1,1.5E2,1.E1));
#844=DIRECTION('',(0.E0,1.E0,0.E0));
#845=DIRECTION('',(1.E0,0.E0,0.E0));
#846=AXIS2_PLACEMENT_3D('',#843,#844,#845);
#847=CYLINDRICAL_SURFACE('',#846,1.125E1);
#848=ORIENTED_EDGE('',*,*,#774,.F.);
#850=ORIENTED_EDGE('',*,*,#849,.T.);
#852=ORIENTED_EDGE('',*,*,#851,.T.);
#854=ORIENTED_EDGE('',*,*,#853,.F.);
#855=EDGE_LOOP('',(#848,#850,#852,#854));
#856=FACE_OUTER_BOUND('',#855,.F.);
#857=ADVANCED_FACE('',(#856),#847,.F.);
#858=CARTESIAN_POINT('',(-5.E1,1.5E2,1.E1));
#859=DIRECTION('',(0.E0,1.E0,0.E0));
#860=DIRECTION('',(1.E0,0.E0,0.E0));
#861=AXIS2_PLACEMENT_3D('',#858,#859,#860);
#862=CYLINDRICAL_SURFACE('',#861,1.125E1);
#863=ORIENTED_EDGE('',*,*,#776,.F.);
#864=ORIENTED_EDGE('',*,*,#853,.T.);
#866=ORIENTED_EDGE('',*,*,#865,.T.);
#867=ORIENTED_EDGE('',*,*,#849,.F.);
#868=EDGE_LOOP('',(#863,#864,#866,#867));
#869=FACE_OUTER_BOUND('',#868,.F.);
#870=ADVANCED_FACE('',(#869),#862,.F.);
#871=CARTESIAN_POINT('',(3.E1,1.4E2,0.E0));
#872=DIRECTION('',(0.E0,1.E0,0.E0));
#873=DIRECTION('',(1.E0,0.E0,0.E0));
#874=AXIS2_PLACEMENT_3D('',#871,#872,#873);
#875=PLANE('',#874);
#876=ORIENTED_EDGE('',*,*,#851,.F.);
#877=ORIENTED_EDGE('',*,*,#865,.F.);
#878=EDGE_LOOP('',(#876,#877));
#879=FACE_OUTER_BOUND('',#878,.F.);
#880=ADVANCED_FACE('',(#879),#875,.T.);
#881=CARTESIAN_POINT('',(-2.E1,1.5E2,1.E1));
#882=DIRECTION('',(0.E0,1.E0,0.E0));
#883=DIRECTION('',(1.E0,0.E0,0.E0));
#884=AXIS2_PLACEMENT_3D('',#881,#882,#883);
#885=CYLINDRICAL_SURFACE('',#884,1.125E1);
#886=ORIENTED_EDGE('',*,*,#780,.F.);
#888=ORIENTED_EDGE('',*,*,#887,.T.);
#890=ORIENTED_EDGE('',*,*,#889,.T.);
#892=ORIENTED_EDGE('',*,*,#891,.F.);
#893=EDGE_LOOP('',(#886,#888,#890,#892));
#894=FACE_OUTER_BOUND('',#893,.F.);
#895=ADVANCED_FACE('',(#894),#885,.F.);
#896=CARTESIAN_POINT('',(-2.E1,1.5E2,1.E1));
#897=DIRECTION('',(0.E0,1.E0,0.E0));
#898=DIRECTION('',(1.E0,0.E0,0.E0));
#899=AXIS2_PLACEMENT_3D('',#896,#897,#898);
#900=CYLINDRICAL_SURFACE('',#899,1.125E1);
#901=ORIENTED_EDGE('',*,*,#782,.F.);
#902=ORIENTED_EDGE('',*,*,#891,.T.);
#904=ORIENTED_EDGE('',*,*,#903,.T.);
#905=ORIENTED_EDGE('',*,*,#887,.F.);
#906=EDGE_LOOP('',(#901,#902,#904,#905));
#907=FACE_OUTER_BOUND('',#906,.F.);
#908=ADVANCED_FACE('',(#907),#900,.F.);
#909=CARTESIAN_POINT('',(6.E1,1.4E2,0.E0));
#910=DIRECTION('',(0.E0,1.E0,0.E0));
#911=DIRECTION('',(1.E0,0.E0,0.E0));
#912=AXIS2_PLACEMENT_3D('',#909,#910,#911);
#913=PLANE('',#912);
#914=ORIENTED_EDGE('',*,*,#889,.F.);
#915=ORIENTED_EDGE('',*,*,#903,.F.);
#916=EDGE_LOOP('',(#914,#915));
#917=FACE_OUTER_BOUND('',#916,.F.);
#918=ADVANCED_FACE('',(#917),#913,.T.);
#919=CARTESIAN_POINT('',(-8.E1,1.5E2,4.E1));
#920=DIRECTION('',(0.E0,1.E0,0.E0));
#921=DIRECTION('',(1.E0,0.E0,0.E0));
#922=AXIS2_PLACEMENT_3D('',#919,#920,#921);
#923=CYLINDRICAL_SURFACE('',#922,1.125E1);
#924=ORIENTED_EDGE('',*,*,#786,.F.);
#926=ORIENTED_EDGE('',*,*,#925,.T.);
#928=ORIENTED_EDGE('',*,*,#927,.T.);
#930=ORIENTED_EDGE('',*,*,#929,.F.);
#931=EDGE_LOOP('',(#924,#926,#928,#930));
#932=FACE_OUTER_BOUND('',#931,.F.);
#933=ADVANCED_FACE('',(#932),#923,.F.);
#934=CARTESIAN_POINT('',(-8.E1,1.5E2,4.E1));
#935=DIRECTION('',(0.E0,1.E0,0.E0));
#936=DIRECTION('',(1.E0,0.E0,0.E0));
#937=AXIS2_PLACEMENT_3D('',#934,#935,#936);
#938=CYLINDRICAL_SURFACE('',#937,1.125E1);
#939=ORIENTED_EDGE('',*,*,#788,.F.);
#940=ORIENTED_EDGE('',*,*,#929,.T.);
#942=ORIENTED_EDGE('',*,*,#941,.T.);
#943=ORIENTED_EDGE('',*,*,#925,.F.);
#944=EDGE_LOOP('',(#939,#940,#942,#943));
#945=FACE_OUTER_BOUND('',#944,.F.);
#946=ADVANCED_FACE('',(#945),#938,.F.);
#947=CARTESIAN_POINT('',(0.E0,1.4E2,3.E1));
#948=DIRECTION('',(0.E0,1.E0,0.E0));
#949=DIRECTION('',(1.E0,0.E0,0.E0));
#950=AXIS2_PLACEMENT_3D('',#947,#948,#949);
#951=PLANE('',#950);
#952=ORIENTED_EDGE('',*,*,#927,.F.);
#953=ORIENTED_EDGE('',*,*,#941,.F.);
#954=EDGE_LOOP('',(#952,#953));
#955=FACE_OUTER_BOUND('',#954,.F.);
#956=ADVANCED_FACE('',(#955),#951,.T.);
#957=CARTESIAN_POINT('',(-5.E1,1.5E2,4.E1));
#958=DIRECTION('',(0.E0,1.E0,0.E0));
#959=DIRECTION('',(1.E0,0.E0,0.E0));
#960=AXIS2_PLACEMENT_3D('',#957,#958,#959);
#961=CYLINDRICAL_SURFACE('',#960,1.125E1);
#962=ORIENTED_EDGE('',*,*,#792,.F.);
#964=ORIENTED_EDGE('',*,*,#963,.T.);
#966=ORIENTED_EDGE('',*,*,#965,.T.);
#968=ORIENTED_EDGE('',*,*,#967,.F.);
#969=EDGE_LOOP('',(#962,#964,#966,#968));
#970=FACE_OUTER_BOUND('',#969,.F.);
#971=ADVANCED_FACE('',(#970),#961,.F.);
#972=CARTESIAN_POINT('',(-5.E1,1.5E2,4.E1));
#973=DIRECTION('',(0.E0,1.E0,0.E0));
#974=DIRECTION('',(1.E0,0.E0,0.E0));
#975=AXIS2_PLACEMENT_3D('',#972,#973,#974);
#976=CYLINDRICAL_SURFACE('',#975,1.125E1);
#977=ORIENTED_EDGE('',*,*,#794,.F.);
#978=ORIENTED_EDGE('',*,*,#967,.T.);
#980=ORIENTED_EDGE('',*,*,#979,.T.);
#981=ORIENTED_EDGE('',*,*,#963,.F.);
#982=EDGE_LOOP('',(#977,#978,#980,#981));
#983=FACE_OUTER_BOUND('',#982,.F.);
#984=ADVANCED_FACE('',(#983),#976,.F.);
#985=CARTESIAN_POINT('',(3.E1,1.4E2,3.E1));
#986=DIRECTION('',(0.E0,1.E0,0.E0));
#987=DIRECTION('',(1.E0,0.E0,0.E0));
#988=AXIS2_PLACEMENT_3D('',#985,#986,#987);
#989=PLANE('',#988);
#990=ORIENTED_EDGE('',*,*,#965,.F.);
#991=ORIENTED_EDGE('',*,*,#979,.F.);
#992=EDGE_LOOP('',(#990,#991));
#993=FACE_OUTER_BOUND('',#992,.F.);
#994=ADVANCED_FACE('',(#993),#989,.T.);
#995=CARTESIAN_POINT('',(-2.E1,1.5E2,4.E1));
#996=DIRECTION('',(0.E0,1.E0,0.E0));
#997=DIRECTION('',(1.E0,0.E0,0.E0));
#998=AXIS2_PLACEMENT_3D('',#995,#996,#997);
#999=CYLINDRICAL_SURFACE('',#998,1.125E1);
#1000=ORIENTED_EDGE('',*,*,#798,.F.);
#1002=ORIENTED_EDGE('',*,*,#1001,.T.);
#1004=ORIENTED_EDGE('',*,*,#1003,.T.);
#1006=ORIENTED_EDGE('',*,*,#1005,.F.);
#1007=EDGE_LOOP('',(#1000,#1002,#1004,#1006));
#1008=FACE_OUTER_BOUND('',#1007,.F.);
#1009=ADVANCED_FACE('',(#1008),#999,.F.);
#1010=CARTESIAN_POINT('',(-2.E1,1.5E2,4.E1));
#1011=DIRECTION('',(0.E0,1.E0,0.E0));
#1012=DIRECTION('',(1.E0,0.E0,0.E0));
#1013=AXIS2_PLACEMENT_3D('',#1010,#1011,#1012);
#1014=CYLINDRICAL_SURFACE('',#1013,1.125E1);
#1015=ORIENTED_EDGE('',*,*,#800,.F.);
#1016=ORIENTED_EDGE('',*,*,#1005,.T.);
#1018=ORIENTED_EDGE('',*,*,#1017,.T.);
#1019=ORIENTED_EDGE('',*,*,#1001,.F.);
#1020=EDGE_LOOP('',(#1015,#1016,#1018,#1019));
#1021=FACE_OUTER_BOUND('',#1020,.F.);
#1022=ADVANCED_FACE('',(#1021),#1014,.F.);
#1023=CARTESIAN_POINT('',(6.E1,1.4E2,3.E1));
#1024=DIRECTION('',(0.E0,1.E0,0.E0));
#1025=DIRECTION('',(1.E0,0.E0,0.E0));
#1026=AXIS2_PLACEMENT_3D('',#1023,#1024,#1025);
#1027=PLANE('',#1026);
#1028=ORIENTED_EDGE('',*,*,#1003,.F.);
#1029=ORIENTED_EDGE('',*,*,#1017,.F.);
#1030=EDGE_LOOP('',(#1028,#1029));
#1031=FACE_OUTER_BOUND('',#1030,.F.);
#1032=ADVANCED_FACE('',(#1031),#1027,.T.);
#1033=CARTESIAN_POINT('',(6.564953659759E0,0.E0,5.711126638636E1));
#1034=DIRECTION('',(1.E0,0.E0,0.E0));
#1035=DIRECTION('',(0.E0,0.E0,-1.E0));
#1036=AXIS2_PLACEMENT_3D('',#1033,#1034,#1035);
#1037=PLANE('',#1036);
#1038=ORIENTED_EDGE('',*,*,#498,.F.);
#1039=ORIENTED_EDGE('',*,*,#749,.T.);
#1040=ORIENTED_EDGE('',*,*,#594,.T.);
#1041=ORIENTED_EDGE('',*,*,#719,.F.);
#1042=EDGE_LOOP('',(#1038,#1039,#1040,#1041));
#1043=FACE_OUTER_BOUND('',#1042,.F.);
#1044=ADVANCED_FACE('',(#1043),#1037,.T.);
#1045=CARTESIAN_POINT('',(-1.065649536598E2,0.E0,-7.111266386358E0));
#1046=DIRECTION('',(-1.E0,0.E0,0.E0));
#1047=DIRECTION('',(0.E0,0.E0,1.E0));
#1048=AXIS2_PLACEMENT_3D('',#1045,#1046,#1047);
#1049=PLANE('',#1048);
#1050=ORIENTED_EDGE('',*,*,#494,.F.);
#1051=ORIENTED_EDGE('',*,*,#716,.T.);
#1052=ORIENTED_EDGE('',*,*,#566,.T.);
#1053=ORIENTED_EDGE('',*,*,#752,.F.);
#1054=EDGE_LOOP('',(#1050,#1051,#1052,#1053));
#1055=FACE_OUTER_BOUND('',#1054,.F.);
#1056=ADVANCED_FACE('',(#1055),#1049,.T.);
#1060=DIMENSIONAL_EXPONENTS(0.E0,0.E0,0.E0,0.E0,0.E0,0.E0,0.E0);
#1062=PLANE_ANGLE_MEASURE_WITH_UNIT(PLANE_ANGLE_MEASURE(1.745329251994E-2),
#1061);
#1063=(CONVERSION_BASED_UNIT('DEGREE',#1062)NAMED_UNIT(*)PLANE_ANGLE_UNIT());
#1065=UNCERTAINTY_MEASURE_WITH_UNIT(LENGTH_MEASURE(9.906E-3),#1059,'closure',
'Maximum model space distance between geometric entities at asserted connectivities');
#1066=(GEOMETRIC_REPRESENTATION_CONTEXT(3)GLOBAL_UNCERTAINTY_ASSIGNED_CONTEXT((
#1065))GLOBAL_UNIT_ASSIGNED_CONTEXT((#1059,#1063,#1064))REPRESENTATION_CONTEXT(
'ID1','3'));
#1068=APPLICATION_CONTEXT(
'CONFIGURATION CONTROLLED 3D DESIGNS OF MECHANICAL PARTS AND ASSEMBLIES');
#1069=APPLICATION_PROTOCOL_DEFINITION('international standard',
'config_control_design',1994,#1068);
#1070=DESIGN_CONTEXT('',#1068,'design');
#1071=MECHANICAL_CONTEXT('',#1068,'mechanical');
#1072=PRODUCT('VIALRACK','VIALRACK','NOT SPECIFIED',(#1071));
#1073=PRODUCT_DEFINITION_FORMATION_WITH_SPECIFIED_SOURCE('6','LAST_VERSION',
#1072,.MADE.);
#1077=PRODUCT_CATEGORY('part','');
#1078=PRODUCT_RELATED_PRODUCT_CATEGORY('detail','',(#1072));
#1079=PRODUCT_CATEGORY_RELATIONSHIP('','',#1077,#1078);
#1080=SECURITY_CLASSIFICATION_LEVEL('unclassified');
#1081=SECURITY_CLASSIFICATION('','',#1080);
#1082=CC_DESIGN_SECURITY_CLASSIFICATION(#1081,(#1073));
#1083=APPROVAL_STATUS('approved');
#1084=APPROVAL(#1083,'');
#1085=CC_DESIGN_APPROVAL(#1084,(#1081,#1073,#1074));
#1086=CALENDAR_DATE(126,29,5);
#1087=COORDINATED_UNIVERSAL_TIME_OFFSET(9,0,.AHEAD.);
#1088=LOCAL_TIME(11,34,2.2E1,#1087);
#1089=DATE_AND_TIME(#1086,#1088);
#1090=APPROVAL_DATE_TIME(#1089,#1084);
#1091=DATE_TIME_ROLE('creation_date');
#1092=CC_DESIGN_DATE_AND_TIME_ASSIGNMENT(#1089,#1091,(#1074));
#1093=DATE_TIME_ROLE('classification_date');
#1094=CC_DESIGN_DATE_AND_TIME_ASSIGNMENT(#1089,#1093,(#1081));
#1095=PERSON('UNSPECIFIED','UNSPECIFIED',$,$,$,$);
#1096=ORGANIZATION('UNSPECIFIED','UNSPECIFIED','UNSPECIFIED');
#1097=PERSON_AND_ORGANIZATION(#1095,#1096);
#1098=APPROVAL_ROLE('approver');
#1099=APPROVAL_PERSON_ORGANIZATION(#1097,#1084,#1098);
#1100=PERSON_AND_ORGANIZATION_ROLE('creator');
#1101=CC_DESIGN_PERSON_AND_ORGANIZATION_ASSIGNMENT(#1097,#1100,(#1073,#1074));
#1102=PERSON_AND_ORGANIZATION_ROLE('design_supplier');
#1103=CC_DESIGN_PERSON_AND_ORGANIZATION_ASSIGNMENT(#1097,#1102,(#1073));
#1104=PERSON_AND_ORGANIZATION_ROLE('classification_officer');
#1105=CC_DESIGN_PERSON_AND_ORGANIZATION_ASSIGNMENT(#1097,#1104,(#1081));
#1106=PERSON_AND_ORGANIZATION_ROLE('design_owner');
#1107=CC_DESIGN_PERSON_AND_ORGANIZATION_ASSIGNMENT(#1097,#1106,(#1072));
#5=CIRCLE('',#4,3.5E0);
#10=CIRCLE('',#9,3.5E0);
#15=CIRCLE('',#14,3.5E0);
#20=CIRCLE('',#19,3.5E0);
#25=CIRCLE('',#24,3.5E0);
#30=CIRCLE('',#29,3.5E0);
#35=CIRCLE('',#34,3.5E0);
#40=CIRCLE('',#39,3.5E0);
#69=CIRCLE('',#68,3.5E0);
#74=CIRCLE('',#73,3.5E0);
#79=CIRCLE('',#78,3.5E0);
#84=CIRCLE('',#83,3.5E0);
#89=CIRCLE('',#88,3.5E0);
#94=CIRCLE('',#93,3.5E0);
#99=CIRCLE('',#98,3.5E0);
#104=CIRCLE('',#103,3.5E0);
#205=CIRCLE('',#204,1.125E1);
#210=CIRCLE('',#209,1.125E1);
#215=CIRCLE('',#214,1.125E1);
#220=CIRCLE('',#219,1.125E1);
#225=CIRCLE('',#224,1.125E1);
#230=CIRCLE('',#229,1.125E1);
#235=CIRCLE('',#234,1.125E1);
#240=CIRCLE('',#239,1.125E1);
#245=CIRCLE('',#244,1.125E1);
#250=CIRCLE('',#249,1.125E1);
#255=CIRCLE('',#254,1.125E1);
#260=CIRCLE('',#259,1.125E1);
#273=CIRCLE('',#272,1.125E1);
#278=CIRCLE('',#277,1.125E1);
#291=CIRCLE('',#290,1.125E1);
#296=CIRCLE('',#295,1.125E1);
#309=CIRCLE('',#308,1.125E1);
#314=CIRCLE('',#313,1.125E1);
#327=CIRCLE('',#326,1.125E1);
#332=CIRCLE('',#331,1.125E1);
#345=CIRCLE('',#344,1.125E1);
#350=CIRCLE('',#349,1.125E1);
#363=CIRCLE('',#362,1.125E1);
#368=CIRCLE('',#367,1.125E1);
#494=EDGE_CURVE('',#395,#396,#44,.T.);
#496=EDGE_CURVE('',#396,#398,#48,.T.);
#498=EDGE_CURVE('',#398,#400,#52,.T.);
#500=EDGE_CURVE('',#400,#395,#56,.T.);
#504=EDGE_CURVE('',#383,#384,#15,.T.);
#506=EDGE_CURVE('',#384,#383,#20,.T.);
#510=EDGE_CURVE('',#387,#388,#25,.T.);
#512=EDGE_CURVE('',#388,#387,#30,.T.);
#516=EDGE_CURVE('',#391,#392,#35,.T.);
#518=EDGE_CURVE('',#392,#391,#40,.T.);
#522=EDGE_CURVE('',#379,#380,#5,.T.);
#524=EDGE_CURVE('',#380,#379,#10,.T.);
#535=EDGE_CURVE('',#379,#403,#60,.T.);
#537=EDGE_CURVE('',#403,#404,#69,.T.);
#539=EDGE_CURVE('',#380,#404,#64,.T.);
#551=EDGE_CURVE('',#404,#403,#74,.T.);
#562=EDGE_CURVE('',#435,#436,#108,.T.);
#564=EDGE_CURVE('',#420,#435,#112,.T.);
#566=EDGE_CURVE('',#419,#420,#116,.T.);
#568=EDGE_CURVE('',#436,#419,#120,.T.);
#572=EDGE_CURVE('',#407,#408,#79,.T.);
#574=EDGE_CURVE('',#408,#407,#84,.T.);
#578=EDGE_CURVE('',#411,#412,#89,.T.);
#580=EDGE_CURVE('',#412,#411,#94,.T.);
#590=EDGE_CURVE('',#439,#440,#124,.T.);
#592=EDGE_CURVE('',#424,#440,#128,.T.);
#594=EDGE_CURVE('',#423,#424,#132,.T.);
#596=EDGE_CURVE('',#439,#423,#136,.T.);
#604=EDGE_CURVE('',#415,#416,#99,.T.);
#606=EDGE_CURVE('',#416,#415,#104,.T.);
#617=EDGE_CURVE('',#383,#407,#140,.T.);
#620=EDGE_CURVE('',#384,#408,#144,.T.);
#643=EDGE_CURVE('',#387,#411,#148,.T.);
#646=EDGE_CURVE('',#388,#412,#152,.T.);
#669=EDGE_CURVE('',#391,#415,#156,.T.);
#672=EDGE_CURVE('',#392,#416,#160,.T.);
#695=EDGE_CURVE('',#436,#427,#164,.T.);
#697=EDGE_CURVE('',#427,#428,#188,.T.);
#699=EDGE_CURVE('',#435,#428,#180,.T.);
#710=EDGE_CURVE('',#440,#432,#168,.T.);
#712=EDGE_CURVE('',#432,#427,#192,.T.);
#716=EDGE_CURVE('',#395,#419,#376,.T.);
#719=EDGE_CURVE('',#400,#424,#172,.T.);
#730=EDGE_CURVE('',#439,#430,#176,.T.);
#732=EDGE_CURVE('',#430,#432,#196,.T.);
#745=EDGE_CURVE('',#428,#430,#200,.T.);
#749=EDGE_CURVE('',#398,#423,#372,.T.);
#752=EDGE_CURVE('',#396,#420,#184,.T.);
#768=EDGE_CURVE('',#447,#448,#205,.T.);
#770=EDGE_CURVE('',#448,#447,#210,.T.);
#774=EDGE_CURVE('',#455,#456,#215,.T.);
#776=EDGE_CURVE('',#456,#455,#220,.T.);
#780=EDGE_CURVE('',#463,#464,#225,.T.);
#782=EDGE_CURVE('',#464,#463,#230,.T.);
#786=EDGE_CURVE('',#471,#472,#235,.T.);
#788=EDGE_CURVE('',#472,#471,#240,.T.);
#792=EDGE_CURVE('',#479,#480,#245,.T.);
#794=EDGE_CURVE('',#480,#479,#250,.T.);
#798=EDGE_CURVE('',#487,#488,#255,.T.);
#800=EDGE_CURVE('',#488,#487,#260,.T.);
#811=EDGE_CURVE('',#447,#443,#264,.T.);
#813=EDGE_CURVE('',#443,#444,#273,.T.);
#815=EDGE_CURVE('',#448,#444,#268,.T.);
#827=EDGE_CURVE('',#444,#443,#278,.T.);
#849=EDGE_CURVE('',#455,#451,#282,.T.);
#851=EDGE_CURVE('',#451,#452,#291,.T.);
#853=EDGE_CURVE('',#456,#452,#286,.T.);
#865=EDGE_CURVE('',#452,#451,#296,.T.);
#887=EDGE_CURVE('',#463,#459,#300,.T.);
#889=EDGE_CURVE('',#459,#460,#309,.T.);
#891=EDGE_CURVE('',#464,#460,#304,.T.);
#903=EDGE_CURVE('',#460,#459,#314,.T.);
#925=EDGE_CURVE('',#471,#467,#318,.T.);
#927=EDGE_CURVE('',#467,#468,#327,.T.);
#929=EDGE_CURVE('',#472,#468,#322,.T.);
#941=EDGE_CURVE('',#468,#467,#332,.T.);
#963=EDGE_CURVE('',#479,#475,#336,.T.);
#965=EDGE_CURVE('',#475,#476,#345,.T.);
#967=EDGE_CURVE('',#480,#476,#340,.T.);
#979=EDGE_CURVE('',#476,#475,#350,.T.);
#1001=EDGE_CURVE('',#487,#483,#354,.T.);
#1003=EDGE_CURVE('',#483,#484,#363,.T.);
#1005=EDGE_CURVE('',#488,#484,#358,.T.);
#1017=EDGE_CURVE('',#484,#483,#368,.T.);
#1057=CLOSED_SHELL('',(#528,#543,#556,#584,#610,#624,#636,#650,#662,#676,#688,
#703,#723,#737,#756,#804,#819,#832,#842,#857,#870,#880,#895,#908,#918,#933,#946,
#956,#971,#984,#994,#1009,#1022,#1032,#1044,#1056));
#1058=MANIFOLD_SOLID_BREP('',#1057);
#1059=(LENGTH_UNIT()NAMED_UNIT(*)SI_UNIT(.MILLI.,.METRE.));
#1061=(NAMED_UNIT(*)PLANE_ANGLE_UNIT()SI_UNIT($,.RADIAN.));
#1064=(NAMED_UNIT(*)SI_UNIT($,.STERADIAN.)SOLID_ANGLE_UNIT());
#1067=ADVANCED_BREP_SHAPE_REPRESENTATION('',(#1058),#1066);
#1074=PRODUCT_DEFINITION('design','',#1073,#1070);
#1075=PRODUCT_DEFINITION_SHAPE('','SHAPE FOR VIALRACK.',#1074);
#1076=SHAPE_DEFINITION_REPRESENTATION(#1075,#1067);
ENDSEC;
END-ISO-10303-21;
